<svg width="191" height="49" viewBox="0 0 191 49" fill="none" xmlns="http://www.w3.org/2000/svg">
<g clip-path="url(#clip0_2072_90)">
<mask id="mask0_2072_90" style="mask-type:luminance" maskUnits="userSpaceOnUse" x="0" y="0" width="191" height="49">
<path d="M190.64 0H0V48.66H190.64V0Z" fill="white"/>
</mask>
<g mask="url(#mask0_2072_90)">
<path d="M14.33 11.9L9.24 26.45L7.6 31.22H0L10.44 3.78998H18.23L28.67 31.22H21.07L19.43 26.45L14.34 11.9H14.33Z" fill="#3E3F55"/>
<path d="M52.3501 12.95C50.7001 10.94 48.6601 9.93 46.2401 9.93C45.1701 9.93 44.1801 10.12 43.2701 10.51C42.3601 10.9 41.5801 11.43 40.9201 12.09C40.2701 12.76 39.7501 13.55 39.3701 14.47C38.9901 15.39 38.8101 16.39 38.8101 17.45C38.8101 18.51 39.0001 19.55 39.3701 20.47C39.7501 21.39 40.2701 22.19 40.9301 22.87C41.6001 23.55 42.3801 24.08 43.2801 24.47C44.1801 24.86 45.1501 25.05 46.1901 25.05C48.4701 25.05 50.5201 24.08 52.3401 22.14V30.58L51.6101 30.83C50.5201 31.22 49.5001 31.5 48.5501 31.68C47.6001 31.86 46.6701 31.95 45.7501 31.95C43.8601 31.95 42.0501 31.59 40.3101 30.88C38.5801 30.16 37.0501 29.16 35.7301 27.86C34.4101 26.56 33.3501 25.02 32.5501 23.24C31.7501 21.46 31.3501 19.51 31.3501 17.4C31.3501 15.29 31.7401 13.36 32.5301 11.6C33.3201 9.84 34.3701 8.33 35.7001 7.05C37.0201 5.78 38.5601 4.78 40.3001 4.07C42.0501 3.35 43.8801 3 45.7901 3C46.8801 3 47.9501 3.12 49.0101 3.35C50.0701 3.58 51.1701 3.94 52.3401 4.42V12.93L52.3501 12.95Z" fill="#3E3F55"/>
<path d="M57.8401 17.5C57.8401 15.46 58.2201 13.57 58.9701 11.81C59.7201 10.05 60.7601 8.52003 62.1001 7.21003C63.4301 5.90003 65.0301 4.88003 66.8801 4.14003C68.7401 3.40003 70.7801 3.03003 73.0101 3.03003C75.2401 3.03003 77.2501 3.40003 79.1201 4.14003C80.9901 4.88003 82.5901 5.90003 83.9401 7.21003C85.2901 8.52003 86.3301 10.05 87.0901 11.81C87.8401 13.57 88.2201 15.47 88.2201 17.5C88.2201 19.53 87.8401 21.44 87.0901 23.19C86.3401 24.95 85.2901 26.48 83.9401 27.79C82.5901 29.1 80.9901 30.12 79.1201 30.86C77.2501 31.6 75.2101 31.97 73.0101 31.97C70.8101 31.97 68.7401 31.6 66.8801 30.86C65.0201 30.12 63.4301 29.1 62.1001 27.79C60.7701 26.48 59.7201 24.95 58.9701 23.19C58.2201 21.43 57.8401 19.53 57.8401 17.5ZM65.3001 17.5C65.3001 18.59 65.5101 19.6 65.9201 20.52C66.3301 21.44 66.8901 22.24 67.5901 22.92C68.2901 23.6 69.1101 24.13 70.0501 24.5C70.9801 24.88 71.9701 25.06 73.0201 25.06C74.0701 25.06 75.0501 24.87 75.9801 24.5C76.9101 24.12 77.7401 23.6 78.4501 22.92C79.1601 22.24 79.7301 21.44 80.1401 20.52C80.5501 19.6 80.7601 18.59 80.7601 17.5C80.7601 16.41 80.5501 15.4 80.1401 14.48C79.7301 13.56 79.1601 12.76 78.4501 12.08C77.7301 11.4 76.9101 10.87 75.9801 10.5C75.0501 10.12 74.0601 9.94003 73.0201 9.94003C71.9801 9.94003 70.9901 10.13 70.0501 10.5C69.1201 10.88 68.3001 11.4 67.5901 12.08C66.8901 12.76 66.3301 13.56 65.9201 14.48C65.5101 15.4 65.3001 16.41 65.3001 17.5Z" fill="#3E3F55"/>
<path d="M101.68 31.22H94.55V3.78998H105.9C108.98 3.78998 111.34 4.58998 112.98 6.18998C114.62 7.78998 115.44 10.05 115.44 12.96C115.44 15.87 114.62 18.13 112.98 19.73C111.34 21.33 108.98 22.13 105.9 22.13H101.68V31.23V31.22ZM101.68 16.37H104.04C106.66 16.37 107.97 15.23 107.97 12.95C107.97 10.67 106.66 9.52998 104.04 9.52998H101.68V16.37Z" fill="#3E3F55"/>
<path d="M119.8 17.5C119.8 15.46 120.18 13.57 120.93 11.81C121.68 10.05 122.72 8.52003 124.06 7.21003C125.39 5.90003 126.99 4.88003 128.84 4.14003C130.7 3.40003 132.74 3.03003 134.97 3.03003C137.2 3.03003 139.21 3.40003 141.08 4.14003C142.95 4.88003 144.55 5.90003 145.9 7.21003C147.25 8.52003 148.29 10.05 149.05 11.81C149.8 13.57 150.18 15.47 150.18 17.5C150.18 19.53 149.8 21.44 149.05 23.19C148.3 24.95 147.25 26.48 145.9 27.79C144.55 29.1 142.95 30.12 141.08 30.86C139.21 31.6 137.17 31.97 134.97 31.97C132.77 31.97 130.7 31.6 128.84 30.86C126.98 30.12 125.39 29.1 124.06 27.79C122.73 26.48 121.68 24.95 120.93 23.19C120.18 21.43 119.8 19.53 119.8 17.5ZM127.26 17.5C127.26 18.59 127.47 19.6 127.88 20.52C128.29 21.44 128.85 22.24 129.55 22.92C130.25 23.6 131.07 24.13 132.01 24.5C132.94 24.88 133.93 25.06 134.98 25.06C136.03 25.06 137.01 24.87 137.94 24.5C138.87 24.12 139.7 23.6 140.41 22.92C141.12 22.24 141.69 21.44 142.1 20.52C142.51 19.6 142.72 18.59 142.72 17.5C142.72 16.41 142.51 15.4 142.1 14.48C141.69 13.56 141.12 12.76 140.41 12.08C139.69 11.4 138.87 10.87 137.94 10.5C137.01 10.12 136.02 9.94003 134.98 9.94003C133.94 9.94003 132.95 10.13 132.01 10.5C131.08 10.88 130.26 11.4 129.55 12.08C128.85 12.76 128.29 13.56 127.88 14.48C127.47 15.4 127.26 16.41 127.26 17.5Z" fill="#3E3F55"/>
<path d="M156.51 31.22V3.78998H163.64L176.81 20.56V3.78998H183.9V31.22H176.81L163.64 14.45V31.22H156.51Z" fill="#3E3F55"/>
<path d="M50.6101 39.97H52.8001C53.6901 39.97 54.3401 40.14 54.7501 40.49C55.1601 40.84 55.3601 41.39 55.3601 42.14C55.3601 42.64 55.2501 43.05 55.0401 43.39C54.8301 43.72 54.5301 43.93 54.1601 44V44.06C54.6401 44.18 54.9901 44.41 55.2101 44.74C55.4201 45.07 55.5301 45.51 55.5301 46.06C55.5301 46.84 55.3201 47.45 54.9101 47.89C54.5001 48.33 53.9201 48.55 53.2001 48.55H50.6201V39.98L50.6101 39.97ZM52.1101 43.41H52.8401C53.1801 43.41 53.4101 43.32 53.5501 43.14C53.6901 42.96 53.7601 42.69 53.7601 42.34C53.7601 41.99 53.6801 41.73 53.5301 41.57C53.3701 41.42 53.1301 41.34 52.7901 41.34H52.1201V43.41H52.1101ZM52.1101 44.75V47.15H52.9101C53.2401 47.15 53.4901 47.05 53.6501 46.85C53.8101 46.65 53.8901 46.33 53.8901 45.91C53.8901 45.14 53.5501 44.76 52.8801 44.76H52.1001L52.1101 44.75Z" fill="#3E3F55"/>
<path d="M61.29 45.2V48.54H59.7V39.97H61.79C62.67 39.97 63.33 40.18 63.75 40.6C64.17 41.02 64.3798 41.66 64.3798 42.52C64.3798 43.6 64.0099 44.36 63.2799 44.79L64.93 48.55H63.22L61.8699 45.21H61.2999L61.29 45.2ZM61.29 43.83H61.7C62.08 43.83 62.3398 43.72 62.5098 43.51C62.6698 43.3 62.7598 42.98 62.7598 42.56C62.7598 42.14 62.67 41.81 62.5 41.62C62.33 41.43 62.0598 41.34 61.6898 41.34H61.29V43.83Z" fill="#3E3F55"/>
<path d="M72.56 48.54H68.7V39.97H72.56V41.35H70.29V43.39H72.39V44.77H70.29V47.14H72.56V48.54Z" fill="#3E3F55"/>
<path d="M83.9099 48.54H81.9199L81.0799 44.05C80.9499 43.44 80.8599 42.71 80.7999 41.88L80.7499 42.31L80.5099 44.07L79.6999 48.54H77.7099L76.1599 39.97H77.7299L78.4999 44.81C78.5699 45.29 78.6699 46.05 78.7999 47.09C78.8999 46.04 78.9899 45.29 79.0799 44.84L79.9899 39.97H81.6399L82.5499 44.84C82.6699 45.56 82.7699 46.32 82.8399 47.1C82.9799 45.94 83.0799 45.18 83.1399 44.81L83.8799 39.97H85.4599L83.9199 48.54H83.9099Z" fill="#3E3F55"/>
<path d="M89.6101 48.54V39.97H91.1101V48.54H89.6101Z" fill="#3E3F55"/>
<path d="M101.92 48.54H99.9699L97.3199 42.33H97.2399C97.3399 42.8 97.3899 43.31 97.3899 43.85V48.53H95.9099V39.96H97.8699L100.5 46.1H100.56C100.49 45.69 100.45 45.2 100.45 44.63V39.95H101.92V48.52V48.54Z" fill="#3E3F55"/>
<path d="M109.03 43.78H111.65V48.18C110.91 48.5 110.12 48.65 109.28 48.65C108.28 48.65 107.52 48.27 106.98 47.51C106.44 46.75 106.17 45.66 106.17 44.23C106.17 42.8 106.48 41.78 107.09 41C107.71 40.22 108.57 39.83 109.67 39.83C110.35 39.83 111.01 40.01 111.63 40.36L111.13 41.66C110.65 41.38 110.19 41.24 109.77 41.24C109.16 41.24 108.68 41.51 108.33 42.05C107.98 42.59 107.8 43.33 107.8 44.26C107.8 45.19 107.93 45.96 108.18 46.47C108.44 46.98 108.81 47.24 109.3 47.24C109.56 47.24 109.82 47.21 110.09 47.14V45.18H109.03V43.77V43.78Z" fill="#3E3F55"/>
<path d="M122.13 41.24C121.67 41.24 121.31 41.51 121.05 42.04C120.79 42.58 120.65 43.32 120.65 44.27C120.65 46.26 121.17 47.25 122.2 47.25C122.65 47.25 123.13 47.11 123.62 46.82V48.24C123.2 48.52 122.67 48.66 122.01 48.66C121.04 48.66 120.3 48.28 119.79 47.51C119.27 46.74 119.01 45.66 119.01 44.27C119.01 42.88 119.28 41.79 119.81 41.02C120.34 40.24 121.08 39.85 122.03 39.85C122.34 39.85 122.64 39.89 122.93 39.98C123.22 40.07 123.52 40.22 123.85 40.43L123.32 41.73C123.14 41.61 122.96 41.5 122.76 41.4C122.56 41.3 122.34 41.25 122.11 41.25L122.13 41.24Z" fill="#3E3F55"/>
<path d="M133.56 44.24C133.56 45.66 133.29 46.75 132.76 47.51C132.23 48.27 131.47 48.65 130.48 48.65C129.49 48.65 128.73 48.27 128.19 47.51C127.66 46.75 127.39 45.65 127.39 44.22C127.39 42.79 127.66 41.71 128.19 40.96C128.72 40.2 129.49 39.83 130.49 39.83C131.49 39.83 132.24 40.21 132.76 40.97C133.29 41.73 133.55 42.82 133.55 44.24H133.56ZM129.02 44.24C129.02 45.22 129.14 45.96 129.39 46.47C129.64 46.98 130 47.24 130.47 47.24C131.43 47.24 131.91 46.24 131.91 44.24C131.91 42.24 131.43 41.24 130.48 41.24C130 41.24 129.63 41.5 129.38 42.01C129.13 42.52 129.01 43.27 129.01 44.25L129.02 44.24Z" fill="#3E3F55"/>
<path d="M41.39 48.35C42.7044 48.35 43.77 47.2845 43.77 45.97C43.77 44.6556 42.7044 43.59 41.39 43.59C40.0756 43.59 39.01 44.6556 39.01 45.97C39.01 47.2845 40.0756 48.35 41.39 48.35Z" fill="#3E3F55"/>
<path d="M32.5198 43.61C33.3207 43.61 33.9698 42.9608 33.9698 42.16C33.9698 41.3592 33.3207 40.71 32.5198 40.71C31.719 40.71 31.0698 41.3592 31.0698 42.16C31.0698 42.9608 31.719 43.61 32.5198 43.61Z" fill="#3E3F55"/>
<path d="M23.8899 46.9C24.5637 46.9 25.1099 46.3538 25.1099 45.68C25.1099 45.0062 24.5637 44.46 23.8899 44.46C23.2162 44.46 22.6699 45.0062 22.6699 45.68C22.6699 46.3538 23.2162 46.9 23.8899 46.9Z" fill="#3E3F55"/>
<path d="M15.8502 41.42C16.3583 41.42 16.7702 41.0081 16.7702 40.5C16.7702 39.9919 16.3583 39.58 15.8502 39.58C15.3421 39.58 14.9302 39.9919 14.9302 40.5C14.9302 41.0081 15.3421 41.42 15.8502 41.42Z" fill="#3E3F55"/>
<path d="M141.9 48.35C143.214 48.35 144.28 47.2845 144.28 45.97C144.28 44.6556 143.214 43.59 141.9 43.59C140.586 43.59 139.52 44.6556 139.52 45.97C139.52 47.2845 140.586 48.35 141.9 48.35Z" fill="#3E3F55"/>
<path d="M150.78 43.61C151.581 43.61 152.23 42.9608 152.23 42.16C152.23 41.3592 151.581 40.71 150.78 40.71C149.979 40.71 149.33 41.3592 149.33 42.16C149.33 42.9608 149.979 43.61 150.78 43.61Z" fill="#3E3F55"/>
<path d="M159.41 46.9C160.084 46.9 160.63 46.3538 160.63 45.68C160.63 45.0062 160.084 44.46 159.41 44.46C158.736 44.46 158.19 45.0062 158.19 45.68C158.19 46.3538 158.736 46.9 159.41 46.9Z" fill="#3E3F55"/>
<path d="M167.44 41.42C167.948 41.42 168.36 41.0081 168.36 40.5C168.36 39.9919 167.948 39.58 167.44 39.58C166.932 39.58 166.52 39.9919 166.52 40.5C166.52 41.0081 166.932 41.42 167.44 41.42Z" fill="#3E3F55"/>
<path d="M189.85 4.64C189.32 5.17 188.68 5.44 187.92 5.44C187.16 5.44 186.53 5.17 186 4.64C185.47 4.11 185.21 3.47 185.21 2.71C185.21 1.95 185.48 1.32 186.01 0.79C186.54 0.26 187.18 0 187.92 0C188.66 0 189.31 0.26 189.85 0.79C190.39 1.32 190.65 1.96 190.65 2.71C190.65 3.46 190.38 4.11 189.85 4.64ZM186.27 1.06C185.82 1.52 185.59 2.07 185.59 2.72C185.59 3.37 185.82 3.93 186.27 4.39C186.72 4.85 187.28 5.08 187.93 5.08C188.58 5.08 189.13 4.85 189.59 4.39C190.05 3.93 190.27 3.38 190.27 2.72C190.27 2.06 190.04 1.52 189.59 1.06C189.13 0.6 188.58 0.37 187.93 0.37C187.28 0.37 186.74 0.6 186.28 1.06H186.27ZM187.87 1.21C188.24 1.21 188.51 1.25 188.68 1.32C188.99 1.45 189.14 1.7 189.14 2.08C189.14 2.35 189.04 2.54 188.85 2.67C188.75 2.74 188.6 2.79 188.42 2.82C188.65 2.86 188.82 2.95 188.93 3.11C189.04 3.27 189.09 3.42 189.09 3.57V3.79C189.09 3.86 189.09 3.93 189.09 4.01C189.09 4.09 189.1 4.14 189.12 4.17L189.14 4.21H188.65V4.18C188.65 4.18 188.64 4.16 188.64 4.15V4.05L188.63 3.81C188.63 3.47 188.54 3.24 188.35 3.13C188.24 3.07 188.04 3.03 187.76 3.03H187.35V4.2H186.82V1.21H187.86H187.87ZM188.44 1.68C188.31 1.61 188.09 1.57 187.8 1.57H187.35V2.65H187.83C188.05 2.65 188.22 2.63 188.33 2.58C188.54 2.5 188.64 2.34 188.64 2.11C188.64 1.89 188.57 1.75 188.44 1.67V1.68Z" fill="#3E3F55"/>
</g>
</g>
<defs>
<clipPath id="clip0_2072_90">
<rect width="191" height="49" fill="white"/>
</clipPath>
</defs>
</svg>
