<svg id="Layer_1" data-name="Layer 1" xmlns="http://www.w3.org/2000/svg" viewBox="0 0 100 82"><defs><style>.cls-1{fill:#3e3f55;}</style></defs><path class="cls-1" d="M38.3,30.72a6.11,6.11,0,0,1,.07-2.67,4,4,0,0,1,4.44-2,2.93,2.93,0,0,0-2.47-.24,4.35,4.35,0,0,0-2.41,2.69A3.76,3.76,0,0,0,38.3,30.72Z"/><path class="cls-1" d="M37.46,29.59a4.84,4.84,0,0,1-.08-2,8.69,8.69,0,0,0,.19-2.53c-.15-.28-.63,2.15-.6,3.16a1.76,1.76,0,0,0,.49,1.36"/><path class="cls-1" d="M100,13.88H78.39a35.35,35.35,0,0,0-2.89-3.25,36.07,36.07,0,0,0-51,0,35.35,35.35,0,0,0-2.89,3.25H0L14.07,33c-.09,1-.14,2.06-.14,3.1a36.15,36.15,0,0,0,1.53,10.45,18.67,18.67,0,0,1,.77-4c.11-.3.22-.59.33-.85a34.19,34.19,0,0,1-.45-5.56A33.88,33.88,0,0,1,74,12.17,33.89,33.89,0,0,1,26,60.1a35.57,35.57,0,0,1-5.28-6.78c-.58.44-1,1.09-1.58,1.57a36.42,36.42,0,0,0,5.32,6.75,35.74,35.74,0,0,0,17.73,9.72L50,81.93l7.77-10.57a36.09,36.09,0,0,0,28.3-35.23c0-1,0-2.08-.14-3.1ZM14.72,28.6,6.21,17H19.4A35.72,35.72,0,0,0,14.72,28.6ZM50,76.63,46.63,72c1.12.11,2.24.16,3.37.16s2.25,0,3.37-.16ZM80.6,17H93.79L85.28,28.6A35.72,35.72,0,0,0,80.6,17Z"/><path class="cls-1" d="M41.11,45.79l.29.12h6.08l.34-.12Z"/><path class="cls-1" d="M39.63,45l.19.12h9.47l.23-.12Z"/><path class="cls-1" d="M38.55,44.23l.15.12H50.61l.17-.12Z"/><path class="cls-1" d="M46,43.45l-.43.12h6.08l.14-.12Z"/><path class="cls-1" d="M47.56,42.66a.61.61,0,0,1-.16.12h5l.11-.12Z"/><path class="cls-1" d="M48.29,41.88,48.2,42H53a.75.75,0,0,0,.07-.12Z"/><path class="cls-1" d="M48.81,41.1l-.08.12h4.18s0-.08,0-.12Z"/><path class="cls-1" d="M49.21,40.32l-.06.12h3.47a.56.56,0,0,0,0-.12Z"/><path class="cls-1" d="M49.55,39.54l0,.12h2.88l0-.12Z"/><path class="cls-1" d="M49.79,38.88h2.4v-.05a.31.31,0,0,0,0-.08H49.84S49.81,38.83,49.79,38.88Z"/><path class="cls-1" d="M50.08,38l0,.12h1.88L51.87,38Z"/><path class="cls-1" d="M50.29,37.19l0,.12h1.17l-.1-.12Z"/><path class="cls-1" d="M50.47,36.41a1,1,0,0,1,0,.12h.22l-.15-.12Z"/><polygon class="cls-1" points="21.59 47.36 21.83 47.23 21.5 47.23 21.5 47.36 21.59 47.36"/><polygon class="cls-1" points="21.7 46.67 21.56 46.8 22.58 46.8 22.82 46.67 21.7 46.67"/><polygon class="cls-1" points="22.3 46.12 22.15 46.25 23.57 46.25 23.8 46.12 22.3 46.12"/><path class="cls-1" d="M22.89,45.56l-.14.13h1.54l.11-.13Z"/><path class="cls-1" d="M23.49,45l-.15.14h1.43l.12-.14Z"/><path class="cls-1" d="M24.08,44.45l-.14.13h1.34l.13-.13Z"/><path class="cls-1" d="M24.67,43.89l-.14.14h1.31a1.85,1.85,0,0,1,.14-.14Z"/><path class="cls-1" d="M25.27,43.34l-.15.13h1.31l.15-.13Z"/><path class="cls-1" d="M25.86,42.78l-.14.14h1.35l.16-.14Z"/><path class="cls-1" d="M26.46,42.23l-.15.13h1.46l.18-.13Z"/><path class="cls-1" d="M27.18,41.67l-.18.14h1.54l.19-.14Z"/><path class="cls-1" d="M28,41.12l-.2.13H29.4l.23-.13Z"/><path class="cls-1" d="M28.85,40.56l-.22.14h1.78l.27-.14Z"/><path class="cls-1" d="M30,40l-.32.13h2L32,40Z"/><path class="cls-1" d="M37.51,24.94v.13h.06a.77.77,0,0,1,.09-.13Z"/><path class="cls-1" d="M43.72,24.39l.12.12h0s0-.05-.07-.12Z"/><path class="cls-1" d="M38,24.51l.1-.12h-.56a.49.49,0,0,0,0,.12Z"/><path class="cls-1" d="M38.49,24l.11-.12h-.94l0,.12Z"/><path class="cls-1" d="M43.06,23.83l.16.12h.31l-.07-.12Z"/><path class="cls-1" d="M39,23.4l.13-.12H37.83a.56.56,0,0,1,0,.12Z"/><path class="cls-1" d="M42.23,23.28l.2.12h.77l-.07-.12Z"/><path class="cls-1" d="M41.23,22.72l.23.12h1.38l-.08-.12Z"/><path class="cls-1" d="M38.08,22.72l-.06.12h1.66l.17-.12Z"/><path class="cls-1" d="M38.39,22.17l-.08.12h4.12l-.09-.12Z"/><path class="cls-1" d="M38.76,21.61l-.09.12h3.27l-.13-.12Z"/><path class="cls-1" d="M39.21,21.06l-.11.12h2.09L41,21.06Z"/><path class="cls-1" d="M39.74,20.5l-.13.12h.71l-.2-.12Z"/><path class="cls-1" d="M43.06,67.81a3.59,3.59,0,0,0,.47.12h5.18l-.17-.12Z"/><path class="cls-1" d="M40.52,67l.36.12H47.8L47.69,67Z"/><path class="cls-1" d="M38.45,66.25l.3.12H47.2l-.08-.12Z"/><path class="cls-1" d="M37.22,65.47a.53.53,0,0,1,0,.12h9.56a.61.61,0,0,1,0-.12Z"/><path class="cls-1" d="M37.21,64.69v.12h9.31l0-.12Z"/><path class="cls-1" d="M37.21,63.9V64h9.1l0-.13Z"/><path class="cls-1" d="M37.24,63.12h0v.11h8.88l0-.12Z"/><path class="cls-1" d="M39.76,62.46l0-.05,0-.07H37.32a.5.5,0,0,1,0,.12Z"/><path class="cls-1" d="M42,62.42l-.17,0H46s0-.08,0-.12H42.07Z"/><path class="cls-1" d="M46.83,62.34l.26.12h.36a.62.62,0,0,1-.08-.12Z"/><path class="cls-1" d="M39.55,61.68v-.12H37.48l0,.12Z"/><path class="cls-1" d="M43.09,61.56l-.15.12H47a.61.61,0,0,0-.05-.12Z"/><path class="cls-1" d="M43.78,60.78l-.1.12h3s0-.08,0-.12Z"/><path class="cls-1" d="M39.41,60.9l0-.12H37.73l0,.12Z"/><path class="cls-1" d="M44.87,60a.49.49,0,0,1,0,.12h1.59s0-.08,0-.12Z"/><path class="cls-1" d="M38.09,60.12h1.17a.5.5,0,0,0,0-.11S38.42,60.06,38.09,60.12Z"/><path class="cls-1" d="M44.91,59.21a.6.6,0,0,0,0,.12h1.45s0-.08,0-.12Z"/><path class="cls-1" d="M45.11,58.43l0,.12h1.25a.49.49,0,0,1,0-.12Z"/><path class="cls-1" d="M45.38,57.65a.56.56,0,0,0,0,.12h1a.49.49,0,0,1,0-.12Z"/><path class="cls-1" d="M45.56,56.87s0,.08,0,.12h.85l0-.12Z"/><path class="cls-1" d="M45.4,56.09a.75.75,0,0,1,.07.12H46l-.12-.12Z"/><path class="cls-1" d="M44.8,55.3l.12.13H45l-.22-.13Z"/><path class="cls-1" d="M51,51.51l.29-.12h-.41l-.2.12Z"/><path class="cls-1" d="M51.75,50.84l-.19.12h.71l.26-.12Z"/><path class="cls-1" d="M52.63,50.28l-.19.12h1l.24-.12Z"/><path class="cls-1" d="M53.52,49.72l-.19.13h1.19l.22-.13Z"/><path class="cls-1" d="M54.4,49.17l-.19.12H55.5l.2-.12Z"/><path class="cls-1" d="M55.29,48.61l-.2.13H56.4l.18-.13Z"/><path class="cls-1" d="M55.91,48.06l-.13.12h1.43l.17-.12Z"/><path class="cls-1" d="M56.5,47.5l-.13.12H58l.15-.12Z"/><path class="cls-1" d="M57.08,47l-.12.12H58.6l.13-.12Z"/><path class="cls-1" d="M57.67,46.39l-.13.12h1.63l.11-.12Z"/><path class="cls-1" d="M58.25,45.84l-.12.12h1.52a.62.62,0,0,1,.09-.12Z"/><path class="cls-1" d="M58.49,45.28v.12h1.39l0-.12Z"/><path class="cls-1" d="M58.5,44.73v.12h1.24l0-.12Z"/><path class="cls-1" d="M58.51,44.17v.12H59.6l0-.12Z"/><path class="cls-1" d="M58.52,43.64v.13h.93l0-.13Z"/><path class="cls-1" d="M58.53,43.09v.12h.74l0-.12Z"/><path class="cls-1" d="M58.54,42.53v.12h.55L59,42.53Z"/><path class="cls-1" d="M58.55,42v.12h.33a.61.61,0,0,1-.05-.12Z"/><path class="cls-1" d="M58.57,41.42v.12h.07l-.06-.12Z"/><path class="cls-1" d="M71.74,59.2l.07.12h.76l.14-.12Z"/><path class="cls-1" d="M71.21,58.42l.09.12h2.1l.13-.12Z"/><path class="cls-1" d="M70.56,57.64l.1.12h3.53l.11-.12Z"/><path class="cls-1" d="M69.8,56.86l.13.12h5l.09-.12Z"/><path class="cls-1" d="M68.94,56.08l.16.12h6.13a.34.34,0,0,0-.06-.12Z"/><path class="cls-1" d="M67.4,55.29l.33.12h7a.63.63,0,0,1-.1-.12Z"/><path class="cls-1" d="M60.25,54.51l-.12.12H74l-.12-.12Z"/><path class="cls-1" d="M61.09,53.73l-.13.12H73.22l-.12-.12Z"/><path class="cls-1" d="M62,53l-.14.12H72.42L72.29,53Z"/><path class="cls-1" d="M62.92,52.17l-.16.12h8.83l-.13-.12Z"/><path class="cls-1" d="M65.16,51.51h5.58l-.11-.11v0H66.49C66.09,51.41,65.62,51.45,65.16,51.51Z"/><path class="cls-1" d="M66.72,50.6l.13.12h3.3l-.09-.12Z"/><path class="cls-1" d="M66,49.82l.11.12H69.6l-.09-.12Z"/><path class="cls-1" d="M65.37,49l.08.12H69L69,49Z"/><path class="cls-1" d="M65,48.26a.56.56,0,0,1,0,.12h3.46l-.09-.12Z"/><path class="cls-1" d="M64.81,47.48a.5.5,0,0,0,0,.12h3.11l-.09-.12Z"/><path class="cls-1" d="M64.69,46.69s0,.08,0,.12h2.67l-.08-.12Z"/><path class="cls-1" d="M64.62,45.91a.49.49,0,0,1,0,.12h2.2l-.08-.12Z"/><path class="cls-1" d="M64.58,45.13v.12h1.69l-.09-.12Z"/><path class="cls-1" d="M64.57,44.47h1.16l-.06-.08-.1,0h-1Z"/><path class="cls-1" d="M51.47,67.81s0,.08,0,.12h3.13l.76-.12Z"/><path class="cls-1" d="M51.35,67s0,.08,0,.12h4.85V67Z"/><path class="cls-1" d="M51.27,66.25s0,.08,0,.12h4.91v-.12Z"/><path class="cls-1" d="M51.25,65.47v.12h4.94v-.12Z"/><path class="cls-1" d="M51.3,64.69a.49.49,0,0,1,0,.12h4.92v-.12Z"/><path class="cls-1" d="M51.44,63.9a.51.51,0,0,0,0,.13h4.81V63.9Z"/><path class="cls-1" d="M53.07,63.24a.34.34,0,0,1-.06-.12H51.69s0,.08,0,.12Z"/><path class="cls-1" d="M53.51,63.12s0,.08,0,.12h2.78v-.12Z"/><path class="cls-1" d="M53.63,62.34a.5.5,0,0,0,0,.12h2.71v-.12Z"/><path class="cls-1" d="M52.85,62.46v-.12h-.73l-.08.12Z"/><path class="cls-1" d="M52.9,61.68a.5.5,0,0,0,0-.12h0l-.18.12Z"/><path class="cls-1" d="M53.78,61.56l0,.12h2.64l0-.12Z"/><path class="cls-1" d="M54,60.78a.56.56,0,0,0,0,.12h2.54l0-.12Z"/><path class="cls-1" d="M54.22,60s0,.08,0,.12h2.41l0-.12Z"/><path class="cls-1" d="M54.52,59.21a.61.61,0,0,1-.05.12h2.26a.5.5,0,0,1,0-.12Z"/><path class="cls-1" d="M54.9,58.43l-.06.12h2l0-.12Z"/><path class="cls-1" d="M55.38,57.65l-.08.12h1.8a.56.56,0,0,1,0-.12Z"/><path class="cls-1" d="M56,56.87l-.1.12h1.46l0-.12Z"/><path class="cls-1" d="M56.87,56.09l-.16.12h1l.06-.12Z"/><polygon class="cls-1" points="58.18 55.43 58.18 55.42 58.18 55.43 58.18 55.43"/><path class="cls-1" d="M61.48,29.32l0-.12-.69.06.29.1Z"/><path class="cls-1" d="M61.28,28.55l0-.12-1.55.13.12.11Z"/><path class="cls-1" d="M61.08,27.78l0-.11-2,.16.08.11Z"/><path class="cls-1" d="M60.86,27l0-.12-2.22.18.06.12Z"/><path class="cls-1" d="M60.64,26.25l0-.12-2.39.2.06.11Z"/><path class="cls-1" d="M60.41,25.49l0-.12-2.57.21.06.11Z"/><path class="cls-1" d="M60.17,24.72l0-.12-2.74.23.06.11Z"/><path class="cls-1" d="M59.92,24l0-.12L57,24.07l.07.12Z"/><path class="cls-1" d="M59.65,23.19l0-.11-3.07.25.07.11Z"/><path class="cls-1" d="M59.37,22.43l0-.12-3.22.27.07.11Z"/><path class="cls-1" d="M53.65,22.11,53.57,22l-.45,0,.16.11Z"/><path class="cls-1" d="M55.73,21.94l3.33-.27L59,21.56l-3.35.27Z"/><path class="cls-1" d="M55.19,21.08l.08.12,3.46-.28,0-.12Z"/><path class="cls-1" d="M53.16,21.37l-.08-.12-.92.08.15.11Z"/><path class="cls-1" d="M54.71,20.34l.08.11,3.57-.29-.07-.11Z"/><path class="cls-1" d="M52.66,20.62l-.08-.11-1.3.1.14.11Z"/><path class="cls-1" d="M54.21,19.59a.83.83,0,0,0,.08.12l3.64-.3-.06-.11Z"/><path class="cls-1" d="M52.15,19.88l-.08-.11-1.61.13.12.11Z"/><path class="cls-1" d="M53.67,18.85l.08.12,3.72-.31-.07-.11Z"/><path class="cls-1" d="M51.56,19l-1.88.16,0,0,.09.09,1.84-.15Z"/><path class="cls-1" d="M53.07,18.12l.1.11,3.8-.31a1,1,0,0,0-.08-.11Z"/><path class="cls-1" d="M51.11,18.4,51,18.28,49,18.45l.1.11Z"/><path class="cls-1" d="M52.33,17.39l.13.11,4-.32-.09-.11Z"/><path class="cls-1" d="M50.57,17.66a.83.83,0,0,1-.08-.12l-2.15.18.09.11Z"/><path class="cls-1" d="M51.09,16.71l.21.1,4.54-.37-.09-.11Z"/><path class="cls-1" d="M50.1,16.91,50,16.79,47.78,17a1,1,0,0,1,.08.11Z"/><path class="cls-1" d="M55.21,15.71l-.11-.11-7.84.63.08.12Z"/><path class="cls-1" d="M54.51,15l-.12-.11-7.66.62.08.12Z"/><path class="cls-1" d="M53.71,14.26l-.14-.11L46,14.77l.13.11Z"/><path class="cls-1" d="M52.71,13.56l-.19-.11-5.8.47-.55.17Z"/><path class="cls-1" d="M60.38,17.88l.17.13h.85l.06-.13Z"/><path class="cls-1" d="M59.84,17.33l.1.12h1.72l.06-.12Z"/><path class="cls-1" d="M59.45,16.77l.08.12h2.2l0-.12Z"/><path class="cls-1" d="M59.16,16.22l.06.12h2.35l0-.12Z"/><path class="cls-1" d="M61.36,15.66H59a.82.82,0,0,0,0,.11H61.4A.56.56,0,0,1,61.36,15.66Z"/><path class="cls-1" d="M65.12,15.66l.21.12h.38v-.12Z"/><path class="cls-1" d="M64,15.11l.25.12h1.42v-.12Z"/><path class="cls-1" d="M61.19,15.23l0-.12h-1l-.07.12Z"/><path class="cls-1" d="M62.59,14.55l.43.12h2.59l-.1-.12Z"/><path class="cls-1" d="M61,14.67a.27.27,0,0,1,0-.12h-.69s0,.08,0,.12Z"/><path class="cls-1" d="M60.2,14s0,.07,0,.12h4.9L65,14Z"/><path class="cls-1" d="M60.28,13.44a.49.49,0,0,1,.08.12h4.19l-.14-.12Z"/><path class="cls-1" d="M59.84,12.89l.1.12h3.92l-.17-.12Z"/><path class="cls-1" d="M59.37,12.33l.11.12H63l-.23-.12Z"/><path class="cls-1" d="M58.89,11.78l.11.12h2.57l-.46-.12Z"/><path class="cls-1" d="M41.32,40.94l-.47-.07,0,.24.49.07Z"/><path class="cls-1" d="M26.44,36.58l.15.19.39-.28-.14-.2Z"/><path class="cls-1" d="M45,37.83l.23.07a4.21,4.21,0,0,0,.12-.48l-.24-.05A2.56,2.56,0,0,1,45,37.83Z"/><path class="cls-1" d="M25.58,41.67l.16.19.37-.3L26,41.37Z"/><path class="cls-1" d="M24.91,37.77l.15.18.38-.3-.15-.19C25.16,37.56,25,37.66,24.91,37.77Z"/><path class="cls-1" d="M24.85,42.31l.16.18.36-.32L25.21,42Z"/><path class="cls-1" d="M45.29,35.93a4.52,4.52,0,0,0-.18-.47l-.22.11a3.83,3.83,0,0,1,.17.43Z"/><path class="cls-1" d="M25.67,37.16l.15.19.38-.29-.15-.2Z"/><path class="cls-1" d="M45.2,36.87v0h.24v-.05a3.4,3.4,0,0,0,0-.45l-.24,0A3,3,0,0,1,45.2,36.87Z"/><path class="cls-1" d="M44.28,34.23a3.61,3.61,0,0,0-.33-.35l-.17.17.32.34Z"/><path class="cls-1" d="M43.58,40.3c.13-.1.25-.22.37-.33l-.17-.17c-.11.11-.23.21-.35.31Z"/><path class="cls-1" d="M44.29,39.61l.31-.39-.2-.14c-.09.13-.19.25-.29.37Z"/><path class="cls-1" d="M24.17,38.4l.16.18.37-.31-.16-.19Z"/><path class="cls-1" d="M44.87,35a3.71,3.71,0,0,0-.28-.41l-.19.14a4.4,4.4,0,0,1,.26.39Z"/><path class="cls-1" d="M42,41.15l.34-.1-.08-.23-.31.09-.13,0,0,.24Z"/><path class="cls-1" d="M44.86,38.81a3.74,3.74,0,0,0,.23-.44l-.22-.1a3.17,3.17,0,0,1-.21.41Z"/><path class="cls-1" d="M43.59,33.54l-.39-.31-.14.2.37.29Z"/><path class="cls-1" d="M43.19,40.59l-.14-.2a4.23,4.23,0,0,1-.4.24l.11.22Z"/><path class="cls-1" d="M21.53,41.25l.19.15L22,41l-.19-.15Z"/><path class="cls-1" d="M19.85,44.22c-.06.15-.12.3-.17.45l.23.08.16-.45Z"/><path class="cls-1" d="M19.45,47.08l-.25,0c0,.17,0,.33,0,.49h.24C19.43,47.4,19.44,47.24,19.45,47.08Z"/><path class="cls-1" d="M19.31,47.75l.17.17.34-.35-.17-.17C19.49,47.55,19.38,47.67,19.31,47.75Z"/><path class="cls-1" d="M20,47.05l.18.17.33-.35-.17-.17Z"/><path class="cls-1" d="M20.46,43.43l-.21-.11c-.08.15-.15.3-.21.44l.22.1C20.32,43.72,20.39,43.57,20.46,43.43Z"/><path class="cls-1" d="M20.66,46.36l.17.16.34-.34L21,46Z"/><path class="cls-1" d="M20.92,42.59l-.21-.12-.24.42.21.12Z"/><path class="cls-1" d="M19.56,46.13l-.24,0c0,.16-.05.33-.07.49l.24,0C19.51,46.45,19.53,46.29,19.56,46.13Z"/><path class="cls-1" d="M19.77,45.21l-.23-.07a4.64,4.64,0,0,0-.12.47l.23.06Z"/><path class="cls-1" d="M21.34,45.67l.18.17.34-.35-.17-.17Z"/><path class="cls-1" d="M23.42,43.63l.17.17.35-.33-.17-.17Z"/><path class="cls-1" d="M22.78,39.76l.18.17.33-.35-.17-.17Z"/><path class="cls-1" d="M21.24,41.65l-.27.4.2.13.27-.39Z"/><path class="cls-1" d="M23.46,39.07l.17.17.35-.33-.17-.18Z"/><path class="cls-1" d="M22.72,44.3l.17.18.35-.34L23.07,44Z"/><path class="cls-1" d="M40.39,40.77l-.46-.13-.07.23a4.77,4.77,0,0,0,.47.13Z"/><path class="cls-1" d="M24.13,43l.16.18.36-.32-.16-.18Z"/><path class="cls-1" d="M22,45l.17.17.35-.34-.17-.17Z"/><path class="cls-1" d="M22.13,40.49l.19.16c.1-.13.21-.25.31-.37l-.18-.16Z"/><path class="cls-1" d="M26.39,41l0,0,.14.2,0,0,.36-.25-.14-.2Z"/><path class="cls-1" d="M32.69,32.85l-.44.22.11.21.43-.21Z"/><path class="cls-1" d="M32.58,38.43h0l0,.25h0l.44,0v-.24Z"/><path class="cls-1" d="M33.56,32.43l-.44.21.11.21.43-.21Z"/><path class="cls-1" d="M31.58,38.57l.05.23.47-.07,0-.24Z"/><path class="cls-1" d="M31.08,34,31,33.74l-.42.24.12.21Z"/><path class="cls-1" d="M31.82,33.29l-.43.22.12.22.42-.23Z"/><path class="cls-1" d="M30.63,38.79l.07.23.46-.12-.06-.24Z"/><path class="cls-1" d="M36.28,39.36l.44.2.1-.22-.44-.2Z"/><path class="cls-1" d="M37.41,39.65l-.15-.09-.12.21.08,0h0l.1,0,.27.13.1-.22-.27-.13Z"/><path class="cls-1" d="M39.47,40.49c-.15-.05-.31-.1-.45-.16l-.09.23.46.16Z"/><path class="cls-1" d="M34.44,32l-.44.2.1.22.44-.2Z"/><path class="cls-1" d="M33.52,38.66l.47.05,0-.24-.49,0Z"/><path class="cls-1" d="M34.46,38.79l.47.1.06-.23-.48-.11Z"/><path class="cls-1" d="M35.38,39c.16,0,.31.1.46.15l.08-.23-.46-.15Z"/><path class="cls-1" d="M35.43,31.85l-.1-.22-.44.19L35,32Z"/><path class="cls-1" d="M29.7,39.1l.09.23.45-.17-.08-.23Z"/><path class="cls-1" d="M27.15,40.52l.13.2.41-.27-.13-.2Z"/><path class="cls-1" d="M36.32,31.48l-.09-.22-.45.18.09.22Z"/><path class="cls-1" d="M38.57,40.16,38.12,40,38,40.2l.45.18Z"/><path class="cls-1" d="M37.23,31.13l-.08-.23-.46.18.08.22Z"/><path class="cls-1" d="M27.24,36l.13.19.4-.27-.13-.2Z"/><path class="cls-1" d="M28,40l.12.21a4.49,4.49,0,0,1,.42-.24l-.12-.21Z"/><path class="cls-1" d="M28.86,35l.13.2c.14-.08.28-.16.41-.25l-.12-.2Z"/><path class="cls-1" d="M30.24,34.43l-.12-.21-.42.24.12.21Z"/><path class="cls-1" d="M28.82,39.51l.11.22a4.25,4.25,0,0,1,.43-.21l-.1-.22Z"/><path class="cls-1" d="M28,35.48l.13.2.41-.26-.13-.21Z"/><path class="cls-1" d="M49.8,48.54s0,0,0,0S49.81,48.54,49.8,48.54Z"/><path class="cls-1" d="M49.28,50s0,0,0,0Z"/><path class="cls-1" d="M56.53,37.68a12.68,12.68,0,0,1,1.4,5.52,3.9,3.9,0,0,0-1.14-2.32l.42,2.56c.08.46.15.93.2,1.39,0,.28,0,.58.08.86-.34-1.56-.82-1.63-.82-1.63a5.07,5.07,0,0,1,.12,2.51,41.17,41.17,0,0,1-6.7,5.31c8-4,9.12-6.47,9.12-6.47A28.61,28.61,0,0,0,58.16,40C57.43,38,56.53,37.68,56.53,37.68Z"/><path class="cls-1" d="M43.64,30.5h0S43.63,30.5,43.64,30.5Z"/><path class="cls-1" d="M39.5,27a2.24,2.24,0,0,0-1,2,0,0,0,0,0,.08,0,3.34,3.34,0,0,1,1-2S39.51,27,39.5,27Z"/><path class="cls-1" d="M54.75,43.59a7.42,7.42,0,0,1,.14,1.23l.81-1.45c-2-6.5-2.91-6.81-2.91-6.81a32.48,32.48,0,0,1,2.33,7.08C55.06,43.58,54.75,43.59,54.75,43.59Z"/><path class="cls-1" d="M52.24,11.84a2.24,2.24,0,0,0-1.75.67c2.74-.26,5.8,2,5.8,2A5.9,5.9,0,0,0,52.24,11.84Z"/><path class="cls-1" d="M39.27,18.69c3.3,1.37,5.52,5,5.52,5a1.22,1.22,0,0,0-.2-.69,2.37,2.37,0,0,1,.5.46l-.34-.64a2.88,2.88,0,0,1,.66.55C42.63,18.59,39.27,18.69,39.27,18.69Z"/><polygon class="cls-1" points="40.23 26.27 40.19 26.41 40.29 26.51 40.43 26.47 40.47 26.34 40.37 26.24 40.23 26.27"/><polygon class="cls-1" points="38.56 30.69 38.66 30.79 38.79 30.75 38.83 30.62 38.74 30.52 38.6 30.55 38.56 30.69"/><polygon class="cls-1" points="44.19 28.11 44.23 27.98 44.13 27.88 44 27.91 43.96 28.05 44.06 28.15 44.19 28.11"/><path class="cls-1" d="M73.26,12.87A32.89,32.89,0,0,0,17.11,36.13a33.74,33.74,0,0,0,.22,3.9,12.65,12.65,0,0,1,1.07-1.71c0-.72-.07-1.45-.07-2.19A31.67,31.67,0,1,1,76,54.23c-.5-.53-1.48-1.57-2.05-2.11a13.61,13.61,0,0,0-1.18-.93,23.74,23.74,0,0,1-3-2.5c-1.6-1.65-2.57-5.42-3-7.23v-.05a14.06,14.06,0,0,1-.48-4c0-.74,0-1.47-.08-3s-.57-5.56-1-8.32a21.47,21.47,0,0,0-2.75-6.39,5.17,5.17,0,0,0-.08-4.31,9.2,9.2,0,0,1,3.69,2l.26.24.28-.21a1.14,1.14,0,0,0,.41-.85c.07-1.55-2.13-4.61-3.08-5.49a10.87,10.87,0,0,0-6.09-2.2h0a9.72,9.72,0,0,0-4.06,1.14,8.68,8.68,0,0,0-3.08-.65,14.68,14.68,0,0,0-4.87.49,13.53,13.53,0,0,0-5.7,3.74l-2.28,0-.12.11a11.47,11.47,0,0,0-3,6.2,10.45,10.45,0,0,0,.06,4.48A4.64,4.64,0,0,0,36,26.67l-.16,1.66a5.69,5.69,0,0,1-.22,1.25c-7.22,2.7-9.37,4.38-11.1,5.72l-.64.49a17.08,17.08,0,0,0-6.05,8.66,12.31,12.31,0,0,0,0,7.1l.28.75.46-.65a23.93,23.93,0,0,1,4.81-4.23A18.81,18.81,0,0,1,32.44,44a10.75,10.75,0,0,1,6.27,1.79,13.54,13.54,0,0,0,.86,2.82c0,.14.62,1.63.82,2.35a1,1,0,0,1-.22,1l0,0a10.24,10.24,0,0,0-.57,1.11,4.11,4.11,0,0,0-1,.78l-.07.08a3.12,3.12,0,0,1-1.26.45l-.37.06v.4c-.19.14-.34.27-.35.28l-.22.18.16.49-.17.37a1.94,1.94,0,0,0-.31.9c0,.13,0,.29-.09.51a3.09,3.09,0,0,1-.32,1h0l-.17.25.19.25.13.17a1.1,1.1,0,0,0,.23.78,1.09,1.09,0,0,0,.1.54l-.83,3.54a31.89,31.89,0,0,1-7.68-5.66,35.91,35.91,0,0,1-5.12-6.66,11.6,11.6,0,0,0-.91.75,35.41,35.41,0,0,0,5.17,6.77A32.89,32.89,0,0,0,73.26,12.87ZM37.67,43.72a10,10,0,0,0-9-.58,31.74,31.74,0,0,0-6.53,3.43,54.13,54.13,0,0,1,5.24-4.82A9,9,0,0,1,35.2,40c1.08.32,4,2,6.28,2a5,5,0,0,0,4.85-5.11,4.1,4.1,0,0,0-.6-2.17,4.55,4.55,0,0,0-1.46-1.89h0l.43-.51a1.55,1.55,0,0,0,.38-1.24c-.51,1.08-.87,1-.87,1a2.07,2.07,0,0,0,.57-.83,2.16,2.16,0,0,1-.61.37,3.72,3.72,0,1,0-6.53-2.42A3.8,3.8,0,0,0,38,30.84h-.36l0,.24a3.69,3.69,0,0,1,.47,0h0a3.71,3.71,0,0,0,3.2,1.84,3.75,3.75,0,0,0,1-.14l-.08.17a3.07,3.07,0,0,1,.38.22L42.8,33l-.36-.2a3.8,3.8,0,0,0,.47-.18c.24.14.74.53.74.53a5.85,5.85,0,0,1,2.15,3.28,5.09,5.09,0,0,1-3.2,5c-2.38.77-5.9-1.47-7.12-1.9a9.34,9.34,0,0,0-8.38,1.92,74.72,74.72,0,0,0-8.37,8.05c-1.19-11.75,16.68-18.38,18.1-18.88l.61,0a2.24,2.24,0,0,1-.44-.26l-.07-.07a2.39,2.39,0,0,0,.38.09,1.82,1.82,0,0,1-.33-.29l0-.09a.91.91,0,0,0,.27.09s-.22-.18-.23-.25v-.08l.15.06a.51.51,0,0,1-.14-.27c0-.09,0-.12,0-.12a1.15,1.15,0,0,0,.52.16,2.65,2.65,0,0,1-.36-1.93c.31-2.21,1-5.08,2.83-7A7.74,7.74,0,0,1,42,22.36C43.74,24,49.83,35.1,51.69,38.84a4.75,4.75,0,0,1-.49,1.22l.83-.57A13.27,13.27,0,0,1,50.9,41.4L52.26,40a16.76,16.76,0,0,1-2.16,3,9.45,9.45,0,0,0,2.38-2.18l.09.34c-.57.66-3.18,3.5-6.38,4.35C42.57,46.49,39.57,44.73,37.67,43.72Zm5.45-12.1s.44-.31.51-.52c0,0-.81.44-.71.36a1.85,1.85,0,0,0,.43-.42,3.57,3.57,0,0,1-.49.25,2.63,2.63,0,1,0-1.53.49,1.83,1.83,0,0,0,.33,0,2.83,2.83,0,0,1-.47.17,1.86,1.86,0,0,0,.6,0c.12,0-.75.28-.75.28a1.81,1.81,0,0,0,.73,0,4.32,4.32,0,0,1-1,.23,2.69,2.69,0,0,0,1,.12,4.06,4.06,0,0,1-.51,0,3.38,3.38,0,1,1,2-.7,2.37,2.37,0,0,0,.54-.77A4.27,4.27,0,0,1,43.12,31.62Zm-.75-3.93a1.58,1.58,0,0,0-.93-.34,1.75,1.75,0,0,0-.82.17.24.24,0,0,1-.31-.07h0a.24.24,0,0,1,.08-.35,2.18,2.18,0,0,1,1.07-.24,2.14,2.14,0,0,1,1.21.45.25.25,0,0,1,0,.36h0A.26.26,0,0,1,42.37,27.69ZM42.68,32l0,.13-.13,0-.1-.1,0-.14.13,0Zm2.1,23.82c.6.48.46,1,.23,1.62a2.32,2.32,0,0,0-.15,1.17,1.89,1.89,0,0,1-.45-1.18A2.78,2.78,0,0,0,44.78,55.82Zm-3.49,5.65.41,0a3.29,3.29,0,0,0,0,.55.74.74,0,0,1-.49.32A1.78,1.78,0,0,0,41.29,61.47Zm-.5,0a.85.85,0,0,1-.13-.75,1.81,1.81,0,0,1,.57,0,1.79,1.79,0,0,0,1-.18c0,.11,0,.22,0,.34s0,.06,0,.08a.7.7,0,0,1-.57.22C41.19,61.15,40.87,61.29,40.79,61.47ZM39.3,59.3v0a1.22,1.22,0,0,0-.52.38.72.72,0,0,1,0-.48h0l.16,0-.06.07A2.07,2.07,0,0,0,39.3,59.3ZM39,58.87c-.37.06-.44.2-.44.2a1.89,1.89,0,0,0-.18-.69,1.62,1.62,0,0,1-.23-.75h0a1.57,1.57,0,0,0,.57,0,2.78,2.78,0,0,0,.53.87s.1-.13.26-.3v0a1.79,1.79,0,0,1-.19.46A1.18,1.18,0,0,1,39,58.87Zm-.5.49a1.09,1.09,0,0,0,0,.19,1.18,1.18,0,0,0-.82.43.79.79,0,0,1,.14-.69,1.22,1.22,0,0,0,.38-.14,1.82,1.82,0,0,1,0,.39A2.84,2.84,0,0,1,38.49,59.36Zm-.93-2.49a1.18,1.18,0,0,1,0-.75l.29.24a1.21,1.21,0,0,0,.75.27,1.76,1.76,0,0,0,0,.7,1,1,0,0,1-.37,0,.93.93,0,0,0-.77.11A1.13,1.13,0,0,0,37.56,56.87Zm2.44.91a.48.48,0,0,1,.09-.41,2.42,2.42,0,0,0,.86.2,1.6,1.6,0,0,1,0,.65,3.51,3.51,0,0,1-1.26.61C40,58.67,40.07,58,40,57.78ZM41.18,47.3l.35,0h0c0,.07,0,.14.08.2h-.06a.83.83,0,0,0-.27.07,0,0,0,0,0,0,.06.83.83,0,0,0,.27.07h.15l.09.23-.3.08a0,0,0,0,0,0,0l.37,0c0,.1.09.19.13.29l-.29.08s0,0,0,0h.35a2.56,2.56,0,0,1,.11.24,1.33,1.33,0,0,0-.28.1,0,0,0,0,0,0,0,.66.66,0,0,0,.38.05l0,.06q-.18.53-.33,1.08a4.16,4.16,0,0,0-.33-.61,13.44,13.44,0,0,1-1.09-2.77,1.28,1.28,0,0,0,.43.14l0,0a2.11,2.11,0,0,0,.38.09l.09.23-.34,0A0,0,0,1,0,41.18,47.3Zm1,.21a3.23,3.23,0,0,0,.49.33l.08.18c-.06.13-.12.26-.17.4a2.69,2.69,0,0,1-.23-.44C42.26,47.82,42.21,47.66,42.16,47.51Zm-.77,5.37c0,.29-.09.56-.13.8a1.69,1.69,0,0,0-.27-.13C41.12,53.31,41.26,53.08,41.39,52.88Zm-.06,2.44a.84.84,0,0,0,0,.12c-.1.34-.35,1-.68,1.16a2.11,2.11,0,0,0,1.54.11,1.64,1.64,0,0,0,0,.39,2.1,2.1,0,0,1-2-.25,3.21,3.21,0,0,0,.55-.82A1.4,1.4,0,0,1,41.33,55.32Zm1.53,3.19A2,2,0,0,1,41,59c.46-1,.42-1.31.37-1.43l1,0a1,1,0,0,0,.32.34c.06,0,.13.09.22.15A2.33,2.33,0,0,0,42.86,58.51Zm-2.55,1.23a1.33,1.33,0,0,1,.06-.71l.37-.23a4.67,4.67,0,0,1-.2.45,3.44,3.44,0,0,0,1.24.17,1.77,1.77,0,0,0,.33.62.05.05,0,0,0,0,0,2.1,2.1,0,0,1-1,.11,2.52,2.52,0,0,0-.86.14S40.42,60.18,40.31,59.74Zm-1-2.89a2.25,2.25,0,0,0,.37.3,1,1,0,0,0-.13.7l-.24.26a1.61,1.61,0,0,1-.24-1.55,1.33,1.33,0,0,0,.36-.18l.18.11a.57.57,0,0,0,.26.11A1.12,1.12,0,0,1,39.32,56.85Zm.3,2.43a1.67,1.67,0,0,0,.32-.08,1.68,1.68,0,0,0,0,.87v0a1,1,0,0,1-.51.29A2,2,0,0,0,39.62,59.28Zm.18,1.37.2-.11a3.54,3.54,0,0,1-.06.4,2.87,2.87,0,0,1,.46-.16,1.52,1.52,0,0,0,0,.5,1,1,0,0,1-.71.5A1.44,1.44,0,0,0,39.8,60.65Zm.43,1.26a1.3,1.3,0,0,0,.31-.35.7.7,0,0,0,.3.26.91.91,0,0,1,.14-.18,3.34,3.34,0,0,1-.06.41,1.3,1.3,0,0,1-.7.36A.57.57,0,0,0,40.23,61.91ZM42,61.36a1,1,0,0,0,.32-.16.94.94,0,0,0,.14.16,2,2,0,0,1,.84-.57,1.18,1.18,0,0,1-.72.78,1.1,1.1,0,0,0-.61.6A1.23,1.23,0,0,1,42,61.36Zm1.22-1a1.28,1.28,0,0,0-.59.32,1.15,1.15,0,0,0-.26-.92,1.28,1.28,0,0,1-.2-.41A2.12,2.12,0,0,0,43,59a1.46,1.46,0,0,0,.68.72l.41.2A1.49,1.49,0,0,1,43.26,60.37Zm.19-1.15a1.16,1.16,0,0,1-.31-1,2.23,2.23,0,0,1,.41.42.69.69,0,0,0,.35.27,2.5,2.5,0,0,1,.24-.92,6.31,6.31,0,0,0,.34.7,1.33,1.33,0,0,0,.14.19,1,1,0,0,0,.14,1.1A3.08,3.08,0,0,1,43.45,59.22Zm.68-2.15a2.62,2.62,0,0,0-.41,1c-.11-.34-.43-.45-.82-.76s-.22-.58,0-1.13a1.79,1.79,0,0,1,1-.81,1,1,0,0,1,.38.39A1.16,1.16,0,0,1,44.13,57.07Zm-1.85-.8a1.16,1.16,0,0,1-1,.16s.17,0,.34-.54.11-.83.64-1.12a1,1,0,0,1,1.24.26A2.42,2.42,0,0,0,42.28,56.27Zm1.18-2.45a1.24,1.24,0,0,0-.59-.21,4.92,4.92,0,0,0-1.14.26c.08-.56.2-1.29.36-2.07l.06-.11a3.7,3.7,0,0,0,.07-.48c.12-.53.27-1.08.43-1.6.06.08.11.16.17.23a.73.73,0,0,0-.28.17s0,0,0,.05h0a1.39,1.39,0,0,0,.42.66,2.32,2.32,0,0,0,.55.44l-.23.24a1.78,1.78,0,0,1-.27-.17,2.23,2.23,0,0,1-.27-.26c-.06-.07-.12-.17-.21-.19h0c-.06.19.22.47.35.6l.22.21a3.69,3.69,0,0,0-.83,1.27,12.78,12.78,0,0,1,3.14-2.08,10.88,10.88,0,0,0,2.91-1.67C46.41,51.14,44.42,53,43.46,53.82Zm3.65-4.94,0,0,.26-.07Zm.23.4-.21.12-.17.09-.1-.1c.14,0,.28-.09.41-.15Zm-.54-.72-.06-.07.33,0,0,0Zm0,.34.07.07-.35.12L46.45,49Zm-.07.69-.24.12-.18-.17.25-.07Zm-.55-.91-.1-.14.35,0,.09.09Zm-2.62,2,0,0c.22.23.17.26.17.26h0a3.9,3.9,0,0,1-.35-.19Zm-.28,0L43,50.41l.25-.06h0l.21.2Zm.25-.89a3.16,3.16,0,0,0,.32,0,3.48,3.48,0,0,0,.68.7,1.09,1.09,0,0,1-.31,0S44,50.19,43.57,49.75Zm.77.18-.1-.13h.4a3.29,3.29,0,0,0,.58.48l-.41.14C44.67,50.25,44.49,50.1,44.34,49.93Zm.73-.16.3,0a2.41,2.41,0,0,0,.4.33l-.33.14A5,5,0,0,0,45.07,49.77Zm.65-.09.35-.07a2.43,2.43,0,0,0,.25.2L46,50Zm.43-.67a1.15,1.15,0,0,0,.14.17h0l-.24.06c-.06-.06-.13-.12-.18-.18l0,0,.29,0Zm-.23-.29-.35,0a1.84,1.84,0,0,1-.17-.22h.42a1.74,1.74,0,0,0,.11.18Zm-.35.35.08.1.12.14-.37.06-.27-.28Zm-.68-.3-.18-.3.42.05.19.24Zm-.09.31c.09.11.18.23.28.34l-.31,0-.34-.39Zm-.59-.34h0a3.38,3.38,0,0,1-.24-.41l.34.07a3.32,3.32,0,0,0,.26.36ZM44,49l.09.12c.09.12.18.24.28.35l-.36,0a6.58,6.58,0,0,1-.38-.54h0Zm-.58-.42c-.08-.14-.14-.29-.21-.43l0-.06.2.07a4.07,4.07,0,0,0,.31.49Zm-.18.29.26.37.2.27h-.31c-.17-.2-.33-.41-.49-.62l0-.12ZM42.94,50h0l.08.07.13.12-.25.1c-.07-.07-.13-.17-.21-.24Zm4.51-.85.23-.1a1.06,1.06,0,0,1-.2.12Zm-7-3c.2.09.42.17.63.24l-.08,0h0c0,.13.23.12.35.13h0l0,.13h-.28a.07.07,0,0,0,0-.05,2.45,2.45,0,0,1-.59-.4Zm.24,8.39a.86.86,0,0,1,.42.16,2.21,2.21,0,0,1,0,.34,2,2,0,0,0-.33.33,8.06,8.06,0,0,0-.52.77.6.6,0,0,1-.26-.07c-.36-.19-.55-.39-.84-.36a2.16,2.16,0,0,0,.61-.64A1,1,0,0,1,40.66,54.61Zm-1.48.08a1.57,1.57,0,0,1,.62-.47h.4l.14.06a2.36,2.36,0,0,0-1,.79,1.46,1.46,0,0,1-1,0A1.34,1.34,0,0,0,39.18,54.69Zm-1,.68.19,0a3.73,3.73,0,0,0,.63,0,1.94,1.94,0,0,1-.61.48.56.56,0,0,0,.32.18,1.55,1.55,0,0,1,.43.16,1,1,0,0,1-.85,0,1.79,1.79,0,0,1-.86-.67S37.78,55.81,38.23,55.37Zm-.79,2.43.07,0,.26-.1a1.4,1.4,0,0,0,.19.82,1.46,1.46,0,0,1,.18.43.69.69,0,0,1-.6.15c.11-.12.11-.4-.08-.78A.59.59,0,0,1,37.44,57.8Zm-.79.55a.84.84,0,0,0,.22-.61,1,1,0,0,1,.34-.79,1.46,1.46,0,0,1-.15.81.47.47,0,0,0,.17.05.74.74,0,0,0,0,.3,1,1,0,0,1-.57.28Zm.12.69a.66.66,0,0,1,.08-.47l.42-.18c0,.13.08.24.1.31A1.51,1.51,0,0,0,36.77,59Zm.63.6a.46.46,0,0,0-.38.17.73.73,0,0,1,0-.08v0h0a1,1,0,0,1,.06-.53l.29-.18a1,1,0,0,1-.09.16.47.47,0,0,0,.29.14A1.19,1.19,0,0,0,37.4,59.64Zm35-1.11A31.54,31.54,0,0,1,57,67a22,22,0,0,1-.07-8.75,18.39,18.39,0,0,0-1.8,6.56,10.76,10.76,0,0,1-.4-2.78,5.14,5.14,0,0,0-.4,2.22,10.91,10.91,0,0,0,.48,2.8,3.38,3.38,0,0,1-1-2.4,5.05,5.05,0,0,0,.13,2.89,34.3,34.3,0,0,1-3.94.24A31.64,31.64,0,0,1,37.61,65.3,8.58,8.58,0,0,1,38.77,62a1.11,1.11,0,0,0,.31-.08,2.6,2.6,0,0,1-.25.8,1.88,1.88,0,0,0,.75-.16s-.25.67-.26.71a1.16,1.16,0,0,0,.21,0c.06.11.24.33.71.24a.73.73,0,0,1-.32.21,1.36,1.36,0,0,0,1,0,2.4,2.4,0,0,0,.92-.36l.51.44a3,3,0,0,1,.76-1.08,2.78,2.78,0,0,0,1-1l.25-.47.47-.36,1.3.34a2,2,0,0,1-.46-.87,2.67,2.67,0,0,1,0-.36l.36.13a2.24,2.24,0,0,1-.37-1.52A8.53,8.53,0,0,0,45.77,57a2.16,2.16,0,0,0,0-.56c0-.57-.24-1.4-1-1.54a1.2,1.2,0,0,0-.73-.56,2,2,0,0,0-.26-.23c.79-.72,2.21-2,3.7-3.5q1.78-1.77,3.06-3.24a16.34,16.34,0,0,0,2.59-2.73l0,.15-3,3.8,1.65-1.65c.38-.39.74-.8,1.08-1.22a12.78,12.78,0,0,1-1.38,1.86l-2.54,2.75a27.49,27.49,0,0,0,3.86-3.63l-.3.55a33.82,33.82,0,0,1-4.35,4.48A13.46,13.46,0,0,0,52,49.28a17.63,17.63,0,0,0,2.68-4A25.38,25.38,0,0,0,51.78,36s-5.85-9.44-8-12.89a9.82,9.82,0,0,0-6-4A2,2,0,0,0,36.64,19a.12.12,0,0,0,0,.23c.16,0,.33.06.5.09a.58.58,0,0,0-.11.15,1,1,0,0,0-.41,0c-.06,0,0,.09,0,.09l.31.08-.09.17a.68.68,0,0,0-.36,0s0,0,0,0l.28.07c0,.08-.07.17-.1.26a1.27,1.27,0,0,0-.28.06s0,0,0,0l.24,0a3.07,3.07,0,0,0-.11.36l-.25.07s0,0,0,0h.22c0,.14-.07.3-.1.46l-.2.06s0,.05,0,.05h.18a8.68,8.68,0,0,0-.1,1.73,5.87,5.87,0,0,0,.34,1.85l-.09.57a6,6,0,0,1-.61-2.93,12.22,12.22,0,0,1,1.54-6.23c.67-1,1.24-1.09,1.24-1.09,1.7-.39,3.35,1.22,3.35,1.22l1.6,1.19a4.73,4.73,0,0,0-2.27-2.72,1.49,1.49,0,0,1,.86.23,1.12,1.12,0,0,0-.42-.51c-.27-.14-.15-.11-.15-.11s.37-.1.54,0a.61.61,0,0,0-.28-.41,9.44,9.44,0,0,1,4.78-2.79c4.23-1.18,8.4.3,9.49,1.75a5.67,5.67,0,0,0-1.28-2,9.61,9.61,0,0,1,2.79-.88,9.36,9.36,0,0,1,5,1.78,34,34,0,0,1,2.71,3.24,8,8,0,0,0-3-1.84,1.43,1.43,0,0,1,.15.85,3,3,0,0,0-1.88-1.47A2.27,2.27,0,0,1,61.51,14a3.9,3.9,0,0,0-3.21-1.74,9.36,9.36,0,0,1,1.63,1.28,5.69,5.69,0,0,1,1.21,2.26,9.17,9.17,0,0,0-1.72-1A8.08,8.08,0,0,1,61,17a4.36,4.36,0,0,0-1.54-1.22,6.26,6.26,0,0,1,1.23,2.27,12.31,12.31,0,0,0-2.3-2.5l1.06,2.11c1.22,2.55,3.76,7.67,4,9.37.28,2.13.84,9.14,1,12.45a24.57,24.57,0,0,0,.38,3.85c-.16-.42-.32-.83-.45-1.26a21.1,21.1,0,0,1-1.05-6.6s-.07,0-.07,0a17.92,17.92,0,0,0,.39,6.85,19.16,19.16,0,0,0,2.59,5l.27.56a12.3,12.3,0,0,0,3.16,4,38.8,38.8,0,0,0-5.28.28A3.34,3.34,0,0,1,66,51.71a13.58,13.58,0,0,0-3.32,0,5,5,0,0,1,1.21-.7A10,10,0,0,0,60,52.34,8.78,8.78,0,0,1,62.66,52s-2.57.78-2.75,2.81c0,0,6.43-3.25,11.91-1.35l.12.09a19.67,19.67,0,0,1,2.58,2.6A31.22,31.22,0,0,1,72.4,58.53Z"/><path class="cls-1" d="M81.05,12.35a1.7,1.7,0,0,1-2.91-1.22,1.6,1.6,0,0,1,.5-1.2,1.64,1.64,0,0,1,1.2-.5,1.68,1.68,0,0,1,1.21.5,1.64,1.64,0,0,1,.5,1.2A1.68,1.68,0,0,1,81.05,12.35ZM78.8,10.1a1.43,1.43,0,0,0-.43,1,1.46,1.46,0,0,0,2.51,1,1.44,1.44,0,0,0,.43-1,1.46,1.46,0,0,0-2.51-1Zm1,.09a1.32,1.32,0,0,1,.51.07.47.47,0,0,1,.29.47.39.39,0,0,1-.19.37.57.57,0,0,1-.27.1.45.45,0,0,1,.33.18.56.56,0,0,1,.1.29V12c0,.05,0,.08,0,.09v0H80.3v-.25c0-.22,0-.36-.17-.43a.8.8,0,0,0-.37-.06h-.26v.74h-.33V10.19Zm.35.3a.79.79,0,0,0-.4-.07h-.28v.68h.3a1.11,1.11,0,0,0,.31,0,.3.3,0,0,0,.2-.3A.27.27,0,0,0,80.16,10.49Z"/></svg>