<svg width="125" height="230" viewBox="0 0 125 230" fill="none" xmlns="http://www.w3.org/2000/svg">
<g clip-path="url(#clip0_2063_2)">
<path d="M99.37 207.59C99.37 206.73 99.07 206.01 98.22 206.01C98.05 206.01 97.89 206.04 97.79 206.08V209.27C97.88 209.3 97.97 209.3 98.09 209.3C98.91 209.3 99.36 208.65 99.36 207.6L99.37 207.59Z" fill="white"/>
<path d="M112.38 220.97C112.38 220.18 111.93 219.72 111.11 219.72C110.9 219.72 110.75 219.74 110.66 219.76V222.33C110.75 222.35 110.89 222.35 111.02 222.35C111.87 222.35 112.38 221.89 112.38 220.98V220.97Z" fill="white"/>
<path d="M29.98 220.96C30.06 220.98 30.17 220.99 30.3 220.99C30.79 220.99 31.09 220.75 31.09 220.33C31.09 219.91 30.81 219.72 30.36 219.72C30.18 219.72 30.05 219.74 29.98 219.75V220.96Z" fill="white"/>
<path d="M51.2001 206.02C50.3701 206.02 50.0801 207.72 50.0901 209.43C50.0801 211.24 50.3701 212.89 51.2001 212.89H51.2101C52.0201 212.89 52.2701 211.24 52.2701 209.4C52.2701 207.74 52.0401 206.02 51.1901 206.02H51.2001Z" fill="white"/>
<path d="M63.5301 206.32H63.4901C63.4101 206.96 63.2901 207.85 63.2001 208.42L62.8501 210.52H64.1501L63.8201 208.41C63.7101 207.81 63.6101 206.97 63.5301 206.32Z" fill="white"/>
<path d="M88.2999 219.72C88.1199 219.72 87.9899 219.74 87.9199 219.75V220.96C87.9999 220.98 88.1099 220.99 88.2399 220.99C88.7299 220.99 89.0299 220.75 89.0299 220.33C89.0299 219.91 88.7499 219.72 88.2999 219.72Z" fill="white"/>
<path d="M76.38 205.97C76.22 205.97 76.06 205.98 75.96 206.02V209.11H76.29C77.04 209.11 77.51 208.43 77.51 207.49C77.51 206.55 77.19 205.98 76.39 205.96L76.38 205.97Z" fill="white"/>
<path d="M86.93 206.32H86.89C86.81 206.96 86.69 207.85 86.6 208.42L86.25 210.52H87.55L87.22 208.41C87.11 207.81 87.01 206.97 86.93 206.32Z" fill="white"/>
<path d="M44.25 222.33C44.34 222.35 44.48 222.35 44.61 222.35C45.46 222.35 45.97 221.89 45.97 220.98C45.97 220.19 45.52 219.73 44.7 219.73C44.49 219.73 44.34 219.75 44.25 219.77V222.34V222.33Z" fill="white"/>
<path d="M20.3101 222.33C20.4001 222.35 20.5401 222.35 20.6701 222.35C21.5201 222.35 22.0301 221.89 22.0301 220.98C22.0301 220.19 21.5801 219.73 20.7601 219.73C20.5501 219.73 20.4001 219.75 20.3101 219.77V222.34V222.33Z" fill="white"/>
<path d="M42.01 124.13H45.26C45.35 124.13 45.36 124.08 45.35 124.02L43.76 119.51C43.74 119.44 43.72 119.35 43.67 119.35C43.62 119.35 43.58 119.44 43.56 119.51L41.93 124.01C41.91 124.08 41.93 124.14 42 124.14L42.01 124.13Z" fill="white"/>
<path d="M80.83 137.05C80.77 136.98 80.71 136.93 80.64 136.89C80.54 136.84 80.42 136.8 80.22 136.8C80.04 136.8 79.66 136.83 79.3 136.93L79.52 140.08C79.92 139.89 80.27 139.76 80.5 139.52C80.86 139.16 81.05 138.76 81.08 138.27C81.08 138.2 81.08 138.14 81.08 138.07C81.08 137.87 81.06 137.67 81.01 137.49C80.97 137.31 80.89 137.16 80.81 137.06L80.83 137.05Z" fill="white"/>
<path d="M51.53 137.03C51.47 136.96 51.41 136.91 51.34 136.87C51.24 136.82 51.12 136.78 50.92 136.78C50.74 136.78 50.36 136.81 50 136.91L50.22 140.06C50.62 139.87 50.97 139.73 51.2 139.5C51.56 139.14 51.75 138.74 51.78 138.25C51.78 138.18 51.78 138.12 51.78 138.05C51.78 137.85 51.76 137.64 51.71 137.47C51.67 137.29 51.59 137.14 51.51 137.04L51.53 137.03Z" fill="white"/>
<path d="M55.68 123.07C56.05 123.2 56.58 123.25 57.02 123.25C57.73 123.25 57.96 123.18 58.27 122.94C58.8 122.54 59.31 121.7 59.31 120.2C59.31 117.6 57.65 116.85 56.6 116.85C56.16 116.85 55.84 116.87 55.66 116.92C55.54 116.96 55.5 117.03 55.5 117.18V122.73C55.5 122.93 55.53 123 55.66 123.06L55.68 123.07Z" fill="white"/>
<path d="M67.05 122.79C67.4 126.88 69.42 129.03 72.3 128.77C75.33 128.49 76.7799 125.73 76.4599 121.94C76.1099 117.84 74.0499 115.7 71.2099 115.96C68.1999 116.27 66.7 118.66 67.05 122.79Z" fill="white"/>
<path d="M53.9599 105.16H57.2099C57.2999 105.16 57.3199 105.11 57.2999 105.05L55.7099 100.54C55.6899 100.47 55.6699 100.37 55.6199 100.37C55.5699 100.37 55.5299 100.46 55.5099 100.54L53.8799 105.03C53.8599 105.1 53.8799 105.16 53.9499 105.16H53.9599Z" fill="white"/>
<path d="M66.24 137.06C66.18 136.99 66.12 136.94 66.05 136.9C65.95 136.85 65.83 136.81 65.63 136.81C65.45 136.81 65.07 136.84 64.71 136.94L64.93 140.09C65.33 139.9 65.68 139.77 65.91 139.53C66.27 139.17 66.46 138.77 66.49 138.28C66.49 138.21 66.49 138.15 66.49 138.08C66.49 137.88 66.47 137.68 66.42 137.5C66.38 137.32 66.3 137.17 66.22 137.07L66.24 137.06Z" fill="white"/>
<path d="M62.2 147.78C90 147.78 112.61 134.69 112.61 118.59C112.61 102.49 90 89.4 62.2 89.4C34.4 89.4 11.79 102.5 11.79 118.59C11.79 134.68 34.4 147.78 62.2 147.78ZM52.65 138.28C52.61 138.94 52.42 139.24 51.94 139.73C51.54 140.12 50.95 140.26 50.34 140.5C50.31 140.51 50.29 140.53 50.26 140.56L50.28 140.91H50.33C50.39 140.91 50.43 140.99 50.43 141.09C50.43 141.13 50.42 141.17 50.4 141.21C50.55 141.25 50.67 141.41 50.67 141.59C50.67 141.76 50.58 141.9 50.44 141.96H50.66C50.72 141.96 50.78 142.03 50.78 142.12C50.78 142.17 50.76 142.22 50.73 142.25C50.82 142.37 50.88 142.52 50.88 142.69C50.88 142.73 50.88 142.77 50.88 142.81C50.98 142.86 51.05 142.96 51.05 143.08C51.05 143.25 50.91 143.38 50.75 143.38H43.83C43.66 143.38 43.53 143.24 43.53 143.08C43.53 142.96 43.61 142.85 43.71 142.8C43.71 142.76 43.71 142.72 43.71 142.69C43.71 142.5 43.78 142.32 43.9 142.2C43.9 142.2 43.89 142.16 43.89 142.13C43.89 142.04 43.94 141.97 44.01 141.97H44.18C44.05 141.91 43.95 141.77 43.95 141.6C43.95 141.42 44.07 141.26 44.22 141.22C44.2 141.19 44.19 141.15 44.19 141.1C44.19 141 44.24 140.92 44.3 140.92H44.38L44.74 135.92H44.64C44.53 135.92 44.43 135.82 44.43 135.71C44.43 135.6 44.52 135.5 44.64 135.5H49.99C50.1 135.5 50.2 135.6 50.2 135.71C50.2 135.82 50.11 135.92 49.99 135.92H49.93L49.96 136.29C50.31 136.16 50.62 136.07 50.92 136.07C51.27 136.07 51.59 136.05 51.85 136.19C52.11 136.33 52.3 136.52 52.43 136.73C52.69 137.15 52.66 137.62 52.66 138.06C52.66 138.14 52.66 138.22 52.66 138.3L52.65 138.28ZM55.61 128.41C55.66 128.94 55.77 129.34 56.3 129.41C56.56 129.45 56.95 129.48 57.17 129.48C57.31 129.48 57.38 129.53 57.38 129.63C57.38 129.76 57.26 129.81 57.03 129.81C56 129.81 54.7 129.75 54.43 129.75C54.09 129.75 52.98 129.81 52.27 129.81C52.04 129.81 51.92 129.75 51.92 129.63C51.92 129.54 51.99 129.48 52.2 129.48C52.47 129.48 52.68 129.44 52.84 129.41C53.19 129.34 53.28 128.94 53.35 128.41C53.44 127.64 53.44 126.2 53.44 124.52V121.3C53.44 118.52 53.44 118.01 53.4 117.43C53.36 116.81 53.22 116.52 52.64 116.39C52.5 116.35 52.2 116.34 51.95 116.34C51.76 116.34 51.65 116.3 51.65 116.18C51.65 116.06 51.77 116.02 52.04 116.02C52.98 116.02 54.09 116.07 54.46 116.07C55.06 116.07 56.41 116.02 56.95 116.02C58.07 116.02 59.25 116.13 60.2 116.81C60.7 117.16 61.4 118.09 61.4 119.31C61.4 120.66 60.85 121.91 59.07 123.4C60.64 125.45 61.86 127.07 62.91 128.21C63.9 129.27 64.63 129.4 64.89 129.45C65.08 129.49 65.24 129.5 65.39 129.5C65.54 129.5 65.6 129.55 65.6 129.65C65.6 129.8 65.48 129.83 65.26 129.83H63.58C62.59 129.83 62.15 129.74 61.69 129.48C60.93 129.06 60.26 128.2 59.27 126.79C58.56 125.79 57.75 124.54 57.52 124.27C57.43 124.16 57.33 124.14 57.2 124.14L55.66 124.1C55.57 124.1 55.52 124.14 55.52 124.25V124.51C55.52 126.21 55.52 127.65 55.61 128.42V128.41ZM67.37 138.07C67.37 138.15 67.37 138.24 67.37 138.32C67.33 138.98 67.14 139.28 66.66 139.77C66.26 140.16 65.67 140.3 65.06 140.53C65.03 140.54 65.01 140.56 64.98 140.58L65 140.93H65.05C65.11 140.93 65.15 141.01 65.15 141.11C65.15 141.16 65.15 141.2 65.12 141.23C65.27 141.27 65.39 141.43 65.39 141.61C65.39 141.78 65.3 141.92 65.16 141.98H65.38C65.45 141.98 65.5 142.05 65.5 142.14C65.5 142.19 65.48 142.24 65.45 142.26C65.54 142.38 65.6 142.53 65.6 142.7C65.6 142.74 65.6 142.78 65.6 142.82C65.7 142.87 65.77 142.97 65.77 143.1C65.77 143.27 65.64 143.4 65.47 143.4H58.55C58.38 143.4 58.25 143.27 58.25 143.1C58.25 142.98 58.33 142.87 58.43 142.82C58.43 142.78 58.43 142.75 58.43 142.71C58.43 142.52 58.5 142.34 58.62 142.22C58.62 142.22 58.61 142.17 58.61 142.15C58.61 142.07 58.66 141.99 58.73 141.99H58.9C58.77 141.93 58.67 141.79 58.67 141.62C58.67 141.43 58.78 141.28 58.94 141.24C58.92 141.21 58.91 141.17 58.91 141.12C58.91 141.02 58.96 140.94 59.02 140.94H59.1L59.45 135.95H59.36C59.25 135.95 59.15 135.85 59.15 135.74C59.15 135.63 59.24 135.53 59.36 135.53H64.71C64.82 135.53 64.92 135.62 64.92 135.74C64.92 135.86 64.83 135.95 64.71 135.95H64.65L64.68 136.32C65.03 136.2 65.34 136.1 65.64 136.1C65.99 136.1 66.31 136.08 66.57 136.21C66.83 136.35 67.02 136.54 67.15 136.75C67.41 137.17 67.38 137.64 67.38 138.08L67.37 138.07ZM81.95 138.32C81.91 138.98 81.72 139.28 81.24 139.77C80.85 140.16 80.25 140.3 79.64 140.53C79.61 140.54 79.59 140.56 79.56 140.58L79.58 140.93H79.63C79.69 140.93 79.73 141.01 79.73 141.11C79.73 141.15 79.72 141.2 79.7 141.23C79.85 141.27 79.97 141.43 79.97 141.61C79.97 141.78 79.88 141.92 79.74 141.98H79.96C80.03 141.98 80.08 142.05 80.08 142.14C80.08 142.19 80.06 142.24 80.03 142.26C80.12 142.38 80.18 142.53 80.18 142.7C80.18 142.74 80.18 142.78 80.18 142.82C80.28 142.87 80.35 142.97 80.35 143.09C80.35 143.26 80.21 143.39 80.05 143.39H73.13C72.96 143.39 72.83 143.26 72.83 143.09C72.83 142.97 72.9 142.86 73.01 142.81C73.01 142.77 73 142.73 73 142.7C73 142.51 73.08 142.33 73.2 142.21C73.2 142.21 73.19 142.16 73.19 142.14C73.19 142.05 73.24 141.98 73.31 141.98H73.48C73.35 141.93 73.25 141.78 73.25 141.61C73.25 141.42 73.36 141.27 73.52 141.23C73.5 141.2 73.49 141.16 73.49 141.11C73.49 141.01 73.54 140.93 73.59 140.93H73.67L74.03 135.94H73.94C73.82 135.94 73.73 135.84 73.73 135.73C73.73 135.62 73.82 135.51 73.94 135.51H79.29C79.4 135.51 79.5 135.61 79.5 135.73C79.5 135.85 79.41 135.94 79.29 135.94H79.23L79.26 136.31C79.61 136.19 79.92 136.09 80.22 136.09C80.57 136.09 80.89 136.07 81.15 136.2C81.41 136.34 81.6 136.53 81.73 136.74C81.99 137.16 81.96 137.63 81.96 138.07C81.96 138.15 81.96 138.24 81.96 138.32H81.95ZM97.09 116C98.03 116 99.14 116.05 99.64 116.05C100.21 116.05 103.73 116.05 104.06 116.03C104.4 115.99 104.68 115.96 104.82 115.92C104.91 115.9 105.02 115.85 105.1 115.85C105.18 115.85 105.21 115.92 105.21 116.01C105.21 116.14 105.12 116.36 105.07 117.2C105.05 117.38 105.02 118.19 104.98 118.4C104.96 118.49 104.93 118.6 104.8 118.6C104.67 118.6 104.64 118.51 104.64 118.35C104.64 118.22 104.62 117.91 104.53 117.69C104.41 117.36 104.23 117.14 103.35 117.03C103.05 116.99 101.19 116.96 100.84 116.96C100.75 116.96 100.72 117.01 100.72 117.14V121.76C100.72 121.89 100.74 121.96 100.84 121.96C101.23 121.96 103.26 121.96 103.67 121.92C104.09 121.88 104.36 121.83 104.52 121.64C104.64 121.5 104.72 121.4 104.8 121.4C104.87 121.4 104.92 121.44 104.92 121.55C104.92 121.66 104.83 121.95 104.78 122.88C104.74 123.25 104.71 123.98 104.71 124.1C104.71 124.25 104.71 124.45 104.55 124.45C104.43 124.45 104.39 124.38 104.39 124.29C104.37 124.11 104.37 123.87 104.32 123.63C104.23 123.26 103.98 122.99 103.33 122.92C102.99 122.88 101.24 122.87 100.82 122.87C100.73 122.87 100.71 122.94 100.71 123.05V124.49C100.71 125.11 100.69 126.79 100.71 127.32C100.75 128.58 101.03 128.85 102.83 128.85C103.29 128.85 104.03 128.85 104.49 128.63C104.95 128.41 105.16 128.03 105.29 127.28C105.32 127.08 105.36 127.01 105.48 127.01C105.62 127.01 105.62 127.16 105.62 127.34C105.62 127.76 105.48 129 105.39 129.37C105.27 129.85 105.11 129.85 104.43 129.85C101.76 129.85 100.58 129.74 99.53 129.74C99.12 129.74 98.01 129.8 97.3 129.8C97.07 129.8 96.95 129.74 96.95 129.62C96.95 129.53 97.02 129.47 97.23 129.47C97.5 129.47 97.71 129.43 97.87 129.4C98.22 129.33 98.31 128.93 98.38 128.4C98.47 127.63 98.47 126.19 98.47 124.51V121.29C98.47 118.51 98.47 118 98.43 117.41C98.39 116.79 98.25 116.5 97.67 116.37C97.53 116.33 97.23 116.32 96.98 116.32C96.79 116.32 96.68 116.28 96.68 116.15C96.68 116.02 96.8 115.99 97.07 115.99L97.09 116ZM91.82 117.43C91.78 116.81 91.64 116.52 91.06 116.39C90.92 116.35 90.62 116.34 90.42 116.34C90.22 116.34 90.12 116.3 90.12 116.18C90.12 116.06 90.24 116.02 90.49 116.02C91.39 116.02 92.51 116.07 92.52 116.07C92.73 116.07 93.85 116.02 94.54 116.02C94.79 116.02 94.91 116.06 94.91 116.18C94.91 116.3 94.8 116.34 94.59 116.34C94.4 116.34 94.29 116.36 94.08 116.39C93.6 116.48 93.46 116.79 93.43 117.43C93.39 118.02 93.39 118.53 93.39 121.3V123.26C93.39 125.29 93.2 127.44 91.71 128.76C90.45 129.88 89.18 130.08 88.03 130.08C87.09 130.08 85.39 130.02 84.1 128.82C83.2 127.98 82.52 126.63 82.52 123.98V121.31C82.52 118.53 82.52 118.02 82.49 117.44C82.45 116.82 82.31 116.53 81.73 116.4C81.59 116.36 81.29 116.35 81.04 116.35C80.85 116.35 80.74 116.31 80.74 116.19C80.74 116.07 80.86 116.03 81.13 116.03C82.07 116.03 83.18 116.08 83.71 116.08C84.13 116.08 85.25 116.03 85.88 116.03C86.15 116.03 86.27 116.07 86.27 116.19C86.27 116.31 86.16 116.35 85.98 116.35C85.79 116.35 85.68 116.37 85.47 116.4C84.99 116.49 84.85 116.8 84.82 117.44C84.78 118.03 84.78 118.54 84.78 121.31V123.87C84.78 126.52 85.29 127.63 86.16 128.36C86.96 129.04 87.77 129.11 88.37 129.11C89.15 129.11 90.1 128.85 90.81 128.12C91.78 127.11 91.84 125.47 91.84 123.59V121.31C91.84 118.53 91.84 118.02 91.81 117.44L91.82 117.43ZM74.18 97.03C75.12 97.03 76.23 97.08 76.66 97.08C77.09 97.08 78.2 97.03 78.8 97.03C79.05 97.03 79.17 97.07 79.17 97.19C79.17 97.31 79.06 97.35 78.92 97.35C78.75 97.35 78.64 97.37 78.43 97.41C77.95 97.5 77.81 97.81 77.77 98.45C77.74 99.04 77.74 99.55 77.74 102.32V103.12H77.83C78.43 102.44 81.01 99.72 81.53 99.1C82.03 98.5 82.41 98.04 82.41 97.73C82.41 97.53 82.34 97.4 82.16 97.36C82 97.32 81.93 97.29 81.93 97.18C81.93 97.05 82.02 97.02 82.21 97.02C82.58 97.02 83.55 97.07 84.03 97.07C84.58 97.07 85.55 97.02 86.1 97.02C86.28 97.02 86.4 97.06 86.4 97.18C86.4 97.3 86.31 97.34 86.14 97.34C85.89 97.34 85.45 97.41 85.11 97.54C84.56 97.76 83.96 98.14 83.2 98.91C82.65 99.46 79.98 102.2 79.38 102.86C80.02 103.72 83.48 107.57 84.17 108.25C84.95 109.02 85.74 109.84 86.7 110.22C87.23 110.44 87.59 110.49 87.8 110.49C87.92 110.49 88.03 110.53 88.03 110.64C88.03 110.77 87.94 110.82 87.61 110.82H86.07C85.54 110.82 85.22 110.82 84.85 110.78C83.9 110.69 83.42 110.29 82.66 109.59C81.88 108.88 78.4 104.66 78.03 104.13L77.84 103.86H77.75V105.52C77.75 107.2 77.75 108.64 77.8 109.43C77.83 109.94 77.99 110.34 78.44 110.42C78.69 110.46 79.08 110.49 79.31 110.49C79.45 110.49 79.54 110.55 79.54 110.64C79.54 110.77 79.4 110.82 79.2 110.82C78.21 110.82 77.1 110.76 76.65 110.76C76.24 110.76 75.13 110.82 74.42 110.82C74.19 110.82 74.07 110.76 74.07 110.64C74.07 110.55 74.14 110.49 74.35 110.49C74.62 110.49 74.83 110.45 74.99 110.42C75.34 110.35 75.43 109.94 75.5 109.42C75.59 108.65 75.59 107.21 75.59 105.53V102.31C75.59 99.53 75.59 99.02 75.55 98.44C75.51 97.82 75.37 97.53 74.79 97.4C74.65 97.36 74.35 97.34 74.1 97.34C73.91 97.34 73.8 97.3 73.8 97.18C73.8 97.06 73.92 97.02 74.19 97.02L74.18 97.03ZM78.94 121.72C79.28 125.72 76.62 128.89 73.75 129.25C75.49 131.02 77.44 132.05 80.08 131.85L80.11 132.22C76.31 132.56 73.6 132.2 71.58 130.65C71.18 130.33 70.67 129.79 70.29 129.56C70.01 129.38 69.69 129.32 69.51 129.3C66.57 128.84 64.77 125.86 64.53 123.02C64.19 118.98 66.63 115.62 71.13 115.22C75.55 114.82 78.58 117.72 78.92 121.72H78.94ZM63.98 107.61C64 107.34 64.05 107.14 64.19 107.14C64.35 107.14 64.37 107.3 64.37 107.45C64.37 107.69 64.44 108.07 64.53 108.38C64.92 109.73 65.96 110.23 67.06 110.23C68.65 110.23 69.43 109.12 69.43 108.15C69.43 107.25 69.16 106.4 67.7 105.23L66.89 104.57C64.94 103 64.27 101.72 64.27 100.24C64.27 98.23 65.9 96.79 68.36 96.79C69.51 96.79 70.25 96.97 70.71 97.1C70.87 97.14 70.96 97.19 70.96 97.32C70.96 97.56 70.89 98.09 70.89 99.51C70.89 99.91 70.84 100.06 70.7 100.06C70.58 100.06 70.52 99.95 70.52 99.73C70.52 99.56 70.43 99 70.06 98.52C69.79 98.17 69.28 97.62 68.13 97.62C66.82 97.62 66.03 98.41 66.03 99.5C66.03 100.34 66.44 100.98 67.9 102.13L68.4 102.51C70.52 104.21 71.3 105.43 71.3 107.17C71.3 108.23 70.91 109.49 69.64 110.35C68.76 110.94 67.77 111.1 66.83 111.1C65.8 111.1 65.01 110.97 64.25 110.63C63.97 110.5 63.91 110.41 63.91 110.01C63.91 109.01 63.98 107.91 64 107.62L63.98 107.61ZM49.08 110.52C49.24 110.52 49.49 110.5 49.63 110.48C50.44 110.37 50.78 109.75 51.13 108.83L55.57 97.35C55.78 96.82 55.89 96.62 56.06 96.62C56.22 96.62 56.33 96.78 56.5 97.2C56.92 98.21 59.75 105.66 60.89 108.44C61.56 110.08 62.08 110.34 62.45 110.43C62.72 110.49 62.98 110.5 63.19 110.5C63.33 110.5 63.42 110.52 63.42 110.64C63.42 110.79 63.26 110.82 62.61 110.82C61.96 110.82 60.68 110.82 59.27 110.78C58.95 110.76 58.74 110.76 58.74 110.63C58.74 110.52 58.81 110.49 58.99 110.47C59.11 110.43 59.24 110.27 59.15 110.05L57.73 106.18C57.7 106.09 57.64 106.05 57.55 106.05H53.61C53.52 106.05 53.49 106.09 53.45 106.2L52.49 108.81C52.31 109.27 52.23 109.71 52.23 109.93C52.23 110.26 52.39 110.5 52.94 110.5H53.21C53.42 110.5 53.48 110.54 53.48 110.64C53.48 110.79 53.37 110.82 53.18 110.82C52.61 110.82 51.85 110.77 51.31 110.77C51.12 110.77 50.14 110.82 49.22 110.82C48.99 110.82 48.88 110.78 48.88 110.64C48.88 110.53 48.95 110.5 49.09 110.5L49.08 110.52ZM38.25 98.71C39.52 97.51 41.2 96.77 43.84 96.77C44.94 96.77 45.59 96.84 46.4 96.95C47.07 97.04 47.64 97.2 48.17 97.26C48.37 97.28 48.44 97.37 48.44 97.48C48.44 97.63 48.39 97.85 48.35 98.49C48.31 99.09 48.33 100.1 48.3 100.46C48.28 100.73 48.25 100.88 48.09 100.88C47.95 100.88 47.91 100.73 47.91 100.48C47.89 99.91 47.66 99.27 47.22 98.8C46.64 98.16 45.26 97.67 43.63 97.67C42.09 97.67 41.08 98.07 40.3 98.8C39.01 100.02 38.67 101.76 38.67 103.53C38.67 107.88 41.87 110.04 44.24 110.04C45.81 110.04 46.77 109.86 47.48 109.02C47.78 108.67 48.01 108.14 48.08 107.81C48.13 107.52 48.17 107.44 48.31 107.44C48.43 107.44 48.47 107.57 48.47 107.71C48.47 107.93 48.26 109.52 48.08 110.14C47.99 110.45 47.92 110.54 47.62 110.67C46.91 110.96 45.57 111.09 44.44 111.09C42.02 111.09 39.98 110.54 38.37 109.1C36.64 107.53 36.18 105.48 36.18 103.71C36.18 102.47 36.55 100.31 38.25 98.7V98.71ZM19.82 129.49C19.96 129.49 20.09 129.49 20.35 129.43C20.85 129.32 20.99 128.61 21.08 127.99L22.83 116.08C22.88 115.77 22.99 115.6 23.13 115.6C23.27 115.6 23.38 115.69 23.61 116.17L28.44 126.48L33.25 116.05C33.37 115.76 33.48 115.61 33.64 115.61C33.8 115.61 33.91 115.79 33.96 116.18L35.57 127.47C35.73 128.62 35.91 129.15 36.44 129.32C36.81 129.44 37.1 129.48 37.32 129.5C37.45 129.5 37.59 129.48 37.69 129.47C38.5 129.36 38.84 128.74 39.19 127.83L43.63 116.35C43.84 115.82 43.95 115.62 44.12 115.62C44.28 115.62 44.39 115.79 44.56 116.2C44.98 117.21 47.81 124.66 48.95 127.44C49.62 129.08 50.14 129.34 50.51 129.43C50.78 129.49 51.04 129.5 51.25 129.5C51.39 129.5 51.48 129.52 51.48 129.65C51.48 129.8 51.32 129.83 50.67 129.83C50.02 129.83 48.74 129.83 47.33 129.79C47.01 129.77 46.8 129.77 46.8 129.64C46.8 129.53 46.87 129.49 47.05 129.48C47.17 129.44 47.3 129.28 47.21 129.06L45.79 125.19C45.76 125.1 45.7 125.06 45.61 125.06H41.67C41.58 125.06 41.55 125.1 41.51 125.21L40.56 127.82C40.38 128.28 40.29 128.71 40.29 128.93C40.29 129.26 40.45 129.5 41 129.5H41.27C41.48 129.5 41.54 129.54 41.54 129.65C41.54 129.8 41.43 129.83 41.24 129.83C40.67 129.83 39.91 129.77 39.36 129.77C39.17 129.77 38.27 129.82 37.38 129.82C37.38 129.82 37.38 129.82 37.37 129.82C37.37 129.82 37.34 129.82 37.33 129.82C37.31 129.82 37.29 129.82 37.27 129.82C36.67 129.82 34.45 129.76 33.78 129.71C33.37 129.67 33.27 129.62 33.27 129.51C33.27 129.42 33.34 129.36 33.46 129.31C33.57 129.27 33.62 129.04 33.55 128.52L32.49 120.48H32.42L28.56 128.78C28.15 129.64 28.06 129.8 27.9 129.8C27.74 129.8 27.57 129.43 27.28 128.89C26.86 128.05 25.46 125.25 25.25 124.74C25.09 124.36 24.03 122.06 23.41 120.68H23.34L22.42 127.95C22.39 128.28 22.37 128.52 22.37 128.81C22.37 129.16 22.6 129.32 22.9 129.4C23.22 129.47 23.47 129.49 23.64 129.49C23.78 129.49 23.91 129.53 23.91 129.62C23.91 129.78 23.75 129.82 23.49 129.82C22.75 129.82 21.95 129.76 21.63 129.76C21.29 129.76 20.45 129.82 19.88 129.82C19.7 129.82 19.56 129.78 19.56 129.62C19.56 129.53 19.67 129.49 19.84 129.49H19.82Z" fill="white"/>
<path d="M0 0V229.35H124.36V0H0ZM2.96 3H121.39V199.65H107.42L107.22 194.93C107.22 193.68 92.2 190.59 87.19 188.47C87.19 188.47 77.6 187.06 75.27 169.93C75.27 169.93 82.86 166.93 82.86 165.03C82.86 162.66 78.34 160.76 71.15 159.83C71.89 156.79 72.57 153.35 73.19 149.61C82.95 148.39 91.92 145.55 99.17 141.31C109.39 135.33 115.03 127.26 115.03 118.59C115.03 109.92 109.4 101.85 99.17 95.87C92.9 92.2 85.34 89.58 77.11 88.15C76.83 54.55 73.92 28.27 67.73 18.59H69.26C69.26 17.15 67.39 15.74 65.39 14.97C67.34 13.99 68.64 12.16 68.64 10.07C68.64 6.96 65.73 4.44 62.15 4.41C58.57 4.39 55.66 6.96 55.66 10.07C55.66 12.16 56.97 13.99 58.91 14.97C56.92 15.74 55.04 17.14 55.04 18.59H56.57C50.38 28.28 47.47 54.56 47.19 88.16C38.97 89.6 31.42 92.21 25.16 95.88C14.93 101.86 9.3 109.93 9.3 118.6C9.3 127.27 14.93 135.34 25.16 141.32C32.4 145.56 41.37 148.39 51.11 149.62C51.73 153.36 52.41 156.8 53.15 159.84C45.97 160.77 41.45 162.67 41.45 165.04C41.45 166.93 49.04 169.94 49.04 169.94C46.71 187.07 37.12 188.48 37.12 188.48C32.11 190.6 17.09 193.69 17.09 194.94L16.89 199.66H2.96V3ZM11.16 214.05V206.2H9.74V204.86H13.82V206.2H12.41V214.05H11.16ZM12.01 219.24V222.83H11.36V219.24H12.01ZM18.16 208.67V204.87H19.41V214.06H18.16V210.01H16.29V214.06H15.04V204.87H16.29V208.67H18.16ZM15.16 219.24L16.09 220.78C16.33 221.18 16.54 221.59 16.7 221.98H16.71C16.67 221.5 16.65 221.04 16.65 220.49V219.24H17.26V222.83H16.58L15.64 221.25C15.41 220.86 15.17 220.42 15 220.02H14.98C15.01 220.49 15.01 220.96 15.01 221.55V222.83H14.41V219.24H15.16ZM24.26 208.65V209.86H22.39V212.78H24.52V214.05H21.14V204.86H24.38V206.13H22.39V208.65H24.26ZM22.17 219.63C22.52 219.91 22.73 220.34 22.73 220.95C22.73 221.56 22.51 222.07 22.17 222.38C21.81 222.71 21.24 222.87 20.55 222.87C20.17 222.87 19.88 222.85 19.67 222.82V219.29C19.96 219.24 20.32 219.22 20.71 219.22C21.38 219.22 21.84 219.36 22.17 219.63ZM26.95 220.71V221.24H25.6V222.29H27.11V222.83H24.94V219.24H27.03V219.78H25.6V220.71H26.95ZM28.94 209.91C28.06 209.26 27.46 208.34 27.46 207.35C27.46 205.92 28.29 204.79 29.76 204.79C30.26 204.79 30.72 204.97 30.93 205.12L30.71 206.37C30.49 206.21 30.16 206.06 29.74 206.06C29.03 206.06 28.69 206.62 28.69 207.18C28.69 207.89 29.01 208.22 29.81 208.82C30.8 209.58 31.2 210.47 31.2 211.45C31.2 213.1 30.19 214.15 28.78 214.15C28.2 214.15 27.6 213.96 27.35 213.77L27.56 212.52C27.85 212.73 28.37 212.89 28.78 212.89C29.55 212.89 29.97 212.37 29.97 211.61C29.97 210.85 29.58 210.45 28.94 209.93V209.91ZM31.4 219.51C31.61 219.69 31.75 219.97 31.75 220.3C31.75 220.63 31.64 220.92 31.44 221.11C31.18 221.37 30.77 221.49 30.31 221.49C30.19 221.49 30.08 221.49 29.99 221.47V222.82H29.34V219.28C29.57 219.24 29.9 219.21 30.34 219.21C30.82 219.21 31.17 219.31 31.4 219.5V219.51ZM32.52 214.05V204.86H33.77V214.05H32.52ZM38.09 212.9C38.3 212.9 38.43 212.87 38.5 212.83V210.25H37.66V209.05H39.66V213.81C39.32 213.97 38.68 214.14 38.13 214.14C37.32 214.14 36.66 213.88 36.13 213.24C35.51 212.49 35.14 211.17 35.15 209.55C35.17 206.1 36.79 204.79 38.33 204.79C38.88 204.79 39.3 204.91 39.55 205.06L39.3 206.31C39.09 206.17 38.8 206.09 38.4 206.09C37.38 206.09 36.45 206.96 36.45 209.55C36.45 212.14 37.27 212.89 38.1 212.89L38.09 212.9ZM40.59 220.49V219.24H41.2V222.83H40.52L39.58 221.25C39.35 220.86 39.11 220.42 38.94 220.02H38.92C38.95 220.49 38.95 220.96 38.95 221.55V222.83H38.35V219.24H39.09L40.02 220.78C40.26 221.18 40.47 221.59 40.63 221.98H40.64C40.6 221.5 40.58 221.04 40.58 220.49H40.59ZM44.48 207.47V204.87H45.58V214.06H44.43L43.09 210.15C42.8 209.31 42.45 208.2 42.22 207.23H42.2C42.26 208.29 42.29 209.59 42.29 211.5V214.06H41.19V204.87H42.34L43.67 208.8C43.95 209.63 44.35 210.82 44.59 211.7H44.61C44.54 210.53 44.47 209.11 44.47 207.47H44.48ZM46.11 219.63C46.45 219.91 46.67 220.34 46.67 220.95C46.67 221.56 46.45 222.07 46.11 222.38C45.75 222.71 45.18 222.87 44.49 222.87C44.11 222.87 43.82 222.85 43.61 222.82V219.29C43.9 219.24 44.26 219.22 44.65 219.22C45.32 219.22 45.78 219.36 46.11 219.63ZM36.05 219.24V219.78H34.62V220.71H35.97V221.24H34.62V222.29H36.13V222.83H33.96V219.24H36.05ZM113.96 118.59C113.96 135.45 90.74 149.17 62.2 149.17C33.66 149.17 10.44 135.45 10.44 118.59C10.44 101.73 33.66 88.01 62.2 88.01C90.74 88.01 113.96 101.73 113.96 118.59ZM71.62 212.9C71.83 212.9 71.96 212.87 72.03 212.83V210.25H71.19V209.05H73.19V213.81C72.85 213.97 72.21 214.14 71.66 214.14C70.85 214.14 70.19 213.88 69.66 213.24C69.04 212.49 68.67 211.17 68.68 209.55C68.7 206.1 70.32 204.79 71.86 204.79C72.41 204.79 72.83 204.91 73.08 205.06L72.83 206.31C72.62 206.17 72.33 206.09 71.93 206.09C70.91 206.09 69.98 206.96 69.98 209.55C69.98 212.14 70.8 212.89 71.63 212.89L71.62 212.9ZM66.46 219.24H67.21L67.64 220.16C67.76 220.43 67.85 220.63 67.95 220.87H67.96C68.05 220.64 68.15 220.42 68.27 220.16L68.7 219.24H69.44L68.25 221.32V222.83H67.59V221.33L66.46 219.24ZM65.09 222.28V222.83H62.96V219.24H63.62V222.28H65.09ZM64.7 214.05L64.28 211.66H62.71L62.29 214.05H61.08L62.83 204.86H64.29L65.91 214.05H64.69H64.7ZM58.19 219.79V219.24H60.9V219.79H59.87V222.83H59.22V219.79H58.2H58.19ZM58.05 208.87V210.08H56.19V214.05H54.94V204.86H58.18V206.13H56.19V208.87H58.05ZM53.87 221.55V222.83H53.27V219.24H54.02L54.95 220.78C55.19 221.18 55.4 221.59 55.56 221.98H55.57C55.53 221.5 55.51 221.04 55.51 220.49V219.24H56.12V222.83H55.44L54.5 221.25C54.27 220.86 54.03 220.42 53.86 220.02H53.84C53.87 220.49 53.87 220.96 53.87 221.55ZM51.16 214.16H51.15C49.58 214.16 48.8 212.22 48.8 209.44C48.8 206.66 49.69 204.75 51.28 204.75C52.87 204.75 53.58 206.85 53.58 209.33C53.58 212.79 52.54 214.16 51.16 214.16ZM50.89 220.71V221.24H49.54V222.29H51.05V222.83H48.89V219.24H50.97V219.78H49.54V220.71H50.89ZM78.53 211.64C78.7 212.76 78.88 213.74 79.01 214.05H77.71C77.62 213.79 77.44 212.89 77.31 211.81C77.16 210.61 76.87 210.23 76.23 210.23H75.95V214.05H74.71V205C75.14 204.88 75.69 204.82 76.21 204.82C77.03 204.82 77.71 204.98 78.16 205.49C78.6 205.98 78.76 206.59 78.76 207.36C78.76 208.42 78.31 209.26 77.52 209.68V209.71C78.08 209.94 78.36 210.55 78.52 211.65L78.53 211.64ZM79.84 220.49V219.24H80.45V222.83H79.77L78.83 221.25C78.6 220.86 78.36 220.42 78.19 220.02H78.17C78.2 220.49 78.2 220.96 78.2 221.55V222.83H77.6V219.24H78.35L79.28 220.78C79.52 221.18 79.73 221.59 79.89 221.98C79.85 221.5 79.83 221.04 79.83 220.49H79.84ZM83.37 208.65V209.86H81.5V212.78H83.63V214.05H80.25V204.86H83.49V206.13H81.5V208.65H83.37ZM93.9 220.71V221.24H92.55V222.29H94.06V222.83H91.89V219.24H93.98V219.78H92.55V220.71H93.9ZM93.5 206.2H92.09V214.05H90.84V206.2H89.42V204.86H93.5V206.2ZM89.68 220.3C89.68 220.64 89.57 220.92 89.37 221.11C89.11 221.37 88.7 221.49 88.24 221.49C88.12 221.49 88.01 221.49 87.92 221.47V222.82H87.27V219.28C87.5 219.24 87.83 219.21 88.27 219.21C88.75 219.21 89.1 219.31 89.33 219.5C89.54 219.68 89.68 219.96 89.68 220.29V220.3ZM88.1 214.05L87.68 211.66H86.11L85.69 214.05H84.47L86.22 204.86H87.68L89.3 214.05H88.09H88.1ZM84.89 219.37L84.73 219.9C84.6 219.83 84.35 219.73 84.02 219.73C83.6 219.73 83.42 219.95 83.42 220.16C83.42 220.44 83.63 220.57 84.11 220.75C84.73 220.98 85.04 221.3 85.04 221.81C85.04 222.38 84.6 222.89 83.68 222.89C83.3 222.89 82.91 222.78 82.71 222.66L82.85 222.12C83.06 222.24 83.38 222.35 83.72 222.35C84.14 222.35 84.38 222.15 84.38 221.86C84.38 221.59 84.2 221.43 83.74 221.26C83.15 221.05 82.77 220.73 82.77 220.22C82.77 219.63 83.26 219.19 84.04 219.19C84.43 219.19 84.72 219.27 84.9 219.37H84.89ZM75.21 219.24V222.83H74.56V219.24H75.21ZM98.01 219.19C98.44 219.19 98.75 219.28 98.88 219.35L98.74 219.87C98.57 219.8 98.34 219.73 98.04 219.73C97.31 219.73 96.78 220.19 96.78 221.05C96.78 221.84 97.24 222.34 98.03 222.34C98.3 222.34 98.57 222.29 98.74 222.21L98.85 222.73C98.69 222.81 98.35 222.9 97.92 222.9C96.78 222.9 96.09 222.18 96.09 221.09C96.09 219.91 96.91 219.2 98.01 219.2V219.19ZM96.55 214.05V205C96.95 204.89 97.46 204.82 98.01 204.82C98.84 204.82 99.52 205 99.99 205.52C100.41 205.98 100.62 206.69 100.62 207.48C100.62 208.41 100.4 209.03 100.04 209.52C99.57 210.16 98.81 210.47 98.15 210.47C98.02 210.47 97.92 210.47 97.8 210.46V214.05H96.56H96.55ZM103.54 219.24V219.79H102.51V222.83H101.86V219.79H100.84V219.24H103.55H103.54ZM101.82 214.05V204.86H103.07V214.05H101.82ZM108.22 207.47V204.87H109.32V214.06H108.17L106.83 210.15C106.54 209.31 106.19 208.2 105.96 207.23H105.94C106 208.29 106.03 209.59 106.03 211.5V214.06H104.93V204.87H106.08L107.41 208.8C107.69 209.63 108.09 210.82 108.33 211.7H108.35C108.28 210.53 108.21 209.11 108.21 207.47H108.22ZM107.62 220.71V221.24H106.27V222.29H107.78V222.83H105.61V219.24H107.7V219.78H106.27V220.71H107.62ZM110.51 206.2V204.86H114.59V206.2H113.18V214.05H111.93V206.2H110.51ZM111.05 219.22C111.72 219.22 112.18 219.36 112.51 219.63C112.86 219.91 113.07 220.34 113.07 220.95C113.07 221.56 112.85 222.07 112.51 222.38C112.15 222.71 111.58 222.87 110.89 222.87C110.51 222.87 110.22 222.85 110.01 222.82V219.29C110.3 219.24 110.67 219.22 111.05 219.22Z" fill="white"/>
</g>
<defs>
<clipPath id="clip0_2063_2">
<rect width="124.36" height="229.35" fill="white"/>
</clipPath>
</defs>
</svg>
