<svg width="106" height="88" viewBox="0 0 106 88" fill="none" xmlns="http://www.w3.org/2000/svg">
<g clip-path="url(#clip0_2072_119)">
<path d="M52.85 63.42C66.8 63.42 79.93 60.23 89.84 54.43C100.06 48.45 105.7 40.38 105.7 31.71C105.7 23.04 100.07 14.97 89.84 8.99C79.93 3.19 66.79 0 52.85 0C38.91 0 25.77 3.19 15.86 8.99C5.63 14.97 0 23.04 0 31.71C0 40.38 5.63 48.45 15.86 54.43C25.77 60.23 38.91 63.42 52.85 63.42Z" fill="#002F4F"/>
<path d="M2.43997 31.71C2.43997 15.61 25.05 2.52 52.85 2.52C80.65 2.52 103.26 15.62 103.26 31.71C103.26 47.8 80.65 60.9 52.85 60.9C25.05 60.9 2.43997 47.81 2.43997 31.71ZM52.85 62.29C81.39 62.29 104.61 48.57 104.61 31.71C104.61 14.85 81.39 1.13 52.85 1.13C24.31 1.13 1.08997 14.85 1.08997 31.71C1.08997 48.57 24.31 62.29 52.85 62.29Z" fill="#DBB05A"/>
<path d="M11.7201 41.11C11.6301 41.73 11.4901 42.44 10.9901 42.55C10.7201 42.61 10.6001 42.61 10.4601 42.61C10.2801 42.61 10.1801 42.65 10.1801 42.74C10.1801 42.9 10.3201 42.94 10.5001 42.94C11.0701 42.94 11.9101 42.88 12.2501 42.88C12.5701 42.88 13.3601 42.94 14.1101 42.94C14.3801 42.94 14.5301 42.9 14.5301 42.74C14.5301 42.65 14.4101 42.61 14.2601 42.61C14.0801 42.61 13.8401 42.59 13.5201 42.52C13.2201 42.45 12.9901 42.28 12.9901 41.94C12.9901 41.65 13.0101 41.41 13.0401 41.08L13.9601 33.81H14.0301C14.6501 35.18 15.7101 37.48 15.8701 37.87C16.0801 38.38 17.4801 41.18 17.9001 42.02C18.1801 42.57 18.3601 42.93 18.5201 42.93C18.6801 42.93 18.7701 42.77 19.1801 41.91L23.0301 33.61H23.1001L24.1601 41.65C24.2301 42.16 24.1801 42.4 24.0701 42.44C23.9501 42.49 23.8801 42.55 23.8801 42.64C23.8801 42.75 23.9901 42.8 24.3901 42.84C25.1001 42.89 27.5401 42.95 27.9801 42.95C28.2301 42.95 28.4401 42.89 28.4401 42.75C28.4401 42.64 28.3201 42.62 28.1601 42.62C27.9301 42.62 27.5801 42.6 27.0601 42.44C26.5301 42.28 26.3501 41.75 26.1901 40.59L24.5801 29.3C24.5301 28.92 24.4201 28.73 24.2601 28.73C24.1001 28.73 23.9901 28.88 23.8701 29.17L19.0601 39.6L14.2301 29.29C14.0001 28.82 13.8901 28.72 13.7501 28.72C13.6101 28.72 13.5001 28.89 13.4501 29.2L11.7001 41.11H11.7201Z" fill="white"/>
<path d="M36.2499 38.17C36.3399 38.17 36.3899 38.21 36.4299 38.3L37.8499 42.17C37.9399 42.39 37.8099 42.55 37.6899 42.59C37.5099 42.61 37.4399 42.64 37.4399 42.75C37.4399 42.88 37.6499 42.88 37.9699 42.9C39.3799 42.94 40.6799 42.94 41.3099 42.94C41.9399 42.94 42.1199 42.9 42.1199 42.76C42.1199 42.63 42.0299 42.61 41.8899 42.61C41.6799 42.61 41.4099 42.59 41.1499 42.54C40.7799 42.45 40.2699 42.19 39.5899 40.55C38.4599 37.77 35.6299 30.32 35.1999 29.31C35.0199 28.89 34.9199 28.73 34.7599 28.73C34.5799 28.73 34.4799 28.93 34.2699 29.46L29.8299 40.94C29.4799 41.85 29.1399 42.47 28.3299 42.58C28.1899 42.6 27.9399 42.62 27.7799 42.62C27.6399 42.62 27.5699 42.66 27.5699 42.77C27.5699 42.92 27.6799 42.95 27.9099 42.95C28.8299 42.95 29.7999 42.89 29.9999 42.89C30.5499 42.89 31.3099 42.95 31.8799 42.95C32.0699 42.95 32.1799 42.91 32.1799 42.77C32.1799 42.66 32.1299 42.62 31.9099 42.62H31.6399C31.0899 42.62 30.9299 42.38 30.9299 42.05C30.9299 41.83 31.0199 41.39 31.1999 40.94L32.1499 38.33C32.1899 38.22 32.2199 38.18 32.3099 38.18H36.2499V38.17ZM32.6599 37.25C32.5899 37.25 32.5699 37.2 32.5899 37.12L34.2199 32.62C34.2399 32.55 34.2699 32.46 34.3299 32.46C34.3899 32.46 34.3999 32.55 34.4199 32.62L36.0099 37.13C36.0299 37.18 36.0099 37.24 35.9199 37.24H32.6699L32.6599 37.25Z" fill="white"/>
<path d="M44.08 37.64C44.08 39.32 44.08 40.76 43.99 41.53C43.92 42.06 43.83 42.46 43.48 42.53C43.32 42.57 43.11 42.6 42.84 42.6C42.63 42.6 42.56 42.65 42.56 42.75C42.56 42.88 42.68 42.93 42.91 42.93C43.62 42.93 44.73 42.87 45.07 42.87C45.34 42.87 46.64 42.93 47.67 42.93C47.9 42.93 48.02 42.87 48.02 42.75C48.02 42.66 47.95 42.6 47.81 42.6C47.6 42.6 47.21 42.56 46.94 42.53C46.41 42.46 46.3 42.06 46.25 41.53C46.16 40.76 46.16 39.32 46.16 37.62V37.36C46.16 37.25 46.21 37.21 46.3 37.21L47.84 37.25C47.96 37.25 48.07 37.27 48.16 37.38C48.39 37.65 49.2 38.9 49.91 39.9C50.9 41.31 51.57 42.17 52.33 42.59C52.79 42.84 53.23 42.94 54.22 42.94H55.9C56.11 42.94 56.24 42.9 56.24 42.76C56.24 42.67 56.17 42.61 56.03 42.61C55.89 42.61 55.73 42.59 55.53 42.56C55.27 42.51 54.54 42.38 53.55 41.32C52.51 40.19 51.29 38.56 49.71 36.51C51.5 35.01 52.04 33.77 52.04 32.42C52.04 31.2 51.33 30.26 50.84 29.92C49.89 29.24 48.7 29.13 47.59 29.13C47.04 29.13 45.7 29.18 45.1 29.18C44.73 29.18 43.61 29.13 42.68 29.13C42.41 29.13 42.29 29.17 42.29 29.29C42.29 29.41 42.4 29.45 42.59 29.45C42.84 29.45 43.14 29.47 43.28 29.5C43.86 29.63 44.01 29.92 44.04 30.54C44.08 31.13 44.08 31.64 44.08 34.41V37.63V37.64ZM46.16 30.31C46.16 30.16 46.19 30.09 46.32 30.05C46.5 30 46.81 29.98 47.26 29.98C48.3 29.98 49.97 30.73 49.97 33.33C49.97 34.83 49.46 35.67 48.93 36.07C48.61 36.31 48.38 36.38 47.68 36.38C47.24 36.38 46.71 36.32 46.34 36.2C46.22 36.15 46.18 36.07 46.18 35.87V30.32L46.16 30.31Z" fill="white"/>
<path d="M89.13 37.64C89.13 39.32 89.13 40.76 89.04 41.53C88.97 42.06 88.88 42.46 88.53 42.53C88.37 42.57 88.16 42.6 87.89 42.6C87.68 42.6 87.61 42.65 87.61 42.75C87.61 42.88 87.73 42.93 87.96 42.93C88.67 42.93 89.78 42.87 90.19 42.87C91.23 42.87 92.42 42.98 95.09 42.98C95.76 42.98 95.92 42.98 96.05 42.5C96.14 42.14 96.28 40.89 96.28 40.47C96.28 40.29 96.28 40.14 96.14 40.14C96.02 40.14 95.98 40.21 95.95 40.41C95.82 41.16 95.61 41.54 95.15 41.76C94.69 41.98 93.95 41.98 93.49 41.98C91.69 41.98 91.4 41.71 91.37 40.45C91.35 39.92 91.37 38.24 91.37 37.62V36.18C91.37 36.07 91.39 36 91.48 36C91.9 36 93.65 36.02 93.99 36.05C94.64 36.12 94.89 36.4 94.98 36.76C95.03 37 95.03 37.23 95.05 37.42C95.05 37.51 95.09 37.58 95.21 37.58C95.37 37.58 95.37 37.38 95.37 37.23C95.37 37.1 95.4 36.37 95.44 36.01C95.49 35.08 95.58 34.79 95.58 34.68C95.58 34.57 95.53 34.53 95.46 34.53C95.37 34.53 95.3 34.62 95.18 34.77C95.02 34.95 94.76 35.01 94.33 35.05C93.92 35.09 91.89 35.09 91.5 35.09C91.39 35.09 91.38 35.02 91.38 34.89V30.27C91.38 30.14 91.42 30.09 91.5 30.09C91.85 30.09 93.71 30.13 94.01 30.16C94.89 30.27 95.07 30.49 95.19 30.82C95.28 31.04 95.3 31.35 95.3 31.48C95.3 31.64 95.33 31.73 95.46 31.73C95.59 31.73 95.62 31.62 95.64 31.53C95.67 31.31 95.71 30.51 95.73 30.33C95.78 29.49 95.87 29.27 95.87 29.14C95.87 29.05 95.85 28.98 95.76 28.98C95.67 28.98 95.56 29.03 95.48 29.05C95.34 29.09 95.06 29.12 94.72 29.16C94.39 29.18 90.87 29.18 90.3 29.18C89.8 29.18 88.69 29.13 87.75 29.13C87.48 29.13 87.36 29.17 87.36 29.29C87.36 29.41 87.47 29.46 87.66 29.46C87.91 29.46 88.21 29.48 88.35 29.51C88.93 29.64 89.08 29.93 89.11 30.55C89.15 31.14 89.15 31.65 89.15 34.42V37.64H89.13Z" fill="white"/>
<path d="M35.0799 24.22C36.2099 24.22 37.5599 24.09 38.2599 23.8C38.5599 23.67 38.6299 23.58 38.7199 23.27C38.8999 22.65 39.1099 21.06 39.1099 20.84C39.1099 20.69 39.0799 20.57 38.9499 20.57C38.8099 20.57 38.7699 20.64 38.7199 20.94C38.6499 21.27 38.4199 21.8 38.1199 22.15C37.4099 22.99 36.4599 23.17 34.8799 23.17C32.5099 23.17 29.3099 21.01 29.3099 16.66C29.3099 14.89 29.6499 13.15 30.9399 11.93C31.7199 11.2 32.7299 10.8 34.2699 10.8C35.8999 10.8 37.2699 11.29 37.8599 11.93C38.2999 12.41 38.5299 13.04 38.5499 13.61C38.5499 13.86 38.5899 14.01 38.7299 14.01C38.8899 14.01 38.9299 13.86 38.9399 13.59C38.9799 13.22 38.9599 12.22 38.9899 11.62C39.0199 10.98 39.0799 10.76 39.0799 10.61C39.0799 10.5 39.0099 10.41 38.8099 10.39C38.2799 10.33 37.7099 10.17 37.0399 10.08C36.2299 9.97 35.5699 9.9 34.4799 9.9C31.8399 9.9 30.1699 10.63 28.8899 11.84C27.1899 13.45 26.8199 15.61 26.8199 16.85C26.8199 18.62 27.2799 20.67 29.0099 22.24C30.6199 23.68 32.6499 24.23 35.0799 24.23" fill="white"/>
<path d="M48.2 19.2C48.29 19.2 48.34 19.24 48.38 19.33L49.8 23.2C49.89 23.42 49.76 23.58 49.64 23.62C49.46 23.64 49.39 23.67 49.39 23.78C49.39 23.91 49.6 23.91 49.92 23.93C51.34 23.97 52.63 23.97 53.26 23.97C53.89 23.97 54.07 23.93 54.07 23.79C54.07 23.66 53.98 23.65 53.84 23.65C53.63 23.65 53.36 23.63 53.1 23.58C52.73 23.49 52.22 23.23 51.54 21.59C50.41 18.81 47.58 11.36 47.15 10.35C46.97 9.93 46.87 9.77 46.71 9.77C46.53 9.77 46.43 9.97 46.22 10.5L41.78 21.98C41.43 22.9 41.09 23.52 40.28 23.63C40.14 23.65 39.89 23.67 39.73 23.67C39.59 23.67 39.52 23.71 39.52 23.81C39.52 23.96 39.63 23.99 39.86 23.99C40.78 23.99 41.75 23.94 41.95 23.94C42.5 23.94 43.26 23.99 43.82 23.99C44.01 23.99 44.12 23.95 44.12 23.81C44.12 23.7 44.07 23.67 43.85 23.67H43.58C43.03 23.67 42.87 23.43 42.87 23.1C42.87 22.88 42.96 22.44 43.13 21.98L44.09 19.37C44.13 19.26 44.16 19.22 44.25 19.22H48.19L48.2 19.2ZM44.61 18.28C44.54 18.28 44.52 18.23 44.54 18.15L46.17 13.66C46.19 13.59 46.22 13.5 46.28 13.5C46.34 13.5 46.35 13.59 46.37 13.66L47.96 18.17C47.98 18.22 47.96 18.28 47.87 18.28H44.62H44.61Z" fill="white"/>
<path d="M57.46 24.22C58.4 24.22 59.39 24.06 60.27 23.47C61.54 22.61 61.93 21.35 61.93 20.29C61.93 18.55 61.15 17.33 59.03 15.63L58.53 15.25C57.06 14.1 56.66 13.46 56.66 12.62C56.66 11.52 57.46 10.74 58.76 10.74C59.91 10.74 60.42 11.29 60.69 11.64C61.06 12.12 61.15 12.68 61.15 12.85C61.15 13.07 61.2 13.18 61.33 13.18C61.47 13.18 61.52 13.03 61.52 12.63C61.52 11.21 61.59 10.67 61.59 10.44C61.59 10.31 61.5 10.26 61.34 10.22C60.88 10.09 60.14 9.91 58.99 9.91C56.53 9.91 54.91 11.35 54.91 13.36C54.91 14.84 55.58 16.12 57.53 17.69L58.34 18.35C59.81 19.52 60.07 20.38 60.07 21.27C60.07 22.24 59.29 23.35 57.7 23.35C56.6 23.35 55.56 22.86 55.17 21.5C55.08 21.19 55.01 20.81 55.01 20.57C55.01 20.42 54.99 20.26 54.83 20.26C54.69 20.26 54.64 20.46 54.62 20.73C54.6 21.02 54.53 22.12 54.53 23.12C54.53 23.52 54.58 23.61 54.87 23.74C55.63 24.09 56.43 24.21 57.45 24.21" fill="white"/>
<path d="M68.3801 15.45C68.3801 12.67 68.3801 12.16 68.4101 11.58C68.4501 10.94 68.5901 10.63 69.0701 10.54C69.2801 10.5 69.3901 10.48 69.5601 10.48C69.7001 10.48 69.8101 10.44 69.8101 10.32C69.8101 10.2 69.6901 10.16 69.4401 10.16C68.8401 10.16 67.7201 10.21 67.3001 10.21C66.8801 10.21 65.7601 10.16 64.8201 10.16C64.5601 10.16 64.4301 10.2 64.4301 10.32C64.4301 10.44 64.5401 10.48 64.7301 10.48C64.9801 10.48 65.2801 10.5 65.4201 10.54C66.0001 10.67 66.1501 10.96 66.1801 11.58C66.2201 12.17 66.2201 12.68 66.2201 15.45V18.67C66.2201 20.35 66.2201 21.79 66.1301 22.56C66.0601 23.09 65.9701 23.49 65.6201 23.56C65.4601 23.6 65.2501 23.63 64.9801 23.63C64.7701 23.63 64.7001 23.69 64.7001 23.78C64.7001 23.91 64.8201 23.96 65.0501 23.96C65.7601 23.96 66.8701 23.9 67.2801 23.9C67.7201 23.9 68.8401 23.96 69.8301 23.96C70.0201 23.96 70.1701 23.9 70.1701 23.78C70.1701 23.69 70.0801 23.63 69.9401 23.63C69.7101 23.63 69.3201 23.59 69.0701 23.56C68.6301 23.49 68.4701 23.08 68.4301 22.57C68.3801 21.78 68.3801 20.34 68.3801 18.66V17H68.4701L68.6601 17.27C69.0301 17.8 72.5201 22.02 73.2901 22.73C74.0501 23.42 74.5301 23.83 75.4801 23.92C75.8501 23.96 76.1701 23.96 76.7001 23.96H78.2401C78.5801 23.96 78.6601 23.9 78.6601 23.78C78.6601 23.67 78.5501 23.63 78.4301 23.63C78.2201 23.63 77.8601 23.57 77.3301 23.36C76.3801 22.98 75.5801 22.15 74.8001 21.39C74.1101 20.71 70.6401 16.86 70.0101 16C70.6101 15.34 73.2801 12.6 73.8301 12.05C74.5901 11.28 75.1901 10.9 75.7401 10.68C76.0801 10.55 76.5201 10.48 76.7701 10.48C76.9501 10.48 77.0301 10.44 77.0301 10.32C77.0301 10.2 76.9101 10.16 76.7301 10.16C76.1801 10.16 75.2101 10.21 74.6601 10.21C74.1801 10.21 73.21 10.16 72.84 10.16C72.65 10.16 72.5601 10.2 72.5601 10.32C72.5601 10.43 72.6301 10.47 72.7901 10.5C72.9701 10.54 73.0401 10.66 73.0401 10.87C73.0401 11.18 72.6501 11.64 72.1601 12.24C71.6501 12.86 69.0701 15.58 68.4601 16.26H68.3701V15.46L68.3801 15.45Z" fill="white"/>
<path d="M70.74 44.97C68.1 45.17 66.1501 44.13 64.4101 42.37C67.2801 42.01 69.93 38.84 69.6 34.84C69.26 30.84 66.2301 27.94 61.8101 28.34C57.3001 28.75 54.87 32.1 55.21 36.14C55.45 38.98 57.25 41.95 60.19 42.42C60.37 42.45 60.6801 42.5 60.9701 42.68C61.3401 42.92 61.85 43.46 62.26 43.77C64.27 45.32 66.9801 45.68 70.7901 45.34L70.7601 44.97H70.74ZM61.8601 29.08C64.6901 28.82 66.7601 30.96 67.1101 35.06C67.4301 38.85 65.9801 41.62 62.9501 41.89C60.0701 42.15 58.0501 39.99 57.7001 35.91C57.3501 31.78 58.8501 29.39 61.8601 29.08Z" fill="white"/>
<path d="M73.18 37.09C73.18 39.74 73.85 41.09 74.76 41.93C76.05 43.14 77.75 43.19 78.69 43.19C79.84 43.19 81.11 42.99 82.37 41.87C83.85 40.55 84.05 38.4 84.05 36.37V34.41C84.05 31.63 84.05 31.12 84.09 30.54C84.12 29.9 84.27 29.59 84.74 29.5C84.95 29.46 85.06 29.45 85.25 29.45C85.46 29.45 85.57 29.41 85.57 29.29C85.57 29.17 85.45 29.13 85.2 29.13C84.51 29.13 83.4 29.18 83.18 29.18C83.16 29.18 82.05 29.13 81.15 29.13C80.9 29.13 80.78 29.17 80.78 29.29C80.78 29.41 80.89 29.45 81.08 29.45C81.27 29.45 81.58 29.47 81.72 29.5C82.3 29.63 82.44 29.92 82.48 30.54C82.51 31.13 82.51 31.64 82.51 34.41V36.69C82.51 38.57 82.46 40.22 81.48 41.22C80.77 41.95 79.82 42.21 79.04 42.21C78.44 42.21 77.62 42.14 76.83 41.46C75.96 40.73 75.45 39.61 75.45 36.97V34.41C75.45 31.63 75.45 31.12 75.49 30.54C75.53 29.9 75.67 29.59 76.14 29.5C76.35 29.46 76.46 29.45 76.65 29.45C76.83 29.45 76.94 29.41 76.94 29.29C76.94 29.17 76.82 29.13 76.55 29.13C75.91 29.13 74.8 29.18 74.38 29.18C73.85 29.18 72.73 29.13 71.8 29.13C71.53 29.13 71.41 29.17 71.41 29.29C71.41 29.41 71.52 29.45 71.71 29.45C71.96 29.45 72.26 29.47 72.4 29.5C72.98 29.63 73.13 29.92 73.16 30.54C73.19 31.13 73.19 31.64 73.19 34.41V37.08L73.18 37.09Z" fill="white"/>
<path d="M43.07 49.83C42.94 49.62 42.75 49.43 42.49 49.29C42.23 49.15 41.91 49.17 41.56 49.17C41.25 49.17 40.95 49.26 40.6 49.39L40.57 49.02H40.63C40.74 49.02 40.84 48.92 40.84 48.81C40.84 48.7 40.75 48.6 40.63 48.6H35.28C35.17 48.6 35.07 48.7 35.07 48.81C35.07 48.92 35.16 49.02 35.28 49.02H35.38L35.02 54.02H34.94C34.88 54.02 34.83 54.1 34.83 54.2C34.83 54.24 34.84 54.28 34.86 54.32C34.71 54.36 34.59 54.52 34.59 54.7C34.59 54.87 34.68 55.01 34.82 55.07H34.65C34.59 55.07 34.53 55.14 34.53 55.23C34.53 55.26 34.53 55.28 34.54 55.3C34.42 55.42 34.35 55.6 34.35 55.79C34.35 55.83 34.35 55.87 34.35 55.9C34.24 55.95 34.17 56.05 34.17 56.18C34.17 56.35 34.31 56.48 34.47 56.48H41.39C41.56 56.48 41.69 56.34 41.69 56.18C41.69 56.06 41.62 55.96 41.52 55.91C41.52 55.87 41.52 55.83 41.52 55.79C41.52 55.62 41.46 55.47 41.37 55.35C41.4 55.32 41.42 55.28 41.42 55.22C41.42 55.13 41.37 55.06 41.3 55.06H41.08C41.21 55 41.31 54.86 41.31 54.69C41.31 54.51 41.2 54.35 41.04 54.31C41.06 54.28 41.07 54.24 41.07 54.19C41.07 54.09 41.02 54.01 40.97 54.01H40.92L40.9 53.66C40.9 53.66 40.95 53.62 40.98 53.6C41.6 53.36 42.19 53.23 42.58 52.83C43.07 52.35 43.26 52.05 43.29 51.38C43.29 51.3 43.29 51.22 43.29 51.14C43.29 50.7 43.32 50.23 43.06 49.81M42.44 51.37C42.41 51.86 42.21 52.26 41.86 52.62C41.62 52.86 41.27 53 40.88 53.18L40.66 50.03C41.02 49.93 41.4 49.9 41.58 49.9C41.78 49.9 41.9 49.94 42 49.99C42.07 50.03 42.13 50.08 42.19 50.15C42.28 50.25 42.35 50.4 42.39 50.58C42.44 50.76 42.46 50.96 42.46 51.16C42.46 51.23 42.46 51.3 42.46 51.36" fill="#DBB05A"/>
<path d="M57.79 49.86C57.66 49.65 57.47 49.46 57.21 49.32C56.95 49.18 56.63 49.2 56.28 49.21C55.97 49.21 55.67 49.31 55.32 49.43L55.29 49.06H55.35C55.46 49.06 55.56 48.96 55.56 48.85C55.56 48.74 55.47 48.64 55.35 48.64H50C49.89 48.64 49.79 48.73 49.79 48.85C49.79 48.97 49.88 49.06 50 49.06H50.09L49.74 54.05H49.66C49.6 54.05 49.55 54.13 49.55 54.23C49.55 54.28 49.56 54.32 49.58 54.35C49.42 54.39 49.31 54.55 49.31 54.73C49.31 54.9 49.41 55.04 49.54 55.1H49.37C49.3 55.1 49.25 55.17 49.25 55.26C49.25 55.29 49.25 55.31 49.26 55.33C49.14 55.46 49.07 55.63 49.07 55.82C49.07 55.86 49.07 55.9 49.07 55.93C48.96 55.98 48.89 56.08 48.89 56.21C48.89 56.38 49.03 56.51 49.19 56.51H56.11C56.28 56.51 56.41 56.38 56.41 56.21C56.41 56.09 56.34 55.98 56.24 55.93C56.24 55.89 56.24 55.85 56.24 55.81C56.24 55.64 56.18 55.49 56.09 55.37C56.12 55.34 56.14 55.3 56.14 55.25C56.14 55.17 56.09 55.09 56.02 55.09H55.8C55.93 55.03 56.03 54.89 56.03 54.72C56.03 54.53 55.92 54.38 55.76 54.34C55.78 54.31 55.79 54.27 55.79 54.22C55.79 54.12 55.74 54.04 55.69 54.04H55.64L55.62 53.69C55.62 53.69 55.67 53.65 55.7 53.64C56.32 53.4 56.91 53.27 57.3 52.88C57.79 52.4 57.98 52.09 58.01 51.43C58.01 51.35 58.01 51.27 58.01 51.18C58.01 50.74 58.04 50.27 57.78 49.85M57.15 51.4C57.12 51.89 56.92 52.29 56.57 52.65C56.33 52.89 55.98 53.02 55.59 53.21L55.37 50.06C55.73 49.97 56.11 49.93 56.29 49.93C56.49 49.93 56.61 49.97 56.71 50.02C56.78 50.06 56.84 50.11 56.9 50.18C56.99 50.29 57.06 50.43 57.1 50.61C57.15 50.79 57.17 50.99 57.17 51.19C57.17 51.26 57.17 51.33 57.17 51.39" fill="#DBB05A"/>
<path d="M72.37 49.86C72.24 49.65 72.05 49.46 71.79 49.32C71.53 49.18 71.21 49.2 70.86 49.21C70.55 49.21 70.25 49.31 69.9 49.43L69.87 49.06H69.93C70.04 49.06 70.14 48.96 70.14 48.85C70.14 48.74 70.05 48.63 69.93 48.63H64.58C64.46 48.63 64.37 48.73 64.37 48.85C64.37 48.97 64.46 49.06 64.58 49.06H64.67L64.31 54.05H64.23C64.17 54.05 64.13 54.13 64.13 54.23C64.13 54.27 64.14 54.32 64.16 54.35C64.01 54.39 63.89 54.55 63.89 54.73C63.89 54.9 63.98 55.04 64.12 55.1H63.95C63.89 55.1 63.83 55.17 63.83 55.26C63.83 55.29 63.83 55.31 63.84 55.33C63.72 55.46 63.64 55.63 63.64 55.82C63.64 55.86 63.64 55.9 63.65 55.93C63.54 55.98 63.47 56.08 63.47 56.21C63.47 56.38 63.61 56.51 63.77 56.51H70.69C70.86 56.51 70.99 56.38 70.99 56.21C70.99 56.09 70.92 55.98 70.82 55.94C70.82 55.9 70.82 55.86 70.82 55.82C70.82 55.65 70.76 55.5 70.67 55.38C70.7 55.35 70.72 55.31 70.72 55.26C70.72 55.18 70.67 55.1 70.6 55.1H70.38C70.51 55.05 70.61 54.9 70.61 54.73C70.61 54.54 70.5 54.39 70.34 54.35C70.36 54.32 70.37 54.28 70.37 54.23C70.37 54.13 70.32 54.05 70.27 54.05H70.22L70.2 53.7C70.2 53.7 70.25 53.66 70.28 53.65C70.9 53.41 71.49 53.28 71.88 52.89C72.37 52.41 72.56 52.1 72.59 51.44C72.59 51.36 72.59 51.28 72.59 51.19C72.59 50.75 72.62 50.28 72.36 49.86M71.74 51.4C71.71 51.89 71.51 52.29 71.16 52.65C70.92 52.89 70.57 53.02 70.18 53.21L69.96 50.06C70.32 49.97 70.7 49.93 70.88 49.93C71.08 49.93 71.2 49.97 71.3 50.02C71.37 50.06 71.43 50.11 71.49 50.18C71.58 50.28 71.65 50.44 71.69 50.61C71.73 50.79 71.76 50.99 71.76 51.19C71.76 51.26 71.76 51.33 71.76 51.39" fill="#DBB05A"/>
<path d="M102.57 79.18H103.82V71.33H105.23V69.99H101.15V71.33H102.57V79.18ZM96.68 79.18V76.62C96.68 74.71 96.64 73.42 96.59 72.35H96.61C96.83 73.32 97.18 74.42 97.48 75.27L98.82 79.18H99.97V69.99H98.87V72.59C98.87 74.23 98.94 75.64 99.01 76.82H98.99C98.74 75.93 98.35 74.75 98.07 73.92L96.74 69.99H95.59V79.18H96.69H96.68ZM92.47 69.99V79.18H93.72V69.99H92.47ZM88.44 71.2C88.54 71.16 88.7 71.13 88.87 71.13C89.71 71.13 90.02 71.85 90.02 72.71C90.02 73.76 89.56 74.41 88.75 74.41C88.62 74.41 88.54 74.41 88.45 74.38V71.19L88.44 71.2ZM87.2 79.18H88.44V75.59C88.56 75.6 88.66 75.6 88.79 75.6C89.46 75.6 90.22 75.29 90.68 74.65C91.04 74.16 91.26 73.53 91.26 72.61C91.26 71.82 91.05 71.11 90.63 70.65C90.16 70.13 89.48 69.95 88.65 69.95C88.1 69.95 87.59 70.02 87.19 70.13V79.18H87.2ZM81.48 79.18H82.73V71.33H84.14V69.99H80.06V71.33H81.48V79.18ZM76.89 75.65L77.24 73.55C77.33 72.98 77.45 72.09 77.53 71.45H77.57C77.65 72.09 77.76 72.94 77.86 73.53L78.19 75.64H76.89V75.65ZM78.32 76.79L78.74 79.18H79.95L78.33 69.99H76.87L75.12 79.18H76.34L76.76 76.79H78.33H78.32ZM74.02 73.78H72.15V71.26H74.14V69.99H70.9V79.18H74.28V77.91H72.15V74.99H74.02V73.78ZM66.6 71.15C66.7 71.11 66.86 71.1 67.02 71.1C67.83 71.11 68.14 71.73 68.14 72.63C68.14 73.53 67.67 74.25 66.92 74.25H66.59V71.16L66.6 71.15ZM65.36 79.18H66.6V75.36H66.88C67.51 75.36 67.8 75.74 67.96 76.94C68.09 78.02 68.26 78.92 68.36 79.18H69.66C69.53 78.87 69.35 77.89 69.18 76.77C69.02 75.68 68.74 75.07 68.18 74.83V74.8C68.97 74.38 69.42 73.55 69.42 72.48C69.42 71.72 69.27 71.1 68.82 70.61C68.36 70.11 67.69 69.94 66.87 69.94C66.36 69.94 65.81 69.99 65.37 70.12V79.17L65.36 79.18ZM63.83 74.17H61.83V75.37H62.67V77.95C62.6 77.99 62.47 78.02 62.26 78.02C61.43 78.02 60.61 77.18 60.61 74.68C60.61 72.18 61.54 71.22 62.56 71.22C62.96 71.22 63.25 71.3 63.46 71.44L63.71 70.19C63.46 70.04 63.04 69.92 62.49 69.92C60.95 69.92 59.33 71.23 59.31 74.68C59.3 76.3 59.67 77.62 60.29 78.37C60.82 79.01 61.48 79.27 62.29 79.27C62.84 79.27 63.48 79.11 63.82 78.94V74.18L63.83 74.17ZM53.49 75.65L53.84 73.55C53.93 72.98 54.05 72.09 54.13 71.45H54.17C54.25 72.09 54.36 72.94 54.46 73.53L54.79 75.64H53.49V75.65ZM54.92 76.79L55.34 79.18H56.56L54.94 69.99H53.48L51.73 79.18H52.94L53.36 76.79H54.93H54.92ZM45.59 79.18H46.84V75.21H48.7V74H46.84V71.26H48.83V69.99H45.59V79.18ZM41.85 78.02C41.02 78.02 40.73 76.37 40.74 74.56C40.73 72.86 41.02 71.15 41.85 71.15C42.68 71.15 42.93 72.87 42.93 74.53C42.93 76.37 42.67 78.02 41.87 78.02H41.86H41.85ZM41.8 79.29C43.18 79.29 44.22 77.93 44.22 74.46C44.22 71.98 43.57 69.88 41.92 69.88C40.27 69.88 39.44 71.82 39.44 74.57C39.44 77.32 40.22 79.29 41.79 79.29H41.8ZM32.94 79.18V76.62C32.94 74.71 32.9 73.42 32.85 72.35H32.87C33.09 73.32 33.44 74.42 33.74 75.27L35.08 79.18H36.23V69.99H35.13V72.59C35.13 74.23 35.2 75.64 35.27 76.82H35.25C35 75.93 34.61 74.75 34.33 73.92L33 69.99H31.85V79.18H32.95H32.94ZM30.31 74.17H28.31V75.37H29.15V77.95C29.08 77.99 28.95 78.02 28.74 78.02C27.91 78.02 27.09 77.18 27.09 74.68C27.09 72.18 28.02 71.22 29.04 71.22C29.44 71.22 29.73 71.3 29.94 71.44L30.19 70.19C29.94 70.04 29.52 69.92 28.97 69.92C27.43 69.92 25.81 71.23 25.79 74.68C25.78 76.3 26.15 77.62 26.77 78.37C27.3 79.01 27.96 79.27 28.77 79.27C29.32 79.27 29.96 79.11 30.3 78.94V74.18L30.31 74.17ZM23.16 69.99V79.18H24.41V69.99H23.16ZM17.99 78.88C18.24 79.07 18.83 79.26 19.42 79.26C20.83 79.26 21.84 78.21 21.84 76.56C21.84 75.58 21.44 74.69 20.45 73.93C19.64 73.33 19.33 73 19.33 72.29C19.33 71.73 19.67 71.17 20.38 71.17C20.8 71.17 21.13 71.32 21.35 71.48L21.57 70.23C21.36 70.08 20.9 69.9 20.4 69.9C18.93 69.9 18.1 71.03 18.1 72.46C18.1 73.46 18.71 74.37 19.58 75.02C20.22 75.54 20.61 75.96 20.61 76.7C20.61 77.44 20.19 77.98 19.42 77.98C19.01 77.98 18.5 77.82 18.2 77.61L17.99 78.86V78.88ZM14.91 73.78H13.04V71.26H15.03V69.99H11.79V79.18H15.17V77.91H13.04V74.99H14.91V73.78ZM5.68001 69.99V79.18H6.93001V75.13H8.80001V79.18H10.05V69.99H8.80001V73.79H6.93001V69.99H5.68001ZM1.81001 79.18H3.06001V71.33H4.47001V69.99H0.390015V71.33H1.81001V79.18Z" fill="#DBB05A"/>
<path d="M101.31 84.89C101.4 84.87 101.55 84.85 101.76 84.85C102.58 84.85 103.04 85.3 103.03 86.1C103.03 87.01 102.52 87.48 101.67 87.47C101.54 87.47 101.4 87.47 101.31 87.45V84.88V84.89ZM100.65 87.94C100.86 87.97 101.15 87.99 101.53 87.99C102.23 87.99 102.8 87.83 103.15 87.5C103.49 87.19 103.71 86.71 103.71 86.07C103.71 85.43 103.5 85.03 103.15 84.75C102.82 84.47 102.36 84.34 101.69 84.34C101.3 84.34 100.94 84.37 100.65 84.41V87.94ZM98.27 85.83H96.92V84.9H98.35V84.36H96.26V87.95H98.43V87.41H96.92V86.36H98.27V85.83ZM92.5 87.95H93.15V84.91H94.18V84.36H91.47V84.91H92.49V87.95H92.5ZM89.39 87.33C89.22 87.41 88.94 87.46 88.68 87.46C87.89 87.46 87.43 86.95 87.43 86.17C87.43 85.31 87.96 84.85 88.69 84.85C88.99 84.85 89.22 84.92 89.39 84.99L89.53 84.47C89.4 84.4 89.09 84.31 88.66 84.31C87.56 84.31 86.74 85.02 86.74 86.2C86.74 87.29 87.43 88.01 88.57 88.01C89 88.01 89.34 87.93 89.5 87.84L89.39 87.32V87.33ZM84.55 85.83H83.2V84.9H84.63V84.36H82.54V87.95H84.71V87.41H83.2V86.36H84.55V85.83ZM78.56 84.87C78.63 84.85 78.76 84.84 78.94 84.84C79.39 84.84 79.67 85.05 79.67 85.45C79.67 85.87 79.37 86.11 78.88 86.11C78.75 86.11 78.64 86.11 78.56 86.08V84.87ZM77.92 87.95H78.57V86.6C78.65 86.62 78.77 86.62 78.89 86.62C79.35 86.62 79.76 86.5 80.02 86.24C80.22 86.05 80.33 85.77 80.33 85.43C80.33 85.09 80.19 84.81 79.98 84.64C79.75 84.45 79.4 84.35 78.92 84.35C78.48 84.35 78.15 84.38 77.92 84.42V87.96V87.95ZM73.34 87.78C73.54 87.9 73.93 88.01 74.31 88.01C75.24 88.01 75.67 87.5 75.67 86.93C75.67 86.41 75.37 86.1 74.74 85.87C74.26 85.68 74.05 85.56 74.05 85.28C74.05 85.07 74.23 84.85 74.65 84.85C74.98 84.85 75.23 84.95 75.36 85.02L75.52 84.49C75.33 84.39 75.05 84.31 74.66 84.31C73.88 84.31 73.39 84.76 73.39 85.34C73.39 85.86 73.77 86.17 74.36 86.38C74.82 86.54 75 86.71 75 86.98C75 87.27 74.76 87.47 74.34 87.47C74.01 87.47 73.69 87.36 73.47 87.24L73.33 87.78H73.34ZM68.86 87.95V86.67C68.86 86.08 68.86 85.61 68.83 85.14H68.85C69.02 85.54 69.26 85.98 69.49 86.37L70.43 87.95H71.11V84.36H70.5V85.61C70.5 86.16 70.52 86.62 70.56 87.1C70.39 86.71 70.19 86.3 69.95 85.9L69.02 84.36H68.27V87.95H68.87H68.86ZM65.2 87.95H65.85V84.36H65.2V87.95ZM58.89 87.95V86.44L60.08 84.36H59.34L58.91 85.28C58.79 85.54 58.69 85.76 58.6 85.99H58.59C58.49 85.75 58.4 85.54 58.28 85.28L57.85 84.36H57.1L58.23 86.45V87.95H58.89ZM53.61 87.95H55.74V87.4H54.27V84.36H53.61V87.95ZM49.85 87.95H50.5V84.91H51.53V84.36H48.82V84.91H49.84V87.95H49.85ZM44.52 87.95V86.67C44.52 86.08 44.52 85.61 44.49 85.14H44.51C44.69 85.54 44.92 85.98 45.15 86.37L46.09 87.95H46.77V84.36H46.16V85.61C46.16 86.16 46.18 86.62 46.22 87.1H46.21C46.04 86.71 45.84 86.3 45.6 85.9L44.67 84.36H43.92V87.95H44.52ZM41.54 85.83H40.19V84.9H41.62V84.36H39.54V87.95H41.7V87.41H40.19V86.36H41.54V85.83ZM34.9 84.89C34.99 84.87 35.14 84.85 35.35 84.85C36.17 84.85 36.63 85.3 36.62 86.1C36.62 87.01 36.11 87.48 35.26 87.47C35.13 87.47 34.99 87.47 34.9 87.45V84.88V84.89ZM34.24 87.94C34.45 87.97 34.74 87.99 35.12 87.99C35.82 87.99 36.39 87.83 36.74 87.5C37.08 87.19 37.3 86.71 37.3 86.07C37.3 85.43 37.09 85.03 36.74 84.75C36.41 84.47 35.95 84.34 35.28 84.34C34.89 84.34 34.52 84.37 34.24 84.41V87.94ZM29.6 87.95V86.67C29.6 86.08 29.6 85.61 29.57 85.14H29.59C29.77 85.54 30 85.98 30.23 86.37L31.17 87.95H31.85V84.36H31.24V85.61C31.24 86.16 31.26 86.62 31.3 87.1H31.29C31.13 86.71 30.92 86.3 30.68 85.9L29.75 84.36H29.01V87.95H29.61H29.6ZM26.61 85.83H25.26V84.9H26.69V84.36H24.6V87.95H26.77V87.41H25.26V86.36H26.61V85.83ZM20.63 84.87C20.7 84.85 20.83 84.84 21.01 84.84C21.46 84.84 21.74 85.05 21.74 85.45C21.74 85.87 21.44 86.11 20.95 86.11C20.82 86.11 20.71 86.11 20.63 86.08V84.87ZM19.98 87.95H20.63V86.6C20.72 86.62 20.83 86.62 20.95 86.62C21.41 86.62 21.82 86.5 22.08 86.24C22.28 86.05 22.39 85.77 22.39 85.43C22.39 85.09 22.25 84.81 22.04 84.64C21.81 84.45 21.46 84.35 20.98 84.35C20.54 84.35 20.21 84.38 19.98 84.42V87.96V87.95ZM17.6 85.83H16.25V84.9H17.68V84.36H15.59V87.95H17.76V87.41H16.25V86.36H17.6V85.83ZM10.96 84.89C11.05 84.87 11.2 84.85 11.41 84.85C12.23 84.85 12.69 85.3 12.68 86.1C12.68 87.01 12.17 87.48 11.32 87.47C11.19 87.47 11.05 87.47 10.96 87.45V84.88V84.89ZM10.31 87.94C10.52 87.97 10.81 87.99 11.19 87.99C11.89 87.99 12.46 87.83 12.81 87.5C13.15 87.19 13.37 86.71 13.37 86.07C13.37 85.43 13.16 85.03 12.81 84.75C12.48 84.47 12.02 84.34 11.35 84.34C10.96 84.34 10.59 84.37 10.31 84.41V87.94ZM5.66 87.95V86.67C5.66 86.08 5.66 85.61 5.63 85.14H5.65C5.83 85.54 6.06 85.98 6.29 86.37L7.23 87.95H7.91V84.36H7.3V85.61C7.3 86.16 7.32 86.62 7.36 87.1H7.35C7.19 86.71 6.98 86.3 6.74 85.9L5.81 84.36H5.06V87.95H5.66ZM2 87.95H2.65V84.36H2V87.95Z" fill="#DBB05A"/>
</g>
<defs>
<clipPath id="clip0_2072_119">
<rect width="105.7" height="88.01" fill="white"/>
</clipPath>
</defs>
</svg>
