<svg width="312" height="303" viewBox="0 0 312 303" fill="none" xmlns="http://www.w3.org/2000/svg">
<g clip-path="url(#clip0_2079_425)">
<path d="M7.30998 113.34C7.30998 113.34 4.66998 120.5 4.11998 123.58C3.56998 126.66 1.47998 141.41 1.47998 141.41L4.33998 180.71C4.33998 180.71 21.4 226.4 29.99 238.07C38.58 249.74 75.68 282.99 95.27 289.15C114.86 295.31 139.86 302.47 173.32 296.97C206.78 291.47 236.07 271.32 236.07 271.32C236.07 271.32 236.62 275.17 246.86 275.39C257.1 275.61 268.44 275.61 272.4 277.04C276.36 278.47 280.33 279.13 280.33 279.13C280.33 279.13 282.97 273.63 278.46 270.54C273.95 267.45 270.86 266.14 268.88 266.14C266.9 266.14 262.05 266.69 261.83 266.36C261.61 266.03 257.98 260.53 257.98 260.53C257.98 260.53 284.73 258.33 285.06 258.33C285.39 258.33 304.55 257.34 304.55 257.34L304.77 250.73L289.58 247.65L284.96 249.41C284.96 249.41 277.47 246.22 272.41 245.34C267.35 244.46 263.71 243.8 263.71 243.8L268 241.38C268 241.38 281.43 241.82 287.93 243.03C294.43 244.24 294.98 244.57 298.06 242.7C301.14 240.83 300.7 236.87 300.7 236.87C300.7 236.87 291.23 230.48 285.62 231.15C280.01 231.82 279.12 231.92 279.12 231.92L276.59 228.95L282.2 223.12L293.43 219.27C293.43 219.27 296.07 216.85 294.09 214.76C292.11 212.67 287.37 211.57 287.37 211.57C287.37 211.57 295.96 195.5 298.6 171.72C301.24 147.94 298.38 126.47 296.51 119.76C294.64 113.05 286.16 87.5 278.9 74.51C271.64 61.52 248.51 37.19 236.62 29.15C224.73 21.11 207.89 11.76 190.93 6.8C173.97 1.84 154.05 2.4 135 4.49C115.95 6.58 72.91 25.3 72.91 25.3C72.91 25.3 81.94 31.24 78.74 55.24C75.54 79.24 42.43 109.7 7.30998 113.34Z" fill="white"/>
<path d="M193.15 40.59L192.91 48.57C193.64 48.91 194.36 49.27 195.08 49.66L195.3 44.95L193.15 40.59Z" fill="#3E3F55"/>
<path d="M227.87 129.53L227.99 121.22L225.84 116.86L225.74 123.97C226.31 125.59 227.05 127.53 227.87 129.53Z" fill="#3E3F55"/>
<path d="M207.64 59.4C207.78 59.61 207.95 59.85 208.14 60.11L208.28 43.63L208.3 41.81L208.14 42.34L207.82 43.42L207.17 45.61L206.65 58.23C206.93 58.52 207.17 58.79 207.36 59.02C207.47 59.16 207.57 59.29 207.64 59.4Z" fill="#3E3F55"/>
<path d="M174.92 36.19L173.79 39.99L173.66 43.05C174.07 43.09 174.47 43.12 174.86 43.17L174.92 36.19Z" fill="#3E3F55"/>
<path d="M172.04 37.94L170.91 41.74L170.86 42.91C171.23 42.91 171.61 42.93 172 42.94L172.04 37.93V37.94Z" fill="#3E3F55"/>
<path d="M185.41 31.67L184.69 33.83L184.65 35.46L184.38 45.22C184.77 45.35 185.17 45.48 185.56 45.62L185.46 35.68L185.42 31.67H185.41Z" fill="#3E3F55"/>
<path d="M146.75 36.07L146.19 49.73L147.56 46.39L148.04 32.21L146.75 36.07Z" fill="#3E3F55"/>
<path d="M152.72 22.83L151.89 20.47V29.86V36.61L153.02 31.36L152.97 29.93L152.72 22.83Z" fill="#3E3F55"/>
<path d="M263.47 94.53V91.74L263.04 93.74L262.34 96.98L262.65 102.33L263.47 104.69V94.53Z" fill="#3E3F55"/>
<path d="M236.64 129.3L237.77 124.06L237.46 108.09L236.64 105.72V129.3Z" fill="#3E3F55"/>
<path d="M269.94 112.47L269.12 110.11V133.68L270.25 128.44L269.94 112.47Z" fill="#3E3F55"/>
<path d="M234.37 103.19V119.06L235.5 113.82L235.19 103.16L235.1 102.89C234.86 103 234.62 103.1 234.37 103.19Z" fill="#3E3F55"/>
<path d="M204.53 47.19L204.61 42.08L204.73 34.34C204.73 34.34 203.5 37.53 203.5 37.84C203.5 38.15 202.99 34.55 202.99 34.55L202.3 41.18L202.06 43.5L203.09 42.16L204.02 52.13L204.53 47.2V47.19Z" fill="#3E3F55"/>
<path d="M223.46 43.99L222.5 50.88L222.48 51.04L223.57 53.88L223.02 66.41L224.95 53.03C224.95 53.03 224.77 52.64 224.56 52.13C224.24 51.37 223.85 50.35 223.87 49.98C223.9 49.36 224.19 41.97 224.19 41.97L223.47 43.99H223.46Z" fill="#3E3F55"/>
<path d="M79.5099 72.79L80.2999 59.29C80.2999 59.29 78.9899 56.97 78.9699 56.35C78.9499 55.73 78.5999 48.34 78.5999 48.34L78.0499 50.42L77.6699 57.53L78.9899 60.26L79.5099 72.79Z" fill="#3E3F55"/>
<path d="M160.99 43.99L162.38 41.29L162.17 34.17L161.67 32.08C161.67 32.08 161.15 39.46 161.11 40.08C161.07 40.7 159.71 42.99 159.71 42.99L159.81 45.77C160.14 45.55 160.51 45.33 160.92 45.11L160.99 43.98V43.99Z" fill="#3E3F55"/>
<path d="M104.75 99.75C105.33 97.24 106.12 94.3 107.19 90.71L106.82 79.79L106 92.31L104.61 95.01L104.75 99.76V99.75Z" fill="#3E3F55"/>
<path d="M222.51 113.54L223.81 104.55C223.25 104.53 222.71 104.49 222.22 104.45L222.47 105.1L222.15 112.37C222.27 112.76 222.39 113.15 222.51 113.53V113.54Z" fill="#3E3F55"/>
<path d="M235.02 56.6L234.3 58.62L234.26 58.89L233.83 62C234.17 62.03 234.5 62.09 234.81 62.16C234.84 61.29 234.88 60.3 234.92 59.4C234.98 57.87 235.03 56.59 235.03 56.59L235.02 56.6Z" fill="#3E3F55"/>
<path d="M241.44 153.28C242.14 154.19 242.77 154.95 243.3 155.49C243.35 155.54 243.41 155.6 243.46 155.65C243.8 155.98 244.15 156.32 244.52 156.66C244.35 149.19 244.05 136.07 244.02 134.43C244.02 134.32 244.02 134.26 244.02 134.26L243.97 134.58L243.46 138.15L241.34 152.97L241.45 153.27L241.44 153.28Z" fill="#3E3F55"/>
<path d="M265.62 170.29C265.85 170.34 266.07 170.39 266.3 170.44C267.27 170.65 268.19 170.85 269.07 171.1C270.9 171.63 271.97 172.01 273.03 172.44C273.11 165.02 273.97 138.11 273.97 138.11L270.18 160.78L268.22 152.99L265.62 170.28V170.29Z" fill="#3E3F55"/>
<path d="M258.88 123.78V161.34L259.98 158.32L260.39 130.91L258.88 123.78Z" fill="#3E3F55"/>
<path d="M96.04 64.02V101.58L97.14 98.56L97.55 71.15L96.04 64.02Z" fill="#3E3F55"/>
<path d="M112.49 184.98C111.88 185.28 111.23 185.62 110.56 185.99C110.48 191.51 110.43 195.49 110.43 195.61L112.49 188.89V184.98Z" fill="#3E3F55"/>
<path d="M134.21 37.43L131.2 58.66C132.37 56.52 133.27 54.42 133.87 52.84C134.03 45.34 134.21 37.43 134.21 37.43Z" fill="#3E3F55"/>
<path d="M112.95 76.91C113.65 75.62 114.35 74.43 115.03 73.33L113.94 57.35C113.94 57.35 113.37 68.53 112.95 76.91Z" fill="#3E3F55"/>
<path d="M110.7 81.36C111.22 80.24 111.75 79.17 112.28 78.14L111.47 66.19C111.47 66.19 111.08 73.93 110.7 81.36Z" fill="#3E3F55"/>
<path d="M103.58 76.18C103.58 76.18 104.2 77.82 104.4 78.13L105.33 74.02L103.38 56.34L103.59 76.18H103.58Z" fill="#3E3F55"/>
<path d="M121.36 42.67L120.44 38.46L120.54 51.72L121.67 54.9L121.36 42.67Z" fill="#3E3F55"/>
<path d="M121.57 220.38L121.36 205.1L120.43 200.89L120.51 220.44C120.86 220.42 121.21 220.4 121.56 220.39L121.57 220.38Z" fill="#3E3F55"/>
<path d="M117.45 202.29L118.38 206.5L118.28 195.9L117.15 192.71L117.45 202.29Z" fill="#3E3F55"/>
<path d="M84.7998 80.19L84.8998 93.45L86.0298 96.64L85.7198 84.41L84.7998 80.19Z" fill="#3E3F55"/>
<path d="M118.17 28.9L117.87 32.2L116.93 42.68L117.96 45.25C117.96 44.96 118.06 36.83 118.12 32.15C118.14 30.24 118.16 28.9 118.16 28.9H118.17Z" fill="#3E3F55"/>
<path d="M94.85 39.13C94.9 35.57 94.94 32.39 94.94 32.39L94.32 39.35L93.71 46.17L94.74 48.74C94.74 48.51 94.8 43.53 94.86 39.13H94.85Z" fill="#3E3F55"/>
<path d="M104.66 93.1L105.53 92.02L105.27 88.01L104.66 93.1Z" fill="#3E3F55"/>
<path d="M75.5098 131.36L78.1498 144.46L76.1598 106.39L75.5098 131.36Z" fill="#3E3F55"/>
<path d="M29.5199 187.1L29.0499 177.01C28.7499 176.39 28.4699 175.81 28.2199 175.31L27.8999 188.79C27.8999 188.79 27.9699 188.71 28.0099 188.68C28.5099 188.16 29.0099 187.69 29.5199 187.11V187.1Z" fill="#3E3F55"/>
<path d="M74.83 111.35L73.23 120.79L74.65 125.92L74.83 111.35Z" fill="#3E3F55"/>
<path d="M70.1101 152.1L70.3401 160.34C70.5901 160.4 70.8301 160.46 71.0501 160.53C72.2401 160.87 73.0801 161.27 73.5101 161.5C73.8601 161.02 74.2201 160.55 74.5801 160.08L73.6901 152.85L69.8501 143.12L70.1001 152.11L70.1101 152.1Z" fill="#3E3F55"/>
<path d="M93.02 115.21L93.23 126.11C93.23 126.11 93.85 122.82 94.05 122C94.26 121.18 93.23 112.13 93.23 112.13L93.02 115.21Z" fill="#3E3F55"/>
<path d="M89.7999 132.55L88.3999 145.89C89.0399 145.35 89.6699 144.84 90.2999 144.34C90.0799 139.31 89.8099 132.56 89.8099 132.56L89.7999 132.55Z" fill="#3E3F55"/>
<path d="M61.28 159.98C61.13 156.51 61.01 153.52 61.01 153.52L60.5 158.4L61.28 159.98Z" fill="#3E3F55"/>
<path d="M86.3701 143.11L85.8501 148.1C86.0901 147.89 86.3201 147.68 86.5501 147.48C86.4501 144.98 86.3701 143.11 86.3701 143.11Z" fill="#3E3F55"/>
<path d="M58.3799 154.1L58.4199 154.16L59.1699 155.69C58.9899 151.51 58.8299 147.43 58.8299 147.43L58.1699 153.71C58.2899 153.97 58.3799 154.1 58.3799 154.11V154.1Z" fill="#3E3F55"/>
<path d="M70.4702 73.5L70.9502 88L71.2802 69.96C71.0402 71.08 70.7702 72.26 70.4702 73.49V73.5Z" fill="#3E3F55"/>
<path d="M61.9499 99.09C62.2399 99.2 62.5299 99.34 62.7999 99.49L62.8999 95.56C62.7399 95.94 62.5799 96.29 62.4399 96.62C61.9899 97.65 61.6299 98.45 61.4199 98.9C61.5999 98.95 61.7699 99.02 61.9399 99.09H61.9499Z" fill="#3E3F55"/>
<path d="M62.3599 116.44C62.1099 117.45 61.89 118.52 61.72 119.65C61.41 121.75 61.26 123.36 61.24 124.67C61.22 126.01 61.34 127.05 61.56 127.98C61.68 128.48 61.8399 128.96 62.0199 129.44L62.3599 116.43V116.44Z" fill="#3E3F55"/>
<path d="M61.82 137C61.53 137.78 61.16 138.79 60.75 139.93L61.63 144.34L61.82 137Z" fill="#3E3F55"/>
<path d="M105.02 215.31C105.87 216.24 106.48 217.45 106.94 218.68C107.82 221.04 108.08 223.47 108.14 224.11L109.56 225.48C109.56 225.48 109.58 225.46 109.58 225.45C110.37 224.36 111.34 223.49 112.4 222.8L110.76 208.08L108.91 219.59C108.5 219.04 106.44 189.85 106.44 189.85L105.87 189C105.42 189.34 104.97 189.68 104.54 190.03L104.71 215C104.81 215.11 104.91 215.21 105.01 215.32L105.02 215.31Z" fill="#3E3F55"/>
<path d="M135.73 211.17C135.01 210.27 134.27 209.33 133.51 208.37L135.02 218.97C135.02 218.97 135.41 214.28 135.72 211.17H135.73Z" fill="#3E3F55"/>
<path d="M128.09 201.19C128.01 201.07 127.92 200.95 127.84 200.84C127.31 200.09 126.75 199.28 126.19 198.45L128.25 207.06L128.1 201.2L128.09 201.19Z" fill="#3E3F55"/>
<path d="M117.65 184.74C117.22 184.02 116.9 183.47 116.72 183.16C116.54 183.23 116.28 183.32 115.96 183.45L117.83 187.66L117.65 184.75V184.74Z" fill="#3E3F55"/>
<path d="M131.62 220.99L128.77 214.66C128.77 214.66 127.91 218.29 127.49 220.76C128.74 220.88 130.19 220.96 131.63 220.99H131.62Z" fill="#3E3F55"/>
<path d="M10.4098 102.41C11.0698 101.66 11.8098 101.04 12.5898 100.53C13.0398 100.24 13.5098 99.99 13.9898 99.79C13.7198 99.46 13.4498 99.11 13.1798 98.75C12.8498 98.31 12.5098 97.84 12.1898 97.37C12.0898 97.23 11.9998 97.09 11.8998 96.94C10.7898 99.53 9.73979 102.16 8.77979 104.82C9.22979 103.92 9.77979 103.12 10.4098 102.41Z" fill="#3E3F55"/>
<path d="M140.53 218.39V217.1C139.85 216.27 138.71 214.88 137.34 213.19V220.59C138.81 220.19 139.9 219.16 140.53 218.39Z" fill="#3E3F55"/>
<path d="M99.6598 210.53C99.9498 210.73 100.57 211.19 101.37 211.84C101.66 212.08 101.97 212.34 102.29 212.62V191.91C100.87 193.16 99.8298 194.17 99.4998 194.5V196.27L99.3698 196.47L98.2098 198.32L98.0298 203.03L99.4898 204.89L99.6598 210.52V210.53Z" fill="#3E3F55"/>
<path d="M65.2702 108.91C65.1302 109.13 64.9302 109.49 64.7002 109.96V159.96C66.0102 159.84 67.1902 159.87 68.2502 159.98C68.4202 160 68.5902 160.01 68.7502 160.04L67.9402 133.38V100.07L68.0902 99.43L68.4902 97.74L68.3502 81.35C67.5702 83.81 66.6302 86.41 65.6802 88.84C65.3502 89.68 65.0302 90.49 64.7102 91.28V101.02C64.9802 101.32 65.2302 101.64 65.4402 101.98C65.7202 102.43 65.9602 102.9 66.1302 103.39C66.9802 105.86 65.8302 108.05 65.3002 108.88C65.3002 108.88 65.2902 108.9 65.2802 108.91H65.2702Z" fill="#3E3F55"/>
<path d="M24.44 117.43C24.83 118.13 25.15 118.94 25.31 119.88C25.88 123.11 25.37 126 24.44 127.69C24.24 128.04 24.03 128.35 23.81 128.59C23.08 129.35 22.04 129.82 21.26 130.08C20.64 130.29 20.18 130.37 20.18 130.37C20.18 130.37 20.87 131.54 20.39 133.04C19.91 134.55 19.84 134.82 19.84 134.82C19.84 134.82 20.39 135.98 20.46 136.88C20.53 137.77 20.46 138.11 20.46 138.11L17.86 137.84C17.86 137.84 15.8 139.9 14.91 140.17L14.84 140.44L14.56 141.57C14.5 141.89 14.55 142.12 14.72 142.31C15.17 142.77 16.48 142.87 19.29 143.01C19.86 143.04 20.53 143.15 21.26 143.3C22.23 143.51 23.31 143.8 24.45 144.15C28.36 145.35 32.92 147.15 35.64 147.83C39.75 148.86 39.34 148.04 39.34 146.19C39.34 144.34 40.57 134.88 42.63 128.71C44.69 122.54 53.22 98.9 57.33 89.44C60.44 82.28 63.26 70.35 64.71 62.92C65.18 60.54 65.5 58.62 65.65 57.47C65.83 56.08 66.05 54.68 66.29 53.27L65.85 53.49C65.95 53.69 66.04 53.79 66.04 53.79C66 53.75 65.69 53.43 64.7 52.9C63.47 52.24 61.18 51.25 57.05 50.04C56.75 49.95 56.45 49.87 56.13 49.78C55.67 49.65 55.2 49.52 54.7 49.39C54.37 49.3 54.02 49.21 53.67 49.12C53.26 49.01 52.84 48.91 52.4 48.8C52.11 48.73 51.81 48.66 51.5 48.58C50.85 48.42 50.17 48.26 49.46 48.1C47.73 47.71 45.81 47.3 43.71 46.89C43.12 46.77 42.52 46.66 41.9 46.54C42.21 46.95 42.52 47.39 42.82 47.85C43.7 49.18 44.54 50.71 45.32 52.47C45.58 53.06 45.83 53.68 46.08 54.33C46.18 54.6 46.29 54.86 46.39 55.14C46.48 55.39 46.57 55.66 46.66 55.92C46.81 56.35 46.95 56.8 47.09 57.25C47.16 57.49 47.24 57.73 47.31 57.97C47.35 58.12 47.4 58.25 47.44 58.4C47.58 58.88 47.69 59.34 47.79 59.8C50.67 73.36 37.93 81.31 32.31 81.77C30.7 81.9 29.68 81.42 29.76 80.29C29.87 78.86 30.31 77.56 30.91 76.27C31.16 75.74 31.43 75.2 31.72 74.67C31.94 74.27 32.17 73.86 32.4 73.45C33.51 71.49 34.73 69.39 35.53 66.77C35.77 65.98 35.98 65.14 36.13 64.24C36.18 63.97 36.21 63.71 36.24 63.46C36.24 63.44 36.24 63.41 36.24 63.39C36.65 59.83 35.53 58.35 34.11 58.03C32.97 57.77 31.65 58.25 30.77 59C28.76 60.71 27.24 64.29 26.31 69.05C26.29 69.16 26.27 69.27 26.24 69.38C25.77 71.87 25.2 76.83 24.72 81.45C24.72 81.5 24.72 81.55 24.71 81.59C24.6 82.66 24.49 83.71 24.4 84.7C24.25 86.19 24.12 87.56 24.02 88.68C23.9 89.93 23.82 90.89 23.78 91.37C23.74 91.89 23.68 92.76 23.59 93.89C23.54 94.51 23.49 95.22 23.43 95.99C23.41 96.28 23.38 96.58 23.36 96.89C23.23 98.45 23.06 100.25 22.86 102.18C22.48 105.81 21.95 109.94 21.24 113.99C21.24 114.02 21.23 114.06 21.22 114.09C21.22 114.09 21.23 114.09 21.24 114.09C21.38 114.17 23.23 115.24 24.43 117.39L24.44 117.43ZM57.52 66.21C59.58 61.41 60.67 55.11 60.67 55.11C60.67 55.11 62.45 54.84 63.14 55.93C63.14 55.93 60.95 70.46 59.58 72.65C58.21 74.84 55.47 71.01 57.52 66.21ZM42.39 106.2C42.39 106.2 39.38 115.31 38.62 118.65C37.86 121.99 36.88 119.31 37.62 115.83C38.37 112.35 40.81 105.2 42.35 103.45C43.89 101.71 42.44 104.95 42.38 106.19L42.39 106.2ZM36.18 110.22C36.83 107.36 38.24 104.67 38.69 104.09C39.14 103.51 39.73 104.3 39.3 105.15C39.3 105.15 37.35 110.35 36.84 111.96C36.32 113.57 35.54 113.07 36.18 110.22Z" fill="#3E3F55"/>
<path d="M13.7601 121.18C13.6801 121.4 13.3601 122.07 13.3201 122.89C13.3001 123.34 13.3701 123.83 13.6001 124.33C13.7801 124.71 14.0601 125.1 14.4801 125.46C15.0001 125.9 15.7201 126.11 16.5001 126.18C18.6501 126.36 21.2301 125.46 21.2301 125.46C21.2301 125.46 21.2301 125.43 21.2401 125.39C21.3101 125.01 21.6201 123.11 21.2401 121.35C21.1001 120.71 20.8701 120.08 20.5101 119.55C19.7001 118.39 18.7701 118.21 18.0901 118.3C18.0901 118.3 18.0801 118.3 18.0701 118.3C17.5101 118.37 17.1201 118.61 17.1201 118.61C17.1201 118.61 15.8601 118.89 14.8301 119.75C14.3901 120.12 14.0001 120.59 13.7601 121.19V121.18Z" fill="#3E3F55"/>
<path d="M13.9099 109.41C14.6199 109.07 14.9599 108.57 14.9599 108.57C14.9599 108.57 16.0599 106.99 16.9099 106.3C16.9899 106.23 17.0699 106.18 17.1499 106.13C17.2499 106.07 17.3399 106.02 17.4299 106C17.9099 105.88 18.5699 105.65 19.0299 105.42C19.1099 105.38 19.1799 105.34 19.2399 105.31C19.4499 105.19 19.5799 105.07 19.5799 104.97C19.5799 104.81 19.5199 104.68 19.2899 104.54C19.0699 104.4 18.6899 104.25 18.0399 104.05C17.9799 104.03 17.9099 104.02 17.8499 104.01C16.8199 103.81 15.4899 104.37 14.9199 104.64C14.7499 104.72 14.6499 104.78 14.6499 104.78C14.6499 104.78 14.4899 105.05 14.1599 105.51C14.0399 105.69 13.8899 105.89 13.7199 106.11C13.3599 106.59 12.4599 107.76 12.1199 108.63C11.8799 109.24 11.9099 109.71 12.5899 109.71C12.8999 109.71 13.1599 109.66 13.3999 109.6C13.5799 109.55 13.7499 109.49 13.8999 109.42L13.9099 109.41Z" fill="#3E3F55"/>
<path d="M68.3501 243.03C68.3501 243.03 68.3501 243.03 68.3601 243.05C68.3601 243.03 68.3501 243.03 68.3501 243.03Z" fill="#3E3F55"/>
<path d="M215.78 163.82C215.39 158.38 214.63 152.36 213.36 145.71C213.12 144.44 212.86 143.2 212.59 141.98C205.59 110.57 189.2 96.7 180.96 91.19C179.68 90.33 178.59 89.68 177.77 89.19C177.12 88.81 176.64 88.53 176.35 88.33C176.35 88.33 176.87 88.89 177.77 89.96C178.56 90.89 179.65 92.22 180.96 93.9C188.03 103.01 201.36 122.59 207.4 147.34C215.83 181.88 208.63 205.8 208.63 205.8C208.63 205.8 210.65 203.16 212.59 197.3C213.92 193.3 215.2 187.79 215.78 180.6C216.17 175.78 216.23 170.2 215.78 163.8V163.82Z" fill="#3E3F55"/>
<path d="M202.88 221.44C202.88 221.44 202.06 232.95 192.6 238.92C192.6 238.92 185.22 236.52 180.97 234.38C180.57 234.18 180.19 233.98 179.86 233.78C178.98 233.27 178.31 232.88 177.79 232.58C175.97 231.52 175.96 231.52 175.96 231.52C175.96 231.52 176.56 232.2 177.79 233.31C178.1 233.59 178.47 233.9 178.86 234.23C179.47 234.74 180.17 235.3 180.98 235.91C184.22 238.35 189.08 241.45 195.7 244.26C195.7 244.26 208.43 241.46 203.15 222.36C203.06 222.05 202.99 221.75 202.89 221.44H202.88Z" fill="#3E3F55"/>
<path d="M177.44 251.7C174.94 243.65 169.89 239.3 167.5 237.61C166.69 237.04 166.18 236.77 166.18 236.77C166.18 236.77 173.54 253.45 175.01 263.31C175.13 264.11 175.24 264.85 175.33 265.54C176.44 273.32 176.3 274.12 176.3 274.12C176.3 274.12 177.1 272.04 177.77 268.83C178.63 264.72 179.27 258.76 177.77 252.91C177.67 252.51 177.56 252.1 177.43 251.7H177.44Z" fill="#3E3F55"/>
<path d="M203.47 77.21C203.47 77.21 204.38 78.47 204.72 78.71C204.8 78.77 204.85 78.77 204.84 78.65C204.79 78.26 204.13 75.94 202.47 73.76C201.78 72.85 200.91 71.96 199.84 71.25C196.21 68.85 186.54 66.66 186.54 66.66C186.54 66.66 192.86 69.99 196.75 72.21C201.07 74.68 203.47 77.21 203.47 77.21Z" fill="#3E3F55"/>
<path d="M146.34 232.79C145.26 233.73 143.31 234.41 140.53 234.38C139.57 234.37 138.5 234.27 137.34 234.07C137.09 234.03 136.83 233.98 136.57 233.92C131.64 232.89 126.5 235.46 126.5 235.46C125.37 235.87 124.55 237.31 125.78 237.93C127.01 238.55 131.85 237.62 134 239.88C134.86 240.79 136.11 241.45 137.34 241.82C138.53 242.17 139.71 242.23 140.53 241.94C140.98 241.78 141.33 241.51 141.51 241.12C142.33 239.27 145.21 239.27 146.44 237.73C147.67 236.19 147.88 231.46 146.34 232.8V232.79Z" fill="#3E3F55"/>
<path d="M204.6 274.76L204.87 274.83C204.87 274.83 204.3 274.62 204.6 274.76Z" fill="#3E3F55"/>
<path d="M227.69 212.65C229.23 213.18 229.07 212.71 229.02 211.95C228.98 211.2 229.12 208.92 229.86 206.34C230.6 203.76 233.02 202.79 234.66 202.77C236.31 202.74 237.11 202.35 237.11 202.35C235.24 191.34 227.88 184.07 227.88 184.07C228.38 191.02 228.32 196.53 228.09 200.79C227.67 208.75 226.67 212.3 227.68 212.64L227.69 212.65Z" fill="#3E3F55"/>
<path d="M169.33 121.59C173.98 133.82 166.53 138.41 166.53 138.41C180.33 136.21 169.33 121.59 169.33 121.59Z" fill="#3E3F55"/>
<path d="M137.35 140.41C137.81 140.29 138.32 140.13 138.84 139.92C141.1 138.99 138.84 138.84 138.84 138.84C138.84 138.84 138.77 136.51 140.54 134.48C140.94 134.02 141.43 133.58 142.03 133.18C142.03 133.18 141.4 133.35 140.54 133.63C139.6 133.94 138.37 134.39 137.35 134.94C136.54 135.37 135.85 135.86 135.55 136.37C134.52 138.12 134.73 140.74 134.73 140.74C134.73 140.74 135.82 140.8 137.35 140.41Z" fill="#3E3F55"/>
<path d="M50.3201 133.03C53.0601 133.51 53.7501 132.34 53.7501 132.34C50.6701 133.37 48.4701 131.04 48.4701 131.04C48.4701 131.04 47.5801 132.55 50.3201 133.03Z" fill="#3E3F55"/>
<path d="M50.0402 131.31C50.0402 131.31 50.8102 131.9 51.6802 131.9C52.5502 131.9 53.5802 131.41 53.5802 131.41C53.5802 131.41 50.7802 131.69 49.4902 130.77C49.4902 130.77 49.7202 131.13 50.0302 131.31H50.0402Z" fill="#3E3F55"/>
<path d="M12.8 121.28C12.96 120.72 13.21 120.26 13.5 119.87C14.18 118.95 15.04 118.52 15.35 118.38C15.42 118.35 15.48 118.33 15.48 118.33C14.74 118.33 14.19 118.42 13.77 118.59C12.53 119.08 12.54 120.18 12.66 120.8C12.72 121.08 12.8 121.27 12.8 121.27V121.28Z" fill="#3E3F55"/>
<path d="M9.74989 134.59C9.80989 134.75 9.90989 134.89 10.0199 135.01C10.2999 135.32 10.6999 135.5 11.0599 135.61C11.4899 135.74 11.8399 135.76 11.8399 135.76C11.5599 135.66 11.3099 135.46 11.0999 135.21C11.0899 135.2 11.0699 135.18 11.0599 135.17C10.6699 134.7 10.4099 134.07 10.3599 133.56C10.3099 133.01 10.4099 132.6 10.4799 132.4C10.5099 132.31 10.5299 132.26 10.5299 132.26C10.5299 132.26 10.4999 132.29 10.4599 132.34C10.2199 132.62 9.51989 133.53 9.68989 134.37C9.69989 134.44 9.71989 134.51 9.74989 134.58V134.59Z" fill="#3E3F55"/>
<path d="M306.41 251.64C306.41 251.64 306.5 249.84 300.62 248.22C294.73 246.61 288.32 245.32 286.52 246.27C284.72 247.22 283.7 247.72 283.7 247.72C283.7 247.72 283.25 245.89 276.7 244.66C273.38 244.04 270.84 243.81 268.96 243.77C269.03 243.68 269.1 243.59 269.17 243.51C272.19 243.11 274.05 242.37 277.94 242.62C283.83 243 289.43 244.52 293.42 244.8C293.42 244.8 299.38 245.09 301.83 242.9C303.49 242.56 305.2 241.93 306.85 240.95C306.85 240.95 305.35 237.9 301.73 236.61C301.53 236.31 301.38 236.13 301.38 236.13C301.38 236.13 299.46 232.71 293.67 231.09C287.88 229.48 285.78 229.06 283.79 229.73C281.8 230.39 281.13 230.68 281.13 230.68C281.13 230.68 280.4 230.25 279.16 229.58C280.19 227.96 281.18 226.31 282.14 224.65C283.14 224.21 284.09 223.77 284.96 223.33C284.96 223.33 288.59 222.05 291.65 221.83C292.27 221.79 292.92 221.56 293.53 221.21C295.87 221.06 298.29 220.71 298.29 220.71C298.29 220.71 297.46 219.31 296.15 218.01C296.56 216.6 296.24 215 294.58 213.6C294.58 213.6 292.55 211.47 289.45 210.3C297.8 191.45 302.2 170.89 302.2 149.65C302.2 109.67 286.63 72.08 258.36 43.8C230.08 15.57 192.49 0 152.51 0C123.22 0 95.22 8.37 71.22 23.95C71.99 24.87 72.61 25.99 72.86 27.3C72.94 27.74 73 28.21 73.03 28.71C74.37 27.83 75.72 26.97 77.08 26.14L78.47 28.31C76.62 29.44 74.8 30.63 72.99 31.85C72.68 36.34 71.42 41.5 70.93 43.38C70.64 44.51 70.44 45.4 70.31 46.08C70.16 46.88 70.09 47.4 70.07 47.68C70.49 47.93 70.89 48.22 71.24 48.52C71.39 48.65 71.53 48.77 71.66 48.9L71.77 43.05L73.96 44.83L74.78 37.98L76.84 41.82L77.34 34.84C80.39 33.09 83.5 31.45 86.69 29.93L87.67 32.51L89.31 28.72C91.73 27.63 94.19 26.59 96.68 25.64V38.48V38.41L97.12 36.44L97.81 33.24L98.58 24.94C98.75 24.88 98.92 24.81 99.09 24.75V137.94C99.71 137.53 100.26 137.18 100.76 136.86C101.9 136.14 102.71 135.67 103.06 135.46C103.06 134.7 103.02 132.17 103.01 128.96C102.9 127.02 102.82 124.91 102.81 122.65L102.46 115.71L103.01 90.63L102.6 85.42L103.29 83.36L103.56 80.34L102.27 77.88V57.27L103.01 53.48L103.25 36.05L103.42 23.24C103.83 23.11 104.24 22.97 104.66 22.84L104.89 35.53L105.13 48.74L107.04 34.88L108.27 25.94L110.26 31.67L111.23 21.65L112.91 24.1L113.18 20.45C117.9 19.28 122.7 18.35 127.59 17.67C127.43 19.9 127.21 23.05 127.19 23.44C127.15 24.06 125.79 26.35 125.79 26.35L125.94 30.85L126.25 39.86L126.85 30.73L127.07 27.35L128.46 24.65L128.25 17.59C131.25 17.19 134.29 16.88 137.35 16.68V20.31L137.13 28.38L137.09 29.82L136.61 47.32L137.35 49.68V50.12C137.75 50.18 138.19 50.25 138.64 50.32C139.24 50.42 139.87 50.52 140.53 50.64V20.9L141.27 18.07L141.23 16.49C141.8 16.47 142.37 16.43 142.95 16.42L142.83 29.67L142.74 39.42L143.87 35.62L144.12 29.67L144.67 16.4C145.27 16.4 145.87 16.38 146.47 16.37L146.65 21.43L147.47 23.79V16.36C155.31 16.39 162.99 17.07 170.47 18.33L170.86 29.65L171.59 18.52L171.87 18.57L173.27 23.38L176.17 19.42C176.31 19.45 176.44 19.48 176.58 19.51C176.62 20.27 176.66 21.01 176.69 21.22C176.75 21.62 177.52 22.54 177.77 22.96V43.61C178.76 43.78 179.71 43.97 180.64 44.19C181.38 44.37 182.11 44.56 182.82 44.77C182.82 44.77 182.91 39.07 182.94 35.05C182.96 32.94 182.96 31.3 182.92 31.19C182.82 30.88 181.89 27.59 181.89 27.59L182.07 20.8C183.81 21.25 185.54 21.74 187.25 22.26L187.75 27.7L189.63 23C192.26 23.84 194.85 24.76 197.41 25.75V36.54L198.54 31.3L198.24 26.06C202.77 27.85 207.19 29.87 211.48 32.1L211.32 42.41L211.28 45.02L211.19 51.13L212.58 53.76V59.71C212.31 60.35 212.06 60.96 212.01 61.1C211.95 61.28 211.82 63.06 211.72 64.52C212.17 65.01 212.63 65.49 213.1 65.95C214.04 66.88 214.98 67.7 215.83 68.27C216.48 68.7 217.25 69.16 218.08 69.61L218.28 55.27L217.32 52.25L217.46 48.08L217.87 35.66L217.89 35.64C218.36 35.92 218.83 36.19 219.3 36.47L219.05 48.94L219.01 51.12L219.54 49.2L222.49 38.45C225.34 40.28 228.11 42.21 230.81 44.23L230.25 46.83L230.56 52.18L231.38 54.54V44.66C233.95 46.6 236.45 48.63 238.87 50.74L239.67 56.35L241.52 54.71L242.93 66.52L243.16 68.49L243.49 67.09L244.8 61.5L245.08 68.71L245.38 76.58C246.05 78.35 246.57 80.2 246.8 82.03C246.98 83.43 247 84.83 246.77 86.16C246.77 86.21 246.75 86.25 246.75 86.3C246.5 87.79 246.22 89.12 245.91 90.33L246.52 106.21L246.66 109.82L247.43 71.24L247.52 66.65L247.67 59.11C248.13 59.59 248.59 60.07 249.05 60.56V160.71C250.01 161.52 251.05 162.38 252.16 163.28C252.97 163.93 253.82 164.62 254.71 165.32C254.81 165.4 254.9 165.47 255 165.55C255.16 165.68 255.32 165.8 255.48 165.92L255.58 159.53L256.65 157.68L257.72 98.47L256.34 97.34L256.19 93.43L255.12 89.93L254.97 81.5L255.27 81.16L257.89 78.21L257.94 75.14L258 71.07C258.86 72.18 259.7 73.31 260.52 74.45C260.44 75.6 260.35 76.8 260.29 77.67C260.24 78.33 260.21 78.8 260.2 78.94C260.16 79.56 258.8 81.85 258.8 81.85L258.97 86.78L259.26 95.37L259.74 88.04L260.08 82.85L261.47 80.15L261.44 79.04L261.34 75.6C263.53 78.69 265.58 81.87 267.52 85.14L267.55 88.14L267.65 99.67L269.28 91.63L269.79 89.1C270 89.48 270.21 89.87 270.42 90.25L271.03 95.96L271.09 96.51L271.17 96.36L272.39 94.06C273.92 97.13 275.34 100.26 276.64 103.46L276.34 114.3L275.89 130.64L276.3 138.86L274.97 173.09V173.23C275.41 173.41 275.9 173.61 276.47 173.83C276.81 173.96 277.18 174.1 277.58 174.25C277.58 174.25 277.58 174.25 277.59 174.25C280.31 175.26 282.8 176.39 284.2 177.06V128.41C286.03 137.44 286.99 146.79 286.99 156.36C286.99 163.6 286.43 170.72 285.37 177.66C285.34 177.82 285.32 177.99 285.29 178.15C285.15 179.04 285.01 179.92 284.85 180.81C284.63 180.7 284.42 180.6 284.19 180.5L284.08 180.45C283.33 180.1 282.53 179.73 281.69 179.35C281.46 179.25 281.23 179.15 281 179.04C280.79 178.95 280.58 178.86 280.37 178.76C275.51 176.64 269.48 174.35 262.86 172.58C259.42 171.66 255.83 169.91 252.25 167.47C251.18 166.75 250.12 165.96 249.06 165.12C247.56 163.93 246.08 162.62 244.61 161.21C244.5 161.1 244.39 161 244.28 160.89C238.06 154.83 232.27 146.92 227.77 137.98C227.02 136.49 226.31 134.97 225.64 133.43C223.53 128.59 221.82 123.51 220.64 118.3C219.3 112.38 217.61 107.2 215.79 102.73C215.53 102.09 215.27 101.46 215 100.85C215.24 100.9 215.51 100.96 215.79 101.01C217.27 101.3 219.25 101.6 221.46 101.73C221.92 101.76 222.4 101.77 222.89 101.78C226.58 101.86 230.75 101.39 234.35 99.62C242.99 95.37 244.08 88 243.53 82.38C242.98 76.76 239.42 70.18 236.68 67.85C236.2 67.44 235.79 67.11 235.43 66.83C234.14 65.82 233.56 65.51 233.35 65.42C233.28 65.39 233.25 65.38 233.25 65.38C233.25 65.38 230.37 64.15 231.06 69.77C231.75 75.39 231.47 78.41 227.77 77.45C225.82 76.94 222.12 75.87 218.05 73.58C217.42 73.23 216.78 72.84 216.14 72.43C216.02 72.35 215.91 72.28 215.79 72.2C214.73 71.5 213.66 70.7 212.6 69.81C211.04 68.49 209.51 66.96 208.1 65.18C207.8 64.8 207.5 64.41 207.21 64.01C206.97 63.68 206.71 63.36 206.46 63.04C201.23 56.36 193.47 51.55 185.6 48.74C185.17 48.59 184.73 48.44 184.3 48.29C183.19 47.92 182.08 47.6 180.98 47.32C179.94 47.05 178.9 46.8 177.88 46.6C177.85 46.6 177.82 46.6 177.79 46.58C176.79 46.39 175.8 46.24 174.84 46.14C174.4 46.09 173.97 46.06 173.55 46.04C173.02 46.01 172.5 45.99 171.98 45.99C171.56 45.99 171.15 45.99 170.74 46.02C166.9 46.2 163.49 47.27 160.65 49.34C160.41 49.51 160.18 49.69 159.96 49.87C158.01 51.45 156.34 53.54 155 56.16C149.49 54.98 144.04 54.2 140.55 53.75C139.84 53.66 139.2 53.58 138.67 53.52C138.64 53.52 138.6 53.52 138.57 53.51C138.07 53.45 137.66 53.41 137.36 53.38C136.97 53.34 136.76 53.32 136.76 53.32C136.76 53.32 136.49 55.24 134.98 58.67C134.69 59.33 134.24 60.09 133.71 60.89C132.72 62.37 131.43 63.97 130.27 65.32C129.43 66.29 128.66 67.12 128.11 67.68C126.13 67.8 124.06 67.99 121.89 68.27C121.89 68.27 118.84 71.75 115.39 78.38C114.51 80.08 113.6 81.98 112.71 84.09C112.66 84.2 112.62 84.3 112.57 84.41C111.77 86.33 110.98 88.41 110.24 90.66C107.65 98.54 105.64 108.39 105.64 120.08C105.64 126.09 105.99 131.76 106.6 137.13C105.21 137.91 103.78 138.74 102.3 139.63C101.9 139.87 101.5 140.12 101.09 140.37C101.09 140.37 100.35 140.89 99.12 141.79C97.18 143.22 94.01 145.62 90.5 148.55C90.25 148.76 90.01 148.96 89.76 149.18C88.77 150.02 87.76 150.9 86.75 151.8C86.28 152.22 85.81 152.65 85.34 153.08C81.43 156.69 77.64 160.67 75.14 164.45C75.03 164.61 74.92 164.78 74.82 164.94C74.77 165.01 74.73 165.09 74.68 165.17C74.64 165.02 74.6 164.89 74.54 164.78C74.12 163.99 72.64 163.36 70.85 162.94C69.92 162.72 68.91 162.56 67.91 162.45C66.78 162.33 65.67 162.3 64.72 162.35C64 162.39 63.36 162.48 62.89 162.62C62.33 162.79 61.85 162.94 61.44 163.08C60.81 163.29 60.33 163.47 59.98 163.61C59.81 163.68 59.66 163.74 59.55 163.79C59.53 163.79 59.51 163.8 59.5 163.81C58.83 162.42 58.17 161 57.56 159.62C55.94 155.93 54.73 152.56 54.8 150.86C55.01 145.93 56.65 141.68 58.5 137.29C59.12 135.82 59.42 134.69 59.52 133.7C59.72 131.73 59.14 130.32 58.64 128.04C58.53 127.53 58.45 126.96 58.4 126.35C58.27 124.77 58.34 122.92 58.52 121.1C58.74 118.95 59.12 116.84 59.53 115.23C60.4 111.83 61.84 108.7 62.61 107.46C62.63 107.42 62.66 107.38 62.68 107.35C63.19 106.56 63.35 105.03 62.71 103.79C62.4 103.2 61.91 102.68 61.17 102.34C60.5 102.03 59.72 101.94 58.96 101.95C58.14 101.96 57.34 102.1 56.71 102.25C57.3 100.84 57.8 99.72 58.17 99C58.44 98.48 58.74 97.85 59.07 97.15C59.94 95.27 60.98 92.79 62.06 89.96C62.95 87.62 63.86 85.05 64.71 82.38C65.13 81.05 65.54 79.7 65.92 78.35C66.72 75.53 67.41 72.68 67.89 69.97C67.94 69.68 67.99 69.39 68.04 69.1C68.11 68.7 68.17 68.32 68.23 67.93C69.42 60.45 69.73 55.53 69.81 53.29C69.84 52.43 69.84 51.96 69.84 51.89V51.63L69.76 51.52L69.68 51.42C69.62 51.35 69.09 50.67 67.9 49.73C67.85 49.69 67.8 49.65 67.75 49.61C67.54 49.45 67.31 49.28 67.07 49.11C67.25 48.2 67.43 47.28 67.62 46.35C67.72 45.87 67.81 45.4 67.91 44.92C68.05 44.22 68.2 43.51 68.34 42.79C68.49 42.03 68.72 41.1 68.97 40.07C68.99 39.99 69.01 39.9 69.03 39.82C69.13 39.41 69.23 39 69.34 38.56C69.37 38.45 69.39 38.33 69.42 38.22C69.52 37.8 69.62 37.37 69.72 36.93C69.91 36.1 70.08 35.25 70.23 34.41C70.27 34.17 70.31 33.94 70.35 33.7C70.53 32.54 70.66 31.4 70.67 30.34C70.67 30.13 70.67 29.93 70.67 29.73C70.62 27.85 70.19 26.28 69.09 25.39C68.54 24.94 67.82 24.66 66.89 24.6C60.59 24.22 60.65 29.09 60.71 29.92C60.2 28.86 59.24 26.88 57.53 23.36C52.99 14.02 45.83 12.19 38.25 11.1C36.57 10.86 34.87 10.65 33.17 10.41C23.81 9.07 26.08 16.58 31.22 17.4C36.36 18.22 41.71 22.95 42.73 26.45C43.76 29.95 40.67 31.38 29.57 28.81C18.47 26.24 16.82 32.72 16.82 35.8C16.82 38.88 23.09 40.63 27.31 39.81C29.27 39.43 32.63 39.45 36.19 41.42C35.7 41.44 35.29 41.47 34.95 41.52C32.69 41.82 31.74 42.55 30.7 44.78C30.45 45.33 29.97 46.61 29.36 48.3C29.13 48.93 28.89 49.61 28.62 50.34C27.12 54.49 25.08 60.17 24.08 62.01C22.97 64.04 21.7 71.55 20.88 78.33C20.82 78.79 20.77 79.25 20.72 79.71C20.68 80.09 20.64 80.46 20.6 80.83C20.6 80.84 20.6 80.85 20.6 80.87C20.51 81.72 20.42 82.55 20.35 83.34C20.26 84.31 20.19 85.21 20.13 86.03C19.64 85.62 19.09 85.38 18.53 85.23C18.25 85.16 17.97 85.1 17.68 85.07C17.6 85.06 17.53 85.05 17.45 85.04C17.33 85.03 17.22 85.02 17.1 85.01C14.38 83.03 10.92 82.98 10.92 82.98C10.92 82.98 10.92 83.44 10.82 85.14C10.72 86.71 11.68 89.94 11.83 90.42C11.96 91.48 12.32 92.54 12.86 93.33C12.99 93.52 13.13 93.71 13.27 93.91C13.33 93.99 13.39 94.07 13.45 94.16C13.75 94.56 14.07 94.98 14.38 95.39C15.15 96.4 15.92 97.41 16.34 98.2C16.47 98.44 16.66 98.73 16.9 99.04C17.44 99.77 18.18 100.64 18.8 101.33C18.95 101.49 19.09 101.65 19.21 101.79C19.18 101.99 19.15 102.18 19.11 102.36C18.92 102.27 18.72 102.19 18.51 102.12C17.68 101.87 16.69 101.84 15.82 102.01C15.49 102.08 15.17 102.17 14.9 102.3C14.86 102.32 14.82 102.34 14.78 102.36C14.05 102.73 12.79 103.58 11.87 104.83C10.92 106.12 10.33 107.84 11.06 109.88C11.06 109.88 11.43 110.67 12.15 111.5C12.24 111.74 12.35 112.09 12.47 112.49C12.5 112.57 12.52 112.65 12.55 112.74C12.77 113.46 12.99 114.29 13.09 114.91C12.73 115.1 12.35 115.36 11.95 115.66C11.89 115.7 11.84 115.75 11.78 115.79C11.37 116.11 10.94 116.47 10.43 116.87C9.03 117.97 8.17 119.63 7.94 121.34C7.88 121.8 7.86 122.27 7.89 122.73C7.94 123.37 8.12 124.09 8.34 124.77C8.71 125.93 9.22 127.02 9.47 127.54C9.49 127.57 9.5 127.6 9.51 127.63C9.49 127.63 9.47 127.65 9.45 127.66C9.14 127.81 8.8 127.99 8.42 128.22C7.21 128.95 6.71 130.08 6.39 131.26C6.26 131.74 6.16 132.22 6.06 132.69C5.95 133.21 5.97 133.81 6.06 134.43C6.26 135.79 6.84 137.27 7.4 138.29C7.57 138.6 7.85 138.89 8.17 139.16C8.92 139.78 9.95 140.29 10.66 140.59C10.75 140.63 10.84 140.67 10.92 140.7C10.85 140.9 10.77 141.11 10.7 141.31C10.67 141.4 10.63 141.49 10.6 141.58C10.24 142.58 9.89 143.55 9.55 144.46C8.92 146.16 8.37 147.61 8 148.52C7.93 148.7 7.86 148.85 7.8 148.99C7.7 149.23 7.61 149.4 7.56 149.48C7.17 150.08 7.03 150.88 7.17 151.71C7.26 152.28 7.48 152.86 7.84 153.41C8.16 153.9 8.6 154.37 9.15 154.75C9.35 154.89 9.73 155.07 10.22 155.29C10.31 155.33 10.39 155.36 10.49 155.4C10.65 155.47 10.82 155.54 11 155.61C11.98 155.99 13.25 156.45 14.69 156.93C15.05 157.05 15.43 157.18 15.81 157.3H15.77C15.77 157.3 16.45 160.5 21.24 164.3C21.27 164.32 21.3 164.35 21.33 164.37C22.86 165.57 23.8 166.26 24.43 166.66C25.81 167.55 25.66 167.11 26.74 167.86C27.47 168.37 27.89 168.8 28.36 169.59C28.47 169.77 28.57 169.96 28.69 170.18C29.16 171.09 29.74 172.39 30.72 174.44C31.4 175.85 33.18 179.63 35.35 184.22C33.18 186.34 31.31 188.4 29.73 190.31C29.15 191.01 28.62 191.68 28.11 192.34C26.53 194.4 25.31 196.22 24.42 197.65C24.16 198.08 23.92 198.47 23.71 198.82C23.68 198.87 23.65 198.92 23.62 198.97L23.52 198.91C23.13 197.88 22.75 196.85 22.38 195.81C22.72 195.27 23.13 194.64 23.59 193.95C23.85 193.56 24.12 193.15 24.41 192.73V169.7C23.99 169.49 23.52 169.21 23 168.88C22.94 168.84 22.88 168.8 22.82 168.76C22.31 168.43 21.78 168.06 21.22 167.63C20.17 166.84 19.07 165.91 18.02 164.9V180.83C17.09 176.82 16.35 172.75 15.78 168.64C15.76 168.51 15.74 168.38 15.73 168.25C15.61 167.38 15.5 166.5 15.4 165.62C15.37 165.34 15.34 165.06 15.31 164.78C15.23 164.02 15.15 163.27 15.08 162.51C15.05 162.18 15.02 161.86 15 161.53C14.51 160.87 14.08 160.22 13.73 159.56C13.67 159.44 13.6 159.32 13.54 159.2C12.85 158.96 11.95 158.64 11.08 158.32C10.92 158.26 10.76 158.2 10.61 158.14C9.79 157.83 9.04 157.54 8.58 157.33C8.37 157.23 8.16 157.12 7.96 157C7.29 156.6 6.66 156.06 6.14 155.4C5.89 155.08 5.67 154.73 5.48 154.36C5.09 153.59 4.84 152.7 4.79 151.69C4.74 150.73 4.87 149.67 5.24 148.5C5.26 148.43 5.29 148.36 5.31 148.28C5.36 148.12 5.41 147.97 5.47 147.81C5.9 146.67 6.34 145.46 6.73 144.34C7.05 143.44 7.34 142.58 7.58 141.87C7.26 141.66 6.94 141.42 6.63 141.15C6.22 140.8 5.81 140.4 5.44 139.96C4.49 138.82 3.73 137.38 3.45 135.58C3.38 135.12 3.33 134.64 3.33 134.14C3.31 132.52 3.61 131.14 4.08 129.97C4.6 128.69 5.33 127.66 6.1 126.88C5.62 125.74 5.25 124.4 5.16 122.97C5.08 121.5 5.3 119.95 6.04 118.45C6.14 118.24 6.25 118.04 6.37 117.84C7.17 116.5 7.97 115.48 8.72 114.7C8.72 114.7 8.73 114.69 8.74 114.68C9.19 114.22 9.62 113.85 10.02 113.54C9.94 113.25 9.87 113 9.81 112.82C9.62 112.59 9.46 112.37 9.3 112.15C9.29 112.13 9.27 112.11 9.26 112.09C8.7 111.28 8.35 110.49 8.15 109.73C7.86 108.66 7.88 107.66 8.05 106.77C2.85 121.88 0 138.11 0 155C0 236.3 65.9 302.2 147.2 302.2C170.88 302.2 193.25 296.6 213.06 286.67C220.81 283.24 228.27 279.14 235.37 274.41C236.73 275.81 237.99 276.85 238.99 277.29C242.03 278.62 248.68 278.05 252.66 277.38C256.65 276.72 265.48 276.43 270.42 277.95C275.36 279.47 280.2 280.7 281.91 281.37L283.62 282.03C283.62 282.03 283.43 276.52 282.29 275.19C282.29 275.19 282.34 270.58 278.54 268.02C274.74 265.46 271.8 264.41 268.38 264.41C264.96 264.41 262.78 264.51 262.78 264.51C262.78 264.51 262.01 263.88 260.79 262.96C263.5 263.07 266.18 263.01 268.24 262.66C274.89 261.52 279.63 260.29 286.47 259.43C293.31 258.58 299 259.24 302.61 259.43C306.22 259.62 309.54 257.44 310.3 256.49L311.06 255.54C311.06 255.54 307.83 252.03 306.41 251.65V251.64ZM81.2 26.67L79.81 24.5C82.5 22.93 85.24 21.45 88.02 20.06L89.4 22.25C86.62 23.63 83.88 25.11 81.2 26.67ZM92.3 20.86L90.91 18.66C93.89 17.25 96.93 15.95 100 14.76L100.55 17.31C97.76 18.4 95.01 19.58 92.3 20.85V20.86ZM103.56 16.18L103.01 13.64C106.14 12.5 109.31 11.48 112.52 10.56L112.9 13.13C109.75 14.04 106.63 15.06 103.55 16.18H103.56ZM116 12.27L115.62 9.71C119.43 8.71 123.28 7.87 127.18 7.18L127.37 9.76C123.54 10.44 119.75 11.28 116 12.27ZM140.43 8.07C137.1 8.35 133.8 8.74 130.53 9.24L130.34 6.66C133.68 6.15 137.04 5.76 140.43 5.48V8.06V8.07ZM150.3 7.58C149.36 7.59 148.41 7.62 147.47 7.65V7.62V7.66C146.18 7.7 144.89 7.77 143.61 7.84V5.26C145.83 5.13 148.06 5.04 150.29 5.01V7.58H150.3ZM159.96 7.75C157.81 7.64 155.65 7.58 153.48 7.57V5C155.65 5.01 157.81 5.07 159.96 5.18V7.76V7.75ZM173.07 9.02C169.79 8.55 166.48 8.18 163.15 7.94V5.36C166.54 5.6 169.91 5.97 173.26 6.45L173.07 9.02ZM187.63 11.9C183.87 10.95 180.07 10.16 176.23 9.51L176.42 6.93C180.33 7.58 184.2 8.37 188.01 9.33L187.63 11.89V11.9ZM200.12 15.69C197.03 14.59 193.89 13.6 190.73 12.72L191.11 10.15C194.33 11.04 197.52 12.04 200.67 13.15L200.13 15.69H200.12ZM211.84 20.46C208.98 19.15 206.09 17.93 203.15 16.81L203.7 14.27C206.75 15.42 209.76 16.68 212.72 18.04L211.84 20.47V20.46ZM222.54 25.93C219.98 24.48 217.38 23.11 214.74 21.83L215.62 19.39C218.54 20.81 221.42 22.32 224.25 23.94L222.55 25.93H222.54ZM231.36 31.37C229.38 30.05 227.37 28.78 225.34 27.56L227.04 25.58C229.13 26.84 231.19 28.15 233.21 29.52L231.36 31.37ZM243.03 40.09C240.11 37.67 237.11 35.37 234.03 33.21L235.88 31.36C238.97 33.55 241.98 35.86 244.91 38.3L243.03 40.09ZM249.94 46.21C248.47 44.83 246.99 43.48 245.47 42.17L247.34 40.39C248.86 41.71 250.36 43.07 251.83 44.46L249.94 46.21ZM290.18 194.47L287.69 193.65C288.34 191.66 288.94 189.69 289.49 187.74C289.49 187.74 289.51 187.75 289.52 187.76C289.6 187.46 289.68 187.16 289.76 186.86L292.23 187.61C291.61 189.92 290.93 192.21 290.19 194.48L290.18 194.47ZM293.02 184.51L290.55 183.76C291.07 181.64 291.54 179.5 291.97 177.35L294.45 178.07C294.02 180.23 293.54 182.38 293.02 184.51ZM295.04 174.92L292.56 174.2C292.92 172.12 293.23 170.04 293.49 167.94L296.03 168.33C295.75 170.54 295.42 172.74 295.04 174.93V174.92ZM296.4 165.15L293.85 164.76C294.07 162.68 294.24 160.58 294.37 158.48L296.94 158.57C296.81 160.77 296.63 162.96 296.4 165.14V165.15ZM297.1 155.4L294.53 155.31C294.58 154.11 294.61 152.9 294.62 151.7H297.19C297.17 152.94 297.14 154.17 297.09 155.4H297.1ZM297.2 148.51H294.63C294.62 147.15 294.59 145.79 294.54 144.43L297.11 144.34C297.16 145.73 297.19 147.11 297.2 148.51ZM296.96 141.16L294.39 141.25C294.27 139.15 294.1 137.05 293.89 134.97L296.44 134.58C296.67 136.76 296.84 138.96 296.97 141.16H296.96ZM296.08 131.41L293.54 131.8C293.28 129.7 292.97 127.61 292.61 125.53L295.1 124.81C295.48 127 295.8 129.2 296.08 131.42V131.41ZM294.52 121.65L292.04 122.37C291.62 120.22 291.15 118.08 290.64 115.95L293.11 115.2C293.63 117.33 294.1 119.48 294.53 121.65H294.52ZM292.31 112.11L289.84 112.86C289.22 110.54 288.55 108.24 287.81 105.96L290.28 105.23C291.01 107.5 291.68 109.79 292.3 112.11H292.31ZM257.76 54.16C256.22 52.47 254.64 50.81 253.01 49.18C252.75 48.92 252.49 48.68 252.23 48.42L254.12 46.67C254.35 46.9 254.59 47.13 254.83 47.36C256.62 49.15 258.36 50.99 260.05 52.86L257.76 54.17V54.16ZM266.12 64.24C264.15 61.63 262.09 59.08 259.93 56.6L262.21 55.3C264.31 57.73 266.32 60.23 268.24 62.78L266.12 64.25V64.24ZM272.2 72.95C270.86 70.87 269.46 68.82 268.01 66.81L270.13 65.34C271.65 67.45 273.12 69.6 274.52 71.79L272.2 72.95ZM277.52 81.92C276.37 79.81 275.16 77.72 273.9 75.66L276.21 74.5C277.53 76.66 278.79 78.85 279.99 81.07L277.52 81.92ZM279.02 84.77L281.48 83.93C282.83 86.56 284.09 89.24 285.27 91.95L282.85 92.85C281.66 90.12 280.38 87.43 279.01 84.78L279.02 84.77ZM286.81 102.94C285.97 100.53 285.08 98.14 284.11 95.78L286.52 94.88C287.51 97.3 288.43 99.74 289.28 102.21L286.81 102.94ZM286.63 196.77L289.17 197.48C288.31 199.94 287.39 202.38 286.4 204.79L284 203.72C284.93 201.43 285.81 199.1 286.63 196.76V196.77ZM285.14 207.74C284.86 208.39 284.56 209.03 284.27 209.68C283.84 209.73 283.41 209.82 282.97 209.94C282.61 210.04 282.25 210.15 281.88 210.29C281.58 210.41 281.27 210.55 280.97 210.7C281.21 210.17 281.46 209.64 281.7 209.11C282.04 208.36 282.37 207.6 282.7 206.84L284.05 207.34L285.15 207.75L285.14 207.74ZM71.33 182.85C72.61 178 74.37 173.5 76.74 170.06C79.23 166.43 82.27 162.83 85.71 159.35C86.14 158.92 86.57 158.49 87.01 158.06C90.69 154.48 94.77 151.05 99.11 147.91C100.16 147.15 101.22 146.41 102.3 145.68C105.09 143.79 107.97 142.03 110.88 140.41C112.66 139.42 114.46 138.49 116.27 137.62C124.12 133.85 131.73 132.21 137.36 131.51C138.51 131.37 139.58 131.26 140.55 131.19C142.3 131.06 143.73 131.02 144.75 131.01C149.4 137.89 156.79 141.17 162.31 138.4C168.53 135.28 170.03 125.67 165.66 116.94C161.29 108.21 152.69 103.65 146.47 106.77C140.76 109.63 139.03 117.96 142.16 126.06C141.73 126.02 141.19 125.98 140.54 125.97C140.41 125.97 140.27 125.97 140.13 125.97C139.86 125.2 139.54 124.43 139.16 123.67C138.63 122.61 138.02 121.63 137.35 120.73C136.33 119.36 135.17 118.2 133.93 117.27L133.86 117.07L133.73 117.12C130.53 114.8 126.87 114.08 123.89 115.57C119.54 117.75 118.12 123.92 120.2 130.11L120.22 130.16C120.26 130.28 120.29 130.4 120.34 130.52C119.74 130.76 119.13 131.01 118.51 131.27C117.52 124.18 117.38 117.87 117.77 112.32C117.8 111.86 117.83 111.4 117.87 110.95C117.93 110.84 117.99 110.73 118.06 110.63C120.01 107.73 127.68 101.98 137.36 96.87C138.4 96.32 139.46 95.78 140.55 95.25C142.57 94.26 144.66 93.32 146.78 92.44C148.87 91.58 150.99 90.79 153.12 90.09C153.25 90.05 153.38 90 153.52 89.96L153.63 90.5L154.46 89.66C154.98 89.5 155.51 89.34 156.03 89.19L156.45 91.28L159.18 88.54L158.83 92.15L161.84 90.53L161.64 94.16L164.43 92.51L163.5 96.15L166.99 94.92C166.99 94.92 167 94.93 167.01 94.94L165.56 98.39L169.59 97.6L167.94 100.98L172.04 100.42L170.25 103.63L174.61 103.27V103.25C174.61 103.25 174.67 103.33 174.71 103.36L172.69 106.08L176.89 106.29L174.73 109.2L177.79 109.35L178.93 109.41L177.79 111.13L176.92 112.44H177.79L180.82 112.43L178.77 115.51H180.98L182.55 115.5L180.98 117.86L180.43 118.68H180.98L184.28 118.67C184.29 118.7 184.31 118.73 184.32 118.75L182.26 121.85H185.73L183.62 124.52L187.16 124.8L184.44 127.36L188.55 128.3L185.86 130.84L190.12 131.82L187.49 133.9L191.39 135.15L188.87 137.51L192.69 138.4L189.94 140.58L193.85 141.84L191.23 143.71L193.99 144.75C192.74 146.35 191.43 147.88 190.09 149.31C186.92 152.7 183.64 155.5 180.98 157.17C180.88 157.23 180.78 157.3 180.68 157.36C179.79 157.9 178.82 158.37 177.79 158.77C170.32 161.71 159.5 161.33 151.76 160.12C148.9 159.68 145.03 159.35 140.54 159.45C139.51 159.47 138.45 159.52 137.35 159.59C131.16 159.99 124.05 161.24 116.81 163.99C115.39 164.53 113.97 165.12 112.54 165.78C111.97 166.04 111.4 166.32 110.83 166.6C109.75 167.14 108.67 167.72 107.59 168.33C105.76 169.38 103.99 170.52 102.29 171.73C101.2 172.5 100.14 173.3 99.1 174.12C90.54 180.91 84.04 189.14 80.63 195.46C79.1 198.3 78.19 200.75 78 202.52C77.25 209.45 78.51 216.32 76.39 219.89C74.27 223.45 70.52 222.21 69.02 215.77C67.93 211.09 67.92 195.73 71.33 182.83V182.85ZM126.45 118.71C125.97 119.11 125.62 119.55 125.37 120.04L121.95 121.24C122.11 120.84 122.3 120.45 122.52 120.09L126.46 118.71H126.45ZM123.64 118.68C123.9 118.43 124.17 118.2 124.47 117.99C125.76 117.1 127.29 116.73 128.92 116.82L123.65 118.67L123.64 118.68ZM126.39 127.92L121.86 129.51C121.78 129.22 121.7 128.93 121.63 128.64L126.05 127.09C126.16 127.36 126.27 127.64 126.39 127.92ZM124.97 121.2C124.88 121.68 124.85 122.2 124.89 122.74L121.29 124.01C121.35 123.45 121.43 122.91 121.56 122.4L124.97 121.2ZM125.02 123.72C125.16 124.5 125.4 125.33 125.71 126.19L121.44 127.69C121.29 126.78 121.22 125.9 121.23 125.05L125.02 123.72ZM151.7 134.16V134.18C151.3 133.91 150.9 133.61 150.5 133.29L153.31 132.3C153.55 132.66 153.79 133 154.05 133.33L151.7 134.15V134.16ZM154.72 134.12C155.04 134.46 155.37 134.77 155.73 135.05L154.32 135.55C153.79 135.35 153.26 135.11 152.74 134.82L154.72 134.12ZM149.71 132.61C149.37 132.3 149.04 131.97 148.71 131.62L152.18 130.4C152.38 130.77 152.58 131.13 152.79 131.47L149.7 132.56L149.72 132.61H149.71ZM149.43 124.46C149.72 125.37 150.08 126.27 150.53 127.17C150.6 127.31 150.67 127.45 150.74 127.59L146.69 129.01C146.29 128.39 145.91 127.74 145.57 127.05C145.39 126.7 145.23 126.34 145.08 125.98L149.43 124.45V124.46ZM144.71 125.1C144.3 124.01 144 122.91 143.8 121.83L148.65 120.13C148.7 121.25 148.87 122.39 149.17 123.54L144.72 125.1H144.71ZM151.17 128.46C151.35 128.83 151.54 129.19 151.72 129.55L148.02 130.85C147.75 130.53 147.49 130.19 147.24 129.84L151.16 128.46H151.17ZM153.19 109.32C152.1 110.22 151.19 111.28 150.48 112.47L144.08 114.72C144.38 113.76 144.79 112.87 145.31 112.09L153.18 109.33L153.19 109.32ZM146.53 110.64C147.06 110.14 147.66 109.72 148.32 109.38C149.48 108.8 151.59 108.33 153.27 108.27L146.52 110.64H146.53ZM149.83 113.71C149.51 114.41 149.26 115.13 149.07 115.89L143.54 117.83C143.58 117.14 143.67 116.47 143.8 115.83L149.83 113.71ZM148.83 116.99C148.71 117.68 148.65 118.39 148.63 119.11L143.64 120.86C143.55 120.18 143.51 119.51 143.5 118.85L148.82 116.98L148.83 116.99ZM155.89 136.01L156.73 135.72C157.08 135.92 157.45 136.1 157.85 136.24C157.21 136.24 156.55 136.16 155.89 136.01ZM190.12 131.82L190.16 131.71C190.16 131.71 190.18 131.75 190.18 131.77L190.12 131.82ZM96.86 209.04C96.54 205.74 93.08 203.6 91.23 202.68C92.63 199.41 94.35 195.86 97.24 192.28C97.81 191.57 98.44 190.89 99.11 190.22C100.08 189.25 101.15 188.32 102.3 187.44C104.77 185.54 107.6 183.87 110.62 182.47C111.24 182.18 111.87 181.91 112.51 181.64C113.61 181.18 114.72 180.76 115.84 180.38C116.35 180.21 116.85 180.04 117.36 179.89C117.74 179.77 118.13 179.66 118.51 179.55C120.43 183.6 122.39 187.19 124.26 190.32C124.36 190.48 124.46 190.65 124.55 190.81C125.68 192.68 126.82 194.45 127.96 196.13C129.56 198.48 131.16 200.66 132.7 202.68C133.06 203.15 133.42 203.61 133.77 204.06C135.01 205.64 136.2 207.11 137.34 208.5C138.47 209.88 139.54 211.18 140.53 212.4C142.12 214.37 143.49 216.13 144.54 217.75C144.02 218.93 142.9 220.51 140.53 222.22C140.41 222.31 140.29 222.39 140.17 222.48C139.29 223.09 138.35 223.49 137.34 223.74C132.95 224.87 127.42 223.2 121.6 223.42C121.24 223.43 120.88 223.46 120.52 223.48C119.9 223.53 119.27 223.6 118.64 223.71C115.94 224.16 114.09 225.27 112.81 226.57C111.41 227.98 110.71 229.61 110.35 230.82C107.34 228.14 105.69 226 104.93 224.87C104.91 224.07 104.87 223.27 104.79 222.48C104.79 222.39 104.76 222.3 104.75 222.21C104.51 220.47 103.53 218.74 102.27 217.18C101.3 215.98 100.17 214.88 99.08 213.94C98.28 213.25 97.52 212.65 96.86 212.16C96.92 211.03 96.93 210.04 96.84 209.04H96.86ZM117.14 176.31C116.81 176.42 116.48 176.53 116.15 176.64C114.96 177.05 113.75 177.51 112.51 178.03C112.02 178.23 111.53 178.44 111.04 178.66C110.91 178.72 110.79 178.77 110.66 178.83C107.4 180.28 104.64 181.76 102.29 183.25C101.13 183.99 100.07 184.73 99.1 185.46C91.29 191.42 89.3 197.43 87.68 202.53C87.49 203.13 87.28 203.69 87.06 204.22C86.24 206.2 85.25 207.75 84.29 208.92C83.68 209.67 83.08 210.27 82.56 210.74C82.64 208.68 82.61 206.49 82.56 204.16C82.53 202.95 82.9 201.36 83.61 199.53C85.82 193.86 91.38 185.82 99.1 178.94C100.13 178.03 101.19 177.13 102.29 176.27C104.93 174.2 107.77 172.29 110.77 170.67C111.35 170.36 111.93 170.05 112.52 169.76C114.23 168.92 115.98 168.18 117.78 167.55C120.26 166.68 122.82 166.02 125.45 165.64C129.73 165.02 133.68 164.66 137.34 164.48C138.43 164.43 139.49 164.39 140.53 164.36C155.74 164 165.84 166.47 174.74 164.54C175.69 164.33 176.71 164 177.78 163.57C178.81 163.15 179.87 162.64 180.97 162.04C182.18 161.37 183.43 160.6 184.69 159.73C183.78 162.42 182.56 164.77 180.97 166.79C180.04 167.97 178.99 169.04 177.78 169.98C175.58 171.71 172.9 173.04 169.62 173.97C169.48 174.01 169.33 174.05 169.19 174.08C160.53 176.36 146.6 175.16 144.32 174.61C143.72 174.47 142.43 174.13 140.53 173.85C139.61 173.71 138.54 173.59 137.34 173.51C133.11 173.22 127.23 173.44 120.12 175.39C119.15 175.66 118.15 175.95 117.13 176.29L117.14 176.31ZM20.85 110.38C21.19 108.77 21.11 108.07 21.24 107.33C21.27 107.17 21.31 107.02 21.36 106.85C21.41 106.71 21.42 106.54 21.41 106.35C21.41 106.19 21.39 106.02 21.35 105.84C21.72 103.89 22.1 100.65 22.35 96.91C22.35 96.89 22.35 96.87 22.35 96.85C22.36 96.66 22.37 96.47 22.39 96.28C22.45 95.38 22.5 94.46 22.54 93.52C22.56 92.95 22.58 92.38 22.6 91.8C22.62 91.04 22.64 90.27 22.65 89.5C22.66 88.37 22.76 86.84 22.93 85.09C22.96 84.81 22.98 84.53 23.01 84.24C23.03 84.02 23.06 83.79 23.08 83.56C23.17 82.74 23.26 81.88 23.37 81C23.74 77.93 24.21 74.62 24.7 71.65C25.13 69.03 25.57 66.69 25.95 65.04C26.15 64.16 26.34 63.48 26.51 63.07C26.53 63.02 26.56 62.95 26.58 62.9C27.51 60.6 30.02 55.5 31.58 51.17C32.5 48.63 33.29 46.43 33.61 45.74C34.42 43.99 34.9 43.61 36.63 43.38C36.89 43.35 37.15 43.34 37.44 43.35C37.68 43.36 37.94 43.39 38.23 43.43C38.53 43.47 38.86 43.53 39.24 43.61C39.88 43.74 40.66 43.92 41.67 44.15C42.69 44.38 43.95 44.67 45.51 45.01C46.35 45.19 47.28 45.39 48.31 45.61C49.23 45.8 50.23 46.01 51.33 46.23C51.79 46.32 52.25 46.42 52.74 46.51C53.3 46.62 53.83 46.73 54.35 46.85C54.35 46.85 54.36 46.85 54.37 46.85C55.21 47.04 56.01 47.23 56.76 47.43C57.32 47.58 57.86 47.73 58.37 47.88C58.62 47.95 58.86 48.03 59.09 48.1C59.93 48.37 60.7 48.63 61.4 48.9C62.73 49.41 63.82 49.91 64.69 50.37C65.49 50.79 66.11 51.18 66.58 51.52C67.11 51.9 67.45 52.2 67.64 52.41C67.64 52.45 67.64 52.51 67.64 52.57C67.62 53.11 67.52 54.1 67.34 55.59C67 58.29 66.38 62.57 65.38 68.56C65.19 69.72 64.96 70.9 64.69 72.1C63.27 78.59 60.95 85.44 58.87 90.67C57.7 93.61 56.62 96.04 55.81 97.6C55.8 97.62 55.79 97.65 55.77 97.67C55.62 97.96 55.46 98.3 55.28 98.7C54.53 100.33 53.52 102.81 52.4 105.72C49.18 114.02 45.07 125.78 43.73 131.01C42.57 135.57 41.27 144.02 40.37 150.6C37.59 149.67 31.6 147.77 24.42 146.19C23.38 145.96 22.32 145.74 21.23 145.53C19.08 145.11 16.85 144.73 14.6 144.43C13.87 144.33 13.14 144.24 12.41 144.16C12.36 144.16 12.3 144.15 12.25 144.14C12.96 141.96 13.64 139.8 13.99 138.74C14.01 138.74 14.03 138.74 14.06 138.73C14.23 138.71 14.38 138.67 14.5 138.62C14.64 138.56 14.8 138.48 14.96 138.38C15.77 137.89 16.78 136.98 17.29 136.5C17.81 136.57 18.36 136.63 18.96 136.7C18.96 136.7 18.93 135.64 18.64 134.43C19.37 132.51 18.83 130.81 18.04 130.26C17.66 130 17.17 129.68 16.66 129.34L16.95 128.41C18.42 128.61 20.18 128.7 20.85 128.34C20.97 128.27 21.11 128.16 21.24 128.03C22.42 126.88 24.08 123.55 23.9 122.07C23.69 120.43 23.25 118.27 21.4 117.03C21.35 117 21.3 116.97 21.25 116.93C20.54 116.48 19.64 116.05 18.71 115.68C18.63 115.65 18.55 115.62 18.47 115.59C18.68 114.31 18.9 113.15 18.99 112.67C19.22 112.54 19.43 112.39 19.63 112.23C20.26 111.71 20.71 111.06 20.86 110.35L20.85 110.38ZM18.73 97.57C18.59 97.3 18.27 96.92 17.87 96.47C17.37 95.91 16.75 95.24 16.13 94.54C16.05 94.45 15.98 94.37 15.9 94.28C15.63 93.97 15.37 93.65 15.12 93.34C14.92 93.09 14.74 92.84 14.58 92.6C14.46 92.42 14.36 92.26 14.26 92.09C14.23 92.04 14.19 91.98 14.16 91.94C13.48 90.78 13.22 89.82 13.41 88.98C13.47 88.7 13.59 88.44 13.75 88.18C13.83 88.06 13.93 87.96 14.03 87.86C14.41 87.49 14.94 87.28 15.51 87.2C15.81 87.16 16.12 87.15 16.43 87.16C16.47 87.16 16.5 87.16 16.54 87.16C16.91 87.18 17.26 87.24 17.58 87.32H17.6C18.34 87.5 19.32 88.08 19.99 88.52C19.99 88.55 19.99 88.59 19.99 88.62C19.98 89.58 19.96 90.48 19.94 91.36C19.94 91.36 19.94 91.36 19.94 91.37C19.94 91.41 19.94 91.46 19.94 91.5C19.94 91.86 19.92 92.21 19.91 92.55C19.87 93.75 19.83 94.86 19.77 95.9C19.72 96.72 19.67 97.5 19.61 98.22C19.6 98.39 19.58 98.55 19.57 98.71C19.26 98.35 18.93 97.94 18.73 97.58V97.57ZM12.18 109.9C11.61 109.16 11.62 108.87 11.75 108.24C11.8 107.99 11.87 107.7 11.94 107.3C12.04 106.67 12.55 105.9 13.18 105.21C13.86 104.46 14.69 103.79 15.3 103.47C15.38 103.43 15.46 103.39 15.53 103.36C16.21 103.08 17.22 103.1 18.07 103.33C18.32 103.4 18.56 103.49 18.77 103.59C19.03 103.72 19.25 103.87 19.41 104.04C19.41 104.04 19.41 104.05 19.42 104.06C19.74 104.42 19.92 104.81 20.01 105.12C20.12 105.49 20.13 105.77 20.13 105.77L19.92 105.72C19.82 105.69 19.28 105.69 19.28 105.69C19.28 105.69 19.59 106.54 19.64 107.26C19.69 107.98 19.33 108.78 18.71 109.93C18.21 110.86 16.93 111.48 15.57 111.31C15.34 111.28 15.1 111.23 14.86 111.15C14.76 111.12 14.66 111.08 14.56 111.03C13.97 110.77 13.51 110.56 13.15 110.39C12.47 110.07 12.16 109.9 12.16 109.9H12.18ZM9.27 123.13C9.17 122.63 9.18 122.15 9.25 121.7C9.38 120.88 9.72 120.15 10.1 119.6C10.17 119.5 10.25 119.4 10.33 119.29C10.56 119 10.86 118.67 11.2 118.33C11.84 117.69 12.61 117.04 13.29 116.62C13.54 116.46 13.78 116.35 14.01 116.27C14.12 116.23 14.24 116.2 14.35 116.17C14.73 116.09 15.1 116.1 15.48 116.19C15.75 116.26 16.03 116.36 16.33 116.51C16.36 116.52 16.39 116.53 16.42 116.55C16.93 116.81 17.62 117.06 18.33 117.34C18.78 117.52 19.24 117.7 19.67 117.9C20.01 118.06 20.32 118.22 20.6 118.4C20.86 118.57 21.08 118.75 21.27 118.92C21.91 119.52 22.14 120.08 22.14 120.08C21.83 119.79 21.51 119.65 21.27 119.57C21.06 119.51 20.91 119.5 20.91 119.5C20.91 119.5 21.06 119.69 21.27 120C21.47 120.3 21.72 120.71 21.97 121.21C22.48 122.24 22.31 123.61 22.31 123.61C22.17 124.54 21.84 125.34 21.26 125.92C20.83 126.35 20.27 126.66 19.53 126.79C18.39 126.99 17.46 127.14 16.39 126.93C15.82 126.82 15.21 126.61 14.49 126.24C14.1 126.04 13.68 125.79 13.26 125.52C13.01 125.36 12.75 125.19 12.5 125.02C11.81 124.55 11.16 124.07 10.66 123.68C10.48 123.54 10.33 123.42 10.2 123.32C9.88 123.07 9.69 122.91 9.69 122.91C9.77 123.4 9.88 123.83 10.03 124.23C10.19 124.68 10.39 125.07 10.61 125.41C11.08 126.14 11.62 126.63 12.07 126.94C11.71 126.97 11.42 127.02 11.27 127.05C11.02 126.66 10.61 126.01 10.22 125.3C10.12 125.13 10.03 124.95 9.94 124.77C9.63 124.17 9.37 123.57 9.29 123.13H9.27ZM10.78 138.91C9.74 138.43 8.91 137.59 8.39 136.68C8.31 136.55 8.24 136.42 8.18 136.29C7.95 135.8 7.79 135.24 7.69 134.66C7.51 133.56 7.6 132.41 8.09 131.5C8.15 131.38 8.21 131.26 8.29 131.15C8.3 131.14 8.31 131.12 8.32 131.11C8.55 130.78 8.82 130.45 9.12 130.15C9.9 129.35 10.88 128.75 11.89 128.89C12.12 128.92 12.34 128.99 12.57 129.1C12.66 129.14 12.75 129.19 12.84 129.24C13.44 129.55 14.17 129.98 14.86 130.43C14.11 130.28 13.73 130.47 13.73 130.47C13.73 130.47 12.17 130.76 11.47 131.98C11.47 131.99 11.46 132 11.45 132.02C11.32 132.26 11.21 132.53 11.16 132.84C11.12 133.1 11.11 133.35 11.13 133.59C11.15 133.76 11.18 133.92 11.23 134.08C11.3 134.26 11.39 134.44 11.53 134.61C12.06 135.26 13.14 135.78 15.17 136.2C15.02 136.29 14.86 136.37 14.69 136.44C13.68 136.87 12.22 136.71 10.99 136.44C10.21 136.27 9.53 136.05 9.12 135.91C8.87 135.82 8.72 135.77 8.72 135.77C8.72 135.77 8.99 136.95 9.61 137.67C9.81 137.9 10.26 138.13 10.82 138.32C11.12 138.42 11.45 138.51 11.79 138.59H11.66C11.59 138.79 11.52 138.98 11.46 139.18C11.22 139.11 10.99 139.03 10.77 138.93L10.78 138.91ZM21.25 156.8C21.04 156.74 20.84 156.68 20.64 156.62C20.36 156.15 20.21 155.86 20.21 155.86L19.18 156.19C18.78 156.07 18.38 155.95 17.98 155.83C16.77 155.46 15.63 155.1 14.61 154.76C12.7 154.13 11.23 153.59 10.6 153.26C10.61 153.26 10.62 153.24 10.64 153.24C11.37 152.9 12.25 153.44 14.6 154.47C14.72 154.52 14.83 154.57 14.96 154.63C15.75 154.97 16.81 155.25 17.88 155.46C19.15 155.71 20.43 155.87 21.25 155.89C22.04 155.92 22.41 155.83 21.95 155.6C21.84 155.55 21.59 155.48 21.25 155.41C19.75 155.1 16.42 154.58 14.57 153.44C14.51 153.4 14.45 153.37 14.4 153.34C13.25 152.57 11.94 152 10.85 151.7C10.7 151.66 10.55 151.62 10.4 151.58C10.3 151.56 10.21 151.54 10.12 151.52C9.92 151.48 9.74 151.46 9.57 151.44C9.65 150.98 9.91 150.57 10.08 150.31C10.15 150.2 10.25 149.97 10.38 149.67C10.5 149.36 10.65 148.97 10.81 148.51C11.14 147.59 11.53 146.43 11.93 145.21C11.98 145.21 12.03 145.22 12.07 145.23C12.91 145.32 13.75 145.42 14.58 145.54C16.85 145.85 19.08 146.23 21.25 146.65C22.33 146.86 23.4 147.08 24.44 147.31C31.67 148.91 37.64 150.82 40.24 151.7C40.15 152.39 40.06 153.05 39.98 153.68C39.66 156.16 39.37 157.51 39.22 158.38C39.14 158.83 39.06 159.18 38.92 159.46C38.58 159.33 38.19 159.18 37.73 159C35.11 157.97 26.01 156.64 26.27 156.69C26.53 156.74 34.85 158.9 36.34 159.83C36.56 159.97 36.71 160.1 36.81 160.22C36.1 160.18 35.17 160.06 33.93 159.85C33.48 159.78 33.01 159.7 32.52 159.62C30.78 159.35 27.73 158.61 24.43 157.71C23.38 157.42 22.31 157.12 21.24 156.81L21.25 156.8ZM32.35 167.27C32.35 167.27 34.44 166.05 35.26 165.37C36.08 164.68 36.65 163.31 36.65 163.31C36.65 163.31 33.79 164.06 32.49 164C31.37 163.94 26.91 162.97 24.44 161.3C24.05 161.03 23.7 160.75 23.43 160.45C23.09 160.08 22.78 159.7 22.49 159.33C23.15 159.52 23.8 159.71 24.44 159.89C27.69 160.8 30.64 161.53 32.32 161.79C32.8 161.86 33.27 161.94 33.72 162.01C35.24 162.26 36.68 162.49 37.92 162.49C39.97 162.49 41.47 161.85 41.86 159.55C41.92 159.2 42 158.68 42.08 158.04C42.22 157.03 42.39 155.71 42.59 154.18C43.4 147.86 44.77 137.27 46.1 132.06C46.73 129.58 48.07 125.46 49.64 120.95C49.86 120.31 50.09 119.66 50.32 119.01C52.2 119.54 53.05 118.84 53.36 118.45C53.47 118.32 53.51 118.22 53.51 118.22L52.53 118.01C51.91 117.88 51.3 117.52 50.93 117.28C52.46 113.03 54.08 108.72 55.46 105.26C55.77 105.12 56.15 104.96 56.55 104.83C57.32 104.57 58.19 104.37 58.88 104.42C59.05 104.43 59.22 104.45 59.37 104.5C59.46 104.53 59.54 104.56 59.62 104.6C60.92 105.28 59.75 106.56 58.79 108.12C58.79 108.12 58.79 108.14 58.78 108.14C57.82 109.72 55.42 116.84 54.94 121.71C54.46 126.58 55.83 129.87 55.97 132.4C56.11 134.94 54.26 138.71 53.09 141.45C51.92 144.19 51.48 149.74 50.79 151.04C50.22 152.13 47.24 153.03 46.29 153.29C46.19 153.32 46.12 153.34 46.07 153.35C46.02 153.36 45.99 153.37 45.99 153.37C45.99 153.37 46.05 153.39 46.15 153.41C46.43 153.47 47.07 153.58 48.12 153.58C49.56 153.58 51.07 153.03 51.07 153.03C51.07 153.03 50.36 154.16 49.04 154.76C48.94 154.8 48.84 154.85 48.74 154.88C47.23 155.43 47.3 154.88 46.34 155.43C45.38 155.98 42.78 156.8 42.78 156.8C42.78 156.8 43.05 157.01 43.4 157.28C43.74 157.55 45.34 158.07 46.98 157.38C47.14 157.31 47.27 157.26 47.4 157.21L48.75 159.06L48.85 157.21L50.67 160.5L50.26 157.45L51.77 159.33L51.67 157.07L53.13 158.61C54.96 162.63 60.97 174.41 63.08 178.28C61.63 182.35 59.54 187.46 56.97 192.62C55.9 194.77 54.74 196.93 53.51 199.03C53 199.89 52.47 200.75 51.91 201.61C49.31 197.04 41.74 183.67 38.93 178.2C37.58 175.57 36.68 173.81 36.08 172.64L38.48 175.27L36.97 170.88L38.72 172.18L37.9 169.2L39.07 169.78L38.43 167.8C38.79 167.44 39.15 167.05 39.5 166.62C41.56 164.08 41.01 163.06 41.01 163.06C41.01 163.06 38.06 166.01 35.94 166.62C33.82 167.24 32.38 167.24 32.38 167.24L32.35 167.27ZM29.53 199.33C29.74 199.03 29.95 198.73 30.16 198.44C33.59 193.69 36.64 190.73 37.89 189.59C38.17 190.18 38.45 190.78 38.73 191.38C38.19 191.86 34.26 195.4 30.31 201.54C30.22 201.68 30.13 201.82 30.05 201.96C29.03 203.57 28.02 205.35 27.07 207.3C26.71 206.51 26.35 205.72 26 204.92C27.17 202.86 28.37 201 29.53 199.33ZM8.08 158.53L10.65 158.44C10.73 159.78 10.83 161.12 10.95 162.45C10.96 162.59 10.98 162.72 10.99 162.86C11.04 163.43 11.1 163.99 11.15 164.56L8.6 164.95C8.38 162.82 8.21 160.69 8.08 158.54V158.53ZM8.96 168.11L11.51 167.72C11.56 168.1 11.61 168.49 11.67 168.87C11.68 168.96 11.7 169.06 11.71 169.15C11.92 170.7 12.15 172.25 12.41 173.8L9.92 174.52C9.55 172.39 9.24 170.26 8.97 168.11H8.96ZM10.49 177.67L12.97 176.95C13.39 179.1 13.85 181.23 14.36 183.35L11.89 184.1C11.37 181.97 10.9 179.83 10.48 177.67H10.49ZM12.69 187.19L15.16 186.44C15.78 188.76 16.45 191.07 17.19 193.35L14.72 194.08C13.99 191.8 13.32 189.51 12.7 187.19H12.69ZM15.72 197.1L18.19 196.37C19.01 198.75 19.9 201.1 20.85 203.43L18.44 204.33C17.47 201.95 16.56 199.53 15.72 197.1ZM19.68 207.28L22.1 206.38C23.29 209.12 24.57 211.83 25.94 214.49L23.48 215.33C22.13 212.68 20.87 210 19.68 207.27V207.28ZM24.97 218.19L27.44 217.34C28.56 219.4 29.73 221.43 30.95 223.43L28.64 224.59C27.36 222.48 26.14 220.35 24.97 218.19ZM30.33 227.31L32.65 226.15C33.95 228.18 35.3 230.17 36.71 232.14L34.59 233.61C33.11 231.54 31.69 229.45 30.33 227.32V227.31ZM42.55 243.77C40.43 241.3 38.4 238.77 36.47 236.18L38.59 234.71C40.57 237.35 42.65 239.94 44.83 242.46L42.56 243.76L42.55 243.77ZM50.38 252.2C50.32 252.14 50.25 252.07 50.18 252.01C48.29 250.12 46.46 248.18 44.69 246.21L46.97 244.91C46.97 244.91 47.02 244.96 47.04 244.99C47.25 245.22 47.47 245.45 47.68 245.68C48.25 246.3 48.82 246.92 49.41 247.54C49.64 247.79 49.88 248.03 50.12 248.27C50.68 248.85 51.24 249.43 51.81 250C51.87 250.06 51.94 250.13 52 250.2C52.09 250.29 52.18 250.37 52.27 250.46L50.38 252.21V252.2ZM57.12 258.51C55.61 257.18 54.12 255.83 52.66 254.44L54.55 252.69C54.87 252.99 55.2 253.29 55.52 253.59C55.79 253.84 56.05 254.09 56.32 254.34C56.42 254.43 56.52 254.52 56.62 254.61C57.19 255.13 57.76 255.64 58.34 256.15C58.56 256.34 58.78 256.54 59 256.73L57.13 258.51H57.12ZM68.52 267.56C65.45 265.37 62.46 263.04 59.55 260.59L61.29 258.93L60.11 257.69C60.46 257.99 60.82 258.29 61.18 258.59C61.26 258.66 61.35 258.73 61.43 258.8C64.33 261.23 67.3 263.53 70.36 265.7L68.52 267.54V267.56ZM77.25 273.34C75.2 272.08 73.17 270.78 71.18 269.41L73.03 267.56C74.97 268.88 76.95 270.14 78.95 271.36L77.25 273.34ZM88.3 279.44C85.5 278.05 82.74 276.57 80.03 274.99L81.56 273.21L80.43 272.24C83.3 273.93 86.21 275.52 89.18 277L88.3 279.44ZM100.07 284.64C97.07 283.47 94.1 282.2 91.18 280.84L92.06 278.41C94.87 279.73 97.73 280.96 100.62 282.09L100.07 284.64ZM112.58 288.84C109.38 287.93 106.21 286.91 103.09 285.77L103.64 283.23C106.71 284.35 109.82 285.36 112.97 286.27L112.59 288.84H112.58ZM127.21 292.2C123.32 291.52 119.48 290.67 115.68 289.68L116.06 287.12C119.8 288.1 123.58 288.94 127.4 289.62L127.21 292.2ZM140.43 293.89C137.05 293.61 133.69 293.22 130.37 292.71L130.56 290.13C133.82 290.63 137.12 291.02 140.43 291.3V293.88V293.89ZM150.3 294.37C148.06 294.34 145.84 294.25 143.62 294.12V291.54C144.32 291.58 145.03 291.63 145.73 291.66C146.21 291.68 146.69 291.7 147.18 291.71C147.82 291.73 148.45 291.76 149.09 291.78C149.49 291.78 149.9 291.78 150.3 291.8V294.37ZM159.96 294.21C157.81 294.32 155.65 294.37 153.48 294.39V291.82C154.21 291.82 154.95 291.81 155.68 291.79C156.02 291.79 156.36 291.77 156.71 291.76C157.43 291.74 158.16 291.71 158.88 291.68C159.24 291.66 159.6 291.65 159.96 291.63V294.21ZM163.15 294.01V291.43C163.54 291.4 163.92 291.36 164.31 291.33C164.87 291.28 165.43 291.24 165.99 291.19C166.61 291.13 167.24 291.07 167.86 291C168.19 290.96 168.52 290.93 168.85 290.89C169.57 290.81 170.29 290.72 171.01 290.63C171.04 290.63 171.06 290.63 171.09 290.62C171.74 290.54 172.39 290.45 173.04 290.36L173.23 292.93C169.9 293.41 166.53 293.77 163.15 294.02V294.01ZM176.39 292.44L176.2 289.86C180.04 289.22 183.83 288.43 187.58 287.48L187.96 290.04C184.15 290.99 180.29 291.79 176.39 292.43V292.44ZM191.06 289.23L190.68 286.67C193.84 285.79 196.97 284.81 200.05 283.71L200.59 286.25C197.45 287.35 194.27 288.35 191.05 289.24L191.06 289.23ZM203.62 285.14L203.07 282.6C205.99 281.49 208.88 280.28 211.72 278.97L212.6 281.4C209.65 282.75 206.65 284 203.62 285.14ZM208.9 275.67C207.56 275.58 206.15 275.41 205.42 275.1C204.96 274.91 204.72 274.81 204.61 274.75L202.41 274.14C202.41 274.14 205.15 265.23 208.03 260.57C209.4 258.34 211.15 256.47 212.6 255.11C214.19 253.62 215.43 252.76 215.43 252.76C215.43 252.76 214.34 252.22 212.6 252.51C210.64 252.84 207.85 254.23 204.87 258.66C199.25 267.02 199.39 270.17 199.39 270.17L197.96 273.35C198.42 268.4 197.43 261.88 191.74 255.35C191.74 255.35 194.79 271.87 189.25 282.73C188.01 283.07 186.76 283.4 185.51 283.71C186.19 281.81 187.61 277.44 188.02 272.91C188.57 266.88 188.02 264 188.02 264C188.02 264 185.04 273.05 180.98 277.59C180.77 277.82 180.56 278.05 180.35 278.26C179.28 279.3 178.45 280.03 177.8 280.56C175.79 282.2 175.46 281.95 174.73 283.2C174.18 284.14 173.95 285.26 173.85 286.05C172.77 286.22 171.69 286.38 170.61 286.52C170.57 286.52 170.53 286.53 170.49 286.54C170.38 286.55 170.27 286.57 170.16 286.58C170.6 285.82 170.95 284.88 171.04 283.76C171.35 279.96 170.01 267.52 165.8 261.14C161.59 254.77 156.45 253.94 156.45 253.94C156.45 253.94 158.92 257.13 158.81 260.42C158.71 263.71 153.67 267.72 151.2 267.62C148.73 267.52 146.68 269.37 146.88 274.51C147.06 279.07 145.39 285.81 144.93 287.49C144.39 287.46 143.86 287.43 143.33 287.4C143.14 287.39 142.95 287.38 142.75 287.36C142.02 287.31 141.29 287.24 140.56 287.18C139.5 287.09 138.44 286.98 137.38 286.87C137.38 286.87 137.38 286.86 137.38 286.85C136.63 282.5 134.74 273.06 131.78 269.17C129.03 265.56 126.9 263.07 124.16 261.69C123 261.11 121.74 260.72 120.27 260.54C115.34 259.92 110.61 258.07 108.35 254.17C106.09 250.26 105.68 248 105.68 248C105.68 248 105.64 248.02 105.57 248.07C105.55 248.08 105.54 248.09 105.52 248.11C105.46 248.16 105.37 248.22 105.28 248.31C104.45 249.06 102.57 251.59 101.78 259.32C101.05 266.5 104.18 275.24 106.04 279.67C104.76 279.21 103.49 278.74 102.22 278.24C100.16 274.59 99.93 269.55 99.93 265.89C99.93 261.57 99.93 260.44 99 259C98.07 257.56 99 253.96 98.59 251.91C98.18 249.85 96.53 249.34 96.43 250.27C96.33 251.2 95.61 256.44 93.55 261.48C91.98 265.34 87.81 269.07 85.95 270.61C85.09 270.14 84.24 269.66 83.4 269.16C84.49 267.42 85.89 263.87 86.5 258.56C87.32 251.3 86.91 247.32 86.91 247.32C86.91 247.32 85.68 249.38 85.27 252.8C84.86 256.22 82.39 260.61 81.57 257.19C80.75 253.76 73.48 246.77 73.48 246.77C73.48 246.77 74.85 249.24 75.54 254.03C76.16 258.34 75.22 262.97 75.03 263.88C74.09 263.24 73.15 262.59 72.23 261.92C72.52 260.37 72.81 257.72 72.39 254.17C71.8 249.09 69.28 244.52 68.59 243.36C68.51 243.22 68.45 243.12 68.43 243.09C68.43 243.19 68.15 243.69 65.26 246.36C62.62 248.79 58.34 248.75 56.29 248.56C56.12 248.4 55.95 248.23 55.79 248.06C55.46 247.74 55.14 247.42 54.81 247.1C54.28 246.56 53.75 246.02 53.23 245.48C53.03 245.27 52.83 245.07 52.63 244.86C52.58 244.81 52.53 244.76 52.49 244.71C51.95 244.14 51.42 243.56 50.88 242.98C50.65 242.73 50.42 242.49 50.19 242.23C49.82 241.82 49.45 241.4 49.08 240.98C47.14 238.78 45.28 236.54 43.49 234.23C44.04 233.68 45.21 232.48 47.18 230.44C50.06 227.46 49.97 221.31 49.97 221.31C48.99 222.7 45.4 225.64 45.4 225.64C45.4 225.64 43.45 227.22 47.46 221.97C50.15 218.45 52.78 213.65 54.21 210.88C54.91 209.53 55.33 208.65 55.33 208.65C50.44 216.17 39.98 224.14 37.56 225.94C37.16 225.34 36.76 224.74 36.37 224.13C39.69 220.95 49.63 211.03 55.87 200.39C59.6 194.03 62.66 187.18 64.78 181.56C66.49 177.05 67.59 173.34 67.97 171.31C68.06 170.8 68.12 170.39 68.12 170.11C68.12 169.76 68.06 169.46 67.97 169.21C67.75 168.56 67.31 168.2 67.02 168.03C66.38 167.66 65.58 167.63 64.79 167.78C63.75 167.96 62.72 168.43 62.05 168.78C61.95 168.58 61.84 168.38 61.74 168.17C62.41 167.88 63.62 167.4 64.79 167.14C65.4 167 66 166.93 66.5 166.97C67.1 167.02 67.59 167.26 67.97 167.67C68.82 168.57 69.11 170.26 68.86 172.32C68.78 172.96 68.46 174.34 67.97 176.17C67.22 178.94 66.08 182.74 64.78 186.59C62.92 192.08 60.74 197.65 58.94 200.38C58.94 200.38 59.07 200.27 59.29 200.06C60.14 199.27 62.43 197.02 64.78 193.74C64.91 193.56 65.04 193.38 65.17 193.19C65.02 194.1 64.9 195 64.78 195.88C64.72 196.37 64.66 196.85 64.61 197.33C64.25 200.62 64.13 203.64 64.28 206.17C64.39 207.96 64.56 209.59 64.78 211.09C64.87 211.71 64.96 212.3 65.06 212.88C65.28 214.09 65.52 215.2 65.77 216.22C64.19 219.13 59.63 226.87 53.54 231.26C53.07 231.6 52.6 231.92 52.11 232.21C52.11 232.21 60.24 230.14 67.62 221.88C68.06 222.97 68.44 223.77 68.66 224.29C69.08 225.28 70.18 226.5 71.82 226.81C73.38 227.1 75.43 226.57 77.84 224.22C77.94 224.13 78.02 224.02 78.11 223.93C79.62 226.1 83.58 228.64 85.79 229.95C86.28 230.24 86.68 230.47 86.96 230.63C87.2 230.77 87.34 230.84 87.34 230.84C87.34 230.84 87.22 230.68 86.64 230.15C86.13 229.68 85.26 228.91 83.78 227.69C81.82 226.07 80.87 222.93 80.43 220.77C81.19 219.34 81.71 217.78 82.06 216.11C82.56 215.87 83.02 215.59 83.46 215.31C85.53 213.95 86.93 212.15 88.09 210C88.65 210.01 90.29 210.39 90.37 214.26C90.51 221.11 89.95 234.81 89.82 241.26C89.78 243.58 89.48 246.71 89.11 249.86C88.34 256.39 87.22 263.05 87.22 263.05C96.68 263.87 96.54 233.85 96.54 233.85C96.28 227.53 96.34 223.05 96.48 219.69C97.15 220.13 97.84 220.72 98.46 221.51C98.59 221.67 98.7 221.83 98.8 221.99C98.91 222.16 99.01 222.33 99.09 222.49C99.13 222.56 99.16 222.63 99.19 222.7C99.33 223 99.43 223.31 99.5 223.64C99.89 225.39 99.52 227.81 100.1 233.85C100.4 237.05 101.33 238.71 102.38 239.52C104.15 240.91 106.27 239.88 106.27 239.88C105.56 238.07 105.24 236.13 105.11 234.12C107.44 236.48 112.09 239.24 115.45 241.26C119.56 243.73 128.88 252.5 134.23 261.14C135.45 263.1 136.51 265.42 137.43 267.82C137.5 268 137.56 268.18 137.63 268.36C138.91 271.78 139.9 275.33 140.62 278.28C141.58 282.25 142.04 285.13 142.04 285.13C142.04 285.13 144.64 273.62 142.04 263.61C141.7 262.32 141.22 261.02 140.62 259.72C139.78 257.91 138.7 256.1 137.43 254.31C132.63 247.54 125.18 241.15 118.07 236.53C118.19 236.04 118.35 235.47 118.56 234.87C119.13 233.29 120.1 231.51 121.75 230.3C124.96 227.95 130.29 229.95 137.43 230.16C138.21 230.18 139.02 230.19 139.85 230.16C140.11 230.16 140.37 230.14 140.62 230.11C144.95 229.74 147.42 227.55 148.75 225.7C152.39 233.29 157.02 243.55 157.95 245.71C158.68 247.42 159.42 249.42 160.88 251.27C161.88 252.54 163.22 253.75 165.14 254.75C165.14 254.75 164.33 242.2 156.14 226.89C153.94 222.77 151.2 218.44 147.8 214.11C145.27 210.89 142.87 207.86 140.62 204.98C139.52 203.57 138.46 202.2 137.43 200.87C131.89 193.64 127.54 187.42 125.04 181.76C124.71 181 124.29 179.68 123.85 178.33C124.91 178.14 125.97 177.99 127.01 177.88C130.27 186.5 133.85 194.35 137.42 199.01C137.49 199.11 137.57 199.21 137.64 199.31C138.56 200.48 139.56 201.64 140.6 202.77C150.9 213.94 166.67 223.25 177.85 228.99C178.96 229.56 180.03 230.1 181.04 230.6C187.05 233.57 191.1 235.22 191.1 235.22C191.1 235.22 191.92 234.26 196.03 225.35C200.14 216.44 209.74 183.95 202.34 154.9C196.54 132.14 191.84 120.31 181.04 106.04C180.03 104.71 178.97 103.36 177.85 101.97C175.65 99.25 173.23 96.41 170.53 93.35C168.15 90.66 165.67 88.4 163.14 86.49C162.06 85.68 160.98 84.92 159.89 84.23C162.57 84.19 170.52 85.22 171.9 85.4C172.03 85.42 172.11 85.43 172.11 85.43C172.11 85.43 166.66 79.67 151.24 76.79C147.29 76.05 143.72 75.72 140.6 75.63C139.48 75.6 138.42 75.6 137.41 75.62C130.32 75.79 126.26 77.17 126.26 77.17C110.69 102.73 112.75 126.71 113.74 133.43C113.64 133.48 113.55 133.52 113.45 133.57C112.84 133.86 112.22 134.17 111.6 134.49C111.07 131.1 110.64 127.7 110.37 124.33C109.61 114.96 111.23 105.23 113.6 96.84C113.61 96.8 113.62 96.76 113.63 96.73C117.04 84.72 121.97 75.48 123.66 74.03C125.46 72.48 131.38 71.61 137.42 71.53C138.49 71.52 139.56 71.53 140.61 71.56C143.11 71.64 145.51 71.87 147.52 72.25C153.81 73.44 159.06 74.35 160.7 74.63C160.75 74.63 160.8 74.65 160.84 74.65C161.09 74.69 161.23 74.72 161.23 74.72C161.23 74.72 160.86 74.43 160.13 73.97C157.72 72.46 151.31 69.1 140.62 67.94C139.59 67.83 138.54 67.73 137.43 67.67C136.72 67.63 136 67.6 135.26 67.57C136.1 67.05 136.82 66.45 137.43 65.8C137.53 65.69 137.61 65.58 137.71 65.47C139.56 63.35 140.32 60.88 140.62 59.41C140.78 58.63 140.81 58.13 140.81 58.13C140.81 58.13 151.64 60.05 157.94 61.28C161.51 61.98 170.63 65.32 177.87 68.08C178.99 68.51 180.06 68.92 181.06 69.31C185.01 70.84 187.83 71.97 187.83 71.97C187.83 71.97 187.67 71.86 187.38 71.65C186.46 71 184.18 69.42 181.06 67.45C180.08 66.83 179.01 66.16 177.87 65.48C175.79 64.22 173.49 62.89 171.07 61.59C170.78 61.43 170.49 61.28 170.2 61.13C169.95 61 169.71 60.87 169.46 60.74C167.68 59.81 165.5 58.98 163.11 58.24C163.57 57.55 164.2 56.74 164.99 55.92C166.34 54.52 168.18 53.12 170.57 52.33C171.03 52.18 171.51 52.05 172.01 51.95C172.46 51.86 172.92 51.79 173.4 51.74C173.59 51.72 173.79 51.7 173.99 51.69C174.28 51.68 174.58 51.67 174.88 51.67C175.83 51.67 176.84 51.76 177.88 51.91C178.92 52.06 179.98 52.27 181.07 52.55C188.41 54.4 196.5 58.89 200.17 63.07C203.14 66.45 207.79 71.11 212.69 74.81C213.75 75.6 214.81 76.35 215.88 77.03C218.1 78.45 220.31 79.58 222.37 80.2C228.28 81.99 232.47 81.42 234.03 78.94C234.14 78.77 234.24 78.59 234.32 78.4C234.59 77.77 234.73 77.04 234.71 76.22C234.71 76.04 234.71 75.88 234.71 75.71C234.72 74.77 234.84 74.03 235.03 73.5C235.06 73.43 235.09 73.37 235.11 73.3C235.26 72.95 235.45 72.71 235.66 72.57C235.88 72.68 236.19 72.77 236.42 72.93C236.9 73.27 237.52 74.23 237.86 78.55C238.2 82.87 237.17 85.06 235.46 87.87C233.75 90.68 226.62 92.32 222.99 91.43C219.36 90.54 216.75 87.73 216.75 87.73C216.66 88.2 216.21 88.8 215.88 89.19C215.68 89.43 215.52 89.58 215.52 89.58C215.52 89.58 215.52 89.24 215.11 87.25C214.83 85.87 213.49 84.6 212.69 83.94C212.34 83.65 212.09 83.48 212.09 83.48C212.09 83.48 212.23 83.96 212.3 84.99C212.37 86.02 211.82 87.46 211.82 87.46C211.82 87.46 211.61 86.77 210.93 85.27C210.24 83.76 206.82 81.57 206.82 81.57C206.82 81.57 207.23 82.39 207.57 84.45C207.74 85.49 207.78 86.61 207.77 87.45C204.79 83.12 202.43 80.77 201.83 80.2C201.74 80.11 201.68 80.06 201.68 80.06C201.69 80.1 201.7 80.14 201.72 80.18C201.72 80.18 201.72 80.18 201.72 80.19C203.16 85.02 205.32 90.27 207.2 94.8C207.66 95.91 208.1 96.98 208.52 97.99C209.32 99.96 210.01 101.7 210.46 103.09C211.1 105.05 211.77 107.74 212.7 111.26C213.51 114.32 214.52 118 215.89 122.37C217.36 127.08 219.23 132.59 221.7 139C226.88 152.43 238.1 164.58 249.17 171.89C250.24 172.59 251.3 173.25 252.36 173.86C256.01 175.97 259.58 177.51 262.83 178.34C269.44 180.02 276.01 182.99 281.11 185.66C282.03 186.14 282.89 186.61 283.71 187.06C283.91 187.17 284.1 187.28 284.3 187.39C284.63 187.57 284.95 187.76 285.26 187.93C284.95 188.99 284.63 190.05 284.3 191.1C283.84 192.57 283.35 194.02 282.84 195.48C282.5 196.45 282.15 197.42 281.79 198.39C281.5 198.21 281.19 198.02 280.85 197.83C278.4 196.45 274.62 194.82 269.31 193.83C259.05 191.91 255.5 191.84 252.37 191.92C252.26 191.92 252.14 191.92 252.03 191.92C251.09 191.95 250.11 192.07 249.18 192.3C246.93 192.86 244.94 194.07 244.34 196.29C243.49 199.42 245 200.66 243.01 203.13C241.02 205.6 238.45 205.98 236.65 206.07C234.85 206.16 232 209.01 232.19 212.91C232.38 216.8 234.09 217.09 232.76 218.42C231.43 219.75 226.02 218.99 224.59 219.37C223.17 219.75 220.79 223.64 220.89 227.25C220.98 230.86 222.22 232.95 220.89 234.09C219.56 235.23 218.04 234.18 216.9 235.8C216.56 236.28 216.19 237.23 215.91 238.46C215.48 240.31 215.26 242.8 215.64 245.26C215.71 245.71 215.79 246.16 215.91 246.6C216.16 247.56 216.51 248.5 216.99 249.38C217.89 250.99 218.95 252.46 220.08 253.9C218.88 254.58 217.33 255.55 215.91 256.77C214.64 257.85 213.46 259.12 212.72 260.52C212.68 260.59 212.65 260.65 212.61 260.72C210.31 265.39 206.51 272.12 206.51 272.12C206.51 272.12 210.31 273.15 214.22 273.24C212.5 274.1 210.77 274.92 209.02 275.7L208.9 275.67ZM215.5 280.04L214.62 277.6C217.23 276.33 219.8 274.99 222.33 273.56L224.04 275.55C221.24 277.14 218.4 278.64 215.51 280.04H215.5ZM221.8 267.7C218.61 268.48 217.02 268.88 215.79 268.56C215.45 268.47 215.13 268.33 214.81 268.11C213.96 267.54 214.4 265.76 215.79 263.81C216.73 262.49 218.11 261.09 219.84 259.93C219.91 259.88 219.98 259.83 220.05 259.78C221.46 258.87 222.46 258.25 223.18 257.83C224.57 259.55 225.96 261.38 227.21 263.5C227.38 263.79 227.56 264.09 227.75 264.39C226.85 265.14 225.66 266.02 224.34 266.7C223.53 267.12 222.67 267.48 221.79 267.69L221.8 267.7ZM226.83 273.92L225.13 271.93C225.35 271.8 225.56 271.67 225.78 271.54C225.56 271.67 225.34 271.79 225.12 271.92C224.88 272.05 224.65 272.18 224.41 272.32C224.64 272.18 224.88 272.05 225.11 271.91C226.94 270.82 228.74 269.69 230.52 268.52C230.52 268.52 230.53 268.53 230.54 268.54C230.57 268.58 230.6 268.62 230.62 268.65C231.1 269.31 231.59 269.97 232.09 270.6C230.36 271.74 228.61 272.86 226.84 273.92H226.83ZM299.38 251.97C299.38 251.97 297.43 252.54 297.24 254.3C297.15 255.14 297.35 255.83 297.79 256.41C297.35 256.35 296.89 256.29 296.42 256.23C292.97 255.8 288.83 255.45 286.15 255.78C280.83 256.44 275.8 256.4 270.48 257.35C266.66 258.03 261.12 257.9 256.82 257.03C256.09 256.88 255.4 256.71 254.75 256.52C253.92 256.27 253.16 256 252.53 255.68C252.31 255.57 252.09 255.45 251.87 255.33C251.77 255.28 251.67 255.22 251.58 255.16C251.02 254.83 250.45 254.45 249.88 254.03C249.72 253.91 249.56 253.8 249.4 253.68C249.24 253.56 249.08 253.42 248.92 253.29C248.03 252.57 247.15 251.77 246.3 250.91C244.23 248.79 242.37 246.31 241.22 243.87C239.98 241.23 237.82 238.96 235.74 237.2C234 235.72 232.33 234.59 231.29 233.9C230.43 233.33 230.06 233.32 229.94 233.57C229.75 233.98 230.26 235.07 230.43 235.42C230.55 235.66 231.52 237.17 232.85 239.24C232.23 238.93 231.63 238.71 231.09 238.55C230.29 238.31 229.64 238.2 229.32 238.16C229.29 238.16 229.26 238.16 229.23 238.15C229.14 238.14 229.09 238.13 229.09 238.13C229.09 238.13 229.24 238.35 229.75 238.78C230.18 239.14 230.87 239.66 231.94 240.32C232.31 240.55 232.66 240.78 232.98 241.01C233.99 241.73 234.74 242.43 235.18 242.87C237.86 247.03 240.86 251.72 241.81 253.47C241.98 253.78 242.17 254.1 242.38 254.42C242.72 254.95 243.1 255.49 243.51 256.04C243.61 256.4 243.68 256.72 243.71 256.99C243.72 257.09 243.73 257.18 243.74 257.28C243.74 257.32 243.74 257.36 243.75 257.41C243.79 257.85 243.81 258.26 243.81 258.64C243.81 258.85 243.81 259.06 243.79 259.25C243.76 259.64 243.72 260 243.66 260.31C243.57 260.82 243.44 261.21 243.34 261.46C243.26 261.64 243.17 261.87 243.07 262.11C242.97 262.35 242.87 262.6 242.78 262.82C242.62 263.23 242.49 263.55 242.49 263.55C242.49 263.55 242.58 263.5 242.72 263.4C243.16 263.1 244.16 262.4 245.03 261.61C245.56 261.12 246.05 260.59 246.32 260.09C246.38 259.98 246.42 259.88 246.46 259.78C246.46 259.78 246.46 259.76 246.47 259.75C246.49 259.71 246.5 259.68 246.51 259.64C246.52 259.66 246.54 259.67 246.56 259.69C247.31 260.52 247.91 261.14 248.18 261.41C248.25 261.48 248.3 261.53 248.32 261.55C248.4 261.63 249.57 261.86 251.34 262.12C252.38 262.27 253.62 262.43 254.97 262.57C256.14 262.75 256.79 262.83 257.1 262.89C257.67 262.99 258.9 264.27 259.57 265.98C260.23 267.69 260.47 268.88 260.47 268.88C260.47 268.88 263.94 267.5 266.88 267.5C269.82 267.5 275.52 269.16 277.51 271.25C278.41 272.19 278.96 273.08 279.3 273.76C278.04 273.26 276.22 272.69 273.95 272.38C273.76 272.35 273.58 272.34 273.4 272.33C270.86 272.22 269.93 273.93 270.32 275.41C268.35 274.82 266.33 274.32 264.69 274.16C259.56 273.66 259.83 271.51 254.04 272.37C248.25 273.22 246.06 273.41 244.64 273.22C243.22 273.03 242.22 272.47 242.22 272.47C242.22 272.47 241.47 271.87 240.37 270.91C239.33 270.01 237.99 268.79 236.66 267.45C236.11 266.9 235.57 266.32 235.06 265.74C235 265.68 234.95 265.61 234.89 265.55C234.47 265.08 234.09 264.6 233.72 264.13C233.22 263.48 232.77 262.84 232.43 262.22C232.28 261.96 232.15 261.71 232.04 261.46C231.17 259.5 229.89 257.62 228.57 255.93C226.88 253.76 225.11 251.9 223.99 250.56C222 248.19 221.52 243.06 222.47 240.68C223.42 238.31 224.25 238.16 225.68 237.78C227.1 237.4 226.96 234.77 226.11 231.82C225.26 228.87 226.11 224.79 227.72 224.13C229.33 223.47 232.99 224.44 235.84 221.97C238.69 219.5 238.26 217.97 237.69 215.6C237.12 213.23 237.22 209.81 240.35 209.43C243.48 209.05 247.82 206.83 248.49 203.99C248.68 203.18 248.84 202.4 249.02 201.65C249.47 199.77 250.04 198.12 251.47 196.9C251.64 196.75 251.89 196.62 252.21 196.51C255.52 195.29 266.11 195.94 272.44 199.06C272.65 199.17 272.86 199.27 273.06 199.38C273.87 199.81 274.61 200.26 275.29 200.72C276.7 201.68 277.84 202.69 278.75 203.64C278.94 203.83 279.11 204.02 279.27 204.21C278.51 205.98 277.71 207.74 276.87 209.47C276.81 209.33 276.74 209.2 276.67 209.06C276.2 208.17 275.6 207.41 275.6 207.41L275.41 208.36C275.28 209.01 274.8 209.69 274.51 210.07C274.41 210.05 274.31 210.03 274.2 210.01C274.13 209.67 274.01 209.09 273.84 208.27C273.56 206.89 272.61 206.18 272.61 206.18V207.27C272.61 208.17 271.77 209.4 271.47 209.8C271.45 209.8 271.43 209.8 271.41 209.8C271.47 209.52 271.6 208.74 271.57 207.08C271.52 204.9 270.24 203.04 270.24 203.04C270.24 203.04 270.19 203.37 270.19 205.6C270.19 207.16 269.66 208.35 269.34 208.92C268.86 207.34 267.68 204.22 265.4 202.56C264.76 202.09 264.2 201.72 263.72 201.41C262.84 200.85 262.22 200.54 261.81 200.37C261.34 200.17 261.13 200.14 261.13 200.14C261.13 200.14 261.17 200.18 261.24 200.26C261.45 200.51 261.95 201.1 262.59 201.88C264.41 204.12 267.32 207.93 267.61 209.68C268.04 212.24 267.11 214.95 267.11 214.95C267.11 214.95 268.96 214.1 269.67 211.75C269.67 211.75 269.72 211.75 269.79 211.75C269.96 212.06 270.22 212.6 270.17 213.03L270.1 213.67C270.1 213.67 270.97 212.63 270.8 211.79C272.04 211.86 274.01 212.05 275.21 212.52C275.27 212.54 275.32 212.56 275.37 212.59C275.53 212.66 275.68 212.73 275.8 212.81C276.07 212.99 276.34 213.21 276.6 213.44C276.69 213.52 276.77 213.6 276.85 213.68C277.12 213.94 277.38 214.21 277.61 214.49C277.94 214.9 278.23 215.33 278.42 215.71C278.6 216.06 278.71 216.38 278.73 216.65C278.8 217.65 278.8 218 278.8 218C278.8 218 278.93 217.97 279.09 217.88C279.41 217.7 279.88 217.26 279.95 216.26C279.96 216.06 279.96 215.84 279.94 215.59C280.01 215.63 280.11 215.69 280.2 215.77C280.43 215.94 280.68 216.16 280.75 216.4C280.78 216.5 280.81 216.58 280.83 216.64C280.92 216.9 280.96 216.97 280.96 216.97C280.96 216.97 281.25 216.45 281.27 215.79C281.27 215.78 281.27 215.76 281.27 215.75C281.27 215.45 281.23 215.13 281.06 214.8C281.06 214.79 281.05 214.78 281.04 214.77C281.31 214.61 281.64 214.46 282.02 214.31C282.55 214.1 283.17 213.92 283.91 213.8C285.41 213.57 286.71 213.57 287.85 213.72C290.17 214.02 291.75 214.96 292.65 215.98C289.82 215.31 286.8 216.09 286.8 216.09C286.8 216.09 286.67 216.2 286.54 216.41C286.47 216.52 286.4 216.65 286.35 216.81C286.31 216.93 286.27 217.07 286.25 217.22C286.2 217.65 286.26 218.19 286.61 218.85C287.06 219.7 287.33 220.15 287.7 220.45C286.44 220.52 285.15 220.68 284.24 220.82C283.59 220.92 283.12 221.01 283.01 221.05C281.9 221.45 279.86 221.96 277.64 222.39C277.2 222.47 276.77 222.56 276.32 222.63C275.66 222.74 274.99 222.84 274.33 222.93C273.52 223.04 272.73 223.12 272 223.16C271.72 223.18 271.44 223.19 271.17 223.2C271.14 223.2 271.12 223.2 271.09 223.2C270.96 223.2 270.83 223.2 270.7 223.2C270.62 223.2 270.54 223.2 270.47 223.2C270.3 223.2 270.13 223.19 269.97 223.18C269.76 223.17 269.55 223.15 269.34 223.14C266.22 222.86 263.86 221.57 261.63 218.06C260.09 215.64 256.69 213.42 254.1 211.62C253.38 211.12 252.73 210.65 252.19 210.23C251.53 209.7 251.05 209.23 250.85 208.83C250.38 207.86 249.53 207.03 249 206.88C248.48 206.73 248.26 207.21 249 208.83C249 208.83 249.48 209.44 250.22 210.41C249.75 210.25 249.34 210.2 249 210.21C248.35 210.23 247.96 210.44 247.96 210.44C247.96 210.44 247.98 210.44 248 210.46C248.11 210.52 248.53 210.72 249.76 211.34C250.66 211.79 251.77 212.74 252.53 213.44C252.61 213.54 252.68 213.64 252.76 213.75C254.98 216.7 257.57 220.22 258.68 222.08C259.39 223.26 260.69 224.37 262.28 225.3C262.7 225.89 263.08 226.54 263.24 227.16C263.66 228.76 262.89 232.01 262.71 232.71C262.69 232.8 262.67 232.85 262.67 232.85C262.67 232.85 262.84 232.59 263.08 232.21C263.7 231.24 264.81 229.42 264.95 228.67L265.14 227.63C265.14 227.63 265.31 228.19 265.49 228.9C265.6 229.35 265.72 229.86 265.79 230.33C265.79 230.35 265.79 230.36 265.79 230.38C265.85 230.75 265.89 231.01 265.91 231.19C265.91 231.25 265.93 231.3 265.93 231.35C265.97 231.61 265.97 231.62 265.97 231.62C265.97 231.62 266.55 230.7 266.88 229.87C266.9 229.81 266.93 229.75 266.95 229.7C267.05 229.43 267.11 229.17 267.11 228.97V228.12C267.11 228.12 267.11 228.12 267.13 228.12C267.19 228.14 267.45 228.23 267.84 228.37C267.84 228.37 267.84 228.37 267.85 228.37C268.42 228.57 269.28 228.88 270.26 229.25C270.66 229.4 271.08 229.56 271.51 229.73C271.91 229.89 272.31 230.05 272.72 230.22C274.45 230.93 276.17 231.72 277.25 232.4C277.39 232.49 277.53 232.58 277.65 232.67C280.12 234.47 280.4 234.66 280.5 235.42L280.59 236.18C280.59 236.18 281.16 234.38 282.96 233.71C284.76 233.05 288.09 232.57 291.03 233.52C292.95 234.14 295.14 235.14 296.68 235.91C294.73 235.87 293.52 236.17 292.75 236.63C292.42 236.82 292.17 237.04 291.98 237.28C291.13 238.32 290.65 240.75 293.88 242.26C294.4 242.5 294.97 242.7 295.57 242.86C295.9 242.94 296.23 243.02 296.57 243.08C296.03 243.09 295.49 243.05 294.96 242.97C292.64 242.63 290.59 241.62 290.59 241.62C285.27 240.29 282.23 239.34 278.25 239.34C276.3 239.34 274.39 239.24 272.51 239.12C270.53 238.99 268.59 238.84 266.7 238.75C266.65 238.75 266.59 238.75 266.54 238.75C265.84 238.72 265.15 238.74 264.46 238.75C264.04 238.76 263.63 238.77 263.22 238.78C262.52 238.78 261.84 238.76 261.16 238.67C260.9 238.63 260.65 238.59 260.39 238.53C260.36 238.53 260.33 238.52 260.29 238.51C259.72 238.37 259.17 238.17 258.61 237.87C257.77 237.42 256.95 236.75 256.16 235.77C253.78 232.83 249.21 229.51 245.59 226.67C245.31 226.24 245 225.77 244.69 225.28C244.27 224.62 243.86 223.95 243.53 223.35C242.46 221.39 242.32 221.11 242.32 221.11C242.32 221.11 241.68 221.82 241.89 223.32C241.9 223.42 241.94 223.52 241.96 223.61C239.13 220.99 237.98 220.79 238.59 222.06C238.67 222.23 238.77 222.41 238.91 222.63C239.04 222.83 240.87 224.8 243.15 227.34C245.91 230.4 249.33 234.28 251.25 236.87C252.9 239.1 253.9 240.64 255.3 241.7C255.91 242.16 256.59 242.52 257.43 242.81C257.66 242.89 257.9 242.96 258.16 243.03C258.37 243.09 258.58 243.14 258.8 243.19C258.86 243.29 258.92 243.39 258.97 243.49C258.55 243.49 258.13 243.56 257.72 243.65C257.4 243.73 257.08 243.82 256.79 243.93C255.34 244.47 254.24 245.31 254.24 245.31L255.85 245.22C256.08 245.21 256.34 245.21 256.6 245.22C256.73 245.22 256.86 245.22 257 245.23C257.22 245.23 257.44 245.25 257.66 245.27C257.99 245.29 258.31 245.33 258.62 245.36C258.94 245.39 259.23 245.43 259.49 245.46C259.17 245.62 258.83 245.83 258.48 246.08C258.31 246.2 258.13 246.34 257.96 246.49C257.42 246.96 256.84 247.39 256.34 247.75C255.52 248.33 254.9 248.7 254.9 248.7C254.9 248.7 255.16 248.63 255.6 248.51C256.31 248.32 257.49 248.02 258.91 247.7C259.46 247.58 260.05 247.45 260.66 247.33C261.32 247.2 262 247.07 262.69 246.96C264 246.74 265.33 246.57 266.55 246.5C266.57 246.5 266.6 246.5 266.62 246.5C270.33 246.29 276.18 247.02 278.73 248.25C281.29 249.48 282.39 251.74 282.96 252.5C283.31 252.97 283.55 253.32 283.69 253.53C283.77 253.66 283.82 253.73 283.82 253.73C283.82 253.73 283.91 253.57 284.07 253.32C284.68 252.35 286.3 249.94 287.73 249.41C289.53 248.75 295.02 249.93 297.77 250.41C300.41 250.87 303.05 251.67 303.76 252.32C302.7 252.18 301.25 252.06 299.29 252.02L299.38 251.97Z" fill="#3E3F55"/>
</g>
<defs>
<clipPath id="clip0_2079_425">
<rect width="311.06" height="302.2" fill="white"/>
</clipPath>
</defs>
</svg>
