<svg width="316" height="310" viewBox="0 0 316 310" fill="none" xmlns="http://www.w3.org/2000/svg">
<g clip-path="url(#clip0_2076_190)">
<path d="M154.92 306.84C238.823 306.84 306.84 238.823 306.84 154.92C306.84 71.0169 238.823 3 154.92 3C71.0169 3 3 71.0169 3 154.92C3 238.823 71.0169 306.84 154.92 306.84Z" fill="white"/>
<path d="M154.92 309.83C69.5 309.83 0 240.34 0 154.92C0 69.5 69.5 0 154.92 0C240.34 0 309.84 69.5 309.84 154.92C309.84 240.34 240.34 309.84 154.92 309.84V309.83ZM154.92 6C72.8 6 6 72.8 6 154.92C6 237.04 72.8 303.84 154.92 303.84C237.04 303.84 303.84 237.04 303.84 154.92C303.84 72.8 237.03 6 154.92 6Z" fill="white"/>
<path d="M197.82 44.77L197.58 52.75C198.31 53.09 199.03 53.45 199.75 53.84L199.97 49.13L197.82 44.77Z" fill="#3E3F55"/>
<path d="M232.55 133.72L232.67 125.41L230.52 121.05L230.42 128.16C230.99 129.78 231.73 131.72 232.55 133.72Z" fill="#3E3F55"/>
<path d="M212.31 63.59C212.45 63.8 212.62 64.04 212.81 64.3L212.95 47.82L212.97 46L212.81 46.53L212.49 47.61L211.84 49.8L211.32 62.42C211.6 62.71 211.84 62.98 212.03 63.21C212.14 63.35 212.24 63.48 212.31 63.59Z" fill="#3E3F55"/>
<path d="M179.6 40.38L178.47 44.18L178.34 47.24C178.75 47.28 179.15 47.31 179.54 47.36L179.6 40.38Z" fill="#3E3F55"/>
<path d="M176.72 42.12L175.59 45.92L175.54 47.09C175.91 47.09 176.29 47.11 176.68 47.12L176.72 42.11V42.12Z" fill="#3E3F55"/>
<path d="M190.08 35.85L189.36 38.01L189.32 39.64L189.05 49.4C189.44 49.53 189.84 49.66 190.23 49.8L190.13 39.86L190.09 35.85H190.08Z" fill="#3E3F55"/>
<path d="M151.42 40.25L150.86 53.91L152.23 50.57L152.71 36.4L151.42 40.25Z" fill="#3E3F55"/>
<path d="M157.39 27.01L156.57 24.65V34.04V40.79L157.7 35.54L157.65 34.11L157.39 27.01Z" fill="#3E3F55"/>
<path d="M268.14 98.71V95.92L267.71 97.92L267.01 101.17L267.32 106.51L268.14 108.88V98.71Z" fill="#3E3F55"/>
<path d="M241.31 133.48L242.44 128.24L242.13 112.27L241.31 109.9V133.48Z" fill="#3E3F55"/>
<path d="M274.62 116.66L273.8 114.29V137.87L274.93 132.62L274.62 116.66Z" fill="#3E3F55"/>
<path d="M239.05 107.37V123.24L240.18 118L239.87 107.34L239.78 107.07C239.54 107.18 239.3 107.28 239.05 107.37Z" fill="#3E3F55"/>
<path d="M209.2 51.38L209.28 46.27L209.4 38.53C209.4 38.53 208.17 41.72 208.17 42.03C208.17 42.34 207.66 38.74 207.66 38.74L206.97 45.37L206.73 47.69L207.76 46.35L208.69 56.32L209.2 51.39V51.38Z" fill="#3E3F55"/>
<path d="M228.14 48.17L227.18 55.06L227.16 55.22L228.25 58.06L227.7 70.59L229.63 57.21C229.63 57.21 229.45 56.82 229.24 56.31C228.92 55.55 228.53 54.53 228.55 54.16C228.58 53.54 228.87 46.15 228.87 46.15L228.15 48.17H228.14Z" fill="#3E3F55"/>
<path d="M84.1901 76.97L84.9801 63.47C84.9801 63.47 83.6701 61.15 83.6501 60.53C83.6301 59.91 83.2801 52.52 83.2801 52.52L82.7301 54.6L82.3501 61.71L83.6701 64.44L84.1901 76.97Z" fill="#3E3F55"/>
<path d="M165.67 48.17L167.06 45.47L166.85 38.35L166.35 36.26C166.35 36.26 165.83 43.64 165.79 44.26C165.75 44.88 164.39 47.17 164.39 47.17L164.49 49.95C164.82 49.73 165.19 49.51 165.6 49.29L165.67 48.16V48.17Z" fill="#3E3F55"/>
<path d="M109.42 103.93C110 101.42 110.79 98.48 111.86 94.89L111.49 83.97L110.67 96.49L109.28 99.19L109.42 103.94V103.93Z" fill="#3E3F55"/>
<path d="M227.19 117.72L228.49 108.73C227.93 108.71 227.39 108.67 226.9 108.63L227.15 109.28L226.83 116.55C226.95 116.94 227.07 117.33 227.19 117.71V117.72Z" fill="#3E3F55"/>
<path d="M239.69 60.78L238.97 62.8L238.93 63.07L238.5 66.18C238.84 66.21 239.17 66.27 239.48 66.34C239.51 65.47 239.55 64.48 239.59 63.58C239.65 62.05 239.7 60.77 239.7 60.77L239.69 60.78Z" fill="#3E3F55"/>
<path d="M246.12 157.46C246.82 158.37 247.45 159.13 247.98 159.67C248.03 159.72 248.09 159.78 248.14 159.83C248.48 160.16 248.83 160.5 249.2 160.84C249.03 153.37 248.73 140.25 248.7 138.61C248.7 138.5 248.7 138.44 248.7 138.44L248.65 138.76L248.14 142.33L246.02 157.15L246.13 157.45L246.12 157.46Z" fill="#3E3F55"/>
<path d="M270.3 174.47C270.53 174.52 270.75 174.57 270.98 174.62C271.95 174.83 272.87 175.03 273.75 175.28C275.58 175.81 276.65 176.19 277.71 176.62C277.79 169.2 278.65 142.29 278.65 142.29L274.86 164.96L272.9 157.17L270.3 174.46V174.47Z" fill="#3E3F55"/>
<path d="M263.55 127.96V165.52L264.65 162.5L265.06 135.09L263.55 127.96Z" fill="#3E3F55"/>
<path d="M100.71 68.2V105.76L101.81 102.74L102.22 75.33L100.71 68.2Z" fill="#3E3F55"/>
<path d="M117.17 189.16C116.56 189.46 115.91 189.8 115.24 190.17C115.16 195.69 115.11 199.67 115.11 199.79L117.17 193.07V189.16Z" fill="#3E3F55"/>
<path d="M138.89 41.61L135.88 62.84C137.05 60.7 137.95 58.6 138.55 57.02C138.71 49.52 138.89 41.61 138.89 41.61Z" fill="#3E3F55"/>
<path d="M117.62 81.09C118.32 79.8 119.02 78.61 119.7 77.51L118.61 61.53C118.61 61.53 118.04 72.71 117.62 81.09Z" fill="#3E3F55"/>
<path d="M115.38 85.55C115.9 84.43 116.43 83.36 116.96 82.33L116.15 70.38C116.15 70.38 115.76 78.12 115.38 85.55Z" fill="#3E3F55"/>
<path d="M108.25 80.37C108.25 80.37 108.87 82.01 109.07 82.32L110 78.21L108.05 60.53L108.26 80.37H108.25Z" fill="#3E3F55"/>
<path d="M126.04 46.85L125.11 42.64L125.21 55.9L126.34 59.09L126.04 46.85Z" fill="#3E3F55"/>
<path d="M126.24 224.56L126.03 209.28L125.1 205.07L125.18 224.62C125.53 224.6 125.88 224.58 126.23 224.57L126.24 224.56Z" fill="#3E3F55"/>
<path d="M122.13 206.47L123.05 210.69L122.95 200.08L121.82 196.89L122.13 206.47Z" fill="#3E3F55"/>
<path d="M89.47 84.38L89.57 97.64L90.71 100.82L90.4 88.59L89.47 84.38Z" fill="#3E3F55"/>
<path d="M122.85 33.08L122.55 36.38L121.61 46.86L122.64 49.43C122.64 49.14 122.74 41.01 122.8 36.33C122.82 34.42 122.84 33.08 122.84 33.08H122.85Z" fill="#3E3F55"/>
<path d="M99.5299 43.31C99.5799 39.75 99.6199 36.57 99.6199 36.57L98.9999 43.53L98.3899 50.35L99.4199 52.92C99.4199 52.69 99.4799 47.71 99.5399 43.31H99.5299Z" fill="#3E3F55"/>
<path d="M109.33 97.28L110.2 96.2L109.95 92.19L109.33 97.28Z" fill="#3E3F55"/>
<path d="M80.1899 135.54L82.8199 148.64L80.8399 110.57L80.1899 135.54Z" fill="#3E3F55"/>
<path d="M34.1901 191.28L33.7201 181.19C33.4201 180.57 33.1401 179.99 32.8901 179.49L32.5701 192.97C32.5701 192.97 32.6401 192.89 32.6801 192.86C33.1801 192.34 33.6801 191.87 34.1901 191.29V191.28Z" fill="#3E3F55"/>
<path d="M79.5099 115.53L77.8999 124.97L79.3199 130.1L79.5099 115.53Z" fill="#3E3F55"/>
<path d="M74.79 156.28L75.02 164.52C75.27 164.58 75.51 164.64 75.73 164.71C76.92 165.05 77.76 165.45 78.19 165.68C78.54 165.2 78.9 164.73 79.26 164.26L78.37 157.03L74.53 147.3L74.78 156.29L74.79 156.28Z" fill="#3E3F55"/>
<path d="M97.7 119.4L97.91 130.3C97.91 130.3 98.53 127.01 98.73 126.19C98.94 125.37 97.91 116.32 97.91 116.32L97.7 119.4Z" fill="#3E3F55"/>
<path d="M94.4701 136.74L93.0701 150.08C93.7101 149.54 94.3401 149.03 94.9701 148.53C94.7501 143.5 94.4801 136.75 94.4801 136.75L94.4701 136.74Z" fill="#3E3F55"/>
<path d="M65.9599 164.16C65.8099 160.69 65.6899 157.7 65.6899 157.7L65.1799 162.58L65.9599 164.16Z" fill="#3E3F55"/>
<path d="M91.05 147.29L90.53 152.28C90.77 152.07 91 151.86 91.23 151.66C91.13 149.16 91.05 147.29 91.05 147.29Z" fill="#3E3F55"/>
<path d="M63.0501 158.29L63.0901 158.35L63.8401 159.88C63.6601 155.7 63.5001 151.62 63.5001 151.62L62.8401 157.9C62.9601 158.16 63.0501 158.29 63.0501 158.3V158.29Z" fill="#3E3F55"/>
<path d="M75.1499 77.68L75.6299 92.18L75.9599 74.14C75.7199 75.26 75.4499 76.44 75.1499 77.67V77.68Z" fill="#3E3F55"/>
<path d="M66.6201 103.27C66.9101 103.38 67.2001 103.52 67.4701 103.67L67.5701 99.74C67.4101 100.12 67.2501 100.47 67.1101 100.8C66.6601 101.83 66.3001 102.63 66.0901 103.08C66.2701 103.13 66.4401 103.2 66.6101 103.27H66.6201Z" fill="#3E3F55"/>
<path d="M67.0301 120.62C66.7801 121.63 66.5601 122.7 66.3901 123.83C66.0801 125.93 65.9301 127.54 65.9101 128.85C65.8901 130.19 66.0101 131.23 66.2301 132.16C66.3501 132.66 66.5101 133.14 66.6901 133.62L67.0301 120.61V120.62Z" fill="#3E3F55"/>
<path d="M66.4999 141.19C66.2099 141.97 65.8399 142.98 65.4299 144.12L66.3099 148.53L66.4999 141.19Z" fill="#3E3F55"/>
<path d="M109.7 219.49C110.55 220.42 111.16 221.63 111.62 222.86C112.5 225.22 112.76 227.65 112.82 228.29L114.24 229.66C114.24 229.66 114.26 229.64 114.26 229.63C115.05 228.54 116.02 227.67 117.08 226.98L115.44 212.26L113.59 223.77C113.18 223.22 111.12 194.03 111.12 194.03L110.55 193.18C110.1 193.52 109.65 193.86 109.22 194.21L109.39 219.18C109.49 219.29 109.59 219.39 109.69 219.5L109.7 219.49Z" fill="#3E3F55"/>
<path d="M140.41 215.36C139.69 214.46 138.95 213.52 138.19 212.56L139.7 223.16C139.7 223.16 140.09 218.47 140.4 215.36H140.41Z" fill="#3E3F55"/>
<path d="M132.77 205.37C132.69 205.25 132.6 205.13 132.52 205.02C131.99 204.27 131.43 203.46 130.87 202.63L132.93 211.24L132.78 205.38L132.77 205.37Z" fill="#3E3F55"/>
<path d="M122.33 188.93C121.9 188.21 121.58 187.66 121.4 187.35C121.22 187.42 120.96 187.51 120.64 187.64L122.51 191.85L122.33 188.94V188.93Z" fill="#3E3F55"/>
<path d="M136.29 225.17L133.44 218.84C133.44 218.84 132.58 222.47 132.16 224.94C133.41 225.06 134.86 225.14 136.3 225.17H136.29Z" fill="#3E3F55"/>
<path d="M15.08 106.59C15.74 105.84 16.48 105.22 17.26 104.71C17.71 104.42 18.18 104.17 18.66 103.97C18.39 103.64 18.12 103.29 17.85 102.93C17.52 102.49 17.18 102.02 16.86 101.55C16.76 101.41 16.67 101.27 16.57 101.12C15.46 103.71 14.41 106.34 13.45 109C13.9 108.1 14.45 107.3 15.08 106.59Z" fill="#3E3F55"/>
<path d="M145.21 222.57V221.28C144.53 220.45 143.39 219.06 142.02 217.37V224.77C143.49 224.37 144.58 223.34 145.21 222.57Z" fill="#3E3F55"/>
<path d="M104.34 214.72C104.63 214.92 105.25 215.38 106.05 216.03C106.34 216.27 106.65 216.53 106.97 216.81V196.1C105.55 197.35 104.51 198.36 104.18 198.69V200.46L104.05 200.66L102.89 202.51L102.71 207.22L104.17 209.08L104.34 214.71V214.72Z" fill="#3E3F55"/>
<path d="M69.9499 113.09C69.8099 113.31 69.6099 113.67 69.3799 114.14V164.14C70.6899 164.02 71.8699 164.05 72.9299 164.16C73.0999 164.18 73.2699 164.19 73.4299 164.22L72.6199 137.56V104.25L72.7699 103.61L73.1699 101.92L73.0299 85.53C72.2499 87.99 71.3099 90.59 70.3599 93.02C70.0299 93.86 69.7099 94.67 69.3899 95.46V105.2C69.6599 105.5 69.9099 105.82 70.1199 106.16C70.3999 106.61 70.6399 107.08 70.8099 107.57C71.6599 110.04 70.5099 112.23 69.9799 113.06C69.9799 113.06 69.9699 113.08 69.9599 113.09H69.9499Z" fill="#3E3F55"/>
<path d="M29.1099 121.61C29.4999 122.31 29.8199 123.12 29.9799 124.06C30.5499 127.29 30.0399 130.18 29.1099 131.87C28.9099 132.22 28.6999 132.53 28.4799 132.77C27.7499 133.53 26.7099 134 25.9299 134.26C25.3099 134.47 24.8499 134.55 24.8499 134.55C24.8499 134.55 25.5399 135.72 25.0599 137.22C24.5799 138.73 24.5099 139 24.5099 139C24.5099 139 25.0599 140.16 25.1299 141.06C25.1999 141.95 25.1299 142.29 25.1299 142.29L22.5299 142.02C22.5299 142.02 20.4699 144.08 19.5799 144.35L19.5099 144.62L19.2299 145.75C19.1699 146.07 19.2199 146.3 19.3899 146.49C19.8399 146.95 21.1499 147.05 23.9599 147.19C24.5299 147.22 25.1999 147.33 25.9299 147.48C26.8999 147.69 27.9799 147.98 29.1199 148.33C33.0299 149.53 37.5899 151.33 40.3099 152.01C44.4199 153.04 44.0099 152.22 44.0099 150.37C44.0099 148.52 45.2399 139.06 47.2999 132.89C49.3599 126.72 57.8899 103.08 61.9999 93.62C65.1099 86.46 67.9299 74.53 69.3799 67.1C69.8499 64.72 70.1699 62.8 70.3199 61.65C70.4999 60.26 70.7199 58.86 70.9599 57.45L70.5199 57.67C70.6199 57.87 70.7099 57.97 70.7099 57.97C70.6699 57.93 70.3599 57.61 69.3699 57.08C68.1399 56.42 65.8499 55.43 61.7199 54.22C61.4199 54.13 61.1199 54.05 60.7999 53.96C60.3399 53.83 59.8699 53.7 59.3699 53.57C59.0399 53.48 58.6899 53.39 58.3399 53.3C57.9299 53.19 57.5099 53.09 57.0699 52.98C56.7799 52.91 56.4799 52.84 56.1699 52.76C55.5199 52.6 54.8399 52.44 54.1299 52.28C52.3999 51.89 50.4799 51.48 48.3799 51.07C47.7899 50.95 47.1899 50.84 46.5699 50.72C46.8799 51.13 47.1899 51.57 47.4899 52.03C48.3699 53.36 49.2099 54.89 49.9899 56.65C50.2499 57.24 50.4999 57.86 50.7499 58.51C50.8499 58.78 50.9599 59.04 51.0599 59.32C51.1499 59.57 51.2399 59.84 51.3299 60.1C51.4799 60.53 51.6199 60.98 51.7599 61.43C51.8299 61.67 51.9099 61.91 51.9799 62.15C52.0199 62.3 52.0699 62.43 52.1099 62.58C52.2499 63.06 52.3599 63.52 52.4599 63.98C55.3399 77.54 42.5999 85.49 36.9799 85.95C35.3699 86.08 34.3499 85.6 34.4299 84.47C34.5399 83.04 34.9799 81.74 35.5799 80.45C35.8299 79.92 36.0999 79.38 36.3899 78.85C36.6099 78.45 36.8399 78.04 37.0699 77.63C38.1799 75.67 39.3999 73.57 40.1999 70.95C40.4399 70.16 40.6499 69.32 40.7999 68.42C40.8499 68.15 40.8799 67.89 40.9099 67.64C40.9099 67.62 40.9099 67.59 40.9099 67.57C41.3199 64.01 40.1999 62.53 38.7799 62.21C37.6399 61.95 36.3199 62.43 35.4399 63.18C33.4299 64.89 31.9099 68.47 30.9799 73.23C30.9599 73.34 30.9399 73.45 30.9099 73.56C30.4399 76.05 29.8699 81.01 29.3899 85.63C29.3899 85.68 29.3899 85.73 29.3799 85.77C29.2699 86.84 29.1599 87.89 29.0699 88.88C28.9199 90.37 28.7899 91.74 28.6899 92.86C28.5699 94.11 28.4899 95.07 28.4499 95.55C28.4099 96.07 28.3499 96.94 28.2599 98.07C28.2099 98.69 28.1599 99.4 28.0999 100.17C28.0799 100.46 28.0499 100.76 28.0299 101.07C27.8999 102.63 27.7299 104.43 27.5299 106.36C27.1499 109.99 26.6199 114.12 25.9099 118.17C25.9099 118.2 25.8999 118.24 25.8899 118.27C25.8899 118.27 25.8999 118.27 25.9099 118.27C26.0499 118.35 27.8999 119.42 29.0999 121.57L29.1099 121.61ZM62.1999 70.39C64.2599 65.59 65.3499 59.29 65.3499 59.29C65.3499 59.29 67.1299 59.02 67.8199 60.11C67.8199 60.11 65.6299 74.64 64.2599 76.83C62.8899 79.02 60.1499 75.19 62.1999 70.39ZM47.0599 110.38C47.0599 110.38 44.0499 119.49 43.2899 122.83C42.5299 126.17 41.5499 123.49 42.2899 120.01C43.0399 116.53 45.4799 109.38 47.0199 107.63C48.5599 105.89 47.1099 109.13 47.0499 110.37L47.0599 110.38ZM40.8599 114.4C41.5099 111.54 42.9199 108.85 43.3699 108.27C43.8199 107.69 44.4099 108.48 43.9799 109.33C43.9799 109.33 42.0299 114.53 41.5199 116.14C40.9999 117.75 40.2199 117.25 40.8599 114.4Z" fill="#3E3F55"/>
<path d="M18.4401 125.36C18.3601 125.58 18.0401 126.25 18.0001 127.07C17.9801 127.52 18.0501 128.01 18.2801 128.51C18.4601 128.89 18.7401 129.28 19.1601 129.64C19.6801 130.08 20.4001 130.29 21.1801 130.36C23.3301 130.54 25.9101 129.64 25.9101 129.64C25.9101 129.64 25.9101 129.61 25.9201 129.57C25.9901 129.19 26.3001 127.29 25.9201 125.53C25.7801 124.89 25.5501 124.26 25.1901 123.73C24.3801 122.57 23.4501 122.39 22.7701 122.48C22.7701 122.48 22.7601 122.48 22.7501 122.48C22.1901 122.55 21.8001 122.79 21.8001 122.79C21.8001 122.79 20.5401 123.07 19.5101 123.93C19.0701 124.3 18.6801 124.77 18.4401 125.37V125.36Z" fill="#3E3F55"/>
<path d="M18.5901 113.59C19.3001 113.25 19.6401 112.75 19.6401 112.75C19.6401 112.75 20.7401 111.17 21.5901 110.48C21.6701 110.41 21.7501 110.36 21.8301 110.31C21.9301 110.25 22.0201 110.2 22.1101 110.18C22.5901 110.06 23.2501 109.83 23.7101 109.6C23.7901 109.56 23.8601 109.52 23.9201 109.49C24.1301 109.37 24.2601 109.25 24.2601 109.15C24.2601 108.99 24.2001 108.86 23.9701 108.72C23.7501 108.58 23.3701 108.43 22.7201 108.23C22.6601 108.21 22.5901 108.2 22.5301 108.19C21.5001 107.99 20.1701 108.55 19.6001 108.82C19.4301 108.9 19.3301 108.96 19.3301 108.96C19.3301 108.96 19.1701 109.23 18.8401 109.69C18.7201 109.87 18.5701 110.07 18.4001 110.29C18.0401 110.77 17.1401 111.94 16.8001 112.81C16.5601 113.42 16.5901 113.89 17.2701 113.89C17.5801 113.89 17.8401 113.84 18.0801 113.78C18.2601 113.73 18.4301 113.67 18.5801 113.6L18.5901 113.59Z" fill="#3E3F55"/>
<path d="M73.02 247.21C73.02 247.21 73.02 247.21 73.03 247.23C73.03 247.21 73.02 247.21 73.02 247.21Z" fill="#3E3F55"/>
<path d="M220.46 168.01C220.07 162.57 219.31 156.55 218.04 149.9C217.8 148.63 217.54 147.39 217.27 146.17C210.27 114.76 193.88 100.89 185.64 95.38C184.36 94.52 183.27 93.87 182.45 93.38C181.8 93 181.32 92.72 181.03 92.52C181.03 92.52 181.55 93.08 182.45 94.15C183.24 95.08 184.33 96.41 185.64 98.09C192.71 107.2 206.04 126.78 212.08 151.53C220.51 186.07 213.31 209.99 213.31 209.99C213.31 209.99 215.33 207.35 217.27 201.49C218.6 197.49 219.88 191.98 220.46 184.79C220.85 179.97 220.91 174.39 220.46 167.99V168.01Z" fill="#3E3F55"/>
<path d="M207.56 225.63C207.56 225.63 206.74 237.14 197.28 243.11C197.28 243.11 189.9 240.71 185.65 238.57C185.25 238.37 184.87 238.17 184.54 237.97C183.66 237.46 182.99 237.07 182.47 236.77C180.65 235.71 180.64 235.71 180.64 235.71C180.64 235.71 181.24 236.39 182.47 237.5C182.78 237.78 183.15 238.09 183.54 238.42C184.15 238.93 184.85 239.49 185.66 240.1C188.9 242.54 193.76 245.64 200.38 248.45C200.38 248.45 213.11 245.65 207.83 226.55C207.74 226.24 207.67 225.94 207.57 225.63H207.56Z" fill="#3E3F55"/>
<path d="M182.12 255.89C179.62 247.84 174.57 243.49 172.18 241.8C171.37 241.23 170.86 240.96 170.86 240.96C170.86 240.96 178.22 257.64 179.69 267.5C179.81 268.3 179.92 269.04 180.01 269.73C181.12 277.51 180.98 278.31 180.98 278.31C180.98 278.31 181.78 276.23 182.45 273.02C183.31 268.91 183.95 262.95 182.45 257.1C182.35 256.7 182.24 256.29 182.11 255.89H182.12Z" fill="#3E3F55"/>
<path d="M208.14 81.39C208.14 81.39 209.05 82.65 209.39 82.89C209.47 82.95 209.52 82.95 209.51 82.83C209.46 82.44 208.8 80.12 207.14 77.94C206.45 77.03 205.58 76.14 204.51 75.43C200.88 73.03 191.21 70.84 191.21 70.84C191.21 70.84 197.53 74.17 201.42 76.39C205.74 78.86 208.14 81.39 208.14 81.39Z" fill="#3E3F55"/>
<path d="M151.02 236.97C149.94 237.91 147.99 238.59 145.21 238.56C144.25 238.55 143.18 238.45 142.02 238.25C141.77 238.21 141.51 238.16 141.25 238.1C136.32 237.07 131.18 239.64 131.18 239.64C130.05 240.05 129.23 241.49 130.46 242.11C131.69 242.73 136.53 241.8 138.68 244.06C139.54 244.97 140.79 245.63 142.02 246C143.21 246.35 144.39 246.41 145.21 246.12C145.66 245.96 146.01 245.69 146.19 245.3C147.01 243.45 149.89 243.45 151.12 241.91C152.35 240.37 152.56 235.64 151.02 236.98V236.97Z" fill="#3E3F55"/>
<path d="M209.28 278.94L209.55 279.01C209.55 279.01 208.98 278.8 209.28 278.94Z" fill="#3E3F55"/>
<path d="M232.37 216.83C233.91 217.36 233.75 216.89 233.7 216.13C233.66 215.38 233.8 213.1 234.54 210.52C235.28 207.94 237.7 206.97 239.34 206.95C240.99 206.92 241.79 206.53 241.79 206.53C239.92 195.52 232.56 188.25 232.56 188.25C233.06 195.2 233 200.71 232.77 204.97C232.35 212.93 231.35 216.48 232.36 216.82L232.37 216.83Z" fill="#3E3F55"/>
<path d="M174.01 125.77C178.66 138 171.21 142.59 171.21 142.59C185.01 140.39 174.01 125.77 174.01 125.77Z" fill="#3E3F55"/>
<path d="M142.02 144.59C142.48 144.47 142.99 144.31 143.51 144.1C145.77 143.17 143.51 143.02 143.51 143.02C143.51 143.02 143.44 140.69 145.21 138.66C145.61 138.2 146.1 137.76 146.7 137.36C146.7 137.36 146.07 137.53 145.21 137.81C144.27 138.12 143.04 138.57 142.02 139.12C141.21 139.55 140.52 140.04 140.22 140.55C139.19 142.3 139.4 144.92 139.4 144.92C139.4 144.92 140.49 144.98 142.02 144.59Z" fill="#3E3F55"/>
<path d="M55 137.22C57.74 137.7 58.43 136.53 58.43 136.53C55.35 137.56 53.15 135.23 53.15 135.23C53.15 135.23 52.26 136.74 55 137.22Z" fill="#3E3F55"/>
<path d="M54.7199 135.49C54.7199 135.49 55.4899 136.08 56.3599 136.08C57.2299 136.08 58.2599 135.59 58.2599 135.59C58.2599 135.59 55.4599 135.87 54.1699 134.95C54.1699 134.95 54.3999 135.31 54.7099 135.49H54.7199Z" fill="#3E3F55"/>
<path d="M17.48 125.46C17.64 124.9 17.89 124.44 18.18 124.05C18.86 123.13 19.72 122.7 20.03 122.56C20.1 122.53 20.16 122.51 20.16 122.51C19.42 122.51 18.87 122.6 18.45 122.77C17.21 123.26 17.22 124.36 17.34 124.98C17.4 125.26 17.48 125.45 17.48 125.45V125.46Z" fill="#3E3F55"/>
<path d="M14.4301 138.77C14.4901 138.93 14.5901 139.07 14.7001 139.19C14.9801 139.5 15.3801 139.68 15.7401 139.79C16.1701 139.92 16.5201 139.94 16.5201 139.94C16.2401 139.84 15.9901 139.64 15.7801 139.39C15.7701 139.38 15.7501 139.36 15.7401 139.35C15.3501 138.88 15.0901 138.25 15.0401 137.74C14.9901 137.19 15.0901 136.78 15.1601 136.58C15.1901 136.49 15.2101 136.44 15.2101 136.44C15.2101 136.44 15.1801 136.47 15.1401 136.52C14.9001 136.8 14.2001 137.71 14.3701 138.55C14.3801 138.62 14.4001 138.69 14.4301 138.76V138.77Z" fill="#3E3F55"/>
<path d="M311.09 255.82C311.09 255.82 311.18 254.02 305.3 252.4C299.41 250.79 293 249.5 291.2 250.45C289.4 251.4 288.38 251.9 288.38 251.9C288.38 251.9 287.93 250.07 281.38 248.84C278.06 248.22 275.52 247.99 273.64 247.95C273.71 247.86 273.78 247.77 273.85 247.69C276.87 247.29 278.73 246.55 282.62 246.8C288.51 247.18 294.11 248.7 298.1 248.98C298.1 248.98 304.06 249.27 306.51 247.08C308.17 246.74 309.88 246.11 311.53 245.13C311.53 245.13 310.03 242.08 306.41 240.79C306.21 240.49 306.06 240.31 306.06 240.31C306.06 240.31 304.14 236.89 298.35 235.27C292.56 233.66 290.46 233.24 288.47 233.91C286.48 234.57 285.81 234.86 285.81 234.86C285.81 234.86 285.08 234.43 283.84 233.76C284.87 232.14 285.86 230.49 286.82 228.83C287.82 228.39 288.77 227.95 289.64 227.51C289.64 227.51 293.27 226.23 296.33 226.01C296.95 225.97 297.6 225.74 298.21 225.39C300.55 225.24 302.97 224.89 302.97 224.89C302.97 224.89 302.14 223.49 300.83 222.19C301.24 220.78 300.92 219.18 299.26 217.78C299.26 217.78 297.23 215.65 294.13 214.48C302.48 195.63 306.88 175.07 306.88 153.83C306.88 113.85 291.31 76.26 263.04 47.98C234.76 19.75 197.17 4.18 157.18 4.18C127.89 4.18 99.8899 12.55 75.8899 28.13C76.6599 29.05 77.2799 30.17 77.5299 31.48C77.6099 31.92 77.6699 32.39 77.6999 32.89C79.0399 32.01 80.3899 31.15 81.7499 30.32L83.1399 32.49C81.2899 33.62 79.4699 34.81 77.6599 36.03C77.3499 40.52 76.0899 45.68 75.5999 47.56C75.3099 48.69 75.1099 49.58 74.9799 50.26C74.8299 51.06 74.7599 51.58 74.7399 51.86C75.1599 52.11 75.5599 52.4 75.9099 52.7C76.0599 52.83 76.1999 52.95 76.3299 53.08L76.4399 47.23L78.6299 49.01L79.4499 42.16L81.5099 46L82.0099 39.02C85.0599 37.27 88.1699 35.63 91.3599 34.11L92.3399 36.69L93.9799 32.9C96.3999 31.81 98.8599 30.77 101.35 29.82V42.66V42.59L101.79 40.62L102.48 37.42L103.25 29.12C103.42 29.06 103.59 28.99 103.76 28.93V142.12C104.38 141.71 104.93 141.36 105.43 141.04C106.57 140.32 107.38 139.85 107.73 139.64C107.73 138.88 107.69 136.35 107.68 133.14C107.57 131.2 107.49 129.09 107.48 126.83L107.13 119.89L107.68 94.81L107.27 89.6L107.96 87.54L108.23 84.52L106.94 82.06V61.45L107.68 57.66L107.92 40.23L108.09 27.42C108.5 27.29 108.91 27.15 109.33 27.02L109.56 39.71L109.8 52.92L111.71 39.06L112.94 30.12L114.93 35.85L115.9 25.83L117.58 28.28L117.85 24.63C122.57 23.46 127.37 22.53 132.26 21.85C132.1 24.08 131.88 27.23 131.86 27.62C131.82 28.24 130.46 30.53 130.46 30.53L130.61 35.03L130.92 44.04L131.52 34.91L131.74 31.53L133.13 28.83L132.92 21.77C135.92 21.37 138.96 21.06 142.02 20.86V24.49L141.8 32.56L141.76 34L141.28 51.5L142.02 53.86V54.3C142.42 54.36 142.86 54.43 143.31 54.5C143.91 54.6 144.54 54.7 145.2 54.82V25.08L145.94 22.25L145.9 20.67C146.47 20.65 147.04 20.61 147.62 20.6L147.5 33.85L147.41 43.6L148.54 39.8L148.79 33.85L149.34 20.58C149.94 20.58 150.54 20.56 151.14 20.55L151.32 25.61L152.14 27.97V20.54C159.98 20.57 167.66 21.25 175.14 22.51L175.53 33.83L176.26 22.7L176.54 22.75L177.94 27.56L180.84 23.6C180.98 23.63 181.11 23.66 181.25 23.69C181.29 24.45 181.33 25.19 181.36 25.4C181.42 25.8 182.19 26.72 182.44 27.14V47.79C183.43 47.96 184.38 48.15 185.31 48.37C186.05 48.55 186.78 48.74 187.49 48.95C187.49 48.95 187.58 43.25 187.61 39.23C187.63 37.12 187.63 35.48 187.59 35.37C187.49 35.06 186.56 31.77 186.56 31.77L186.74 24.98C188.48 25.43 190.21 25.92 191.92 26.44L192.42 31.88L194.3 27.18C196.93 28.02 199.52 28.94 202.08 29.93V40.72L203.21 35.48L202.91 30.24C207.44 32.03 211.86 34.05 216.15 36.28L215.99 46.59L215.95 49.2L215.86 55.31L217.25 57.94V63.89C216.98 64.53 216.73 65.14 216.68 65.28C216.62 65.46 216.49 67.24 216.39 68.7C216.84 69.19 217.3 69.67 217.77 70.13C218.71 71.06 219.65 71.88 220.5 72.45C221.15 72.88 221.92 73.34 222.75 73.79L222.95 59.45L221.99 56.43L222.13 52.26L222.54 39.84L222.56 39.82C223.03 40.1 223.5 40.37 223.97 40.65L223.72 53.12L223.68 55.3L224.21 53.38L227.16 42.63C230.01 44.46 232.78 46.39 235.48 48.41L234.92 51.01L235.23 56.36L236.05 58.72V48.84C238.62 50.78 241.12 52.81 243.54 54.92L244.34 60.53L246.19 58.89L247.6 70.7L247.83 72.67L248.16 71.27L249.47 65.68L249.75 72.89L250.05 80.76C250.72 82.53 251.24 84.38 251.47 86.21C251.65 87.61 251.67 89.01 251.44 90.34C251.44 90.39 251.42 90.43 251.42 90.48C251.17 91.97 250.89 93.3 250.58 94.51L251.19 110.39L251.33 114L252.1 75.42L252.19 70.83L252.34 63.29C252.8 63.77 253.26 64.25 253.72 64.74V164.89C254.68 165.7 255.72 166.56 256.83 167.46C257.64 168.11 258.49 168.8 259.38 169.5C259.48 169.58 259.57 169.65 259.67 169.73C259.83 169.86 259.99 169.98 260.15 170.1L260.25 163.71L261.32 161.86L262.39 102.65L261.01 101.52L260.86 97.61L259.79 94.11L259.64 85.68L259.94 85.34L262.56 82.39L262.61 79.32L262.67 75.25C263.53 76.36 264.37 77.49 265.19 78.63C265.11 79.78 265.02 80.98 264.96 81.85C264.91 82.51 264.88 82.98 264.87 83.12C264.83 83.74 263.47 86.03 263.47 86.03L263.64 90.96L263.93 99.55L264.41 92.22L264.75 87.03L266.14 84.33L266.11 83.22L266.01 79.78C268.2 82.87 270.25 86.05 272.19 89.32L272.22 92.32L272.32 103.85L273.95 95.81L274.46 93.28C274.67 93.66 274.88 94.05 275.09 94.43L275.7 100.14L275.76 100.69L275.84 100.54L277.06 98.24C278.59 101.31 280.01 104.44 281.31 107.64L281.01 118.48L280.56 134.82L280.97 143.04L279.64 177.27V177.41C280.08 177.59 280.57 177.79 281.14 178.01C281.48 178.14 281.85 178.28 282.25 178.43C282.25 178.43 282.25 178.43 282.26 178.43C284.98 179.44 287.47 180.57 288.87 181.24V132.59C290.7 141.62 291.66 150.97 291.66 160.54C291.66 167.78 291.1 174.9 290.04 181.84C290.01 182 289.99 182.17 289.96 182.33C289.82 183.22 289.68 184.1 289.52 184.99C289.3 184.88 289.09 184.78 288.86 184.68L288.75 184.63C288 184.28 287.2 183.91 286.36 183.53C286.13 183.43 285.9 183.33 285.67 183.22C285.46 183.13 285.25 183.04 285.04 182.94C280.18 180.82 274.15 178.53 267.53 176.76C264.09 175.84 260.5 174.09 256.92 171.65C255.85 170.93 254.79 170.14 253.73 169.3C252.23 168.11 250.75 166.8 249.28 165.39C249.17 165.28 249.06 165.18 248.95 165.07C242.73 159.01 236.94 151.1 232.44 142.16C231.69 140.67 230.98 139.15 230.31 137.61C228.2 132.77 226.49 127.69 225.31 122.48C223.97 116.56 222.28 111.38 220.46 106.91C220.2 106.27 219.94 105.64 219.67 105.03C219.91 105.08 220.18 105.14 220.46 105.19C221.94 105.48 223.92 105.78 226.13 105.91C226.59 105.94 227.07 105.95 227.56 105.96C231.25 106.04 235.42 105.57 239.02 103.8C247.66 99.55 248.75 92.18 248.2 86.56C247.65 80.94 244.09 74.36 241.35 72.03C240.87 71.62 240.46 71.29 240.1 71.01C238.81 70 238.23 69.69 238.02 69.6C237.95 69.57 237.92 69.56 237.92 69.56C237.92 69.56 235.04 68.33 235.73 73.95C236.42 79.57 236.14 82.59 232.44 81.63C230.49 81.12 226.79 80.05 222.72 77.76C222.09 77.41 221.45 77.02 220.81 76.61C220.69 76.53 220.58 76.46 220.46 76.38C219.4 75.68 218.33 74.88 217.27 73.99C215.71 72.67 214.18 71.14 212.77 69.36C212.47 68.98 212.17 68.59 211.88 68.19C211.64 67.86 211.38 67.54 211.13 67.22C205.9 60.54 198.14 55.73 190.27 52.92C189.84 52.77 189.4 52.62 188.97 52.47C187.86 52.1 186.75 51.78 185.65 51.5C184.61 51.23 183.57 50.98 182.55 50.78C182.52 50.78 182.49 50.78 182.46 50.76C181.46 50.57 180.47 50.42 179.51 50.32C179.07 50.27 178.64 50.24 178.22 50.22C177.69 50.19 177.17 50.17 176.65 50.17C176.23 50.17 175.82 50.17 175.41 50.2C171.57 50.38 168.16 51.45 165.32 53.52C165.08 53.69 164.85 53.87 164.63 54.05C162.68 55.63 161.01 57.72 159.67 60.34C154.16 59.16 148.71 58.38 145.22 57.93C144.51 57.84 143.87 57.76 143.34 57.7C143.31 57.7 143.27 57.7 143.24 57.69C142.74 57.63 142.33 57.59 142.03 57.56C141.64 57.52 141.43 57.5 141.43 57.5C141.43 57.5 141.16 59.42 139.65 62.85C139.36 63.51 138.91 64.27 138.38 65.07C137.39 66.55 136.1 68.15 134.94 69.5C134.1 70.47 133.33 71.3 132.78 71.86C130.8 71.98 128.73 72.17 126.56 72.45C126.56 72.45 123.51 75.93 120.06 82.56C119.18 84.26 118.27 86.16 117.38 88.27C117.33 88.38 117.29 88.48 117.24 88.59C116.44 90.51 115.65 92.59 114.91 94.84C112.32 102.72 110.31 112.57 110.31 124.26C110.31 130.27 110.66 135.94 111.27 141.31C109.88 142.09 108.45 142.92 106.97 143.81C106.57 144.05 106.17 144.3 105.76 144.55C105.76 144.55 105.02 145.07 103.79 145.97C101.85 147.4 98.6799 149.8 95.1699 152.73C94.9199 152.94 94.6799 153.14 94.4299 153.36C93.4399 154.2 92.4299 155.08 91.4199 155.98C90.9499 156.4 90.4799 156.83 90.0099 157.26C86.0999 160.87 82.3099 164.85 79.8099 168.63C79.6999 168.79 79.5899 168.96 79.4899 169.12C79.4399 169.19 79.3999 169.27 79.3499 169.35C79.3099 169.2 79.2699 169.07 79.2099 168.96C78.7899 168.17 77.3099 167.54 75.5199 167.12C74.5899 166.9 73.5799 166.74 72.5799 166.63C71.4499 166.51 70.3399 166.48 69.3899 166.53C68.6699 166.57 68.0299 166.66 67.5599 166.8C66.9999 166.97 66.5199 167.12 66.1099 167.26C65.4799 167.47 64.9999 167.65 64.6499 167.79C64.4799 167.86 64.3299 167.92 64.2199 167.97C64.1999 167.97 64.1799 167.98 64.1699 167.99C63.4999 166.6 62.8399 165.18 62.2299 163.8C60.6099 160.11 59.3999 156.74 59.4699 155.04C59.6799 150.11 61.3199 145.86 63.1699 141.47C63.7899 140 64.0899 138.87 64.1899 137.88C64.3899 135.91 63.8099 134.5 63.3099 132.22C63.1999 131.71 63.1199 131.14 63.0699 130.53C62.9399 128.95 63.0099 127.1 63.1899 125.28C63.4099 123.13 63.7899 121.02 64.1999 119.41C65.0699 116.01 66.5099 112.88 67.2799 111.64C67.2999 111.6 67.3299 111.56 67.3499 111.53C67.8599 110.74 68.0199 109.21 67.3799 107.97C67.0699 107.38 66.5799 106.86 65.8399 106.52C65.1699 106.21 64.3899 106.12 63.6299 106.13C62.8099 106.14 62.0099 106.28 61.3799 106.43C61.9699 105.02 62.4699 103.9 62.8399 103.18C63.1099 102.66 63.4099 102.03 63.7399 101.33C64.6099 99.45 65.6499 96.97 66.7299 94.14C67.6199 91.8 68.5299 89.23 69.3799 86.56C69.7999 85.23 70.2099 83.88 70.5899 82.53C71.3899 79.71 72.0799 76.86 72.5599 74.15C72.6099 73.86 72.6599 73.57 72.7099 73.28C72.7799 72.88 72.8399 72.5 72.8999 72.11C74.0899 64.63 74.3999 59.71 74.4799 57.47C74.5099 56.61 74.5099 56.14 74.5099 56.07V55.81L74.4299 55.7L74.3499 55.6C74.2899 55.53 73.7599 54.85 72.5699 53.91C72.5199 53.87 72.4699 53.83 72.4199 53.79C72.2099 53.63 71.9799 53.46 71.7399 53.29C71.9199 52.38 72.0999 51.46 72.2899 50.53C72.3899 50.05 72.4799 49.58 72.5799 49.1C72.7199 48.4 72.8699 47.69 73.0099 46.97C73.1599 46.21 73.3899 45.28 73.6399 44.25C73.6599 44.17 73.6799 44.08 73.6999 44C73.7999 43.59 73.8999 43.18 74.0099 42.74C74.0399 42.63 74.0599 42.51 74.0899 42.4C74.1899 41.98 74.2899 41.55 74.3899 41.11C74.5799 40.28 74.7499 39.43 74.8999 38.59C74.9399 38.35 74.9799 38.12 75.0199 37.88C75.1999 36.72 75.3299 35.58 75.3399 34.52C75.3399 34.31 75.3399 34.11 75.3399 33.91C75.2899 32.03 74.8599 30.46 73.7599 29.57C73.2099 29.12 72.4899 28.84 71.5599 28.78C65.2599 28.4 65.3199 33.27 65.3799 34.1C64.8699 33.04 63.9099 31.06 62.1999 27.54C57.6599 18.2 50.4999 16.37 42.9199 15.28C41.2399 15.04 39.5399 14.83 37.8399 14.59C28.4799 13.25 30.7499 20.76 35.8899 21.58C41.0299 22.4 46.3799 27.13 47.3999 30.63C48.4299 34.13 45.3399 35.56 34.2399 32.99C23.1399 30.42 21.4899 36.9 21.4899 39.98C21.4899 43.06 27.7599 44.81 31.9799 43.99C33.9399 43.61 37.2999 43.63 40.8599 45.6C40.3699 45.62 39.9599 45.65 39.6199 45.7C37.3599 46 36.4099 46.73 35.3699 48.96C35.1199 49.51 34.6399 50.79 34.0299 52.48C33.7999 53.11 33.5599 53.79 33.2899 54.52C31.7899 58.67 29.7499 64.35 28.7499 66.19C27.6399 68.22 26.3699 75.73 25.5499 82.51C25.4899 82.97 25.4399 83.43 25.3899 83.89C25.3499 84.27 25.3099 84.64 25.2699 85.01C25.2699 85.02 25.2699 85.03 25.2699 85.05C25.1799 85.9 25.0899 86.73 25.0199 87.52C24.9299 88.49 24.8599 89.39 24.7999 90.21C24.3099 89.8 23.7599 89.56 23.1999 89.41C22.9199 89.34 22.6399 89.28 22.3499 89.25C22.2699 89.24 22.1999 89.23 22.1199 89.22C21.9999 89.21 21.8899 89.2 21.7699 89.19C19.0499 87.21 15.5899 87.16 15.5899 87.16C15.5899 87.16 15.5899 87.62 15.4899 89.32C15.3899 90.89 16.3499 94.12 16.4999 94.6C16.6299 95.66 16.9899 96.72 17.5299 97.51C17.6599 97.7 17.7999 97.89 17.9399 98.09C17.9999 98.17 18.0599 98.25 18.1199 98.34C18.4199 98.74 18.7399 99.16 19.0499 99.57C19.8199 100.58 20.5899 101.59 21.0099 102.38C21.1399 102.62 21.3299 102.91 21.5699 103.22C22.1099 103.95 22.8499 104.82 23.4699 105.51C23.6199 105.67 23.7599 105.83 23.8799 105.97C23.8499 106.17 23.8199 106.36 23.7799 106.54C23.5899 106.45 23.3899 106.37 23.1799 106.3C22.3499 106.05 21.3599 106.02 20.4899 106.19C20.1599 106.26 19.8399 106.35 19.5699 106.48C19.5299 106.5 19.4899 106.52 19.4499 106.54C18.7199 106.91 17.4599 107.76 16.5399 109.01C15.5899 110.3 14.9999 112.02 15.7299 114.06C15.7299 114.06 16.0999 114.85 16.8199 115.68C16.9099 115.92 17.0199 116.27 17.1399 116.67C17.1699 116.75 17.1899 116.83 17.2199 116.92C17.4399 117.64 17.6599 118.47 17.7599 119.09C17.3999 119.28 17.0199 119.54 16.6199 119.84C16.5599 119.88 16.5099 119.93 16.4499 119.97C16.0399 120.29 15.6099 120.65 15.0999 121.05C13.6999 122.15 12.8399 123.81 12.6099 125.52C12.5499 125.98 12.5299 126.45 12.5599 126.91C12.6099 127.55 12.7899 128.27 13.0099 128.95C13.3799 130.11 13.8899 131.2 14.1399 131.72C14.1599 131.75 14.1699 131.78 14.1799 131.81C14.1599 131.81 14.1399 131.83 14.1199 131.84C13.8099 131.99 13.4699 132.17 13.0899 132.4C11.8799 133.13 11.3799 134.26 11.0599 135.44C10.9299 135.92 10.8299 136.4 10.7299 136.87C10.6199 137.39 10.6399 137.99 10.7299 138.61C10.9299 139.97 11.5099 141.45 12.0699 142.47C12.2399 142.78 12.5199 143.07 12.8399 143.34C13.5899 143.96 14.6199 144.47 15.3299 144.77C15.4199 144.81 15.5099 144.85 15.5899 144.88C15.5199 145.08 15.4399 145.29 15.3699 145.49C15.3399 145.58 15.2999 145.67 15.2699 145.76C14.9099 146.76 14.5599 147.73 14.2199 148.64C13.5899 150.34 13.0399 151.79 12.6699 152.7C12.5999 152.88 12.5299 153.03 12.4699 153.17C12.3699 153.41 12.2799 153.58 12.2299 153.66C11.8399 154.26 11.6999 155.06 11.8399 155.89C11.9299 156.46 12.1499 157.04 12.5099 157.59C12.8299 158.08 13.2699 158.55 13.8199 158.93C14.0199 159.07 14.3999 159.25 14.8899 159.47C14.9799 159.51 15.0599 159.54 15.1599 159.58C15.3199 159.65 15.4899 159.72 15.6699 159.79C16.6499 160.17 17.9199 160.63 19.3599 161.11C19.7199 161.23 20.0999 161.36 20.4799 161.48H20.4399C20.4399 161.48 21.1199 164.68 25.9099 168.48C25.9399 168.5 25.9699 168.53 25.9999 168.55C27.5299 169.75 28.4699 170.44 29.0999 170.84C30.4799 171.73 30.3299 171.29 31.4099 172.04C32.1399 172.55 32.5599 172.98 33.0299 173.77C33.1399 173.95 33.2399 174.14 33.3599 174.36C33.8299 175.27 34.4099 176.57 35.3899 178.62C36.0699 180.03 37.8499 183.81 40.0199 188.4C37.8499 190.52 35.9799 192.58 34.3999 194.49C33.8199 195.19 33.2899 195.86 32.7799 196.52C31.1999 198.58 29.9799 200.4 29.0899 201.83C28.8299 202.26 28.5899 202.65 28.3799 203C28.3499 203.05 28.3199 203.1 28.2899 203.15L28.1899 203.09C27.7999 202.06 27.4199 201.03 27.0499 199.99C27.3899 199.45 27.7999 198.82 28.2599 198.13C28.5199 197.74 28.7899 197.33 29.0799 196.91V173.88C28.6599 173.67 28.1899 173.39 27.6699 173.06C27.6099 173.02 27.5499 172.98 27.4899 172.94C26.9799 172.61 26.4499 172.24 25.8899 171.81C24.8399 171.02 23.7399 170.09 22.6899 169.08V185.01C21.7599 181 21.0199 176.93 20.4499 172.82C20.4299 172.69 20.4099 172.56 20.3999 172.43C20.2799 171.56 20.1699 170.68 20.0699 169.8C20.0399 169.52 20.0099 169.24 19.9799 168.96C19.8999 168.2 19.8199 167.45 19.7499 166.69C19.7199 166.36 19.6899 166.04 19.6699 165.71C19.1799 165.05 18.7499 164.4 18.3999 163.74C18.3399 163.62 18.2699 163.5 18.2099 163.38C17.5199 163.14 16.6199 162.82 15.7499 162.5C15.5899 162.44 15.4299 162.38 15.2799 162.32C14.4599 162.01 13.7099 161.72 13.2499 161.51C13.0399 161.41 12.8299 161.3 12.6299 161.18C11.9599 160.78 11.3299 160.24 10.8099 159.58C10.5599 159.26 10.3399 158.91 10.1499 158.54C9.75988 157.77 9.50988 156.88 9.45988 155.87C9.40988 154.91 9.53988 153.85 9.90988 152.68C9.92988 152.61 9.95988 152.54 9.97988 152.46C10.0299 152.3 10.0799 152.15 10.1399 151.99C10.5699 150.85 11.0099 149.64 11.3999 148.52C11.7199 147.62 12.0099 146.76 12.2499 146.05C11.9299 145.84 11.6099 145.6 11.2999 145.33C10.8899 144.98 10.4799 144.58 10.1099 144.14C9.15988 143 8.39988 141.56 8.11988 139.76C8.04988 139.3 7.99988 138.82 7.99988 138.32C7.97988 136.7 8.27988 135.32 8.74988 134.15C9.26988 132.87 9.99988 131.84 10.7699 131.06C10.2899 129.92 9.91988 128.58 9.82988 127.15C9.74988 125.68 9.96988 124.13 10.7099 122.63C10.8099 122.42 10.9199 122.22 11.0399 122.02C11.8399 120.68 12.6399 119.66 13.3899 118.88C13.3899 118.88 13.3999 118.87 13.4099 118.86C13.8599 118.4 14.2899 118.03 14.6899 117.72C14.6099 117.43 14.5399 117.18 14.4799 117C14.2899 116.77 14.1299 116.55 13.9699 116.33C13.9599 116.31 13.9399 116.29 13.9299 116.27C13.3699 115.46 13.0199 114.67 12.8199 113.91C12.5299 112.84 12.5499 111.84 12.7199 110.95C7.47988 126.06 4.62988 142.28 4.62988 159.18C4.62988 240.48 70.5299 306.38 151.83 306.38C175.51 306.38 197.88 300.78 217.69 290.85C225.44 287.42 232.9 283.32 240 278.59C241.36 279.99 242.62 281.03 243.62 281.47C246.66 282.8 253.31 282.23 257.29 281.56C261.28 280.9 270.11 280.61 275.05 282.13C279.99 283.65 284.83 284.88 286.54 285.55L288.25 286.21C288.25 286.21 288.06 280.7 286.92 279.37C286.92 279.37 286.97 274.76 283.17 272.2C279.37 269.64 276.43 268.59 273.01 268.59C269.59 268.59 267.41 268.69 267.41 268.69C267.41 268.69 266.64 268.06 265.42 267.14C268.13 267.25 270.81 267.19 272.87 266.84C279.52 265.7 284.26 264.47 291.1 263.61C297.94 262.76 303.63 263.42 307.24 263.61C310.85 263.8 314.17 261.62 314.93 260.67L315.69 259.72C315.69 259.72 312.46 256.21 311.04 255.83L311.09 255.82ZM85.8799 30.86L84.4899 28.69C87.1799 27.12 89.9199 25.64 92.6999 24.25L94.0799 26.44C91.2999 27.82 88.5599 29.3 85.8799 30.86ZM96.9699 25.04L95.5799 22.84C98.5599 21.43 101.6 20.13 104.67 18.94L105.22 21.49C102.43 22.58 99.6799 23.76 96.9699 25.03V25.04ZM108.23 20.36L107.68 17.82C110.81 16.68 113.98 15.66 117.19 14.74L117.57 17.31C114.42 18.22 111.3 19.24 108.22 20.36H108.23ZM120.68 16.45L120.3 13.89C124.11 12.89 127.96 12.05 131.86 11.36L132.05 13.94C128.22 14.62 124.43 15.46 120.68 16.45ZM145.11 12.25C141.78 12.53 138.48 12.92 135.21 13.42L135.02 10.84C138.36 10.33 141.72 9.94 145.11 9.66V12.24V12.25ZM154.97 11.76C154.03 11.77 153.08 11.8 152.14 11.83V11.8V11.84C150.85 11.88 149.56 11.95 148.28 12.02V9.44C150.5 9.31 152.73 9.22 154.96 9.19V11.76H154.97ZM164.64 11.93C162.49 11.82 160.33 11.76 158.16 11.75V9.18C160.33 9.19 162.49 9.25 164.64 9.36V11.94V11.93ZM177.74 13.21C174.46 12.74 171.15 12.37 167.82 12.13V9.55C171.21 9.79 174.58 10.16 177.93 10.64L177.74 13.21ZM192.3 16.09C188.54 15.14 184.74 14.35 180.9 13.7L181.09 11.12C185 11.77 188.87 12.56 192.68 13.52L192.3 16.08V16.09ZM204.8 19.87C201.71 18.77 198.57 17.78 195.41 16.9L195.79 14.33C199.01 15.22 202.2 16.22 205.35 17.33L204.81 19.87H204.8ZM216.51 24.64C213.65 23.33 210.76 22.11 207.82 20.99L208.37 18.45C211.42 19.6 214.43 20.86 217.39 22.22L216.51 24.65V24.64ZM227.21 30.11C224.65 28.66 222.05 27.29 219.41 26.01L220.29 23.57C223.21 24.99 226.09 26.5 228.92 28.12L227.22 30.11H227.21ZM236.03 35.56C234.05 34.24 232.04 32.97 230.01 31.75L231.71 29.77C233.8 31.03 235.86 32.34 237.88 33.71L236.03 35.56ZM247.7 44.27C244.78 41.85 241.78 39.55 238.7 37.39L240.55 35.54C243.64 37.73 246.65 40.04 249.58 42.48L247.7 44.27ZM254.62 50.39C253.15 49.01 251.67 47.66 250.15 46.35L252.02 44.57C253.54 45.89 255.04 47.25 256.51 48.64L254.62 50.39ZM294.86 198.65L292.37 197.83C293.02 195.84 293.62 193.87 294.17 191.92C294.17 191.92 294.19 191.93 294.2 191.94C294.28 191.64 294.36 191.34 294.44 191.04L296.91 191.79C296.29 194.1 295.61 196.39 294.87 198.66L294.86 198.65ZM297.7 188.69L295.23 187.94C295.75 185.82 296.22 183.68 296.65 181.53L299.13 182.25C298.7 184.41 298.22 186.56 297.7 188.69ZM299.71 179.1L297.23 178.38C297.59 176.3 297.9 174.22 298.16 172.12L300.7 172.51C300.42 174.72 300.09 176.92 299.71 179.11V179.1ZM301.07 169.34L298.52 168.95C298.74 166.87 298.91 164.77 299.04 162.67L301.61 162.76C301.48 164.96 301.3 167.15 301.07 169.33V169.34ZM301.77 159.58L299.2 159.49C299.25 158.29 299.28 157.08 299.29 155.88H301.86C301.84 157.12 301.81 158.35 301.76 159.58H301.77ZM301.88 152.69H299.31C299.3 151.33 299.27 149.97 299.22 148.61L301.79 148.52C301.84 149.91 301.87 151.29 301.88 152.69ZM301.64 145.34L299.07 145.43C298.95 143.33 298.78 141.23 298.57 139.15L301.12 138.76C301.35 140.94 301.52 143.14 301.65 145.34H301.64ZM300.75 135.59L298.21 135.98C297.95 133.88 297.64 131.79 297.28 129.71L299.77 128.99C300.15 131.18 300.47 133.38 300.75 135.6V135.59ZM299.19 125.83L296.71 126.55C296.29 124.4 295.82 122.26 295.31 120.13L297.78 119.38C298.3 121.51 298.77 123.66 299.2 125.83H299.19ZM296.98 116.3L294.51 117.05C293.89 114.73 293.22 112.43 292.48 110.15L294.95 109.42C295.68 111.69 296.35 113.98 296.97 116.3H296.98ZM262.44 58.35C260.9 56.66 259.32 55 257.69 53.37C257.43 53.11 257.17 52.87 256.91 52.61L258.8 50.86C259.03 51.09 259.27 51.32 259.51 51.55C261.3 53.34 263.04 55.18 264.73 57.05L262.44 58.36V58.35ZM270.79 68.42C268.82 65.81 266.76 63.26 264.6 60.78L266.88 59.48C268.98 61.91 270.99 64.41 272.91 66.96L270.79 68.43V68.42ZM276.87 77.13C275.53 75.05 274.13 73 272.68 70.99L274.8 69.52C276.32 71.63 277.79 73.78 279.19 75.97L276.87 77.13ZM282.19 86.1C281.04 83.99 279.83 81.9 278.57 79.84L280.88 78.68C282.2 80.84 283.46 83.03 284.66 85.25L282.19 86.1ZM283.7 88.95L286.16 88.11C287.51 90.74 288.77 93.42 289.95 96.13L287.53 97.03C286.34 94.3 285.06 91.61 283.69 88.96L283.7 88.95ZM291.48 107.12C290.64 104.71 289.75 102.32 288.78 99.96L291.19 99.06C292.18 101.48 293.1 103.92 293.95 106.39L291.48 107.12ZM291.31 200.96L293.85 201.67C292.99 204.13 292.07 206.57 291.08 208.98L288.68 207.91C289.61 205.62 290.49 203.29 291.31 200.95V200.96ZM289.82 211.92C289.54 212.57 289.24 213.21 288.95 213.86C288.52 213.91 288.09 214 287.65 214.12C287.29 214.22 286.93 214.33 286.56 214.47C286.26 214.59 285.95 214.73 285.65 214.88C285.89 214.35 286.14 213.82 286.38 213.29C286.72 212.54 287.05 211.78 287.38 211.02L288.73 211.52L289.83 211.93L289.82 211.92ZM75.9999 187.03C77.2799 182.18 79.0399 177.68 81.4099 174.24C83.8999 170.61 86.9399 167.01 90.3799 163.53C90.8099 163.1 91.2399 162.67 91.6799 162.24C95.3599 158.66 99.4399 155.23 103.78 152.09C104.83 151.33 105.89 150.59 106.97 149.86C109.76 147.97 112.64 146.21 115.55 144.59C117.33 143.6 119.13 142.67 120.94 141.8C128.79 138.03 136.4 136.39 142.03 135.69C143.18 135.55 144.25 135.44 145.22 135.37C146.97 135.24 148.4 135.2 149.42 135.19C154.07 142.07 161.46 145.35 166.98 142.58C173.2 139.46 174.7 129.85 170.33 121.12C165.96 112.39 157.36 107.83 151.14 110.95C145.43 113.81 143.7 122.14 146.83 130.24C146.4 130.2 145.86 130.16 145.21 130.15C145.08 130.15 144.94 130.15 144.8 130.15C144.53 129.38 144.21 128.61 143.83 127.85C143.3 126.79 142.69 125.81 142.02 124.91C141 123.54 139.84 122.38 138.6 121.45L138.53 121.25L138.4 121.3C135.2 118.98 131.54 118.26 128.56 119.75C124.21 121.93 122.79 128.1 124.87 134.29L124.89 134.34C124.93 134.46 124.96 134.58 125.01 134.7C124.41 134.94 123.8 135.19 123.18 135.45C122.19 128.36 122.05 122.05 122.44 116.5C122.47 116.04 122.5 115.58 122.54 115.13C122.6 115.02 122.66 114.91 122.73 114.81C124.68 111.91 132.35 106.16 142.03 101.05C143.07 100.5 144.13 99.96 145.22 99.43C147.24 98.44 149.33 97.5 151.45 96.62C153.54 95.76 155.66 94.97 157.79 94.27C157.92 94.23 158.05 94.18 158.19 94.14L158.3 94.68L159.13 93.84C159.65 93.68 160.18 93.52 160.7 93.37L161.12 95.46L163.85 92.72L163.5 96.33L166.51 94.71L166.31 98.34L169.1 96.69L168.17 100.33L171.66 99.1C171.66 99.1 171.67 99.11 171.68 99.12L170.23 102.57L174.26 101.78L172.61 105.16L176.71 104.6L174.92 107.81L179.28 107.45V107.43C179.28 107.43 179.34 107.51 179.38 107.54L177.36 110.26L181.56 110.47L179.4 113.38L182.46 113.53L183.6 113.59L182.46 115.31L181.59 116.62H182.46L185.49 116.61L183.44 119.69H185.65L187.22 119.68L185.65 122.04L185.1 122.86H185.65L188.95 122.85C188.96 122.88 188.98 122.91 188.99 122.93L186.93 126.03H190.4L188.29 128.7L191.83 128.98L189.11 131.54L193.22 132.48L190.53 135.02L194.79 136L192.16 138.08L196.06 139.33L193.54 141.69L197.36 142.58L194.61 144.76L198.52 146.02L195.9 147.89L198.66 148.93C197.41 150.53 196.1 152.06 194.76 153.49C191.59 156.88 188.31 159.68 185.65 161.35C185.55 161.41 185.45 161.48 185.35 161.54C184.46 162.08 183.49 162.55 182.46 162.95C174.99 165.89 164.17 165.51 156.43 164.3C153.57 163.86 149.7 163.53 145.21 163.63C144.18 163.65 143.12 163.7 142.02 163.77C135.83 164.17 128.72 165.42 121.48 168.17C120.06 168.71 118.64 169.3 117.21 169.96C116.64 170.22 116.07 170.5 115.5 170.78C114.42 171.32 113.34 171.9 112.26 172.51C110.43 173.56 108.66 174.7 106.96 175.91C105.87 176.68 104.81 177.48 103.77 178.3C95.2099 185.09 88.7099 193.32 85.2999 199.64C83.7699 202.48 82.8599 204.93 82.6699 206.7C81.9199 213.63 83.1799 220.5 81.0599 224.07C78.9399 227.63 75.1899 226.39 73.6899 219.95C72.5999 215.27 72.5899 199.91 75.9999 187.01V187.03ZM131.13 122.89C130.65 123.29 130.3 123.73 130.05 124.22L126.63 125.42C126.79 125.02 126.98 124.63 127.2 124.27L131.14 122.89H131.13ZM128.31 122.86C128.57 122.61 128.84 122.38 129.14 122.17C130.43 121.28 131.96 120.91 133.59 121L128.32 122.85L128.31 122.86ZM131.07 132.1L126.54 133.69C126.46 133.4 126.38 133.11 126.31 132.82L130.73 131.27C130.84 131.54 130.95 131.82 131.07 132.1ZM129.65 125.38C129.56 125.86 129.53 126.38 129.57 126.92L125.97 128.19C126.03 127.63 126.11 127.09 126.24 126.58L129.65 125.38ZM129.69 127.9C129.83 128.68 130.07 129.51 130.38 130.37L126.11 131.87C125.96 130.96 125.89 130.08 125.9 129.23L129.69 127.9ZM156.37 138.35V138.37C155.97 138.1 155.57 137.8 155.17 137.48L157.98 136.49C158.22 136.85 158.46 137.19 158.72 137.52L156.37 138.34V138.35ZM159.39 138.3C159.71 138.64 160.04 138.95 160.4 139.23L158.99 139.73C158.46 139.53 157.93 139.29 157.41 139L159.39 138.3ZM154.38 136.8C154.04 136.49 153.71 136.16 153.38 135.81L156.85 134.59C157.05 134.96 157.25 135.32 157.46 135.66L154.37 136.75L154.39 136.8H154.38ZM154.1 128.64C154.39 129.55 154.75 130.45 155.2 131.35C155.27 131.49 155.34 131.63 155.41 131.77L151.36 133.19C150.96 132.57 150.58 131.92 150.24 131.23C150.06 130.88 149.9 130.52 149.75 130.16L154.1 128.63V128.64ZM149.39 129.28C148.98 128.19 148.68 127.09 148.48 126.01L153.33 124.31C153.38 125.43 153.55 126.57 153.85 127.72L149.4 129.28H149.39ZM155.85 132.64C156.03 133.01 156.22 133.37 156.4 133.73L152.7 135.03C152.43 134.71 152.17 134.37 151.92 134.02L155.84 132.64H155.85ZM157.86 113.5C156.77 114.4 155.86 115.46 155.15 116.65L148.75 118.9C149.05 117.94 149.46 117.05 149.98 116.27L157.85 113.51L157.86 113.5ZM151.21 114.82C151.74 114.32 152.34 113.9 153 113.56C154.16 112.98 156.27 112.51 157.95 112.45L151.2 114.82H151.21ZM154.5 117.9C154.18 118.6 153.93 119.32 153.74 120.08L148.21 122.02C148.25 121.33 148.34 120.66 148.47 120.02L154.5 117.9ZM153.5 121.17C153.38 121.86 153.32 122.57 153.3 123.29L148.31 125.04C148.22 124.36 148.18 123.69 148.17 123.03L153.49 121.16L153.5 121.17ZM160.57 140.19L161.41 139.9C161.76 140.1 162.13 140.28 162.53 140.42C161.89 140.42 161.23 140.34 160.57 140.19ZM194.8 136L194.84 135.89C194.84 135.89 194.86 135.93 194.86 135.95L194.8 136ZM101.53 213.22C101.21 209.92 97.7499 207.78 95.8999 206.86C97.2999 203.59 99.0199 200.04 101.91 196.46C102.48 195.75 103.11 195.07 103.78 194.4C104.75 193.43 105.82 192.5 106.97 191.62C109.44 189.72 112.27 188.05 115.29 186.65C115.91 186.36 116.54 186.09 117.18 185.82C118.28 185.36 119.39 184.94 120.51 184.56C121.02 184.39 121.52 184.22 122.03 184.07C122.41 183.95 122.8 183.84 123.18 183.73C125.1 187.78 127.06 191.37 128.93 194.5C129.03 194.66 129.13 194.83 129.22 194.99C130.35 196.86 131.49 198.63 132.63 200.31C134.23 202.66 135.83 204.84 137.37 206.86C137.73 207.33 138.09 207.79 138.44 208.24C139.68 209.82 140.87 211.29 142.01 212.68C143.14 214.06 144.21 215.36 145.2 216.58C146.79 218.55 148.16 220.31 149.21 221.93C148.69 223.11 147.57 224.69 145.2 226.4C145.08 226.49 144.96 226.57 144.84 226.66C143.96 227.27 143.02 227.67 142.01 227.92C137.62 229.05 132.09 227.38 126.27 227.6C125.91 227.61 125.55 227.64 125.19 227.66C124.57 227.71 123.94 227.78 123.31 227.89C120.61 228.34 118.76 229.45 117.48 230.75C116.08 232.16 115.38 233.79 115.02 235C112.01 232.32 110.36 230.18 109.6 229.05C109.58 228.25 109.54 227.45 109.46 226.66C109.46 226.57 109.43 226.48 109.42 226.39C109.18 224.65 108.2 222.92 106.94 221.36C105.97 220.16 104.84 219.06 103.75 218.12C102.95 217.43 102.19 216.83 101.53 216.34C101.59 215.21 101.6 214.22 101.51 213.22H101.53ZM121.81 180.49C121.48 180.6 121.15 180.71 120.82 180.82C119.63 181.23 118.42 181.69 117.18 182.21C116.69 182.41 116.2 182.62 115.71 182.84C115.58 182.9 115.46 182.95 115.33 183.01C112.07 184.46 109.31 185.94 106.96 187.43C105.8 188.17 104.74 188.91 103.77 189.64C95.9599 195.6 93.9699 201.61 92.3499 206.71C92.1599 207.31 91.9499 207.87 91.7299 208.4C90.9099 210.38 89.9199 211.93 88.9599 213.1C88.3499 213.85 87.7499 214.45 87.2299 214.92C87.3099 212.86 87.2799 210.67 87.2299 208.34C87.1999 207.13 87.5699 205.54 88.2799 203.71C90.4899 198.04 96.0499 190 103.77 183.12C104.8 182.21 105.86 181.31 106.96 180.45C109.6 178.38 112.44 176.47 115.44 174.85C116.02 174.54 116.6 174.23 117.19 173.94C118.9 173.1 120.65 172.36 122.45 171.73C124.93 170.86 127.49 170.2 130.12 169.82C134.4 169.2 138.35 168.84 142.01 168.66C143.1 168.61 144.16 168.57 145.2 168.54C160.41 168.18 170.51 170.65 179.41 168.72C180.36 168.51 181.38 168.18 182.45 167.75C183.48 167.33 184.54 166.82 185.64 166.22C186.85 165.55 188.1 164.78 189.36 163.91C188.45 166.6 187.23 168.95 185.64 170.97C184.71 172.15 183.66 173.22 182.45 174.16C180.25 175.89 177.57 177.22 174.29 178.15C174.15 178.19 174 178.23 173.86 178.26C165.2 180.54 151.27 179.34 148.99 178.79C148.39 178.65 147.1 178.31 145.2 178.03C144.28 177.89 143.21 177.77 142.01 177.69C137.78 177.4 131.9 177.62 124.79 179.57C123.82 179.84 122.82 180.13 121.8 180.47L121.81 180.49ZM25.5299 114.56C25.8699 112.95 25.7899 112.25 25.9199 111.51C25.9499 111.35 25.9899 111.2 26.0399 111.03C26.0899 110.89 26.0999 110.72 26.0899 110.53C26.0899 110.37 26.0699 110.2 26.0299 110.02C26.3999 108.07 26.7799 104.83 27.0299 101.09C27.0299 101.07 27.0299 101.05 27.0299 101.03C27.0399 100.84 27.0499 100.65 27.0699 100.46C27.1299 99.56 27.1799 98.64 27.2199 97.7C27.2399 97.13 27.2599 96.56 27.2799 95.98C27.2999 95.22 27.3199 94.45 27.3299 93.68C27.3399 92.55 27.4399 91.02 27.6099 89.27C27.6399 88.99 27.6599 88.71 27.6899 88.42C27.7099 88.2 27.7399 87.97 27.7599 87.74C27.8499 86.92 27.9399 86.06 28.0499 85.18C28.4199 82.11 28.8899 78.8 29.3799 75.83C29.8099 73.21 30.2499 70.87 30.6299 69.22C30.8299 68.34 31.0199 67.66 31.1899 67.25C31.2099 67.2 31.2399 67.13 31.2599 67.08C32.1899 64.78 34.6999 59.68 36.2599 55.35C37.1799 52.81 37.9699 50.61 38.2899 49.92C39.0999 48.17 39.5799 47.79 41.3099 47.56C41.5699 47.53 41.8299 47.52 42.1199 47.53C42.3599 47.54 42.6199 47.57 42.9099 47.61C43.2099 47.65 43.5399 47.71 43.9199 47.79C44.5599 47.92 45.3399 48.1 46.3499 48.33C47.3699 48.56 48.6299 48.85 50.1899 49.19C51.0299 49.37 51.9599 49.57 52.9899 49.79C53.9099 49.98 54.9099 50.19 56.0099 50.41C56.4699 50.5 56.9299 50.6 57.4199 50.69C57.9799 50.8 58.5099 50.91 59.0299 51.03C59.0299 51.03 59.0399 51.03 59.0499 51.03C59.8899 51.22 60.6899 51.41 61.4399 51.61C61.9999 51.76 62.5399 51.91 63.0499 52.06C63.2999 52.13 63.5399 52.21 63.7699 52.28C64.6099 52.55 65.3799 52.81 66.0799 53.08C67.4099 53.59 68.4999 54.09 69.3699 54.55C70.1699 54.97 70.7899 55.36 71.2599 55.7C71.7899 56.08 72.1299 56.38 72.3199 56.59C72.3199 56.63 72.3199 56.69 72.3199 56.75C72.2999 57.29 72.1999 58.28 72.0199 59.77C71.6799 62.47 71.0599 66.75 70.0599 72.74C69.8699 73.9 69.6399 75.08 69.3699 76.28C67.9499 82.77 65.6299 89.62 63.5499 94.85C62.3799 97.79 61.2999 100.22 60.4899 101.78C60.4799 101.8 60.4699 101.83 60.4499 101.85C60.2999 102.14 60.1399 102.48 59.9599 102.88C59.2099 104.51 58.1999 106.99 57.0799 109.9C53.8599 118.2 49.7499 129.96 48.4099 135.19C47.2499 139.75 45.9499 148.2 45.0499 154.78C42.2699 153.85 36.2799 151.95 29.0999 150.37C28.0599 150.14 26.9999 149.92 25.9099 149.71C23.7599 149.29 21.5299 148.91 19.2799 148.61C18.5499 148.51 17.8199 148.42 17.0899 148.34C17.0399 148.34 16.9799 148.33 16.9299 148.32C17.6399 146.14 18.3199 143.98 18.6699 142.92C18.6899 142.92 18.7099 142.92 18.7399 142.91C18.9099 142.89 19.0599 142.85 19.1799 142.8C19.3199 142.74 19.4799 142.66 19.6399 142.56C20.4499 142.07 21.4599 141.16 21.9699 140.68C22.4899 140.75 23.0399 140.81 23.6399 140.88C23.6399 140.88 23.6099 139.82 23.3199 138.61C24.0499 136.69 23.5099 134.99 22.7199 134.44C22.3399 134.18 21.8499 133.86 21.3399 133.52L21.6299 132.59C23.0999 132.79 24.8599 132.88 25.5299 132.52C25.6499 132.45 25.7899 132.34 25.9199 132.21C27.0999 131.06 28.7599 127.73 28.5799 126.25C28.3699 124.61 27.9299 122.45 26.0799 121.21C26.0299 121.18 25.9799 121.15 25.9299 121.11C25.2199 120.66 24.3199 120.23 23.3899 119.86C23.3099 119.83 23.2299 119.8 23.1499 119.77C23.3599 118.49 23.5799 117.33 23.6699 116.85C23.8999 116.72 24.1099 116.57 24.3099 116.41C24.9399 115.89 25.3899 115.24 25.5399 114.53L25.5299 114.56ZM23.3999 101.75C23.2599 101.48 22.9399 101.1 22.5399 100.65C22.0399 100.09 21.4199 99.42 20.7999 98.72C20.7199 98.63 20.6499 98.55 20.5699 98.46C20.2999 98.15 20.0399 97.83 19.7899 97.52C19.5899 97.27 19.4099 97.02 19.2499 96.78C19.1299 96.6 19.0299 96.44 18.9299 96.27C18.8999 96.22 18.8599 96.16 18.8299 96.12C18.1499 94.96 17.8899 94 18.0799 93.16C18.1399 92.88 18.2599 92.62 18.4199 92.36C18.4999 92.24 18.5999 92.14 18.6999 92.04C19.0799 91.67 19.6099 91.46 20.1799 91.38C20.4799 91.34 20.7899 91.33 21.0999 91.34C21.1399 91.34 21.1699 91.34 21.2099 91.34C21.5799 91.36 21.9299 91.42 22.2499 91.5H22.2699C23.0099 91.68 23.9899 92.26 24.6599 92.7C24.6599 92.73 24.6599 92.77 24.6599 92.8C24.6499 93.76 24.6299 94.66 24.6099 95.54C24.6099 95.54 24.6099 95.54 24.6099 95.55C24.6099 95.59 24.6099 95.64 24.6099 95.68C24.6099 96.04 24.5899 96.39 24.5799 96.73C24.5399 97.93 24.4999 99.04 24.4399 100.08C24.3899 100.9 24.3399 101.68 24.2799 102.4C24.2699 102.57 24.2499 102.73 24.2399 102.89C23.9299 102.53 23.5999 102.12 23.3999 101.76V101.75ZM16.8599 114.09C16.2899 113.35 16.2999 113.06 16.4299 112.43C16.4799 112.18 16.5499 111.89 16.6199 111.49C16.7199 110.86 17.2299 110.09 17.8599 109.4C18.5399 108.65 19.3699 107.98 19.9799 107.66C20.0599 107.62 20.1399 107.58 20.2099 107.55C20.8899 107.27 21.8999 107.29 22.7499 107.52C22.9999 107.59 23.2399 107.68 23.4499 107.78C23.7099 107.91 23.9299 108.06 24.0899 108.23C24.0899 108.23 24.0899 108.24 24.0999 108.25C24.4199 108.61 24.5999 109 24.6899 109.31C24.7999 109.68 24.8099 109.96 24.8099 109.96L24.5999 109.91C24.4999 109.88 23.9599 109.88 23.9599 109.88C23.9599 109.88 24.2699 110.73 24.3199 111.45C24.3699 112.17 24.0099 112.97 23.3899 114.12C22.8899 115.05 21.6099 115.67 20.2499 115.5C20.0199 115.47 19.7799 115.42 19.5399 115.34C19.4399 115.31 19.3399 115.27 19.2399 115.22C18.6499 114.96 18.1899 114.75 17.8299 114.58C17.1499 114.26 16.8399 114.09 16.8399 114.09H16.8599ZM13.9499 127.31C13.8499 126.81 13.8599 126.33 13.9299 125.88C14.0599 125.06 14.3999 124.33 14.7799 123.78C14.8499 123.68 14.9299 123.58 15.0099 123.47C15.2399 123.18 15.5399 122.85 15.8799 122.51C16.5199 121.87 17.2899 121.22 17.9699 120.8C18.2199 120.64 18.4599 120.53 18.6899 120.45C18.7999 120.41 18.9199 120.38 19.0299 120.35C19.4099 120.27 19.7799 120.28 20.1599 120.37C20.4299 120.44 20.7099 120.54 21.0099 120.69C21.0399 120.7 21.0699 120.71 21.0999 120.73C21.6099 120.99 22.2999 121.24 23.0099 121.52C23.4599 121.7 23.9199 121.88 24.3499 122.08C24.6899 122.24 24.9999 122.4 25.2799 122.58C25.5399 122.75 25.7599 122.93 25.9499 123.1C26.5899 123.7 26.8199 124.26 26.8199 124.26C26.5099 123.97 26.1899 123.83 25.9499 123.75C25.7399 123.69 25.5899 123.68 25.5899 123.68C25.5899 123.68 25.7399 123.87 25.9499 124.18C26.1499 124.48 26.3999 124.89 26.6499 125.39C27.1599 126.42 26.9899 127.79 26.9899 127.79C26.8499 128.72 26.5199 129.52 25.9399 130.1C25.5099 130.53 24.9499 130.84 24.2099 130.97C23.0699 131.17 22.1399 131.32 21.0699 131.11C20.4999 131 19.8899 130.79 19.1699 130.42C18.7799 130.22 18.3599 129.97 17.9399 129.7C17.6899 129.54 17.4299 129.37 17.1799 129.2C16.4899 128.73 15.8399 128.25 15.3399 127.86C15.1599 127.72 15.0099 127.6 14.8799 127.5C14.5599 127.25 14.3699 127.09 14.3699 127.09C14.4499 127.58 14.5599 128.01 14.7099 128.41C14.8699 128.86 15.0699 129.25 15.2899 129.59C15.7599 130.32 16.2999 130.81 16.7499 131.12C16.3899 131.15 16.0999 131.2 15.9499 131.23C15.6999 130.84 15.2899 130.19 14.8999 129.48C14.7999 129.31 14.7099 129.13 14.6199 128.95C14.3099 128.35 14.0499 127.75 13.9699 127.31H13.9499ZM15.4499 143.1C14.4099 142.62 13.5799 141.78 13.0599 140.87C12.9799 140.74 12.9099 140.61 12.8499 140.48C12.6199 139.99 12.4599 139.43 12.3599 138.85C12.1799 137.75 12.2699 136.6 12.7599 135.69C12.8199 135.57 12.8799 135.45 12.9599 135.34C12.9699 135.33 12.9799 135.31 12.9899 135.3C13.2199 134.97 13.4899 134.64 13.7899 134.34C14.5699 133.54 15.5499 132.94 16.5599 133.08C16.7899 133.11 17.0099 133.18 17.2399 133.29C17.3299 133.33 17.4199 133.38 17.5099 133.43C18.1099 133.74 18.8399 134.17 19.5299 134.62C18.7799 134.47 18.3999 134.66 18.3999 134.66C18.3999 134.66 16.8399 134.95 16.1399 136.17C16.1399 136.18 16.1299 136.19 16.1199 136.21C15.9899 136.45 15.8799 136.72 15.8299 137.03C15.7899 137.29 15.7799 137.54 15.7999 137.78C15.8199 137.95 15.8499 138.11 15.8999 138.27C15.9699 138.45 16.0599 138.63 16.1999 138.8C16.7299 139.45 17.8099 139.97 19.8399 140.39C19.6899 140.48 19.5299 140.56 19.3599 140.63C18.3499 141.06 16.8899 140.9 15.6599 140.63C14.8799 140.46 14.1999 140.24 13.7899 140.1C13.5399 140.01 13.3899 139.96 13.3899 139.96C13.3899 139.96 13.6599 141.14 14.2799 141.86C14.4799 142.09 14.9299 142.32 15.4899 142.51C15.7899 142.61 16.1199 142.7 16.4599 142.78H16.3299C16.2599 142.98 16.1899 143.17 16.1299 143.37C15.8899 143.3 15.6599 143.22 15.4399 143.12L15.4499 143.1ZM25.9199 160.98C25.7099 160.92 25.5099 160.86 25.3099 160.8C25.0299 160.33 24.8799 160.04 24.8799 160.04L23.8499 160.37C23.4499 160.25 23.0499 160.13 22.6499 160.01C21.4399 159.64 20.2999 159.28 19.2799 158.94C17.3699 158.31 15.8999 157.77 15.2699 157.44C15.2799 157.44 15.2899 157.42 15.3099 157.42C16.0399 157.08 16.9199 157.62 19.2699 158.65C19.3899 158.7 19.4999 158.75 19.6299 158.81C20.4199 159.15 21.4799 159.43 22.5499 159.64C23.8199 159.89 25.0999 160.05 25.9199 160.07C26.7099 160.1 27.0799 160.01 26.6199 159.78C26.5099 159.73 26.2599 159.66 25.9199 159.59C24.4199 159.28 21.0899 158.76 19.2399 157.62C19.1799 157.58 19.1199 157.55 19.0699 157.52C17.9199 156.75 16.6099 156.18 15.5199 155.88C15.3699 155.84 15.2199 155.8 15.0699 155.76C14.9699 155.74 14.8799 155.72 14.7899 155.7C14.5899 155.66 14.4099 155.64 14.2399 155.62C14.3199 155.16 14.5799 154.75 14.7499 154.49C14.8199 154.38 14.9199 154.15 15.0499 153.85C15.1699 153.54 15.3199 153.15 15.4799 152.69C15.8099 151.77 16.1999 150.61 16.5999 149.39C16.6499 149.39 16.6999 149.4 16.7399 149.41C17.5799 149.5 18.4199 149.6 19.2499 149.72C21.5199 150.03 23.7499 150.41 25.9199 150.83C26.9999 151.04 28.0699 151.26 29.1099 151.49C36.3399 153.09 42.3099 155 44.9099 155.88C44.8199 156.57 44.7299 157.23 44.6499 157.86C44.3299 160.34 44.0399 161.69 43.8899 162.56C43.8099 163.01 43.7299 163.36 43.5899 163.64C43.2499 163.51 42.8599 163.36 42.3999 163.18C39.7799 162.15 30.6799 160.82 30.9399 160.87C31.1999 160.92 39.5199 163.08 41.0099 164.01C41.2299 164.15 41.3799 164.28 41.4799 164.4C40.7699 164.36 39.8399 164.24 38.5999 164.03C38.1499 163.96 37.6799 163.88 37.1899 163.8C35.4499 163.53 32.3999 162.79 29.0999 161.89C28.0499 161.6 26.9799 161.3 25.9099 160.99L25.9199 160.98ZM37.0299 171.45C37.0299 171.45 39.1199 170.23 39.9399 169.55C40.7599 168.86 41.3299 167.49 41.3299 167.49C41.3299 167.49 38.4699 168.24 37.1699 168.18C36.0499 168.12 31.5899 167.15 29.1199 165.48C28.7299 165.21 28.3799 164.93 28.1099 164.63C27.7699 164.26 27.4599 163.88 27.1699 163.51C27.8299 163.7 28.4799 163.89 29.1199 164.07C32.3699 164.98 35.3199 165.71 36.9999 165.97C37.4799 166.04 37.9499 166.12 38.3999 166.19C39.9199 166.44 41.3599 166.67 42.5999 166.67C44.6499 166.67 46.1499 166.03 46.5399 163.73C46.5999 163.38 46.6799 162.86 46.7599 162.22C46.8999 161.21 47.0699 159.89 47.2699 158.36C48.0799 152.04 49.4499 141.45 50.7799 136.24C51.4099 133.76 52.7499 129.64 54.3199 125.13C54.5399 124.49 54.7699 123.84 54.9999 123.19C56.8799 123.72 57.7299 123.02 58.0399 122.63C58.1499 122.5 58.1899 122.4 58.1899 122.4L57.2099 122.19C56.5899 122.06 55.9799 121.7 55.6099 121.46C57.1399 117.21 58.7599 112.9 60.1399 109.44C60.4499 109.3 60.8299 109.14 61.2299 109.01C61.9999 108.75 62.8699 108.55 63.5599 108.6C63.7299 108.61 63.8999 108.63 64.0499 108.68C64.1399 108.71 64.2199 108.74 64.2999 108.78C65.5999 109.46 64.4299 110.74 63.4699 112.3C63.4699 112.3 63.4699 112.32 63.4599 112.32C62.4999 113.9 60.0999 121.02 59.6199 125.89C59.1399 130.76 60.5099 134.05 60.6499 136.58C60.7899 139.12 58.9399 142.89 57.7699 145.63C56.5999 148.37 56.1599 153.92 55.4699 155.22C54.8999 156.31 51.9199 157.21 50.9699 157.47C50.8699 157.5 50.7999 157.52 50.7499 157.53C50.6999 157.54 50.6699 157.55 50.6699 157.55C50.6699 157.55 50.7299 157.57 50.8299 157.59C51.1099 157.65 51.7499 157.76 52.7999 157.76C54.2399 157.76 55.7499 157.21 55.7499 157.21C55.7499 157.21 55.0399 158.34 53.7199 158.94C53.6199 158.98 53.5199 159.03 53.4199 159.06C51.9099 159.61 51.9799 159.06 51.0199 159.61C50.0599 160.16 47.4599 160.98 47.4599 160.98C47.4599 160.98 47.7299 161.19 48.0799 161.46C48.4199 161.73 50.0199 162.25 51.6599 161.56C51.8199 161.49 51.9499 161.44 52.0799 161.39L53.4299 163.24L53.5299 161.39L55.3499 164.68L54.9399 161.63L56.4499 163.51L56.3499 161.25L57.8099 162.79C59.6399 166.81 65.6499 178.59 67.7599 182.46C66.3099 186.53 64.2199 191.64 61.6499 196.8C60.5799 198.95 59.4199 201.11 58.1899 203.21C57.6799 204.07 57.1499 204.93 56.5899 205.79C53.9899 201.22 46.4199 187.85 43.6099 182.38C42.2599 179.75 41.3599 177.99 40.7599 176.82L43.1599 179.45L41.6499 175.06L43.3999 176.36L42.5799 173.38L43.7499 173.96L43.1099 171.98C43.4699 171.62 43.8299 171.23 44.1799 170.8C46.2399 168.26 45.6899 167.24 45.6899 167.24C45.6899 167.24 42.7399 170.19 40.6199 170.8C38.4999 171.42 37.0599 171.42 37.0599 171.42L37.0299 171.45ZM34.2099 203.51C34.4199 203.21 34.6299 202.91 34.8399 202.62C38.2699 197.87 41.3199 194.91 42.5699 193.77C42.8499 194.36 43.1299 194.96 43.4099 195.56C42.8699 196.04 38.9399 199.58 34.9899 205.72C34.8999 205.86 34.8099 206 34.7299 206.14C33.7099 207.75 32.6999 209.53 31.7499 211.48C31.3899 210.69 31.0299 209.9 30.6799 209.1C31.8499 207.04 33.0499 205.18 34.2099 203.51ZM12.7499 162.71L15.3199 162.62C15.3999 163.96 15.4999 165.3 15.6199 166.63C15.6299 166.77 15.6499 166.9 15.6599 167.04C15.7099 167.61 15.7699 168.17 15.8199 168.74L13.2699 169.13C13.0499 167 12.8799 164.87 12.7499 162.72V162.71ZM13.6299 172.29L16.1799 171.9C16.2299 172.28 16.2799 172.67 16.3399 173.05C16.3499 173.14 16.3699 173.24 16.3799 173.33C16.5899 174.88 16.8199 176.43 17.0799 177.98L14.5899 178.7C14.2199 176.57 13.9099 174.44 13.6399 172.29H13.6299ZM15.1699 181.85L17.6499 181.13C18.0699 183.28 18.5299 185.41 19.0399 187.53L16.5699 188.28C16.0499 186.15 15.5799 184.01 15.1599 181.85H15.1699ZM17.3699 191.37L19.8399 190.62C20.4599 192.94 21.1299 195.25 21.8699 197.53L19.3999 198.26C18.6699 195.98 17.9999 193.69 17.3799 191.37H17.3699ZM20.3999 201.29L22.8699 200.56C23.6899 202.94 24.5799 205.29 25.5299 207.62L23.1199 208.52C22.1499 206.14 21.2399 203.72 20.3999 201.29ZM24.3499 211.46L26.7699 210.56C27.9599 213.3 29.2399 216.01 30.6099 218.67L28.1499 219.51C26.7999 216.86 25.5399 214.18 24.3499 211.45V211.46ZM29.6399 222.37L32.1099 221.52C33.2299 223.58 34.3999 225.61 35.6199 227.61L33.3099 228.77C32.0299 226.66 30.8099 224.53 29.6399 222.37ZM34.9999 231.49L37.3199 230.33C38.6199 232.36 39.9699 234.35 41.3799 236.32L39.2599 237.79C37.7799 235.72 36.3599 233.63 34.9999 231.5V231.49ZM47.2199 247.95C45.0999 245.48 43.0699 242.95 41.1399 240.36L43.2599 238.89C45.2399 241.53 47.3199 244.12 49.4999 246.64L47.2299 247.94L47.2199 247.95ZM55.0499 256.39C54.9899 256.33 54.9199 256.26 54.8499 256.2C52.9599 254.31 51.1299 252.37 49.3599 250.4L51.6399 249.1C51.6399 249.1 51.6899 249.15 51.7099 249.18C51.9199 249.41 52.1399 249.64 52.3499 249.87C52.9199 250.49 53.4899 251.11 54.0799 251.73C54.3099 251.98 54.5499 252.22 54.7899 252.46C55.3499 253.04 55.9099 253.62 56.4799 254.19C56.5399 254.25 56.6099 254.32 56.6699 254.39C56.7599 254.48 56.8499 254.56 56.9399 254.65L55.0499 256.4V256.39ZM61.7999 262.69C60.2899 261.36 58.7999 260.01 57.3399 258.62L59.2299 256.87C59.5499 257.17 59.8799 257.47 60.1999 257.77C60.4699 258.02 60.7299 258.27 60.9999 258.52C61.0999 258.61 61.1999 258.7 61.2999 258.79C61.8699 259.31 62.4399 259.82 63.0199 260.33C63.2399 260.52 63.4599 260.72 63.6799 260.91L61.8099 262.69H61.7999ZM73.1899 271.74C70.1199 269.55 67.1299 267.22 64.2199 264.77L65.9599 263.11L64.7799 261.87C65.1299 262.17 65.4899 262.47 65.8499 262.77C65.9299 262.84 66.0199 262.91 66.0999 262.98C68.9999 265.41 71.9699 267.71 75.0299 269.88L73.1899 271.72V271.74ZM81.9199 277.52C79.8699 276.26 77.8399 274.96 75.8499 273.59L77.6999 271.74C79.6399 273.06 81.6199 274.32 83.6199 275.54L81.9199 277.52ZM92.9699 283.62C90.1699 282.23 87.4099 280.75 84.6999 279.17L86.2299 277.39L85.0999 276.42C87.9699 278.11 90.8799 279.7 93.8499 281.18L92.9699 283.62ZM104.74 288.82C101.74 287.65 98.7699 286.38 95.8499 285.02L96.7299 282.59C99.5399 283.91 102.4 285.14 105.29 286.27L104.74 288.82ZM117.25 293.02C114.05 292.11 110.88 291.09 107.76 289.95L108.31 287.41C111.38 288.53 114.49 289.54 117.64 290.45L117.26 293.02H117.25ZM131.88 296.38C127.99 295.7 124.15 294.85 120.35 293.86L120.73 291.3C124.47 292.28 128.25 293.12 132.07 293.8L131.88 296.38ZM145.11 298.08C141.73 297.8 138.37 297.41 135.05 296.9L135.24 294.32C138.5 294.82 141.8 295.21 145.11 295.49V298.07V298.08ZM154.97 298.55C152.73 298.52 150.51 298.43 148.29 298.3V295.72C148.99 295.76 149.7 295.81 150.4 295.84C150.88 295.86 151.36 295.88 151.85 295.89C152.49 295.91 153.12 295.94 153.76 295.96C154.16 295.96 154.57 295.96 154.97 295.98V298.55ZM164.64 298.39C162.49 298.5 160.33 298.55 158.16 298.57V296C158.89 296 159.63 295.99 160.36 295.97C160.7 295.97 161.04 295.95 161.39 295.94C162.11 295.92 162.84 295.89 163.56 295.86C163.92 295.84 164.28 295.83 164.64 295.81V298.39ZM167.82 298.19V295.61C168.21 295.58 168.59 295.54 168.98 295.51C169.54 295.46 170.1 295.42 170.66 295.37C171.28 295.31 171.91 295.25 172.53 295.18C172.86 295.14 173.19 295.11 173.52 295.07C174.24 294.99 174.96 294.9 175.68 294.81C175.71 294.81 175.73 294.81 175.76 294.8C176.41 294.72 177.06 294.63 177.71 294.54L177.9 297.11C174.57 297.59 171.2 297.95 167.82 298.2V298.19ZM181.06 296.62L180.87 294.04C184.71 293.4 188.5 292.61 192.25 291.66L192.63 294.22C188.82 295.17 184.96 295.97 181.06 296.61V296.62ZM195.73 293.41L195.35 290.85C198.51 289.97 201.64 288.99 204.72 287.89L205.26 290.43C202.12 291.53 198.94 292.53 195.72 293.42L195.73 293.41ZM208.29 289.33L207.74 286.79C210.66 285.68 213.55 284.47 216.39 283.16L217.27 285.59C214.32 286.94 211.32 288.19 208.29 289.33ZM213.57 279.86C212.23 279.77 210.82 279.6 210.09 279.29C209.63 279.1 209.39 279 209.28 278.94L207.08 278.33C207.08 278.33 209.82 269.42 212.7 264.76C214.07 262.53 215.82 260.66 217.27 259.3C218.86 257.81 220.1 256.95 220.1 256.95C220.1 256.95 219.01 256.41 217.27 256.7C215.31 257.03 212.52 258.42 209.54 262.85C203.92 271.21 204.06 274.36 204.06 274.36L202.63 277.54C203.09 272.59 202.1 266.07 196.41 259.54C196.41 259.54 199.46 276.06 193.92 286.92C192.68 287.26 191.43 287.59 190.18 287.9C190.86 286 192.28 281.63 192.69 277.1C193.24 271.07 192.69 268.19 192.69 268.19C192.69 268.19 189.71 277.24 185.65 281.78C185.44 282.01 185.23 282.24 185.02 282.45C183.95 283.49 183.12 284.22 182.47 284.75C180.46 286.39 180.13 286.14 179.4 287.39C178.85 288.33 178.62 289.45 178.52 290.24C177.44 290.41 176.36 290.57 175.28 290.71C175.24 290.71 175.2 290.72 175.16 290.73C175.05 290.74 174.94 290.76 174.83 290.77C175.27 290.01 175.62 289.07 175.71 287.95C176.02 284.15 174.68 271.71 170.47 265.33C166.26 258.96 161.12 258.13 161.12 258.13C161.12 258.13 163.59 261.32 163.48 264.61C163.38 267.9 158.34 271.91 155.87 271.81C153.4 271.71 151.35 273.56 151.55 278.7C151.73 283.26 150.06 290 149.6 291.68C149.06 291.65 148.53 291.62 148 291.59C147.81 291.58 147.62 291.57 147.42 291.55C146.69 291.5 145.96 291.43 145.23 291.37C144.17 291.28 143.11 291.17 142.05 291.06C142.05 291.06 142.05 291.05 142.05 291.04C141.3 286.69 139.41 277.25 136.45 273.36C133.7 269.75 131.57 267.26 128.83 265.88C127.67 265.3 126.41 264.91 124.94 264.73C120.01 264.11 115.28 262.26 113.02 258.36C110.76 254.45 110.35 252.19 110.35 252.19C110.35 252.19 110.31 252.21 110.24 252.26C110.22 252.27 110.21 252.28 110.19 252.3C110.13 252.35 110.04 252.41 109.95 252.5C109.12 253.25 107.24 255.78 106.45 263.51C105.72 270.69 108.85 279.43 110.71 283.86C109.43 283.4 108.16 282.93 106.89 282.43C104.83 278.78 104.6 273.74 104.6 270.08C104.6 265.76 104.6 264.63 103.67 263.19C102.74 261.75 103.67 258.15 103.26 256.1C102.85 254.04 101.2 253.53 101.1 254.46C101 255.39 100.28 260.63 98.2199 265.67C96.6499 269.53 92.4799 273.26 90.6199 274.8C89.7599 274.33 88.9099 273.85 88.0699 273.35C89.1599 271.61 90.5599 268.06 91.1699 262.75C91.9899 255.49 91.5799 251.51 91.5799 251.51C91.5799 251.51 90.3499 253.57 89.9399 256.99C89.5299 260.41 87.0599 264.8 86.2399 261.38C85.4199 257.95 78.1499 250.96 78.1499 250.96C78.1499 250.96 79.5199 253.43 80.2099 258.22C80.8299 262.53 79.8899 267.16 79.6999 268.07C78.7599 267.43 77.8199 266.78 76.8999 266.11C77.1899 264.56 77.4799 261.91 77.0599 258.36C76.4699 253.28 73.9499 248.71 73.2599 247.55C73.1799 247.41 73.1199 247.31 73.0999 247.28C73.0999 247.38 72.8199 247.88 69.9299 250.55C67.2899 252.98 63.0099 252.94 60.9599 252.75C60.7899 252.59 60.6199 252.42 60.4599 252.25C60.1299 251.93 59.8099 251.61 59.4799 251.29C58.9499 250.75 58.4199 250.21 57.8999 249.67C57.6999 249.46 57.4999 249.26 57.2999 249.05C57.2499 249 57.1999 248.95 57.1599 248.9C56.6199 248.33 56.0899 247.75 55.5499 247.17C55.3199 246.92 55.0899 246.68 54.8599 246.42C54.4899 246.01 54.1199 245.59 53.7499 245.17C51.8099 242.97 49.9499 240.73 48.1599 238.42C48.7099 237.87 49.8799 236.67 51.8499 234.63C54.7299 231.65 54.6399 225.5 54.6399 225.5C53.6599 226.89 50.0699 229.83 50.0699 229.83C50.0699 229.83 48.1199 231.41 52.1299 226.16C54.8199 222.64 57.4499 217.84 58.8799 215.07C59.5799 213.72 59.9999 212.84 59.9999 212.84C55.1099 220.36 44.6499 228.33 42.2299 230.13C41.8299 229.53 41.4299 228.93 41.0399 228.32C44.3599 225.14 54.2999 215.22 60.5399 204.58C64.2699 198.22 67.3299 191.37 69.4499 185.75C71.1599 181.24 72.2599 177.53 72.6399 175.5C72.7299 174.99 72.7899 174.58 72.7899 174.3C72.7899 173.95 72.7299 173.65 72.6399 173.4C72.4199 172.75 71.9799 172.39 71.6899 172.22C71.0499 171.85 70.2499 171.82 69.4599 171.97C68.4199 172.15 67.3899 172.62 66.7199 172.97C66.6199 172.77 66.5099 172.57 66.4099 172.36C67.0799 172.07 68.2899 171.59 69.4599 171.33C70.0699 171.19 70.6699 171.12 71.1699 171.16C71.7699 171.21 72.2599 171.45 72.6399 171.86C73.4899 172.76 73.7799 174.45 73.5299 176.51C73.4499 177.15 73.1299 178.53 72.6399 180.36C71.8899 183.13 70.7499 186.93 69.4499 190.78C67.5899 196.27 65.4099 201.84 63.6099 204.57C63.6099 204.57 63.7399 204.46 63.9599 204.25C64.8099 203.46 67.0999 201.21 69.4499 197.93C69.5799 197.75 69.7099 197.57 69.8399 197.38C69.6899 198.29 69.5699 199.19 69.4499 200.07C69.3899 200.56 69.3299 201.04 69.2799 201.52C68.9199 204.81 68.7999 207.83 68.9499 210.36C69.0599 212.15 69.2299 213.78 69.4499 215.28C69.5399 215.9 69.6299 216.49 69.7299 217.07C69.9499 218.28 70.1899 219.39 70.4399 220.41C68.8599 223.32 64.2999 231.06 58.2099 235.45C57.7399 235.79 57.2699 236.11 56.7799 236.4C56.7799 236.4 64.9099 234.33 72.2899 226.07C72.7299 227.16 73.1099 227.96 73.3299 228.48C73.7499 229.47 74.8499 230.69 76.4899 231C78.0499 231.29 80.0999 230.76 82.5099 228.41C82.6099 228.32 82.6899 228.21 82.7799 228.12C84.2899 230.29 88.2499 232.83 90.4599 234.14C90.9499 234.43 91.3499 234.66 91.6299 234.82C91.8699 234.96 92.0099 235.03 92.0099 235.03C92.0099 235.03 91.8899 234.87 91.3099 234.34C90.7999 233.87 89.9299 233.1 88.4499 231.88C86.4899 230.26 85.5399 227.12 85.0999 224.96C85.8599 223.53 86.3799 221.97 86.7299 220.3C87.2299 220.06 87.6899 219.78 88.1299 219.5C90.1999 218.14 91.5999 216.34 92.7599 214.19C93.3199 214.2 94.9599 214.58 95.0399 218.45C95.1799 225.3 94.6199 239 94.4899 245.45C94.4499 247.77 94.1499 250.9 93.7799 254.05C93.0099 260.58 91.8899 267.24 91.8899 267.24C101.35 268.06 101.21 238.04 101.21 238.04C100.95 231.72 101.01 227.24 101.15 223.88C101.82 224.32 102.51 224.91 103.13 225.7C103.26 225.86 103.37 226.02 103.47 226.18C103.58 226.35 103.68 226.52 103.76 226.68C103.8 226.75 103.83 226.82 103.86 226.89C104 227.19 104.1 227.5 104.17 227.83C104.56 229.58 104.19 232 104.77 238.04C105.07 241.24 106 242.9 107.05 243.71C108.82 245.1 110.94 244.07 110.94 244.07C110.23 242.26 109.91 240.32 109.78 238.31C112.11 240.67 116.76 243.43 120.12 245.45C124.23 247.92 133.55 256.69 138.9 265.33C140.12 267.29 141.18 269.61 142.1 272.01C142.17 272.19 142.23 272.37 142.3 272.55C143.58 275.97 144.57 279.52 145.29 282.47C146.25 286.44 146.71 289.32 146.71 289.32C146.71 289.32 149.31 277.81 146.71 267.8C146.37 266.51 145.89 265.21 145.29 263.91C144.45 262.1 143.37 260.29 142.1 258.5C137.3 251.73 129.85 245.34 122.74 240.72C122.86 240.23 123.02 239.66 123.23 239.06C123.8 237.48 124.77 235.7 126.42 234.49C129.63 232.14 134.96 234.14 142.1 234.35C142.88 234.37 143.69 234.38 144.52 234.35C144.78 234.35 145.04 234.33 145.29 234.3C149.62 233.93 152.09 231.74 153.42 229.89C157.06 237.48 161.69 247.74 162.62 249.9C163.35 251.61 164.09 253.61 165.55 255.46C166.55 256.73 167.89 257.94 169.81 258.94C169.81 258.94 169 246.39 160.81 231.08C158.61 226.96 155.87 222.63 152.47 218.3C149.94 215.08 147.54 212.05 145.29 209.17C144.19 207.76 143.13 206.39 142.1 205.06C136.56 197.83 132.21 191.61 129.71 185.95C129.38 185.19 128.96 183.87 128.52 182.52C129.58 182.33 130.64 182.18 131.68 182.07C134.94 190.69 138.52 198.54 142.09 203.2C142.16 203.3 142.24 203.4 142.31 203.5C143.23 204.67 144.23 205.83 145.27 206.96C155.57 218.13 171.34 227.44 182.52 233.18C183.63 233.75 184.7 234.29 185.71 234.79C191.72 237.76 195.77 239.41 195.77 239.41C195.77 239.41 196.59 238.45 200.7 229.54C204.81 220.63 214.41 188.14 207.01 159.09C201.21 136.33 196.51 124.5 185.71 110.23C184.7 108.9 183.64 107.55 182.52 106.16C180.32 103.44 177.9 100.6 175.2 97.54C172.82 94.85 170.34 92.59 167.81 90.68C166.73 89.87 165.65 89.11 164.56 88.42C167.24 88.38 175.19 89.41 176.57 89.59C176.7 89.61 176.78 89.62 176.78 89.62C176.78 89.62 171.33 83.86 155.91 80.98C151.96 80.24 148.39 79.91 145.27 79.82C144.15 79.79 143.09 79.79 142.08 79.81C134.99 79.98 130.93 81.36 130.93 81.36C115.36 106.92 117.42 130.9 118.41 137.62C118.31 137.67 118.22 137.71 118.12 137.76C117.51 138.05 116.89 138.36 116.27 138.68C115.74 135.29 115.31 131.89 115.04 128.52C114.28 119.15 115.9 109.42 118.27 101.03C118.28 100.99 118.29 100.95 118.3 100.92C121.71 88.91 126.64 79.67 128.33 78.22C130.13 76.67 136.05 75.8 142.09 75.72C143.16 75.71 144.23 75.72 145.28 75.75C147.78 75.83 150.18 76.06 152.19 76.44C158.48 77.63 163.73 78.54 165.37 78.82C165.42 78.82 165.47 78.84 165.51 78.84C165.76 78.88 165.9 78.91 165.9 78.91C165.9 78.91 165.53 78.62 164.8 78.16C162.39 76.65 155.98 73.29 145.29 72.13C144.26 72.02 143.21 71.92 142.1 71.86C141.39 71.82 140.67 71.79 139.93 71.76C140.77 71.24 141.49 70.64 142.1 69.99C142.2 69.88 142.28 69.77 142.38 69.66C144.23 67.54 144.99 65.07 145.29 63.6C145.45 62.82 145.48 62.32 145.48 62.32C145.48 62.32 156.31 64.24 162.61 65.47C166.18 66.17 175.3 69.51 182.54 72.27C183.66 72.7 184.73 73.11 185.73 73.5C189.68 75.03 192.5 76.16 192.5 76.16C192.5 76.16 192.34 76.05 192.05 75.84C191.13 75.19 188.85 73.61 185.73 71.64C184.75 71.02 183.68 70.35 182.54 69.67C180.46 68.41 178.16 67.08 175.74 65.78C175.45 65.62 175.16 65.47 174.87 65.32C174.62 65.19 174.38 65.06 174.13 64.93C172.35 64 170.17 63.17 167.78 62.43C168.24 61.74 168.87 60.93 169.66 60.11C171.01 58.71 172.85 57.31 175.24 56.52C175.7 56.37 176.18 56.24 176.68 56.14C177.13 56.05 177.59 55.98 178.07 55.93C178.26 55.91 178.46 55.89 178.66 55.88C178.95 55.87 179.25 55.86 179.55 55.86C180.5 55.86 181.51 55.95 182.55 56.1C183.59 56.25 184.65 56.46 185.74 56.74C193.08 58.59 201.17 63.08 204.84 67.26C207.81 70.64 212.46 75.3 217.36 79C218.42 79.79 219.48 80.54 220.55 81.22C222.77 82.64 224.98 83.77 227.04 84.39C232.95 86.18 237.14 85.61 238.7 83.13C238.81 82.96 238.91 82.78 238.99 82.59C239.26 81.96 239.4 81.23 239.38 80.41C239.38 80.23 239.38 80.07 239.38 79.9C239.39 78.96 239.51 78.22 239.7 77.69C239.73 77.62 239.76 77.56 239.78 77.49C239.93 77.14 240.12 76.9 240.33 76.76C240.55 76.87 240.86 76.96 241.09 77.12C241.57 77.46 242.19 78.42 242.53 82.74C242.87 87.06 241.84 89.25 240.13 92.06C238.42 94.87 231.29 96.51 227.66 95.62C224.03 94.73 221.42 91.92 221.42 91.92C221.33 92.39 220.88 92.99 220.55 93.38C220.35 93.62 220.19 93.77 220.19 93.77C220.19 93.77 220.19 93.43 219.78 91.44C219.5 90.06 218.16 88.79 217.36 88.13C217.01 87.84 216.76 87.67 216.76 87.67C216.76 87.67 216.9 88.15 216.97 89.18C217.04 90.21 216.49 91.65 216.49 91.65C216.49 91.65 216.28 90.96 215.6 89.46C214.91 87.95 211.49 85.76 211.49 85.76C211.49 85.76 211.9 86.58 212.24 88.64C212.41 89.68 212.45 90.8 212.44 91.64C209.46 87.31 207.1 84.96 206.5 84.39C206.41 84.3 206.35 84.25 206.35 84.25C206.36 84.29 206.37 84.33 206.39 84.37C206.39 84.37 206.39 84.37 206.39 84.38C207.83 89.21 209.99 94.46 211.87 98.99C212.33 100.1 212.77 101.17 213.19 102.18C213.99 104.15 214.68 105.89 215.13 107.28C215.77 109.24 216.44 111.93 217.37 115.45C218.18 118.51 219.19 122.19 220.56 126.56C222.03 131.27 223.9 136.78 226.37 143.19C231.55 156.62 242.77 168.77 253.84 176.08C254.91 176.78 255.97 177.44 257.03 178.05C260.68 180.16 264.25 181.7 267.5 182.53C274.11 184.21 280.68 187.18 285.78 189.85C286.7 190.33 287.56 190.8 288.38 191.25C288.58 191.36 288.77 191.47 288.97 191.58C289.3 191.76 289.62 191.95 289.93 192.12C289.62 193.18 289.3 194.24 288.97 195.29C288.51 196.76 288.02 198.21 287.51 199.67C287.17 200.64 286.82 201.61 286.46 202.58C286.17 202.4 285.86 202.21 285.52 202.02C283.07 200.64 279.29 199.01 273.98 198.02C263.72 196.1 260.17 196.03 257.04 196.11C256.93 196.11 256.81 196.11 256.7 196.11C255.76 196.14 254.78 196.26 253.85 196.49C251.6 197.05 249.61 198.26 249.01 200.48C248.16 203.61 249.67 204.85 247.68 207.32C245.69 209.79 243.12 210.17 241.32 210.26C239.52 210.35 236.67 213.2 236.86 217.1C237.05 220.99 238.76 221.28 237.43 222.61C236.1 223.94 230.69 223.18 229.26 223.56C227.84 223.94 225.46 227.83 225.56 231.44C225.65 235.05 226.89 237.14 225.56 238.28C224.23 239.42 222.71 238.37 221.57 239.99C221.23 240.47 220.86 241.42 220.58 242.65C220.15 244.5 219.93 246.99 220.31 249.45C220.38 249.9 220.46 250.35 220.58 250.79C220.83 251.75 221.18 252.69 221.66 253.57C222.56 255.18 223.62 256.65 224.75 258.09C223.55 258.77 222 259.74 220.58 260.96C219.31 262.04 218.13 263.31 217.39 264.71C217.35 264.78 217.32 264.84 217.28 264.91C214.98 269.58 211.18 276.31 211.18 276.31C211.18 276.31 214.98 277.34 218.89 277.43C217.17 278.29 215.44 279.11 213.69 279.89L213.57 279.86ZM220.17 284.22L219.29 281.78C221.9 280.51 224.47 279.17 227 277.74L228.71 279.73C225.91 281.32 223.07 282.82 220.18 284.22H220.17ZM226.47 271.89C223.28 272.67 221.69 273.07 220.46 272.75C220.12 272.66 219.8 272.52 219.48 272.3C218.63 271.73 219.07 269.95 220.46 268C221.4 266.68 222.78 265.28 224.51 264.12C224.58 264.07 224.65 264.02 224.72 263.97C226.13 263.06 227.13 262.44 227.85 262.02C229.24 263.74 230.63 265.57 231.88 267.69C232.05 267.98 232.23 268.28 232.42 268.58C231.52 269.33 230.33 270.21 229.01 270.89C228.2 271.31 227.34 271.67 226.46 271.88L226.47 271.89ZM231.51 278.1L229.81 276.11C230.03 275.98 230.24 275.85 230.46 275.72C230.24 275.85 230.02 275.97 229.8 276.1C229.56 276.23 229.33 276.36 229.09 276.5C229.32 276.36 229.56 276.23 229.79 276.09C231.62 275 233.42 273.87 235.2 272.7C235.2 272.7 235.21 272.71 235.22 272.72C235.25 272.76 235.28 272.8 235.3 272.83C235.78 273.49 236.27 274.15 236.77 274.78C235.04 275.92 233.29 277.04 231.52 278.1H231.51ZM304.06 256.16C304.06 256.16 302.11 256.73 301.92 258.49C301.83 259.33 302.03 260.02 302.47 260.6C302.03 260.54 301.57 260.48 301.1 260.42C297.65 259.99 293.51 259.64 290.83 259.97C285.51 260.63 280.48 260.59 275.16 261.54C271.34 262.22 265.8 262.09 261.5 261.22C260.77 261.07 260.08 260.9 259.43 260.71C258.6 260.46 257.84 260.19 257.21 259.87C256.99 259.76 256.77 259.64 256.55 259.52C256.45 259.47 256.35 259.41 256.26 259.35C255.7 259.02 255.13 258.64 254.56 258.22C254.4 258.1 254.24 257.99 254.08 257.87C253.92 257.75 253.76 257.61 253.6 257.48C252.71 256.76 251.83 255.96 250.98 255.1C248.91 252.98 247.05 250.5 245.9 248.06C244.66 245.42 242.5 243.15 240.42 241.39C238.68 239.91 237.01 238.78 235.97 238.09C235.11 237.52 234.74 237.51 234.62 237.76C234.43 238.17 234.94 239.26 235.11 239.61C235.23 239.85 236.2 241.36 237.53 243.43C236.91 243.12 236.31 242.9 235.77 242.74C234.97 242.5 234.32 242.39 234 242.35C233.97 242.35 233.94 242.35 233.91 242.34C233.82 242.33 233.77 242.32 233.77 242.32C233.77 242.32 233.92 242.54 234.43 242.97C234.86 243.33 235.55 243.85 236.62 244.51C236.99 244.74 237.34 244.97 237.66 245.2C238.67 245.92 239.42 246.62 239.86 247.06C242.54 251.22 245.54 255.91 246.49 257.66C246.66 257.97 246.85 258.29 247.06 258.61C247.4 259.14 247.78 259.68 248.19 260.23C248.29 260.59 248.36 260.91 248.39 261.18C248.4 261.28 248.41 261.37 248.42 261.47C248.42 261.51 248.42 261.55 248.43 261.6C248.47 262.04 248.49 262.45 248.49 262.83C248.49 263.04 248.49 263.25 248.47 263.44C248.44 263.83 248.4 264.19 248.34 264.5C248.25 265.01 248.12 265.4 248.02 265.65C247.94 265.83 247.85 266.06 247.75 266.3C247.65 266.54 247.55 266.79 247.46 267.01C247.3 267.42 247.17 267.74 247.17 267.74C247.17 267.74 247.26 267.69 247.4 267.59C247.84 267.29 248.84 266.59 249.71 265.8C250.24 265.31 250.73 264.78 251 264.28C251.06 264.17 251.1 264.07 251.14 263.97C251.14 263.97 251.14 263.95 251.15 263.94C251.17 263.9 251.18 263.87 251.19 263.83C251.2 263.85 251.22 263.86 251.24 263.88C251.99 264.71 252.59 265.33 252.86 265.6C252.93 265.67 252.98 265.72 253 265.74C253.08 265.82 254.25 266.05 256.02 266.31C257.06 266.46 258.3 266.62 259.65 266.76C260.82 266.94 261.47 267.02 261.78 267.08C262.35 267.18 263.58 268.46 264.25 270.17C264.91 271.88 265.15 273.07 265.15 273.07C265.15 273.07 268.62 271.69 271.56 271.69C274.5 271.69 280.2 273.35 282.19 275.44C283.09 276.38 283.64 277.27 283.98 277.95C282.72 277.45 280.9 276.88 278.63 276.57C278.44 276.54 278.26 276.53 278.08 276.52C275.54 276.41 274.61 278.12 275 279.6C273.03 279.01 271.01 278.51 269.37 278.35C264.24 277.85 264.51 275.7 258.72 276.56C252.93 277.41 250.74 277.6 249.32 277.41C247.9 277.22 246.9 276.66 246.9 276.66C246.9 276.66 246.15 276.06 245.05 275.1C244.01 274.2 242.67 272.98 241.34 271.64C240.79 271.09 240.25 270.51 239.74 269.93C239.68 269.87 239.63 269.8 239.57 269.74C239.15 269.27 238.77 268.79 238.4 268.32C237.9 267.67 237.45 267.03 237.11 266.41C236.96 266.15 236.83 265.9 236.72 265.65C235.85 263.69 234.57 261.81 233.25 260.12C231.56 257.95 229.79 256.09 228.67 254.75C226.68 252.38 226.2 247.25 227.15 244.87C228.1 242.5 228.93 242.35 230.36 241.97C231.78 241.59 231.64 238.96 230.79 236.01C229.94 233.06 230.79 228.98 232.4 228.32C234.01 227.66 237.67 228.63 240.52 226.16C243.37 223.69 242.94 222.16 242.37 219.79C241.8 217.42 241.9 214 245.03 213.62C248.16 213.24 252.5 211.02 253.17 208.18C253.36 207.37 253.52 206.59 253.7 205.84C254.15 203.96 254.72 202.31 256.15 201.09C256.32 200.94 256.57 200.81 256.89 200.7C260.2 199.48 270.79 200.13 277.12 203.25C277.33 203.36 277.54 203.46 277.74 203.57C278.55 204 279.29 204.45 279.97 204.91C281.38 205.87 282.52 206.88 283.43 207.83C283.62 208.02 283.79 208.21 283.95 208.4C283.19 210.17 282.39 211.93 281.55 213.66C281.49 213.52 281.42 213.39 281.35 213.25C280.88 212.36 280.28 211.6 280.28 211.6L280.09 212.55C279.96 213.2 279.48 213.88 279.19 214.26C279.09 214.24 278.99 214.22 278.88 214.2C278.81 213.86 278.69 213.28 278.52 212.46C278.24 211.08 277.29 210.37 277.29 210.37V211.46C277.29 212.36 276.45 213.59 276.15 213.99C276.13 213.99 276.11 213.99 276.09 213.99C276.15 213.71 276.28 212.93 276.25 211.27C276.2 209.09 274.92 207.23 274.92 207.23C274.92 207.23 274.87 207.56 274.87 209.79C274.87 211.35 274.34 212.54 274.02 213.11C273.54 211.53 272.36 208.41 270.08 206.75C269.44 206.28 268.88 205.91 268.4 205.6C267.52 205.04 266.9 204.73 266.49 204.56C266.02 204.36 265.81 204.33 265.81 204.33C265.81 204.33 265.85 204.37 265.92 204.45C266.13 204.7 266.63 205.29 267.27 206.07C269.09 208.31 272 212.12 272.29 213.87C272.72 216.43 271.79 219.14 271.79 219.14C271.79 219.14 273.64 218.29 274.35 215.94C274.35 215.94 274.4 215.94 274.47 215.94C274.64 216.25 274.9 216.79 274.85 217.22L274.78 217.86C274.78 217.86 275.65 216.82 275.48 215.98C276.72 216.05 278.69 216.24 279.89 216.71C279.95 216.73 280 216.75 280.05 216.78C280.21 216.85 280.36 216.92 280.48 217C280.75 217.18 281.02 217.4 281.28 217.63C281.37 217.71 281.45 217.79 281.53 217.87C281.8 218.13 282.06 218.4 282.29 218.68C282.62 219.09 282.91 219.52 283.1 219.9C283.28 220.25 283.39 220.57 283.41 220.84C283.48 221.84 283.48 222.19 283.48 222.19C283.48 222.19 283.61 222.16 283.77 222.07C284.09 221.89 284.56 221.45 284.63 220.45C284.64 220.25 284.64 220.03 284.62 219.78C284.69 219.82 284.79 219.88 284.88 219.96C285.11 220.13 285.36 220.35 285.43 220.59C285.46 220.69 285.49 220.77 285.51 220.83C285.6 221.09 285.64 221.16 285.64 221.16C285.64 221.16 285.93 220.64 285.95 219.98C285.95 219.97 285.95 219.95 285.95 219.94C285.95 219.64 285.91 219.32 285.74 218.99C285.74 218.98 285.73 218.97 285.72 218.96C285.99 218.8 286.32 218.65 286.7 218.5C287.23 218.29 287.85 218.11 288.59 217.99C290.09 217.76 291.39 217.76 292.53 217.91C294.85 218.21 296.43 219.15 297.33 220.17C294.5 219.5 291.48 220.28 291.48 220.28C291.48 220.28 291.35 220.39 291.22 220.6C291.15 220.71 291.08 220.84 291.03 221C290.99 221.12 290.95 221.26 290.93 221.41C290.88 221.84 290.94 222.38 291.29 223.04C291.74 223.89 292.01 224.34 292.38 224.64C291.12 224.71 289.83 224.87 288.92 225.01C288.27 225.11 287.8 225.2 287.69 225.24C286.58 225.64 284.54 226.15 282.32 226.58C281.88 226.66 281.45 226.75 281 226.82C280.34 226.93 279.67 227.03 279.01 227.12C278.2 227.23 277.41 227.31 276.68 227.35C276.4 227.37 276.12 227.38 275.85 227.39C275.82 227.39 275.8 227.39 275.77 227.39C275.64 227.39 275.51 227.39 275.38 227.39C275.3 227.39 275.22 227.39 275.15 227.39C274.98 227.39 274.81 227.38 274.65 227.37C274.44 227.36 274.23 227.34 274.02 227.33C270.9 227.05 268.54 225.76 266.31 222.25C264.77 219.83 261.37 217.61 258.78 215.81C258.06 215.31 257.41 214.84 256.87 214.42C256.21 213.89 255.73 213.42 255.53 213.02C255.06 212.05 254.21 211.22 253.68 211.07C253.16 210.92 252.94 211.4 253.68 213.02C253.68 213.02 254.16 213.63 254.9 214.6C254.43 214.44 254.02 214.39 253.68 214.4C253.03 214.42 252.64 214.63 252.64 214.63C252.64 214.63 252.66 214.63 252.68 214.65C252.79 214.71 253.21 214.91 254.44 215.53C255.34 215.98 256.45 216.93 257.21 217.63C257.29 217.73 257.36 217.83 257.44 217.94C259.66 220.89 262.25 224.41 263.36 226.27C264.07 227.45 265.37 228.56 266.96 229.49C267.38 230.08 267.76 230.73 267.92 231.35C268.34 232.95 267.57 236.2 267.39 236.9C267.37 236.99 267.35 237.04 267.35 237.04C267.35 237.04 267.52 236.78 267.76 236.4C268.38 235.43 269.49 233.61 269.63 232.86L269.82 231.82C269.82 231.82 269.99 232.38 270.17 233.09C270.28 233.54 270.4 234.05 270.47 234.52C270.47 234.54 270.47 234.55 270.47 234.57C270.53 234.94 270.57 235.2 270.59 235.38C270.59 235.44 270.61 235.49 270.61 235.54C270.65 235.8 270.65 235.81 270.65 235.81C270.65 235.81 271.23 234.89 271.56 234.06C271.58 234 271.61 233.94 271.63 233.89C271.73 233.62 271.79 233.36 271.79 233.16V232.31C271.79 232.31 271.79 232.31 271.81 232.31C271.87 232.33 272.13 232.42 272.52 232.56C272.52 232.56 272.52 232.56 272.53 232.56C273.1 232.76 273.96 233.07 274.94 233.44C275.34 233.59 275.76 233.75 276.19 233.92C276.59 234.08 276.99 234.24 277.4 234.41C279.13 235.12 280.85 235.91 281.93 236.59C282.07 236.68 282.21 236.77 282.33 236.86C284.8 238.66 285.08 238.85 285.18 239.61L285.27 240.37C285.27 240.37 285.84 238.57 287.64 237.9C289.44 237.24 292.77 236.76 295.71 237.71C297.63 238.33 299.82 239.33 301.36 240.1C299.41 240.06 298.2 240.36 297.43 240.82C297.1 241.01 296.85 241.23 296.66 241.47C295.81 242.51 295.33 244.94 298.56 246.45C299.08 246.69 299.65 246.89 300.25 247.05C300.58 247.13 300.91 247.21 301.25 247.27C300.71 247.28 300.17 247.24 299.64 247.16C297.32 246.82 295.27 245.81 295.27 245.81C289.95 244.48 286.91 243.53 282.93 243.53C280.98 243.53 279.07 243.43 277.19 243.31C275.21 243.18 273.27 243.03 271.38 242.94C271.33 242.94 271.27 242.94 271.22 242.94C270.52 242.91 269.83 242.93 269.14 242.94C268.72 242.95 268.31 242.96 267.9 242.97C267.2 242.97 266.52 242.95 265.84 242.86C265.58 242.82 265.33 242.78 265.07 242.72C265.04 242.72 265.01 242.71 264.97 242.7C264.4 242.56 263.85 242.36 263.29 242.06C262.45 241.61 261.63 240.94 260.84 239.96C258.46 237.02 253.89 233.7 250.27 230.86C249.99 230.43 249.68 229.96 249.37 229.47C248.95 228.81 248.54 228.14 248.21 227.54C247.14 225.58 247 225.3 247 225.3C247 225.3 246.36 226.01 246.57 227.51C246.58 227.61 246.62 227.71 246.64 227.8C243.81 225.18 242.66 224.98 243.27 226.25C243.35 226.42 243.45 226.6 243.59 226.82C243.72 227.02 245.55 228.99 247.83 231.53C250.59 234.59 254.01 238.47 255.93 241.06C257.58 243.29 258.58 244.83 259.98 245.89C260.59 246.35 261.27 246.71 262.11 247C262.34 247.08 262.58 247.15 262.84 247.22C263.05 247.28 263.26 247.33 263.48 247.38C263.54 247.48 263.6 247.58 263.65 247.68C263.23 247.68 262.81 247.75 262.4 247.84C262.08 247.92 261.76 248.01 261.47 248.12C260.02 248.66 258.92 249.5 258.92 249.5L260.53 249.41C260.76 249.4 261.02 249.4 261.28 249.41C261.41 249.41 261.54 249.41 261.68 249.42C261.9 249.42 262.12 249.44 262.34 249.46C262.67 249.48 262.99 249.52 263.3 249.55C263.62 249.58 263.91 249.62 264.17 249.65C263.85 249.81 263.51 250.02 263.16 250.27C262.99 250.39 262.81 250.53 262.64 250.68C262.1 251.15 261.52 251.58 261.02 251.94C260.2 252.52 259.58 252.89 259.58 252.89C259.58 252.89 259.84 252.82 260.28 252.7C260.99 252.51 262.17 252.21 263.59 251.89C264.14 251.77 264.73 251.64 265.34 251.52C266 251.39 266.68 251.26 267.37 251.15C268.68 250.93 270.01 250.76 271.23 250.69C271.25 250.69 271.28 250.69 271.3 250.69C275.01 250.48 280.86 251.21 283.41 252.44C285.97 253.67 287.07 255.93 287.64 256.69C287.99 257.16 288.23 257.51 288.37 257.72C288.45 257.85 288.5 257.92 288.5 257.92C288.5 257.92 288.59 257.76 288.75 257.51C289.36 256.54 290.98 254.13 292.41 253.6C294.21 252.94 299.7 254.12 302.45 254.6C305.09 255.06 307.73 255.86 308.44 256.51C307.38 256.37 305.93 256.25 303.97 256.21L304.06 256.16Z" fill="#3E3F55"/>
</g>
<defs>
<clipPath id="clip0_2076_190">
<rect width="315.74" height="309.83" fill="white"/>
</clipPath>
</defs>
</svg>
