<?xml version="1.0" encoding="utf-8"?>
<!-- Generator: Adobe Illustrator 25.2.1, SVG Export Plug-In . SVG Version: 6.00 Build 0)  -->
<svg version="1.1" id="Layer_1" xmlns="http://www.w3.org/2000/svg" xmlns:xlink="http://www.w3.org/1999/xlink" x="0px" y="0px"
	 viewBox="0 0 25 50" style="enable-background:new 0 0 25 50;" xml:space="preserve">
<style type="text/css">
	.st0{fill:#3E3F55;}
	.st1{fill:#696A8F;}
</style>
<path class="st0" d="M21.3,0H3.7C1.6,0,0,1.6,0,3.7c0,0,0,0,0,0v17.7c0,2,1.6,3.7,3.7,3.7H11v-8.8H8.1v-4.4H11v-3
	c0-2.4,2-4.4,4.4-4.4h4.4v4.4h-4.4v3h4.4l-0.7,4.4h-3.7V25h5.9c2,0,3.7-1.6,3.7-3.7V3.7C25,1.6,23.4,0,21.3,0z"/>
<path class="st1" d="M21.3,25H3.7c-2,0-3.7,1.6-3.7,3.7v17.7c0,2,1.6,3.7,3.7,3.7H11v-8.8H8.1v-4.4H11v-3c0-2.4,2-4.4,4.4-4.4h4.4
	v4.4h-4.4v3h4.4l-0.7,4.4h-3.7V50h5.9c2,0,3.7-1.6,3.7-3.7V28.7C25,26.6,23.4,25,21.3,25z"/>
</svg>
