<svg id="Layer_1" data-name="Layer 1" xmlns="http://www.w3.org/2000/svg" viewBox="0 0 25 50"><defs><style>.cls-1{fill:#f2f2f2;}.cls-2{fill:#8d8e8f;}</style></defs><path class="cls-1" d="M21.34,0H3.66A3.66,3.66,0,0,0,0,3.66V21.34A3.66,3.66,0,0,0,3.66,25H11V16.16H8.11V11.77H11v-3a4.4,4.4,0,0,1,4.39-4.4h4.44v4.4H15.43v3h4.44l-.73,4.39H15.43V25h5.91A3.66,3.66,0,0,0,25,21.34V3.66A3.66,3.66,0,0,0,21.34,0Z"/><path class="cls-2" d="M21.34,25H3.66A3.66,3.66,0,0,0,0,28.66V46.34A3.66,3.66,0,0,0,3.66,50H11V41.16H8.11V36.77H11v-3a4.4,4.4,0,0,1,4.39-4.4h4.44v4.4H15.43v3h4.44l-.73,4.39H15.43V50h5.91A3.66,3.66,0,0,0,25,46.34V28.66A3.66,3.66,0,0,0,21.34,25Z"/></svg>