<svg width="120" height="236" viewBox="0 0 120 236" fill="none" xmlns="http://www.w3.org/2000/svg">
<g clip-path="url(#clip0_2063_23)">
<path d="M100.523 3.21455V5.79019H106.783V210.423V229.92H84.0416V232.496H109.343V210.423V3.21455H100.523Z" fill="#333333"/>
<path d="M2.55995 210.423V5.79019H24.6767V3.21455H0V232.496H41.0881V229.92H2.55995V210.423Z" fill="#333333"/>
<path d="M21.333 215.455V221.095H8.45386V215.724C8.45386 213.029 9.95212 211.591 12.1846 211.591C13.6531 211.591 14.4668 212.61 14.7347 213.009C15.0621 212.48 15.7269 211.412 17.5427 211.412C20.0034 211.412 21.3429 213.139 21.3429 215.455H21.333ZM11.3016 215.934V217.921H13.3952V215.934C13.3952 215.066 12.8494 214.786 12.3434 214.786C11.8374 214.786 11.2916 215.056 11.2916 215.934H11.3016ZM16.2329 215.764V217.911H18.4952V215.764C18.4952 214.886 17.8999 214.596 17.3541 214.596C16.8084 214.596 16.2329 214.886 16.2329 215.764Z" fill="#333333"/>
<path d="M21.333 202.207L16.5405 204.503V205.582H21.333V208.766H8.45386V203.635C8.45386 200.76 10.478 199.212 12.6014 199.212C14.3576 199.212 15.459 200.301 15.965 201.329L21.333 198.524V202.217V202.207ZM11.3016 203.775V205.582H13.9111V203.775C13.9111 202.906 13.2761 202.387 12.6113 202.387C11.9465 202.387 11.3115 202.896 11.3115 203.775H11.3016Z" fill="#333333"/>
<path d="M21.333 196.437H8.45386V187.632H11.2718V193.252H13.4249V188.451H16.2428V193.252H18.5051V187.632H21.323V196.437H21.333Z" fill="#333333"/>
<path d="M21.333 173.286V175.892L14.9827 177.988L21.333 180.085V182.67L8.45386 186.234V182.9L15.2605 181.203L8.45386 179.106V176.85L15.2605 174.754L8.45386 173.057V169.722L21.333 173.276V173.286Z" fill="#333333"/>
<path d="M21.333 167.975H8.45386V159.17H11.2718V164.791H13.4249V159.989H16.2428V164.791H18.5051V159.17H21.323V167.975H21.333Z" fill="#333333"/>
<path d="M21.333 150.016L16.5405 152.312V153.39H21.333V156.575H8.45386V151.443C8.45386 148.568 10.478 147.021 12.6014 147.021C14.3576 147.021 15.459 148.109 15.965 149.137L21.333 146.332V150.026V150.016ZM11.3016 151.583V153.39H13.9111V151.583C13.9111 150.715 13.2761 150.195 12.6113 150.195C11.9465 150.195 11.3115 150.705 11.3115 151.583H11.3016Z" fill="#333333"/>
<path d="M21.442 140.911C21.442 142.898 21.0848 144.515 19.7453 145.823L17.7212 143.786C18.386 143.117 18.6241 141.929 18.6241 140.891C18.6241 139.633 18.2074 139.034 17.4632 139.034C17.1556 139.034 16.8976 139.104 16.6992 139.294C16.5404 139.454 16.4114 139.733 16.3519 140.152L16.1336 141.72C15.9749 142.868 15.5879 143.736 14.9926 144.325C14.3774 144.924 13.5042 145.214 12.4028 145.214C10.0513 145.214 8.33472 143.427 8.33472 140.482C8.33472 138.625 8.7713 137.227 9.87267 136.109L11.867 138.116C11.0534 138.935 11.103 140.013 11.103 140.572C11.103 141.68 11.7381 142.139 12.2937 142.139C12.4525 142.139 12.6906 142.089 12.889 141.88C13.0478 141.72 13.2165 141.44 13.2661 140.991L13.4844 139.424C13.6431 138.256 14.0103 137.417 14.556 136.878C15.2208 136.189 16.1832 135.91 17.3739 135.91C19.9934 135.91 21.4222 138.186 21.4222 140.911H21.442Z" fill="#333333"/>
<path d="M21.333 121.624L19.418 122.223V126.206L21.333 126.845V130.179L8.45386 125.467V123.012L21.333 118.299V121.634V121.624ZM13.3455 124.15L16.7786 125.318V123.061L13.3455 124.15Z" fill="#333333"/>
<path d="M21.442 113.198C21.442 115.185 21.0848 116.802 19.7453 118.11L17.7212 116.073C18.386 115.404 18.6241 114.216 18.6241 113.178C18.6241 111.92 18.2074 111.321 17.4632 111.321C17.1556 111.321 16.8976 111.391 16.6992 111.581C16.5404 111.741 16.4114 112.02 16.3519 112.439L16.1336 114.007C15.9749 115.155 15.5879 116.023 14.9926 116.612C14.3774 117.211 13.5042 117.501 12.4028 117.501C10.0513 117.501 8.33472 115.714 8.33472 112.769C8.33472 110.912 8.7713 109.514 9.87267 108.396L11.867 110.403C11.0534 111.221 11.103 112.3 11.103 112.859C11.103 113.967 11.7381 114.426 12.2937 114.426C12.4525 114.426 12.6906 114.376 12.889 114.167C13.0478 114.007 13.2165 113.727 13.2661 113.278L13.4844 111.711C13.6431 110.543 14.0103 109.704 14.556 109.165C15.2208 108.476 16.1832 108.197 17.3739 108.197C19.9934 108.197 21.4222 110.473 21.4222 113.198H21.442Z" fill="#333333"/>
<path d="M21.442 102.317C21.442 104.303 21.0848 105.92 19.7453 107.228L17.7212 105.192C18.386 104.523 18.6241 103.335 18.6241 102.297C18.6241 101.039 18.2074 100.44 17.4632 100.44C17.1556 100.44 16.8976 100.51 16.6992 100.699C16.5404 100.859 16.4114 101.139 16.3519 101.558L16.1336 103.125C15.9749 104.273 15.5879 105.142 14.9926 105.731C14.3774 106.33 13.5042 106.619 12.4028 106.619C10.0513 106.619 8.33472 104.832 8.33472 101.887C8.33472 100.03 8.7713 98.6328 9.87267 97.5147L11.867 99.5213C11.0534 100.34 11.103 101.418 11.103 101.977C11.103 103.085 11.7381 103.545 12.2937 103.545C12.4525 103.545 12.6906 103.495 12.889 103.285C13.0478 103.125 13.2165 102.846 13.2661 102.396L13.4844 100.829C13.6431 99.6611 14.0103 98.8225 14.556 98.2834C15.2208 97.5946 16.1832 97.3151 17.3739 97.3151C19.9934 97.3151 21.4222 99.5912 21.4222 102.317H21.442Z" fill="#333333"/>
<path d="M20.0032 86.9926C20.9459 87.9409 21.4519 89.0291 21.4519 90.6164C21.4519 92.2037 20.9459 93.2919 20.0032 94.2403C18.6439 95.608 16.838 95.5481 14.9032 95.5481C12.9684 95.5481 11.1625 95.598 9.80314 94.2403C8.86053 93.2919 8.35449 92.2037 8.35449 90.6164C8.35449 89.0291 8.86053 87.9409 9.80314 86.9926C11.1625 85.6249 12.9684 85.6848 14.9032 85.6848C16.838 85.6848 18.6439 85.6349 20.0032 86.9926ZM11.7281 89.3386C11.4205 89.5782 11.1724 90.0274 11.1724 90.6164C11.1724 91.2054 11.4304 91.6547 11.7281 91.8943C12.1051 92.1838 12.5417 92.3635 14.8933 92.3635C17.2449 92.3635 17.6616 92.1838 18.0386 91.8943C18.3462 91.6547 18.6141 91.2054 18.6141 90.6164C18.6141 90.0274 18.3462 89.5782 18.0386 89.3386C17.6616 89.0491 17.2449 88.8694 14.8933 88.8694C12.5417 88.8694 12.1051 89.0491 11.7281 89.3386Z" fill="#333333"/>
<path d="M21.4421 78.8863C21.4421 80.3937 20.9361 81.5418 19.9935 82.4902C18.6341 83.8579 16.8283 83.798 14.8934 83.798C12.9586 83.798 11.1527 83.8479 9.79338 82.4902C8.85076 81.5418 8.34473 80.3937 8.34473 78.8863C8.34473 76.4305 9.70408 74.4438 12.5418 73.9746V77.2191C11.8175 77.4188 11.1627 77.8181 11.1627 78.8763C11.1627 79.4553 11.4008 79.8946 11.7084 80.1342C12.0854 80.4237 12.5418 80.6234 14.8934 80.6234C17.245 80.6234 17.7014 80.4237 18.0785 80.1342C18.3861 79.8946 18.6242 79.4653 18.6242 78.8763C18.6242 77.8181 17.9693 77.4188 17.245 77.2191V73.9746C20.0828 74.4438 21.4421 76.4305 21.4421 78.8863Z" fill="#333333"/>
<path d="M21.333 71.8482H8.45386V68.6636H21.333V71.8482Z" fill="#333333"/>
<path d="M21.333 58.3411L19.418 58.9401V62.9234L21.333 63.5623V66.8966L8.45386 62.1846V59.7288L21.333 55.0168V58.3511V58.3411ZM13.3455 60.8768L16.7786 62.0448V59.7887L13.3455 60.8768Z" fill="#333333"/>
<path d="M11.2815 49.4662H21.3427V52.6508H11.2815V55.8354H8.46362V46.2816H11.2815V49.4662Z" fill="#333333"/>
<path d="M21.333 44.5146H8.45386V41.33H21.333V44.5146Z" fill="#333333"/>
<path d="M20.0032 30.4783C20.9459 31.4267 21.4519 32.5149 21.4519 34.1022C21.4519 35.6895 20.9459 36.7777 20.0032 37.7261C18.6439 39.0937 16.838 39.0338 14.9032 39.0338C12.9684 39.0338 11.1625 39.0838 9.80314 37.7261C8.86053 36.7777 8.35449 35.6895 8.35449 34.1022C8.35449 32.5149 8.86053 31.4267 9.80314 30.4783C11.1625 29.1107 12.9684 29.1706 14.9032 29.1706C16.838 29.1706 18.6439 29.1206 20.0032 30.4783ZM11.7281 32.8244C11.4205 33.064 11.1724 33.5132 11.1724 34.1022C11.1724 34.6912 11.4304 35.1404 11.7281 35.38C12.1051 35.6695 12.5417 35.8492 14.8933 35.8492C17.2449 35.8492 17.6616 35.6695 18.0386 35.38C18.3462 35.1404 18.6141 34.6912 18.6141 34.1022C18.6141 33.5132 18.3462 33.064 18.0386 32.8244C17.6616 32.5349 17.2449 32.3552 14.8933 32.3552C12.5417 32.3552 12.1051 32.5349 11.7281 32.8244Z" fill="#333333"/>
<path d="M21.333 19.5469L14.8537 23.6998H21.333V26.8844H8.45386V24.0992L14.9331 19.9462H8.45386V16.7616H21.333V19.5469Z" fill="#333333"/>
<path d="M31.0071 9.01472C29.9752 9.01472 29.2013 8.66532 28.5563 8.01642C27.6236 7.07801 27.6633 5.84011 27.6633 4.50237C27.6633 3.16464 27.6236 1.92674 28.5563 0.988329C29.2013 0.339429 29.9752 -0.00997925 31.0071 -0.00997925C32.6741 -0.00997925 34.0235 0.92843 34.3509 2.87513H32.1482C32.0093 2.37598 31.7414 1.92674 31.0171 1.92674C30.6202 1.92674 30.3225 2.08647 30.1637 2.29611C29.9653 2.55567 29.8264 2.86515 29.8264 4.49239C29.8264 6.11963 29.9653 6.41912 30.1637 6.68867C30.3225 6.89831 30.6202 7.05804 31.0171 7.05804C31.7315 7.05804 32.0093 6.6088 32.1482 6.10965H34.3509C34.0334 8.06633 32.684 8.99476 31.0071 8.99476V9.01472Z" fill="#333333"/>
<path d="M36.7322 8.94484V0.0698853H42.7252V2.01659H38.9052V3.49408H42.1696V5.44078H38.9052V6.99814H42.7252V8.94484H36.7322Z" fill="#333333"/>
<path d="M49.9488 8.94484L48.391 5.64044H47.6567V8.94484H45.4937V0.0698853H48.9863C50.941 0.0698853 51.9927 1.46752 51.9927 2.92505C51.9927 4.133 51.2486 4.89171 50.554 5.24112L52.4591 8.94484H49.9488ZM48.8871 2.02657H47.6567V3.82352H48.8871C49.4824 3.82352 49.8297 3.38427 49.8297 2.92505C49.8297 2.46582 49.4824 2.02657 48.8871 2.02657Z" fill="#333333"/>
<path d="M58.6208 2.01659V8.94484H56.4577V2.01659H54.2947V0.0698853H60.7938V2.01659H58.6307H58.6208Z" fill="#333333"/>
<path d="M63.2842 8.94484V0.0698853H65.4472V8.93486H63.2842V8.94484Z" fill="#333333"/>
<path d="M70.6367 2.01659V3.57395H73.9011V5.52065H70.6367V8.94484H68.4736V0.0698853H74.4667V2.01659H70.6466H70.6367Z" fill="#333333"/>
<path d="M77.0862 8.94484V0.0698853H79.2492V8.93486H77.0862V8.94484Z" fill="#333333"/>
<path d="M82.2755 8.94484V0.0698853H88.2686V2.01659H84.4485V3.49408H87.7129V5.44078H84.4485V6.99814H88.2686V8.94484H82.2755Z" fill="#333333"/>
<path d="M96.6826 8.06633C96.0774 8.6753 95.2241 8.93486 94.3013 8.93486H91.0369V0.0698853H94.3013C95.2141 0.0698853 96.0675 0.329445 96.6826 0.938413C97.7146 1.97665 97.5955 3.10474 97.5955 4.50237C97.5955 5.9 97.7046 7.02809 96.6826 8.06633ZM95.2042 2.51574C95.0058 2.21625 94.7081 2.01659 94.1624 2.01659H93.2098V6.99814H94.1624C94.7081 6.99814 95.0058 6.79848 95.2042 6.49899C95.3729 6.24941 95.4424 6.00982 95.4424 4.50237C95.4424 2.99493 95.3828 2.75533 95.2042 2.50576V2.51574Z" fill="#333333"/>
<path d="M48.9565 127.254H45.9897V131.507H48.9565C50.3258 131.507 51.1791 130.698 51.1791 129.391C51.1791 128.083 50.3059 127.254 48.9565 127.254Z" fill="#333333"/>
<path d="M58.978 134.592H62.9469L60.9923 128.662L58.978 134.592Z" fill="#333333"/>
<path d="M37.933 103.185H36.5042V117.85H37.933C40.1952 117.85 41.505 116.742 41.505 113.438V107.608C41.505 104.483 40.4929 103.195 37.933 103.195V103.185Z" fill="#333333"/>
<path d="M41.7529 80.5635C41.7529 78.477 40.7408 77.4388 38.7167 77.4388H36.5139V83.6981H38.7167C40.7408 83.6981 41.7529 82.6499 41.7529 80.5734V80.5635Z" fill="#333333"/>
<path d="M97.0697 24.4286C96.9605 23.8496 96.8316 23.2805 96.6728 22.7315C96.514 22.1824 96.3255 21.6633 96.1072 21.1541C95.3432 19.3772 94.2021 17.8198 92.5253 16.492C92.4955 16.4721 92.4658 16.4521 92.4261 16.4321C92.4161 16.4321 92.3963 16.4222 92.3764 16.4122C92.3467 16.4022 92.3169 16.3822 92.2872 16.3722C92.2673 16.3722 92.2475 16.3523 92.2177 16.3523C92.1879 16.3423 92.1482 16.3323 92.1086 16.3123C92.0788 16.3123 92.0589 16.2924 92.0292 16.2924C91.9895 16.2824 91.9498 16.2724 91.9002 16.2624C91.8704 16.2624 91.8406 16.2425 91.801 16.2425C91.7513 16.2325 91.7017 16.2225 91.6521 16.2125C91.6224 16.2125 91.5827 16.1926 91.5529 16.1926C91.5033 16.1826 91.4438 16.1726 91.3842 16.1626C91.3445 16.1626 91.3148 16.1526 91.2751 16.1426C91.2056 16.1327 91.1362 16.1227 91.0667 16.1027C91.0369 16.1027 90.9973 16.0927 90.9675 16.0827C90.8583 16.0628 90.7492 16.0528 90.64 16.0328C90.5309 16.0129 90.4118 16.0029 90.3027 15.9829C90.1737 15.9629 90.0447 15.953 89.9058 15.933C88.9235 15.8232 87.713 15.7134 86.3536 15.6335C85.9964 15.6135 85.6293 15.5836 85.2523 15.5636C84.3394 15.5137 83.3769 15.4638 82.3748 15.4239C81.9779 15.4039 81.5711 15.3939 81.1643 15.3739C78.7135 15.2841 76.1138 15.2042 73.6531 15.1543C71.3015 15.1044 69.069 15.0744 67.1937 15.0545C67.1243 15.0545 67.0548 15.0545 66.9853 15.0545C66.7472 15.0545 66.519 15.0545 66.2908 15.0545C66.261 15.0545 66.2313 15.0545 66.1916 15.0545C65.9534 15.0545 65.7252 15.0545 65.5069 15.0545C65.4772 15.0545 65.4474 15.0545 65.4176 15.0545C64.991 15.0545 64.5941 15.0545 64.2369 15.0545C64.1773 15.0545 64.1277 15.0545 64.0682 15.0545C63.8995 15.0545 63.7408 15.0545 63.5919 15.0545C63.5721 15.0545 63.5522 15.0545 63.5324 15.0545C63.3736 15.0545 63.2149 15.0545 63.076 15.0545C63.076 15.0545 63.0561 15.0545 63.0462 15.0545C62.9073 15.0545 62.7684 15.0545 62.6493 15.0545C62.5302 15.0545 62.4013 15.0545 62.2524 15.0545C62.2524 15.0545 62.2326 15.0545 62.2227 15.0545C62.0837 15.0545 61.9349 15.0545 61.7662 15.0545C61.7464 15.0545 61.7265 15.0545 61.7067 15.0545C61.5579 15.0545 61.3991 15.0545 61.2304 15.0545C61.1808 15.0545 61.1213 15.0545 61.0617 15.0545C60.7045 15.0545 60.3077 15.0545 59.881 15.0545C59.8512 15.0545 59.8215 15.0545 59.7917 15.0545C59.5734 15.0545 59.3452 15.0545 59.1071 15.0545C59.0773 15.0545 59.0475 15.0545 59.0078 15.0545C58.7796 15.0545 58.5514 15.0545 58.3133 15.0545C58.2438 15.0545 58.1744 15.0545 58.1049 15.0545C56.2296 15.0744 53.9971 15.1044 51.6455 15.1543C49.1848 15.2042 46.5851 15.2741 44.1343 15.3739C43.7275 15.3939 43.3207 15.4039 42.9238 15.4239C41.9217 15.4638 40.9592 15.5137 40.0464 15.5636C39.6693 15.5836 39.3022 15.6036 38.945 15.6335C37.5856 15.7233 36.385 15.8232 35.3928 15.933C35.2539 15.953 35.1249 15.9629 34.9959 15.9829C34.8769 16.0029 34.7677 16.0129 34.6586 16.0328C34.5494 16.0528 34.4403 16.0628 34.3311 16.0827C34.2914 16.0827 34.2617 16.0927 34.2319 16.1027C34.1625 16.1127 34.093 16.1227 34.0236 16.1426C33.9839 16.1426 33.9442 16.1526 33.9144 16.1626C33.8549 16.1726 33.7953 16.1826 33.7457 16.1926C33.706 16.1926 33.6763 16.2125 33.6465 16.2125C33.5969 16.2225 33.5473 16.2325 33.4977 16.2425C33.4679 16.2425 33.4381 16.2624 33.3984 16.2624C33.3588 16.2724 33.3091 16.2824 33.2695 16.2924C33.2397 16.2924 33.2099 16.3123 33.1901 16.3123C33.1504 16.3223 33.1206 16.3323 33.0809 16.3523C33.0611 16.3523 33.0313 16.3722 33.0115 16.3722C32.9817 16.3822 32.9519 16.4022 32.9222 16.4122C32.9123 16.4122 32.8924 16.4222 32.8726 16.4321C32.8329 16.4521 32.8031 16.4721 32.7733 16.492C31.1064 17.8198 29.9554 19.3672 29.1914 21.1541C28.9731 21.6633 28.7846 22.1924 28.6258 22.7315C28.4671 23.2805 28.3381 23.8396 28.2289 24.4286C27.971 25.8861 27.8618 27.4635 27.8618 29.1506C27.8618 29.2604 27.8618 29.3902 27.8618 29.5299C27.8618 29.5799 27.8618 29.6198 27.8618 29.6697C27.8618 29.7695 27.8717 29.8694 27.8817 29.9792C27.8817 30.0391 27.8817 30.099 27.8916 30.1589C27.8916 30.2687 27.9114 30.3785 27.9213 30.4983C27.9213 30.5582 27.9213 30.6181 27.9313 30.678C27.9313 30.698 27.9313 30.7179 27.9313 30.7379C27.9313 30.7579 27.9313 30.7778 27.9313 30.7978C27.9313 30.8577 27.9412 30.9076 27.9511 30.9675C27.9511 31.0374 27.961 31.1073 27.971 31.1871C27.971 31.257 27.9809 31.3169 27.9908 31.3868C27.9908 31.4267 27.9908 31.4667 28.0007 31.5066C28.0305 31.7761 28.0503 32.0457 28.0801 32.3152C28.0801 32.3352 28.0801 32.3452 28.0801 32.3651C28.1 32.5349 28.1099 32.7146 28.1297 32.8743C28.1297 32.9042 28.1297 32.9342 28.1297 32.9641C28.1396 33.0939 28.1496 33.2137 28.1595 33.3435C28.1595 33.4134 28.1694 33.4733 28.1694 33.5332C28.1694 33.5931 28.1694 33.643 28.1793 33.7029C28.1793 33.7628 28.1793 33.8227 28.1893 33.8826C28.1893 33.9325 28.1893 33.9824 28.1893 34.0223C28.1893 34.0922 28.1893 34.1521 28.1893 34.202C28.1893 34.232 28.1893 34.2719 28.1893 34.3019C28.1893 34.3917 28.1893 34.4716 28.1893 34.5415C28.1893 34.7311 28.1893 34.9408 28.1793 35.1604C28.1793 35.2303 28.1793 35.3201 28.1793 35.39C28.1793 35.5497 28.1793 35.7095 28.1793 35.8892C28.1793 35.9591 28.1793 36.0389 28.1793 36.1188C28.1793 36.3085 28.1793 36.4981 28.1793 36.6978C28.1793 36.7876 28.1793 36.8875 28.1793 36.9773C28.1793 37.167 28.1793 37.3567 28.1793 37.5464C28.1793 37.6662 28.1793 37.786 28.1793 37.9157C28.1793 38.1054 28.1793 38.3051 28.1793 38.5047C28.1793 38.6245 28.1793 38.7543 28.1793 38.8741C28.1793 39.1536 28.1793 39.4431 28.1793 39.7426C28.1793 39.7926 28.1793 39.8325 28.1793 39.8724C28.1793 40.6211 28.1694 41.4198 28.1595 42.2584C28.1595 42.3083 28.1595 42.3582 28.1595 42.3981C28.1595 42.7775 28.1595 43.1569 28.1595 43.5562C28.1595 43.6261 28.1595 43.6959 28.1595 43.7658C28.1595 44.1252 28.1595 44.4846 28.1595 44.854C28.1595 44.9838 28.1595 45.1135 28.1595 45.2433C28.1595 45.5728 28.1595 45.9022 28.1595 46.2416C28.1595 46.3714 28.1595 46.5012 28.1595 46.621C28.1595 47.0602 28.1595 47.4995 28.1595 47.9487C28.1595 47.9687 28.1595 47.9887 28.1595 48.0186C28.1595 50.0951 28.1396 52.3213 28.1396 54.6773C28.1396 55.2563 28.1396 55.8453 28.1396 56.4343C28.1396 56.4643 28.1396 56.4843 28.1396 56.5142C28.1396 57.0533 28.1396 57.6024 28.1396 58.1614C28.1396 58.2413 28.1396 58.3212 28.1396 58.411C28.1396 61.4758 28.1297 64.7003 28.1198 68.0147V68.0546C28.1198 71.409 28.1198 74.8631 28.1198 78.3372C28.1198 79.1259 28.1198 79.9245 28.1198 80.7232C28.1198 81.0926 28.1198 81.4519 28.1198 81.8213C28.1198 82.2306 28.1198 82.6399 28.1198 83.0592C28.1198 83.5484 28.1198 84.0276 28.1198 84.5168C28.1198 84.7863 28.1198 85.0558 28.1198 85.3254C28.1198 85.9343 28.1198 86.5433 28.1198 87.1523C28.1198 87.7912 28.1198 88.4201 28.1198 89.0491C28.1198 89.4284 28.1198 89.7978 28.1198 90.1772C28.1198 90.5765 28.1198 90.9758 28.1198 91.3751C28.1198 91.8543 28.1198 92.3335 28.1198 92.8027C28.1198 93.0223 28.1198 93.2519 28.1198 93.4716C28.1198 94.2303 28.1198 94.999 28.1198 95.7477C28.1198 96.2569 28.1198 96.766 28.1198 97.2651C28.1198 97.5247 28.1198 97.7843 28.1198 98.0438C28.1198 98.5729 28.1198 99.102 28.1198 99.6311C28.1198 99.9506 28.1198 100.28 28.1198 100.599C28.1198 101.099 28.1198 101.588 28.1198 102.077C28.1198 102.367 28.1198 102.646 28.1198 102.936C28.1198 103.684 28.1198 104.413 28.1198 105.152C28.1198 105.331 28.1198 105.501 28.1198 105.681C28.1198 106.22 28.1198 106.749 28.1198 107.278C28.1198 107.628 28.1198 107.977 28.1198 108.326C28.1198 108.696 28.1198 109.055 28.1198 109.415C28.1198 109.754 28.1198 110.093 28.1198 110.423C28.1198 111.102 28.1198 111.771 28.1198 112.439C28.1198 112.509 28.1198 112.579 28.1198 112.639C28.1198 113.258 28.1198 113.867 28.1198 114.466C28.1198 114.666 28.1198 114.875 28.1198 115.075C28.1198 115.554 28.1198 116.033 28.1198 116.503C28.1198 116.692 28.1198 116.882 28.1198 117.072C28.1198 117.71 28.1198 118.339 28.1198 118.948C28.1198 119.458 28.1198 119.957 28.1198 120.446C28.1198 120.965 28.1198 121.474 28.1198 121.963C28.1198 122.143 28.1198 122.323 28.1198 122.502C28.1198 122.812 28.1198 123.121 28.1198 123.411C28.1198 123.601 28.1198 123.77 28.1198 123.96C28.1198 124.259 28.1198 124.559 28.1198 124.848C28.1198 124.988 28.1198 125.128 28.1198 125.268C28.1198 125.567 28.1198 125.857 28.1198 126.136C28.1198 126.296 28.1198 126.446 28.1198 126.595C28.1198 126.845 28.1198 127.095 28.1198 127.334C28.1198 127.474 28.1198 127.614 28.1198 127.743C28.1198 127.993 28.1198 128.233 28.1198 128.472C28.1198 128.592 28.1198 128.722 28.1198 128.842C28.1198 129.061 28.1198 129.271 28.1198 129.481C28.1198 129.6 28.1198 129.72 28.1198 129.83C28.1198 130.129 28.1198 130.419 28.1297 130.688C28.1297 131.198 28.1496 131.637 28.1595 132.016C28.1595 132.206 28.1595 132.376 28.1694 132.535C28.1694 132.695 28.1694 132.825 28.1793 132.945C28.1793 133.064 28.1793 133.164 28.1893 133.254C28.1893 133.763 28.1893 134.282 28.1694 134.792C28.1694 134.851 28.1694 134.911 28.1694 134.971C28.1595 135.44 28.1496 135.92 28.1297 136.389V136.409C28.1099 137.168 28.09 137.926 28.09 138.695C28.09 138.715 28.09 138.745 28.09 138.765C28.09 138.805 28.09 138.835 28.09 138.875C28.09 138.954 28.09 139.044 28.09 139.124C28.09 139.274 28.09 139.424 28.09 139.563C28.09 139.653 28.09 139.743 28.09 139.833C28.09 139.983 28.09 140.122 28.1 140.272C28.1 140.362 28.1 140.452 28.1099 140.542C28.1099 140.702 28.1297 140.851 28.1297 141.011C28.1297 141.091 28.1297 141.171 28.1396 141.251C28.1496 141.45 28.1694 141.65 28.1893 141.86C28.1893 141.899 28.1893 141.939 28.1893 141.969C28.2091 142.209 28.2389 142.449 28.2587 142.698C28.2587 142.768 28.2786 142.828 28.2885 142.898C28.3083 143.077 28.3282 143.257 28.3579 143.437C28.3679 143.527 28.3877 143.617 28.3976 143.706C28.4175 143.866 28.4472 144.026 28.477 144.186C28.4968 144.285 28.5068 144.385 28.5266 144.485C28.5564 144.645 28.5861 144.805 28.6159 144.964C28.6358 145.064 28.6556 145.164 28.6754 145.264C28.7151 145.433 28.7449 145.603 28.7846 145.773C28.8044 145.873 28.8243 145.963 28.854 146.062C28.9037 146.262 28.9533 146.472 29.0128 146.671C29.0326 146.731 29.0426 146.791 29.0624 146.861C29.1418 147.131 29.2212 147.4 29.3005 147.68C29.3204 147.74 29.3402 147.809 29.3601 147.869C29.4295 148.079 29.499 148.299 29.5684 148.518C29.5982 148.618 29.6379 148.718 29.6776 148.818C29.747 149.007 29.8165 149.187 29.886 149.377C29.9257 149.487 29.9753 149.596 30.015 149.716C30.0844 149.896 30.1638 150.076 30.2332 150.265C30.2829 150.385 30.3325 150.495 30.3821 150.615C30.4615 150.804 30.5508 150.994 30.6401 151.184C30.6897 151.294 30.7393 151.403 30.7889 151.513C30.8881 151.733 30.9973 151.952 31.1064 152.172C31.1461 152.262 31.1858 152.342 31.2354 152.432C31.3941 152.741 31.5628 153.061 31.7315 153.38C31.7513 153.42 31.7811 153.47 31.801 153.51C31.9498 153.789 32.1086 154.059 32.2673 154.348C32.3268 154.458 32.3963 154.568 32.4658 154.678C32.5947 154.897 32.7237 155.117 32.8626 155.347C32.942 155.476 33.0214 155.596 33.1008 155.726C33.2397 155.936 33.3687 156.155 33.5175 156.375C33.6068 156.505 33.6961 156.644 33.7854 156.774C33.9342 156.994 34.0831 157.224 34.2418 157.443C34.3311 157.573 34.4204 157.703 34.5097 157.842C34.6784 158.092 34.8669 158.342 35.0455 158.591C35.1249 158.701 35.2043 158.811 35.2936 158.931C35.8294 159.669 36.4148 160.418 37.03 161.197C37.0498 161.227 37.0697 161.247 37.0895 161.267C37.2185 161.426 37.3574 161.596 37.4963 161.766C37.6253 161.926 37.7543 162.085 37.8833 162.245C38.052 162.455 38.2306 162.654 38.4092 162.864C38.5382 163.014 38.6672 163.173 38.7962 163.323C38.9946 163.553 39.203 163.782 39.4014 164.022C39.5205 164.162 39.6396 164.292 39.7586 164.431C40.0563 164.771 40.3639 165.1 40.6715 165.45C40.7112 165.49 40.7409 165.529 40.7806 165.569C40.9295 165.739 41.0882 165.889 41.237 166.039C41.4454 166.248 41.6339 166.458 41.8225 166.687C41.8522 166.727 41.8721 166.757 41.9018 166.797C42.0011 166.937 42.0904 167.087 42.1797 167.247C42.2094 167.296 42.2392 167.356 42.259 167.406C42.3186 167.526 42.3682 167.666 42.4178 167.806C42.4674 167.945 42.517 168.105 42.5567 168.275C42.5567 168.315 42.5765 168.345 42.5865 168.385C42.5865 168.385 42.5865 168.385 42.5865 168.395C42.6162 168.524 42.646 168.654 42.6659 168.804C42.6956 168.964 42.7155 169.133 42.7353 169.313C42.7353 169.333 42.7353 169.343 42.7353 169.363C42.7552 169.533 42.775 169.722 42.7849 169.912C42.7849 169.942 42.7849 169.962 42.7849 169.992C42.7948 170.182 42.8048 170.391 42.8147 170.601C42.8147 170.631 42.8147 170.651 42.8147 170.681C42.8147 170.9 42.8147 171.14 42.8147 171.38C42.8147 171.989 42.7849 172.667 42.7353 173.436C42.7155 173.775 42.6956 174.125 42.6956 174.494C42.6956 174.534 42.6956 174.574 42.6956 174.614C42.6956 174.664 42.6956 174.714 42.6956 174.764C42.6956 174.904 42.6956 175.043 42.6956 175.193C42.6956 175.313 42.6956 175.433 42.6956 175.552C42.6956 175.712 42.6956 175.862 42.7055 176.022C42.7055 176.131 42.7055 176.251 42.7155 176.361C42.7155 176.541 42.7353 176.73 42.7353 176.92C42.7353 177.01 42.7353 177.11 42.7452 177.2C42.7552 177.419 42.775 177.649 42.7849 177.869C42.7849 177.928 42.7849 177.998 42.7948 178.058C42.8147 178.328 42.8345 178.607 42.8643 178.887C42.8643 178.907 42.8643 178.927 42.8643 178.947C43.3207 184.128 44.5412 190.567 45.841 197.066C45.841 197.076 45.841 197.086 45.841 197.106C45.9799 197.805 46.1188 198.514 46.2676 199.212C46.6149 200.949 46.9622 202.686 47.2996 204.394C47.3392 204.613 47.3889 204.833 47.4285 205.042C47.5575 205.691 47.6865 206.34 47.8056 206.989C47.8254 207.099 47.8453 207.209 47.8651 207.319C47.9743 207.878 48.0735 208.427 48.1727 208.966C48.1926 209.086 48.2124 209.195 48.2322 209.315C48.4704 210.593 48.6887 211.851 48.8772 213.059C48.8772 213.059 48.8772 213.079 48.8772 213.089C49.0558 214.187 49.2146 215.255 49.3435 216.273C49.3435 216.333 49.3535 216.383 49.3634 216.443C49.413 216.852 49.4626 217.252 49.5122 217.651C49.5221 217.761 49.542 217.881 49.5519 217.991C49.6015 218.43 49.6412 218.859 49.6809 219.278C49.6809 219.278 49.6809 219.288 49.6809 219.298C49.7603 220.197 49.8099 221.045 49.8198 221.834C49.8198 222.223 49.8198 222.603 49.8198 222.962V222.982C49.8198 223.341 49.79 223.681 49.7702 224C49.4924 224.07 49.2642 224.2 49.0856 224.36C49.0856 224.36 49.0756 224.36 49.0657 224.37C49.0558 224.38 49.036 224.39 49.026 224.4C49.0161 224.41 49.0062 224.42 48.9963 224.44C48.9764 224.46 48.9665 224.48 48.9566 224.5C48.9268 224.529 48.897 224.569 48.8772 224.599C48.8276 224.679 48.778 224.759 48.7383 224.839C48.6986 224.919 48.6688 225.009 48.649 225.098C48.649 225.128 48.649 225.158 48.6391 225.178C48.6391 225.218 48.6192 225.268 48.6192 225.308C48.6093 225.388 48.5994 225.478 48.5994 225.568C48.5994 225.598 48.5994 225.638 48.5994 225.668C48.5994 225.687 48.5994 225.707 48.5994 225.727C48.5994 225.807 48.6192 225.897 48.6291 225.987C48.649 226.097 48.6688 226.217 48.6986 226.326C48.7184 226.386 48.7284 226.446 48.7482 226.506C48.7482 226.516 48.7482 226.526 48.7581 226.536C48.778 226.586 48.7978 226.646 48.8177 226.696C48.8177 226.716 48.8276 226.736 48.8375 226.746C48.8673 226.806 48.897 226.865 48.9268 226.925C49.036 227.135 49.155 227.345 49.3039 227.544C49.3138 227.564 49.3336 227.584 49.3535 227.604C49.3535 227.604 49.3634 227.624 49.3733 227.624C49.4328 227.694 49.4924 227.764 49.5519 227.834C49.6412 227.924 49.7404 228.024 49.8397 228.113L49.7702 229.781C49.4825 229.781 47.7361 230.01 47.6568 230.09C47.4881 230.26 47.6369 231.138 48.0834 231.967C48.4307 232.606 50.1869 235.94 52.2012 235.94H72.5716C74.5957 235.94 76.352 232.606 76.6893 231.967C77.1358 231.148 77.2847 230.26 77.116 230.09C77.0366 230.01 75.2903 229.781 75.0025 229.781L74.9331 228.123V228.113C75.0323 228.024 75.1315 227.934 75.2208 227.834C75.2903 227.764 75.3399 227.694 75.3994 227.624C75.3994 227.624 75.4094 227.604 75.4193 227.604C75.4391 227.584 75.449 227.564 75.4689 227.544C75.6177 227.345 75.7467 227.135 75.8459 226.925C75.8757 226.865 75.9055 226.806 75.9352 226.746C75.9352 226.726 75.9452 226.706 75.9551 226.696C75.9749 226.646 75.9948 226.586 76.0146 226.536C76.0146 226.526 76.0146 226.516 76.0245 226.506C76.0444 226.446 76.0543 226.386 76.0742 226.326C76.1039 226.207 76.1337 226.097 76.1436 225.987C76.1535 225.897 76.1634 225.817 76.1734 225.727C76.1734 225.707 76.1734 225.687 76.1734 225.668C76.1734 225.638 76.1734 225.598 76.1734 225.568C76.1734 225.478 76.1734 225.398 76.1535 225.308C76.1535 225.268 76.1436 225.218 76.1337 225.178C76.1337 225.148 76.1337 225.118 76.1238 225.098C76.1039 225.009 76.0742 224.919 76.0345 224.839C75.9948 224.749 75.9452 224.669 75.8955 224.599C75.8658 224.559 75.8459 224.529 75.8162 224.5C75.7963 224.48 75.7864 224.46 75.7765 224.44C75.7666 224.43 75.7566 224.42 75.7467 224.4C75.7368 224.39 75.717 224.38 75.707 224.37C75.707 224.37 75.6971 224.37 75.6872 224.36C75.5086 224.19 75.2804 224.07 75.0025 224C74.9728 223.681 74.9629 223.331 74.9529 222.982C74.9529 222.982 74.9529 222.972 74.9529 222.962C74.9529 222.593 74.9529 222.213 74.9529 221.824C74.9728 221.035 75.0224 220.187 75.0918 219.288C75.0918 219.288 75.0918 219.278 75.0918 219.268C75.1315 218.849 75.1712 218.42 75.2208 217.981C75.2308 217.871 75.2506 217.751 75.2605 217.641C75.3101 217.242 75.3498 216.842 75.4094 216.433C75.4094 216.373 75.4193 216.323 75.4292 216.263C75.5681 215.245 75.7269 214.177 75.8955 213.079C75.8955 213.079 75.8955 213.059 75.8955 213.049C76.094 211.841 76.3123 210.593 76.5405 209.305C76.5603 209.185 76.5802 209.076 76.6 208.956C76.6993 208.407 76.8084 207.858 76.9076 207.309C76.9275 207.199 76.9473 207.089 76.9672 206.979C77.0862 206.34 77.2152 205.691 77.3442 205.032C77.3839 204.813 77.4335 204.593 77.4732 204.384C77.8106 202.676 78.1578 200.939 78.5051 199.202C78.644 198.504 78.7829 197.795 78.9318 197.096C78.9318 197.086 78.9318 197.076 78.9318 197.056C80.2316 190.557 81.452 184.118 81.9085 178.937C81.9085 178.917 81.9085 178.897 81.9085 178.877C81.9283 178.597 81.9581 178.318 81.9779 178.048C81.9779 177.988 81.9779 177.918 81.9878 177.859C82.0077 177.629 82.0176 177.409 82.0275 177.19C82.0275 177.09 82.0275 177 82.0374 176.91C82.0374 176.72 82.0573 176.541 82.0573 176.351C82.0573 176.241 82.0573 176.121 82.0672 176.012C82.0672 175.852 82.0672 175.692 82.0771 175.542C82.0771 175.423 82.0771 175.303 82.0771 175.183C82.0771 175.043 82.0771 174.894 82.0771 174.754C82.0771 174.704 82.0771 174.654 82.0771 174.604C82.0771 174.564 82.0771 174.524 82.0771 174.484C82.0771 174.125 82.0573 173.765 82.0374 173.426C81.9878 172.657 81.9581 171.979 81.9581 171.37C81.9581 171.12 81.9581 170.89 81.9581 170.671C81.9581 170.641 81.9581 170.611 81.9581 170.591C81.9581 170.371 81.9779 170.172 81.9878 169.982C81.9878 169.952 81.9878 169.932 81.9878 169.902C81.9977 169.712 82.0176 169.523 82.0374 169.353C82.0374 169.333 82.0374 169.323 82.0374 169.303C82.0573 169.123 82.0871 168.954 82.1069 168.794C82.1367 168.654 82.1565 168.514 82.1863 168.385C82.1863 168.385 82.1863 168.385 82.1863 168.375C82.1863 168.335 82.2061 168.305 82.216 168.265C82.2557 168.095 82.3053 167.945 82.355 167.796C82.4046 167.656 82.4641 167.516 82.5137 167.396C82.5435 167.336 82.5633 167.286 82.5931 167.237C82.6824 167.067 82.7717 166.917 82.8709 166.787C82.9007 166.747 82.9205 166.717 82.9503 166.678C83.1289 166.438 83.3273 166.228 83.5357 166.029C83.6845 165.879 83.8334 165.729 83.9921 165.559C84.0318 165.519 84.0616 165.48 84.1013 165.44C84.4089 165.1 84.7165 164.761 85.0141 164.421C85.1332 164.282 85.2523 164.152 85.3713 164.012C85.5797 163.782 85.7781 163.543 85.9766 163.313C86.1056 163.153 86.2346 163.004 86.3636 162.854C86.5422 162.644 86.7208 162.435 86.8894 162.235C87.0184 162.075 87.1474 161.916 87.2764 161.756C87.4153 161.586 87.5542 161.426 87.6832 161.257C87.7031 161.227 87.7229 161.207 87.7427 161.187C88.3679 160.408 88.9433 159.659 89.4791 158.921C89.5585 158.811 89.6379 158.691 89.7272 158.581C89.9058 158.332 90.0844 158.082 90.263 157.832C90.3523 157.703 90.4416 157.573 90.5309 157.433C90.6897 157.204 90.8385 156.984 90.9873 156.764C91.0766 156.635 91.1659 156.495 91.2552 156.365C91.3941 156.145 91.5331 155.936 91.672 155.716C91.7513 155.586 91.8307 155.457 91.9101 155.337C92.049 155.107 92.178 154.887 92.307 154.668C92.3764 154.558 92.436 154.448 92.5054 154.338C92.6642 154.059 92.823 153.779 92.9718 153.5C92.9916 153.46 93.0214 153.41 93.0412 153.37C93.2099 153.051 93.3786 152.731 93.5374 152.422C93.577 152.332 93.6267 152.252 93.6664 152.162C93.7755 151.942 93.8846 151.723 93.9839 151.503C94.0335 151.393 94.0831 151.284 94.1327 151.174C94.222 150.984 94.3014 150.794 94.3907 150.605C94.4403 150.485 94.4899 150.375 94.5395 150.265C94.6189 150.086 94.6883 149.896 94.7677 149.716C94.8074 149.606 94.857 149.497 94.8967 149.387C94.9662 149.197 95.0356 149.017 95.1051 148.828C95.1448 148.728 95.1745 148.628 95.2142 148.528C95.2936 148.309 95.3631 148.099 95.4226 147.879C95.4424 147.819 95.4623 147.75 95.4821 147.69C95.5714 147.41 95.6508 147.141 95.7203 146.871C95.7401 146.811 95.75 146.751 95.7699 146.681C95.8294 146.472 95.879 146.272 95.9286 146.072C95.9485 145.973 95.9683 145.883 95.9981 145.783C96.0378 145.613 96.0775 145.443 96.1072 145.284C96.1271 145.184 96.1469 145.084 96.1668 144.984C96.1965 144.825 96.2263 144.665 96.2561 144.505C96.2759 144.405 96.2957 144.305 96.3057 144.206C96.3354 144.046 96.3553 143.886 96.385 143.726C96.395 143.637 96.4148 143.547 96.4247 143.457C96.4545 143.277 96.4743 143.097 96.4942 142.918C96.4942 142.848 96.514 142.788 96.514 142.718C96.5438 142.479 96.5636 142.229 96.5835 141.989C96.5835 141.949 96.5835 141.909 96.5835 141.88C96.6033 141.68 96.6133 141.47 96.6331 141.271C96.6331 141.191 96.6331 141.111 96.643 141.031C96.643 140.871 96.6629 140.721 96.6629 140.562C96.6629 140.472 96.6629 140.382 96.6728 140.292C96.6728 140.142 96.6728 140.003 96.6827 139.853C96.6827 139.763 96.6827 139.673 96.6827 139.583C96.6827 139.434 96.6827 139.284 96.6827 139.144C96.6827 139.064 96.6827 138.974 96.6827 138.895C96.6827 138.855 96.6827 138.825 96.6827 138.785C96.6827 138.765 96.6827 138.735 96.6827 138.715C96.6827 137.946 96.6629 137.187 96.643 136.429V136.409C96.6331 135.93 96.6133 135.45 96.6033 134.971C96.6033 134.921 96.6033 134.861 96.6033 134.812C96.5934 134.302 96.5835 133.783 96.5835 133.274C96.5835 133.194 96.5835 133.084 96.5934 132.965C96.5934 132.845 96.5934 132.705 96.6033 132.555C96.6033 132.396 96.6033 132.226 96.6133 132.036C96.6133 131.657 96.6331 131.218 96.643 130.708C96.643 130.439 96.643 130.149 96.653 129.85C96.653 129.74 96.653 129.62 96.653 129.501C96.653 129.291 96.653 129.081 96.653 128.862C96.653 128.742 96.653 128.622 96.653 128.492C96.653 128.253 96.653 128.013 96.653 127.763C96.653 127.634 96.653 127.494 96.653 127.354C96.653 127.115 96.653 126.865 96.653 126.615C96.653 126.466 96.653 126.306 96.653 126.156C96.653 125.877 96.653 125.587 96.653 125.288C96.653 125.148 96.653 125.008 96.653 124.868C96.653 124.579 96.653 124.279 96.653 123.98C96.653 123.8 96.653 123.62 96.653 123.431C96.653 123.131 96.653 122.822 96.653 122.522C96.653 122.343 96.653 122.173 96.653 121.983C96.653 121.484 96.653 120.985 96.653 120.466C96.653 119.977 96.653 119.477 96.653 118.968C96.653 118.359 96.653 117.73 96.653 117.092C96.653 116.902 96.653 116.712 96.653 116.523C96.653 116.053 96.653 115.584 96.653 115.095C96.653 114.895 96.653 114.696 96.653 114.486C96.653 113.887 96.653 113.278 96.653 112.659C96.653 112.589 96.653 112.519 96.653 112.459C96.653 111.801 96.653 111.132 96.653 110.443C96.653 110.113 96.653 109.774 96.653 109.435C96.653 109.075 96.653 108.706 96.653 108.346C96.653 107.997 96.653 107.648 96.653 107.298C96.653 106.769 96.653 106.24 96.653 105.701C96.653 105.521 96.653 105.351 96.653 105.172C96.653 104.443 96.653 103.704 96.653 102.955C96.653 102.676 96.653 102.386 96.653 102.097C96.653 101.608 96.653 101.119 96.653 100.619C96.653 100.3 96.653 99.9805 96.653 99.6511C96.653 99.122 96.653 98.5929 96.653 98.0638C96.653 97.8042 96.653 97.5447 96.653 97.2851C96.653 96.776 96.653 96.2768 96.653 95.7677C96.653 95.009 96.653 94.2503 96.653 93.4915C96.653 93.2719 96.653 93.0423 96.653 92.8227C96.653 92.3435 96.653 91.8743 96.653 91.3951C96.653 90.9958 96.653 90.5964 96.653 90.1971C96.653 89.8178 96.653 89.4484 96.653 89.069C96.653 88.4401 96.653 87.8012 96.653 87.1722C96.653 86.5633 96.653 85.9543 96.653 85.3453C96.653 85.0758 96.653 84.8063 96.653 84.5367C96.653 84.0475 96.653 83.5684 96.653 83.0792C96.653 82.6699 96.653 82.2606 96.653 81.8413C96.653 81.4719 96.653 81.1125 96.653 80.7431C96.653 79.9445 96.653 79.1558 96.653 78.3572C96.653 74.8731 96.653 71.4289 96.653 68.0746C96.653 68.0646 96.653 68.0547 96.653 68.0347C96.653 64.7103 96.653 61.4958 96.6331 58.431C96.6331 58.3511 96.6331 58.2612 96.6331 58.1814C96.6331 57.6323 96.6331 57.0833 96.6331 56.5342C96.6331 56.5042 96.6331 56.4843 96.6331 56.4543C96.6331 55.8653 96.6331 55.2763 96.6331 54.6973C96.6331 52.3413 96.6232 50.1151 96.6133 48.0386C96.6133 48.0186 96.6133 47.9986 96.6133 47.9687C96.6133 47.5195 96.6133 47.0802 96.6133 46.6409C96.6133 46.5112 96.6133 46.3814 96.6133 46.2616C96.6133 45.9222 96.6133 45.5827 96.6133 45.2633C96.6133 45.1335 96.6133 45.0037 96.6133 44.8739C96.6133 44.5046 96.6133 44.1352 96.6133 43.7858C96.6133 43.7159 96.6133 43.646 96.6133 43.5761C96.6133 43.1868 96.6133 42.7975 96.6133 42.4181C96.6133 42.3682 96.6133 42.3183 96.6133 42.2783C96.6133 41.4298 96.6033 40.6411 96.5934 39.8924C96.5934 39.8425 96.5934 39.8025 96.5934 39.7626C96.5934 39.4631 96.5934 39.1736 96.5934 38.8941C96.5934 38.7643 96.5934 38.6445 96.5934 38.5247C96.5934 38.325 96.5934 38.1254 96.5934 37.9357C96.5934 37.8159 96.5934 37.6861 96.5934 37.5663C96.5934 37.3667 96.5934 37.177 96.5934 36.9973C96.5934 36.9074 96.5934 36.8076 96.5934 36.7178C96.5934 36.5181 96.5934 36.3284 96.5934 36.1387C96.5934 36.0589 96.5934 35.989 96.5934 35.9091C96.5934 35.7394 96.5934 35.5697 96.5934 35.41C96.5934 35.3301 96.5934 35.2503 96.5934 35.1804C96.5934 34.9607 96.5934 34.7511 96.5835 34.5614C96.5835 34.4915 96.5835 34.4117 96.5835 34.3218C96.5835 34.2919 96.5835 34.2519 96.5835 34.222C96.5835 34.1621 96.5835 34.1022 96.5835 34.0423C96.5835 34.0024 96.5835 33.9525 96.5835 33.9025C96.5835 33.8426 96.5835 33.7827 96.5934 33.7228C96.5934 33.6729 96.5934 33.613 96.6033 33.5531C96.6033 33.4932 96.6033 33.4233 96.6232 33.3634C96.6232 33.2437 96.643 33.1139 96.653 32.9841C96.653 32.9541 96.653 32.9242 96.653 32.8942C96.6629 32.7245 96.6827 32.5548 96.7026 32.3851C96.7026 32.3651 96.7026 32.3552 96.7026 32.3352C96.7224 32.0656 96.7522 31.7961 96.7819 31.5266C96.7819 31.4866 96.7819 31.4467 96.7919 31.4068C96.7919 31.3369 96.8018 31.277 96.8117 31.2071C96.8117 31.1372 96.8216 31.0574 96.8316 30.9875C96.8316 30.9276 96.8415 30.8777 96.8514 30.8178C96.8514 30.7978 96.8514 30.7778 96.8514 30.7579C96.8514 30.7379 96.8514 30.7179 96.8514 30.698C96.8514 30.6381 96.8514 30.5782 96.8613 30.5183C96.8613 30.3985 96.8812 30.2887 96.8911 30.1788C96.8911 30.1189 96.8911 30.0591 96.901 29.9992C96.901 29.8893 96.9109 29.7895 96.9209 29.6897C96.9209 29.6398 96.9209 29.5898 96.9209 29.5499C96.9209 29.4102 96.9209 29.2804 96.9209 29.1706C96.9209 27.4734 96.8117 25.9061 96.5537 24.4386L97.0697 24.4286ZM72.9982 87.0125V73.8848H76.7489V96.0372H72.8196L66.5289 81.7415H66.4694V96.0372H62.7188V73.8848H67.2136L72.9387 87.0125H72.9982ZM76.7489 99.3915V121.544H72.8196L66.5289 107.248H66.4694V121.544H62.7188V99.3915H67.2136L72.9387 112.519H72.9982V99.3915H76.7489ZM57.45 48.4179H63.1752C67.8783 48.4179 70.5078 50.5044 70.6864 56.0849V62.8934C70.5078 68.4739 67.8883 70.5604 63.1752 70.5604H57.45V48.408V48.4179ZM58.0355 108.276V112.02H52.5782V117.85H60.0298V121.594H48.4704V99.4415H59.7322V103.185H52.5782V108.276H58.0355ZM48.4704 96.0772V73.9247H59.7322V77.6684H52.5782V82.7597H58.0355V86.5034H52.5782V92.3335H60.0298V96.0772H48.4704ZM40.0761 48.4179H44.5709L50.2961 61.5457H50.3556V48.4179H54.1062V70.5704H50.177L43.8863 56.2746H43.8268V70.5704H40.0761V48.4179ZM32.3963 48.4179H36.5041V70.5704H32.3963V48.4179ZM32.3963 73.9347H38.3298C43.3902 73.9347 45.8707 76.3905 45.8707 80.5634C45.8707 84.7364 43.4001 87.1922 38.3298 87.1922H36.514V96.0871H32.4062V73.9347H32.3963ZM35.3134 136.608C35.7798 137.128 36.4843 137.427 37.2582 137.427C38.6275 137.427 39.5999 136.569 39.9471 135.081V135.031H42.1697V135.111C41.7133 137.806 39.8479 139.484 37.2681 139.484C35.8691 139.484 34.6288 138.954 33.6663 137.966C32.3368 136.588 32.3368 135.011 32.3368 132.406V132.176C32.3368 129.56 32.3368 127.993 33.6663 126.615C34.6189 125.627 35.8691 125.098 37.2681 125.098C39.8678 125.098 41.6935 126.735 42.1598 129.471V129.55H39.9471V129.501C39.5899 128.013 38.6275 127.154 37.2681 127.154C36.5041 127.154 35.7897 127.454 35.3234 127.973C34.6784 128.702 34.5296 129.51 34.5296 132.296C34.5296 135.081 34.6784 135.89 35.3333 136.618L35.3134 136.608ZM38.1115 121.594H32.3864V99.4415H38.1115C42.8147 99.4415 45.4441 101.528 45.6227 107.108V113.917C45.4441 119.497 42.8246 121.584 38.1115 121.584V121.594ZM51.2883 139.354L48.4406 133.444H45.9898V139.354H43.797V125.198H49.1054C51.6554 125.198 53.372 126.875 53.372 129.361C53.372 131.208 52.3798 132.615 50.7029 133.124L53.8284 139.354H51.2784H51.2883ZM64.4849 139.354L63.5522 136.539H58.3232L57.3905 139.354H55.0588L55.0885 139.264L60.0596 125.208H61.8059L61.8258 125.258L66.8167 139.364H64.4849V139.354ZM77.0465 127.254H70.4581V131.387H76.0742V133.434H70.4581V139.354H68.2752V125.198H77.0465V127.244V127.254ZM73.4249 70.5704V48.4179H84.6867V52.1616H77.5327V57.253H82.99V60.9966H77.5327V66.8267H84.9844V70.5704H73.4249ZM88.1496 127.254H84.4287V139.354H82.2359V127.254H78.515V125.208H88.1396V127.254H88.1496ZM92.8825 103.185H88.09V121.594H83.9822V103.185H79.1897V99.4415H92.8924V103.185H92.8825Z" fill="#333333"/>
<path d="M66.5685 62.4042V56.5741C66.5685 53.4494 65.5564 52.1616 62.9964 52.1616H61.5676V66.8267H62.9964C65.2587 66.8267 66.5685 65.7186 66.5685 62.4142V62.4042Z" fill="#333333"/>
<path d="M115.277 226.995H116.865C117.202 226.995 117.48 227.085 117.698 227.265C117.956 227.464 118.095 227.764 118.105 228.143C118.105 228.702 117.837 229.082 117.321 229.281L118.264 231.098H117.529L116.686 229.351H115.902V231.098H115.287V227.005L115.277 226.995ZM115.892 228.792H116.825C117.053 228.792 117.232 228.722 117.341 228.593C117.45 228.473 117.509 228.323 117.509 228.143C117.509 227.934 117.44 227.774 117.301 227.684C117.192 227.604 117.043 227.554 116.845 227.554H115.882V228.792H115.892Z" fill="#333333"/>
<path d="M116.577 226.087C118.224 226.087 119.563 227.435 119.563 229.092C119.563 230.749 118.224 232.097 116.577 232.097C114.93 232.097 113.59 230.749 113.59 229.092C113.59 227.435 114.93 226.087 116.577 226.087ZM116.577 225.658C114.692 225.658 113.164 227.195 113.164 229.092C113.164 230.988 114.692 232.526 116.577 232.526C118.462 232.526 119.99 230.988 119.99 229.092C119.99 227.195 118.462 225.658 116.577 225.658Z" fill="#333333"/>
</g>
<defs>
<clipPath id="clip0_2063_23">
<rect width="120" height="236" fill="white"/>
</clipPath>
</defs>
</svg>
