<?xml version="1.0" encoding="utf-8"?>
<!-- Generator: Adobe Illustrator 25.2.1, SVG Export Plug-In . SVG Version: 6.00 Build 0)  -->
<svg version="1.1" id="Layer_1" xmlns="http://www.w3.org/2000/svg" xmlns:xlink="http://www.w3.org/1999/xlink" x="0px" y="0px"
	 viewBox="0 0 25 50" style="enable-background:new 0 0 25 50;" xml:space="preserve">
<style type="text/css">
	.st0{fill:#3E3F55;}
	.st1{fill:#696A8F;}
	.st2{fill:#8D8E8F;}
</style>
<path class="st0" d="M24.9,7.3c0-1-0.2-2-0.6-3c-0.6-1.7-2-3-3.7-3.7c-1-0.4-2-0.6-3-0.6C16.3,0,15.9,0,12.5,0S8.7,0,7.3,0.1
	c-1,0-2,0.2-3,0.6C3.5,1,2.7,1.5,2.1,2.1C1.5,2.7,1,3.5,0.7,4.3c-0.4,1-0.6,2-0.6,3C0,8.7,0,9.1,0,12.5s0,3.8,0.1,5.1
	c0,1,0.2,2,0.6,3c0.3,0.8,0.8,1.6,1.4,2.2c0.6,0.6,1.4,1.1,2.2,1.5c1,0.4,2,0.6,3,0.6C8.7,25,9.1,25,12.5,25s3.8,0,5.1-0.1
	c1,0,2-0.2,3-0.6c1.7-0.7,3-2,3.7-3.7c0.4-1,0.6-2,0.6-3c0.1-1.4,0.1-1.8,0.1-5.2S25,8.7,24.9,7.3z M22.7,17.6
	c0,0.8-0.1,1.6-0.4,2.3c-0.4,1.1-1.3,2-2.4,2.4c-0.7,0.3-1.5,0.4-2.3,0.4c-1.3,0.1-1.7,0.1-5,0.1s-3.7,0-5-0.1
	c-0.8,0-1.6-0.2-2.3-0.4c-0.5-0.2-1-0.5-1.4-0.9c-0.4-0.4-0.7-0.9-0.9-1.4c-0.3-0.7-0.4-1.5-0.4-2.3c-0.1-1.3-0.1-1.7-0.1-5
	s0-3.7,0.1-5c0-0.8,0.2-1.6,0.4-2.3c0.2-0.5,0.5-1,0.9-1.4c0.4-0.4,0.9-0.7,1.4-0.9C6,2.6,6.8,2.5,7.6,2.4c1.3,0,1.7-0.1,5.1-0.1
	s3.7,0,5.1,0.1c0.8,0,1.6,0.2,2.3,0.4c0.5,0.2,1,0.5,1.4,0.9c0.4,0.4,0.7,0.9,0.9,1.4c0.3,0.7,0.4,1.5,0.4,2.3
	c0.1,1.3,0.1,1.7,0.1,5.1S22.7,16.2,22.7,17.6z"/>
<path class="st0" d="M12.5,6.1C9,6.1,6.1,9,6.1,12.5c0,3.5,2.9,6.4,6.4,6.4c3.5,0,6.4-2.9,6.4-6.4C18.9,9,16,6.1,12.5,6.1z
	 M12.5,16.7c-2.3,0-4.2-1.9-4.2-4.2s1.9-4.2,4.2-4.2s4.2,1.9,4.2,4.2l0,0C16.7,14.8,14.8,16.7,12.5,16.7z"/>
<path class="st0" d="M20.7,5.8c0,0.8-0.7,1.5-1.5,1.5s-1.5-0.7-1.5-1.5s0.7-1.5,1.5-1.5S20.7,5,20.7,5.8z"/>
<path class="st1" d="M24.9,32.3c0-1-0.2-2-0.6-3c-0.7-1.7-2-3-3.7-3.7c-1-0.4-2-0.6-3-0.6C16.3,25,15.9,25,12.5,25s-3.8,0-5.2,0.1
	c-1,0-2,0.2-3,0.6c-1.7,0.6-3,2-3.7,3.7c-0.4,1-0.6,2-0.6,3C0,33.7,0,34.1,0,37.5s0,3.8,0.1,5.2c0,1,0.2,2,0.6,3
	c0.3,0.8,0.8,1.6,1.4,2.2c0.6,0.6,1.4,1.1,2.2,1.5c1,0.4,2,0.6,3,0.6C8.7,50,9.1,50,12.5,50s3.8,0,5.1-0.1c1,0,2-0.2,3-0.6
	c1.7-0.7,3-2,3.7-3.7c0.4-1,0.6-2,0.6-3c0.1-1.4,0.1-1.8,0.1-5.2S25,33.7,24.9,32.3z M22.7,42.6c0,0.8-0.1,1.6-0.4,2.3
	c-0.4,1.1-1.3,2-2.4,2.4c-0.7,0.3-1.5,0.4-2.3,0.4c-1.3,0.1-1.7,0.1-5,0.1s-3.7,0-5-0.1c-0.8,0-1.6-0.2-2.3-0.4
	c-0.5-0.2-1-0.5-1.4-0.9c-0.4-0.4-0.7-0.9-0.9-1.4c-0.3-0.7-0.4-1.5-0.4-2.3c-0.1-1.3-0.1-1.7-0.1-5s0-3.7,0.1-5
	c0-0.8,0.2-1.6,0.4-2.3c0.2-0.5,0.5-1,0.9-1.4c0.4-0.4,0.9-0.7,1.4-0.9c0.7-0.3,1.5-0.4,2.3-0.4c1.3,0,1.7-0.1,5.1-0.1
	s3.7,0,5.1,0.1c0.8,0,1.6,0.2,2.3,0.4c1.1,0.4,1.9,1.3,2.4,2.4c0.3,0.7,0.4,1.5,0.4,2.3c0.1,1.3,0.1,1.7,0.1,5S22.7,41.2,22.7,42.6z
	"/>
<path class="st1" d="M12.5,31.1c-3.5,0-6.4,2.9-6.4,6.4c0,3.5,2.9,6.4,6.4,6.4c3.5,0,6.4-2.9,6.4-6.4C18.9,34,16,31.1,12.5,31.1z
	 M12.5,41.7c-2.3,0-4.2-1.9-4.2-4.2c0-2.3,1.9-4.2,4.2-4.2s4.2,1.9,4.2,4.2c0,0,0,0,0,0C16.7,39.8,14.8,41.7,12.5,41.7z"/>
<path class="st2" d="M20.7,30.8c0,0.8-0.7,1.5-1.5,1.5s-1.5-0.7-1.5-1.5s0.7-1.5,1.5-1.5S20.7,30,20.7,30.8z"/>
</svg>
