<svg id="Layer_1" data-name="Layer 1" xmlns="http://www.w3.org/2000/svg" viewBox="0 0 25 50"><defs><style>.cls-1{fill:#f2f2f2;}.cls-2{fill:#8d8e8f;}</style></defs><path class="cls-1" d="M24.94,7.35a9.34,9.34,0,0,0-.58-3A6.42,6.42,0,0,0,20.7.66a9.2,9.2,0,0,0-3-.58C16.32,0,15.9,0,12.5,0S8.69,0,7.35.07a9.34,9.34,0,0,0-3,.58A6.19,6.19,0,0,0,2.1,2.1,6.22,6.22,0,0,0,.66,4.31a9.2,9.2,0,0,0-.58,3C0,8.68,0,9.11,0,12.5s0,3.82.07,5.15a9.41,9.41,0,0,0,.58,3A6.2,6.2,0,0,0,2.1,22.9a6.24,6.24,0,0,0,2.21,1.45,9.47,9.47,0,0,0,3,.58C8.68,25,9.11,25,12.5,25s3.82,0,5.15-.07a9.41,9.41,0,0,0,3-.58,6.4,6.4,0,0,0,3.66-3.66,9.47,9.47,0,0,0,.58-3C25,16.32,25,15.9,25,12.5S25,8.68,24.94,7.35ZM22.68,17.56a6.55,6.55,0,0,1-.43,2.32,4.13,4.13,0,0,1-2.37,2.37,6.79,6.79,0,0,1-2.32.43c-1.32.06-1.71.07-5,.07s-3.74,0-5-.07a6.79,6.79,0,0,1-2.32-.43,3.93,3.93,0,0,1-1.44-.93,4,4,0,0,1-.93-1.44,6.79,6.79,0,0,1-.43-2.32c-.06-1.32-.07-1.71-.07-5s0-3.73.07-5a6.79,6.79,0,0,1,.43-2.32,3.79,3.79,0,0,1,.94-1.43,3.79,3.79,0,0,1,1.43-.94,7.11,7.11,0,0,1,2.32-.43c1.32,0,1.72-.07,5.05-.07s3.74,0,5.06.07a7,7,0,0,1,2.32.43,3.79,3.79,0,0,1,1.43.94,3.77,3.77,0,0,1,.93,1.43,6.6,6.6,0,0,1,.43,2.32c.06,1.32.08,1.72.08,5.05S22.74,16.24,22.68,17.56Z"/><path class="cls-1" d="M12.5,6.08a6.42,6.42,0,1,0,6.43,6.42A6.43,6.43,0,0,0,12.5,6.08Zm0,10.59a4.17,4.17,0,1,1,4.17-4.17A4.17,4.17,0,0,1,12.5,16.67Z"/><path class="cls-1" d="M20.68,5.83a1.5,1.5,0,1,1-1.5-1.5A1.5,1.5,0,0,1,20.68,5.83Z"/><path class="cls-2" d="M24.94,32.35a9.34,9.34,0,0,0-.58-3,6.42,6.42,0,0,0-3.66-3.66,9.2,9.2,0,0,0-3-.58C16.32,25,15.9,25,12.5,25s-3.81,0-5.15.07a9.34,9.34,0,0,0-3,.58A6.42,6.42,0,0,0,.66,29.31a9.2,9.2,0,0,0-.58,3C0,33.68,0,34.11,0,37.5s0,3.82.07,5.15a9.41,9.41,0,0,0,.58,3A6.2,6.2,0,0,0,2.1,47.9a6.24,6.24,0,0,0,2.21,1.45,9.47,9.47,0,0,0,3,.58C8.68,50,9.11,50,12.5,50s3.82,0,5.15-.07a9.41,9.41,0,0,0,3-.58,6.4,6.4,0,0,0,3.66-3.66,9.47,9.47,0,0,0,.58-3C25,41.32,25,40.9,25,37.5S25,33.68,24.94,32.35ZM22.68,42.56a6.55,6.55,0,0,1-.43,2.32,4.13,4.13,0,0,1-2.37,2.37,6.79,6.79,0,0,1-2.32.43c-1.32.06-1.71.07-5,.07s-3.74,0-5-.07a6.79,6.79,0,0,1-2.32-.43,3.93,3.93,0,0,1-1.44-.93,4,4,0,0,1-.93-1.44,6.79,6.79,0,0,1-.43-2.32c-.06-1.32-.07-1.71-.07-5.05s0-3.73.07-5a6.79,6.79,0,0,1,.43-2.32,3.79,3.79,0,0,1,.94-1.43,3.79,3.79,0,0,1,1.43-.94,7.11,7.11,0,0,1,2.32-.43c1.32-.05,1.72-.07,5.05-.07s3.74,0,5.06.07a7,7,0,0,1,2.32.43,4.17,4.17,0,0,1,2.36,2.37,6.6,6.6,0,0,1,.43,2.32c.06,1.32.08,1.72.08,5S22.74,41.24,22.68,42.56Z"/><path class="cls-2" d="M12.5,31.08a6.42,6.42,0,1,0,6.43,6.42A6.43,6.43,0,0,0,12.5,31.08Zm0,10.59a4.17,4.17,0,1,1,4.17-4.17A4.17,4.17,0,0,1,12.5,41.67Z"/><path class="cls-2" d="M20.68,30.83a1.5,1.5,0,1,1-1.5-1.5A1.5,1.5,0,0,1,20.68,30.83Z"/></svg>